<svg width="717" height="491" viewBox="0 0 717 491" fill="none" xmlns="http://www.w3.org/2000/svg">
<g filter="url(#filter0_dd_2_1855)">
<rect x="20" y="43" width="649" height="386" rx="10" fill="#F8F8F8" fill-opacity="0.01" shape-rendering="crispEdges"/>
</g>
<g filter="url(#filter1_b_2_1855)">
<rect x="20" y="43" width="649" height="386" rx="10" fill="#F8F8F8" fill-opacity="0.9"/>
</g>
<mask id="path-3-inside-1_2_1855" fill="white">
<path d="M20 340H669V53C669 47.4771 664.523 43 659 43H30C24.4772 43 20 47.4771 20 53V340Z"/>
</mask>
<path d="M20 340H669V53C669 47.4771 664.523 43 659 43H30C24.4772 43 20 47.4771 20 53V340Z" fill="white"/>
<path d="M20 343H669V337H20V343ZM669 43H20H669ZM20 43V340V43ZM669 340V43V340Z" fill="#F3F0F0" mask="url(#path-3-inside-1_2_1855)"/>
<path d="M189.731 215V197.545H191.844V213.125H199.958V215H189.731ZM208.276 215.273C207.094 215.273 206.058 214.991 205.165 214.429C204.279 213.866 203.586 213.08 203.086 212.068C202.592 211.057 202.344 209.875 202.344 208.523C202.344 207.159 202.592 205.969 203.086 204.952C203.586 203.935 204.279 203.145 205.165 202.582C206.058 202.02 207.094 201.739 208.276 201.739C209.458 201.739 210.492 202.02 211.379 202.582C212.271 203.145 212.964 203.935 213.458 204.952C213.958 205.969 214.208 207.159 214.208 208.523C214.208 209.875 213.958 211.057 213.458 212.068C212.964 213.08 212.271 213.866 211.379 214.429C210.492 214.991 209.458 215.273 208.276 215.273ZM208.276 213.466C209.174 213.466 209.913 213.236 210.492 212.776C211.072 212.315 211.501 211.71 211.779 210.96C212.058 210.21 212.197 209.398 212.197 208.523C212.197 207.648 212.058 206.832 211.779 206.077C211.501 205.321 211.072 204.71 210.492 204.244C209.913 203.778 209.174 203.545 208.276 203.545C207.379 203.545 206.64 203.778 206.06 204.244C205.481 204.71 205.052 205.321 204.773 206.077C204.495 206.832 204.356 207.648 204.356 208.523C204.356 209.398 204.495 210.21 204.773 210.96C205.052 211.71 205.481 212.315 206.06 212.776C206.64 213.236 207.379 213.466 208.276 213.466ZM217.278 215V201.909H219.222V203.886H219.358C219.597 203.239 220.028 202.713 220.653 202.31C221.278 201.906 221.983 201.705 222.767 201.705C222.915 201.705 223.099 201.707 223.321 201.713C223.543 201.719 223.71 201.727 223.824 201.739V203.784C223.756 203.767 223.599 203.741 223.355 203.707C223.116 203.668 222.864 203.648 222.597 203.648C221.96 203.648 221.392 203.781 220.892 204.048C220.398 204.31 220.006 204.673 219.716 205.139C219.432 205.599 219.29 206.125 219.29 206.716V215H217.278ZM231.298 215.273C230.037 215.273 228.949 214.994 228.034 214.438C227.125 213.875 226.423 213.091 225.929 212.085C225.44 211.074 225.196 209.898 225.196 208.557C225.196 207.216 225.44 206.034 225.929 205.011C226.423 203.983 227.111 203.182 227.991 202.608C228.878 202.028 229.912 201.739 231.094 201.739C231.776 201.739 232.449 201.852 233.114 202.08C233.778 202.307 234.384 202.676 234.929 203.188C235.474 203.693 235.909 204.364 236.233 205.199C236.557 206.034 236.719 207.062 236.719 208.284V209.136H226.628V207.398H234.673C234.673 206.659 234.526 206 234.23 205.42C233.94 204.841 233.526 204.384 232.986 204.048C232.452 203.713 231.821 203.545 231.094 203.545C230.293 203.545 229.599 203.744 229.014 204.142C228.435 204.534 227.989 205.045 227.676 205.676C227.364 206.307 227.207 206.983 227.207 207.705V208.864C227.207 209.852 227.378 210.69 227.719 211.378C228.065 212.06 228.545 212.58 229.159 212.938C229.773 213.29 230.486 213.466 231.298 213.466C231.827 213.466 232.304 213.392 232.73 213.244C233.162 213.091 233.534 212.864 233.847 212.562C234.159 212.256 234.401 211.875 234.571 211.42L236.514 211.966C236.31 212.625 235.966 213.205 235.483 213.705C235 214.199 234.403 214.585 233.693 214.864C232.983 215.136 232.185 215.273 231.298 215.273ZM239.778 215V201.909H241.722V203.955H241.892C242.165 203.256 242.605 202.713 243.213 202.327C243.821 201.935 244.551 201.739 245.403 201.739C246.267 201.739 246.986 201.935 247.56 202.327C248.139 202.713 248.591 203.256 248.915 203.955H249.051C249.386 203.278 249.889 202.741 250.56 202.344C251.23 201.94 252.034 201.739 252.972 201.739C254.142 201.739 255.099 202.105 255.844 202.838C256.588 203.565 256.96 204.699 256.96 206.239V215H254.949V206.239C254.949 205.273 254.685 204.582 254.156 204.168C253.628 203.753 253.006 203.545 252.29 203.545C251.369 203.545 250.656 203.824 250.151 204.381C249.645 204.932 249.392 205.631 249.392 206.477V215H247.347V206.034C247.347 205.29 247.105 204.69 246.622 204.236C246.139 203.776 245.517 203.545 244.756 203.545C244.233 203.545 243.744 203.685 243.29 203.963C242.841 204.241 242.477 204.628 242.199 205.122C241.926 205.611 241.79 206.176 241.79 206.818V215H239.778ZM267.388 215V201.909H269.399V215H267.388ZM268.411 199.727C268.018 199.727 267.68 199.594 267.396 199.327C267.118 199.06 266.979 198.739 266.979 198.364C266.979 197.989 267.118 197.668 267.396 197.401C267.68 197.134 268.018 197 268.411 197C268.803 197 269.138 197.134 269.416 197.401C269.7 197.668 269.842 197.989 269.842 198.364C269.842 198.739 269.7 199.06 269.416 199.327C269.138 199.594 268.803 199.727 268.411 199.727ZM273.083 219.909V201.909H275.026V203.989H275.265C275.413 203.761 275.617 203.472 275.879 203.119C276.146 202.761 276.526 202.443 277.021 202.165C277.521 201.881 278.197 201.739 279.049 201.739C280.151 201.739 281.123 202.014 281.964 202.565C282.805 203.116 283.461 203.898 283.933 204.909C284.404 205.92 284.64 207.114 284.64 208.489C284.64 209.875 284.404 211.077 283.933 212.094C283.461 213.105 282.808 213.889 281.972 214.446C281.137 214.997 280.174 215.273 279.083 215.273C278.242 215.273 277.569 215.134 277.063 214.855C276.558 214.571 276.168 214.25 275.896 213.892C275.623 213.528 275.413 213.227 275.265 212.989H275.094V219.909H273.083ZM275.06 208.455C275.06 209.443 275.205 210.315 275.495 211.071C275.785 211.821 276.208 212.409 276.765 212.835C277.322 213.256 278.004 213.466 278.81 213.466C279.651 213.466 280.353 213.244 280.915 212.801C281.484 212.352 281.91 211.75 282.194 210.994C282.484 210.233 282.629 209.386 282.629 208.455C282.629 207.534 282.487 206.705 282.202 205.966C281.924 205.222 281.501 204.634 280.933 204.202C280.37 203.764 279.663 203.545 278.81 203.545C277.992 203.545 277.305 203.753 276.748 204.168C276.191 204.577 275.771 205.151 275.487 205.889C275.202 206.622 275.06 207.477 275.06 208.455ZM296.981 204.841L295.174 205.352C295.06 205.051 294.893 204.759 294.671 204.474C294.455 204.185 294.16 203.946 293.785 203.759C293.41 203.571 292.93 203.477 292.344 203.477C291.543 203.477 290.876 203.662 290.342 204.031C289.813 204.395 289.549 204.858 289.549 205.42C289.549 205.92 289.731 206.315 290.094 206.605C290.458 206.895 291.026 207.136 291.799 207.33L293.742 207.807C294.913 208.091 295.785 208.526 296.359 209.111C296.933 209.69 297.219 210.437 297.219 211.352C297.219 212.102 297.004 212.773 296.572 213.364C296.146 213.955 295.549 214.42 294.782 214.761C294.015 215.102 293.123 215.273 292.106 215.273C290.771 215.273 289.665 214.983 288.79 214.403C287.915 213.824 287.362 212.977 287.129 211.864L289.038 211.386C289.219 212.091 289.563 212.619 290.069 212.972C290.58 213.324 291.248 213.5 292.072 213.5C293.009 213.5 293.754 213.301 294.305 212.903C294.862 212.5 295.14 212.017 295.14 211.455C295.14 211 294.981 210.619 294.663 210.312C294.344 210 293.856 209.767 293.197 209.614L291.015 209.102C289.816 208.818 288.935 208.378 288.373 207.781C287.816 207.179 287.538 206.426 287.538 205.523C287.538 204.784 287.745 204.131 288.16 203.562C288.58 202.994 289.151 202.548 289.873 202.224C290.6 201.901 291.424 201.739 292.344 201.739C293.64 201.739 294.657 202.023 295.396 202.591C296.14 203.159 296.668 203.909 296.981 204.841ZM308.497 209.648V201.909H310.509V215H308.497V212.784H308.361C308.054 213.449 307.577 214.014 306.929 214.48C306.281 214.94 305.463 215.17 304.474 215.17C303.656 215.17 302.929 214.991 302.293 214.634C301.656 214.27 301.156 213.724 300.793 212.997C300.429 212.264 300.247 211.341 300.247 210.227V201.909H302.259V210.091C302.259 211.045 302.526 211.807 303.06 212.375C303.599 212.943 304.287 213.227 305.122 213.227C305.622 213.227 306.131 213.099 306.648 212.844C307.17 212.588 307.608 212.196 307.96 211.668C308.318 211.139 308.497 210.466 308.497 209.648ZM314.192 215V201.909H316.136V203.955H316.306C316.579 203.256 317.019 202.713 317.627 202.327C318.235 201.935 318.965 201.739 319.817 201.739C320.681 201.739 321.4 201.935 321.974 202.327C322.553 202.713 323.005 203.256 323.329 203.955H323.465C323.8 203.278 324.303 202.741 324.974 202.344C325.644 201.94 326.448 201.739 327.386 201.739C328.556 201.739 329.513 202.105 330.258 202.838C331.002 203.565 331.374 204.699 331.374 206.239V215H329.363V206.239C329.363 205.273 329.099 204.582 328.57 204.168C328.042 203.753 327.42 203.545 326.704 203.545C325.783 203.545 325.07 203.824 324.565 204.381C324.059 204.932 323.806 205.631 323.806 206.477V215H321.761V206.034C321.761 205.29 321.519 204.69 321.036 204.236C320.553 203.776 319.931 203.545 319.17 203.545C318.647 203.545 318.158 203.685 317.704 203.963C317.255 204.241 316.891 204.628 316.613 205.122C316.34 205.611 316.204 206.176 316.204 206.818V215H314.192ZM346.745 215.273C345.654 215.273 344.691 214.997 343.856 214.446C343.021 213.889 342.367 213.105 341.896 212.094C341.424 211.077 341.188 209.875 341.188 208.489C341.188 207.114 341.424 205.92 341.896 204.909C342.367 203.898 343.023 203.116 343.864 202.565C344.705 202.014 345.677 201.739 346.779 201.739C347.631 201.739 348.305 201.881 348.799 202.165C349.299 202.443 349.68 202.761 349.941 203.119C350.208 203.472 350.415 203.761 350.563 203.989H350.734V197.545H352.745V215H350.802V212.989H350.563C350.415 213.227 350.205 213.528 349.933 213.892C349.66 214.25 349.271 214.571 348.765 214.855C348.259 215.134 347.586 215.273 346.745 215.273ZM347.018 213.466C347.825 213.466 348.506 213.256 349.063 212.835C349.62 212.409 350.043 211.821 350.333 211.071C350.623 210.315 350.768 209.443 350.768 208.455C350.768 207.477 350.626 206.622 350.342 205.889C350.058 205.151 349.637 204.577 349.08 204.168C348.523 203.753 347.836 203.545 347.018 203.545C346.165 203.545 345.455 203.764 344.887 204.202C344.325 204.634 343.901 205.222 343.617 205.966C343.339 206.705 343.2 207.534 343.2 208.455C343.2 209.386 343.342 210.233 343.626 210.994C343.915 211.75 344.342 212.352 344.904 212.801C345.472 213.244 346.177 213.466 347.018 213.466ZM362.026 215.273C360.844 215.273 359.808 214.991 358.915 214.429C358.029 213.866 357.336 213.08 356.836 212.068C356.342 211.057 356.094 209.875 356.094 208.523C356.094 207.159 356.342 205.969 356.836 204.952C357.336 203.935 358.029 203.145 358.915 202.582C359.808 202.02 360.844 201.739 362.026 201.739C363.208 201.739 364.242 202.02 365.129 202.582C366.021 203.145 366.714 203.935 367.208 204.952C367.708 205.969 367.958 207.159 367.958 208.523C367.958 209.875 367.708 211.057 367.208 212.068C366.714 213.08 366.021 213.866 365.129 214.429C364.242 214.991 363.208 215.273 362.026 215.273ZM362.026 213.466C362.924 213.466 363.663 213.236 364.242 212.776C364.822 212.315 365.251 211.71 365.529 210.96C365.808 210.21 365.947 209.398 365.947 208.523C365.947 207.648 365.808 206.832 365.529 206.077C365.251 205.321 364.822 204.71 364.242 204.244C363.663 203.778 362.924 203.545 362.026 203.545C361.129 203.545 360.39 203.778 359.81 204.244C359.231 204.71 358.802 205.321 358.523 206.077C358.245 206.832 358.106 207.648 358.106 208.523C358.106 209.398 358.245 210.21 358.523 210.96C358.802 211.71 359.231 212.315 359.81 212.776C360.39 213.236 361.129 213.466 362.026 213.466ZM373.04 197.545V215H371.028V197.545H373.04ZM382.042 215.273C380.86 215.273 379.823 214.991 378.931 214.429C378.045 213.866 377.352 213.08 376.852 212.068C376.357 211.057 376.11 209.875 376.11 208.523C376.11 207.159 376.357 205.969 376.852 204.952C377.352 203.935 378.045 203.145 378.931 202.582C379.823 202.02 380.86 201.739 382.042 201.739C383.224 201.739 384.258 202.02 385.144 202.582C386.036 203.145 386.729 203.935 387.224 204.952C387.724 205.969 387.974 207.159 387.974 208.523C387.974 209.875 387.724 211.057 387.224 212.068C386.729 213.08 386.036 213.866 385.144 214.429C384.258 214.991 383.224 215.273 382.042 215.273ZM382.042 213.466C382.94 213.466 383.678 213.236 384.258 212.776C384.837 212.315 385.266 211.71 385.545 210.96C385.823 210.21 385.962 209.398 385.962 208.523C385.962 207.648 385.823 206.832 385.545 206.077C385.266 205.321 384.837 204.71 384.258 204.244C383.678 203.778 382.94 203.545 382.042 203.545C381.144 203.545 380.406 203.778 379.826 204.244C379.246 204.71 378.817 205.321 378.539 206.077C378.261 206.832 378.121 207.648 378.121 208.523C378.121 209.398 378.261 210.21 378.539 210.96C378.817 211.71 379.246 212.315 379.826 212.776C380.406 213.236 381.144 213.466 382.042 213.466ZM391.044 215V201.909H392.987V203.886H393.124C393.362 203.239 393.794 202.713 394.419 202.31C395.044 201.906 395.749 201.705 396.533 201.705C396.68 201.705 396.865 201.707 397.087 201.713C397.308 201.719 397.476 201.727 397.589 201.739V203.784C397.521 203.767 397.365 203.741 397.121 203.707C396.882 203.668 396.629 203.648 396.362 203.648C395.726 203.648 395.158 203.781 394.658 204.048C394.163 204.31 393.771 204.673 393.482 205.139C393.197 205.599 393.055 206.125 393.055 206.716V215H391.044ZM415.996 204.841L414.19 205.352C414.076 205.051 413.908 204.759 413.687 204.474C413.471 204.185 413.175 203.946 412.8 203.759C412.425 203.571 411.945 203.477 411.36 203.477C410.559 203.477 409.891 203.662 409.357 204.031C408.829 204.395 408.565 204.858 408.565 205.42C408.565 205.92 408.746 206.315 409.11 206.605C409.474 206.895 410.042 207.136 410.815 207.33L412.758 207.807C413.928 208.091 414.8 208.526 415.374 209.111C415.948 209.69 416.235 210.437 416.235 211.352C416.235 212.102 416.019 212.773 415.587 213.364C415.161 213.955 414.565 214.42 413.798 214.761C413.031 215.102 412.138 215.273 411.121 215.273C409.786 215.273 408.681 214.983 407.806 214.403C406.931 213.824 406.377 212.977 406.144 211.864L408.053 211.386C408.235 212.091 408.579 212.619 409.085 212.972C409.596 213.324 410.263 213.5 411.087 213.5C412.025 213.5 412.769 213.301 413.32 212.903C413.877 212.5 414.156 212.017 414.156 211.455C414.156 211 413.996 210.619 413.678 210.312C413.36 210 412.871 209.767 412.212 209.614L410.031 209.102C408.832 208.818 407.951 208.378 407.388 207.781C406.832 207.179 406.553 206.426 406.553 205.523C406.553 204.784 406.761 204.131 407.175 203.562C407.596 202.994 408.167 202.548 408.888 202.224C409.616 201.901 410.44 201.739 411.36 201.739C412.656 201.739 413.673 202.023 414.411 202.591C415.156 203.159 415.684 203.909 415.996 204.841ZM419.263 215V201.909H421.274V215H419.263ZM420.286 199.727C419.893 199.727 419.555 199.594 419.271 199.327C418.993 199.06 418.854 198.739 418.854 198.364C418.854 197.989 418.993 197.668 419.271 197.401C419.555 197.134 419.893 197 420.286 197C420.678 197 421.013 197.134 421.291 197.401C421.575 197.668 421.717 197.989 421.717 198.364C421.717 198.739 421.575 199.06 421.291 199.327C421.013 199.594 420.678 199.727 420.286 199.727ZM430.651 201.909V203.614H423.867V201.909H430.651ZM425.844 198.773H427.856V211.25C427.856 211.818 427.938 212.244 428.103 212.528C428.273 212.807 428.489 212.994 428.751 213.091C429.018 213.182 429.299 213.227 429.594 213.227C429.816 213.227 429.998 213.216 430.14 213.193C430.282 213.165 430.396 213.142 430.481 213.125L430.89 214.932C430.754 214.983 430.563 215.034 430.319 215.085C430.075 215.142 429.765 215.17 429.39 215.17C428.822 215.17 428.265 215.048 427.719 214.804C427.18 214.56 426.731 214.188 426.373 213.688C426.021 213.188 425.844 212.557 425.844 211.795V198.773ZM444.279 215.307C443.45 215.307 442.697 215.151 442.021 214.838C441.344 214.52 440.808 214.062 440.41 213.466C440.012 212.864 439.813 212.136 439.813 211.284C439.813 210.534 439.961 209.926 440.256 209.46C440.552 208.989 440.947 208.619 441.441 208.352C441.935 208.085 442.481 207.886 443.077 207.756C443.68 207.619 444.285 207.511 444.893 207.432C445.688 207.33 446.333 207.253 446.827 207.202C447.327 207.145 447.691 207.051 447.918 206.92C448.151 206.79 448.268 206.562 448.268 206.239V206.17C448.268 205.33 448.038 204.676 447.577 204.21C447.123 203.744 446.433 203.511 445.506 203.511C444.546 203.511 443.793 203.722 443.248 204.142C442.702 204.562 442.319 205.011 442.097 205.489L440.188 204.807C440.529 204.011 440.984 203.392 441.552 202.949C442.126 202.5 442.751 202.187 443.427 202.011C444.109 201.83 444.779 201.739 445.438 201.739C445.859 201.739 446.342 201.79 446.887 201.892C447.438 201.989 447.969 202.19 448.481 202.497C448.998 202.804 449.427 203.267 449.768 203.886C450.109 204.506 450.279 205.335 450.279 206.375V215H448.268V213.227H448.165C448.029 213.511 447.802 213.815 447.484 214.139C447.165 214.463 446.742 214.739 446.214 214.966C445.685 215.193 445.04 215.307 444.279 215.307ZM444.586 213.5C445.381 213.5 446.052 213.344 446.597 213.031C447.148 212.719 447.563 212.315 447.842 211.821C448.126 211.327 448.268 210.807 448.268 210.261V208.42C448.183 208.523 447.995 208.616 447.705 208.702C447.421 208.781 447.092 208.852 446.717 208.915C446.347 208.972 445.987 209.023 445.634 209.068C445.288 209.108 445.006 209.142 444.79 209.17C444.268 209.239 443.779 209.349 443.325 209.503C442.876 209.651 442.512 209.875 442.234 210.176C441.961 210.472 441.825 210.875 441.825 211.386C441.825 212.085 442.083 212.614 442.6 212.972C443.123 213.324 443.785 213.5 444.586 213.5ZM453.95 215V201.909H455.893V203.955H456.064C456.337 203.256 456.777 202.713 457.385 202.327C457.993 201.935 458.723 201.739 459.575 201.739C460.439 201.739 461.158 201.935 461.732 202.327C462.311 202.713 462.763 203.256 463.087 203.955H463.223C463.558 203.278 464.061 202.741 464.732 202.344C465.402 201.94 466.206 201.739 467.143 201.739C468.314 201.739 469.271 202.105 470.016 202.838C470.76 203.565 471.132 204.699 471.132 206.239V215H469.121V206.239C469.121 205.273 468.857 204.582 468.328 204.168C467.8 203.753 467.178 203.545 466.462 203.545C465.541 203.545 464.828 203.824 464.322 204.381C463.817 204.932 463.564 205.631 463.564 206.477V215H461.518V206.034C461.518 205.29 461.277 204.69 460.794 204.236C460.311 203.776 459.689 203.545 458.928 203.545C458.405 203.545 457.916 203.685 457.462 203.963C457.013 204.241 456.649 204.628 456.371 205.122C456.098 205.611 455.962 206.176 455.962 206.818V215H453.95ZM480.298 215.273C479.037 215.273 477.949 214.994 477.034 214.438C476.125 213.875 475.423 213.091 474.929 212.085C474.44 211.074 474.196 209.898 474.196 208.557C474.196 207.216 474.44 206.034 474.929 205.011C475.423 203.983 476.111 203.182 476.991 202.608C477.878 202.028 478.912 201.739 480.094 201.739C480.776 201.739 481.449 201.852 482.114 202.08C482.778 202.307 483.384 202.676 483.929 203.188C484.474 203.693 484.909 204.364 485.233 205.199C485.557 206.034 485.719 207.062 485.719 208.284V209.136H475.628V207.398H483.673C483.673 206.659 483.526 206 483.23 205.42C482.94 204.841 482.526 204.384 481.986 204.048C481.452 203.713 480.821 203.545 480.094 203.545C479.293 203.545 478.599 203.744 478.014 204.142C477.435 204.534 476.989 205.045 476.676 205.676C476.364 206.307 476.207 206.983 476.207 207.705V208.864C476.207 209.852 476.378 210.69 476.719 211.378C477.065 212.06 477.545 212.58 478.159 212.938C478.773 213.29 479.486 213.466 480.298 213.466C480.827 213.466 481.304 213.392 481.73 213.244C482.162 213.091 482.534 212.864 482.847 212.562C483.159 212.256 483.401 211.875 483.571 211.42L485.514 211.966C485.31 212.625 484.966 213.205 484.483 213.705C484 214.199 483.403 214.585 482.693 214.864C481.983 215.136 481.185 215.273 480.298 215.273ZM494.472 201.909V203.614H487.688V201.909H494.472ZM489.665 198.773H491.676V211.25C491.676 211.818 491.759 212.244 491.923 212.528C492.094 212.807 492.31 212.994 492.571 213.091C492.838 213.182 493.119 213.227 493.415 213.227C493.636 213.227 493.818 213.216 493.96 213.193C494.102 213.165 494.216 213.142 494.301 213.125L494.71 214.932C494.574 214.983 494.384 215.034 494.139 215.085C493.895 215.142 493.585 215.17 493.21 215.17C492.642 215.17 492.085 215.048 491.54 214.804C491 214.56 490.551 214.188 490.193 213.688C489.841 213.188 489.665 212.557 489.665 211.795V198.773ZM500.497 212.614L500.361 213.534C500.264 214.182 500.116 214.875 499.918 215.614C499.724 216.352 499.523 217.048 499.312 217.702C499.102 218.355 498.929 218.875 498.793 219.261H497.259C497.332 218.898 497.429 218.418 497.548 217.821C497.668 217.224 497.787 216.557 497.906 215.818C498.031 215.085 498.134 214.335 498.213 213.568L498.315 212.614H500.497ZM199.78 244.273C198.553 244.273 197.496 243.983 196.61 243.403C195.723 242.824 195.042 242.026 194.564 241.009C194.087 239.991 193.848 238.83 193.848 237.523C193.848 236.193 194.093 235.02 194.581 234.003C195.076 232.98 195.763 232.182 196.644 231.608C197.53 231.028 198.564 230.739 199.746 230.739C200.667 230.739 201.496 230.909 202.235 231.25C202.973 231.591 203.578 232.068 204.05 232.682C204.522 233.295 204.814 234.011 204.928 234.83H202.917C202.763 234.233 202.422 233.705 201.894 233.244C201.371 232.778 200.667 232.545 199.78 232.545C198.996 232.545 198.309 232.75 197.718 233.159C197.132 233.562 196.675 234.134 196.346 234.872C196.022 235.605 195.86 236.466 195.86 237.455C195.86 238.466 196.019 239.347 196.337 240.097C196.661 240.847 197.115 241.429 197.701 241.844C198.292 242.259 198.985 242.466 199.78 242.466C200.303 242.466 200.777 242.375 201.203 242.193C201.63 242.011 201.99 241.75 202.286 241.409C202.581 241.068 202.792 240.659 202.917 240.182H204.928C204.814 240.955 204.533 241.651 204.084 242.27C203.641 242.884 203.053 243.372 202.32 243.736C201.593 244.094 200.746 244.273 199.78 244.273ZM213.186 244.273C212.005 244.273 210.968 243.991 210.076 243.429C209.189 242.866 208.496 242.08 207.996 241.068C207.502 240.057 207.255 238.875 207.255 237.523C207.255 236.159 207.502 234.969 207.996 233.952C208.496 232.935 209.189 232.145 210.076 231.582C210.968 231.02 212.005 230.739 213.186 230.739C214.368 230.739 215.402 231.02 216.289 231.582C217.181 232.145 217.874 232.935 218.368 233.952C218.868 234.969 219.118 236.159 219.118 237.523C219.118 238.875 218.868 240.057 218.368 241.068C217.874 242.08 217.181 242.866 216.289 243.429C215.402 243.991 214.368 244.273 213.186 244.273ZM213.186 242.466C214.084 242.466 214.823 242.236 215.402 241.776C215.982 241.315 216.411 240.71 216.689 239.96C216.968 239.21 217.107 238.398 217.107 237.523C217.107 236.648 216.968 235.832 216.689 235.077C216.411 234.321 215.982 233.71 215.402 233.244C214.823 232.778 214.084 232.545 213.186 232.545C212.289 232.545 211.55 232.778 210.971 233.244C210.391 233.71 209.962 234.321 209.684 235.077C209.405 235.832 209.266 236.648 209.266 237.523C209.266 238.398 209.405 239.21 209.684 239.96C209.962 240.71 210.391 241.315 210.971 241.776C211.55 242.236 212.289 242.466 213.186 242.466ZM224.2 236.125V244H222.189V230.909H224.132V232.955H224.302C224.609 232.29 225.075 231.756 225.7 231.352C226.325 230.943 227.132 230.739 228.12 230.739C229.007 230.739 229.782 230.92 230.447 231.284C231.112 231.642 231.629 232.188 231.998 232.92C232.368 233.648 232.552 234.568 232.552 235.682V244H230.541V235.818C230.541 234.79 230.274 233.989 229.74 233.415C229.206 232.835 228.473 232.545 227.541 232.545C226.899 232.545 226.325 232.685 225.819 232.963C225.319 233.241 224.924 233.648 224.635 234.182C224.345 234.716 224.2 235.364 224.2 236.125ZM245.5 233.841L243.694 234.352C243.58 234.051 243.412 233.759 243.191 233.474C242.975 233.185 242.679 232.946 242.304 232.759C241.929 232.571 241.449 232.477 240.864 232.477C240.063 232.477 239.395 232.662 238.861 233.031C238.333 233.395 238.069 233.858 238.069 234.42C238.069 234.92 238.25 235.315 238.614 235.605C238.978 235.895 239.546 236.136 240.319 236.33L242.262 236.807C243.432 237.091 244.304 237.526 244.878 238.111C245.452 238.69 245.739 239.437 245.739 240.352C245.739 241.102 245.523 241.773 245.091 242.364C244.665 242.955 244.069 243.42 243.301 243.761C242.534 244.102 241.642 244.273 240.625 244.273C239.29 244.273 238.185 243.983 237.31 243.403C236.435 242.824 235.881 241.977 235.648 240.864L237.557 240.386C237.739 241.091 238.083 241.619 238.588 241.972C239.1 242.324 239.767 242.5 240.591 242.5C241.529 242.5 242.273 242.301 242.824 241.903C243.381 241.5 243.659 241.017 243.659 240.455C243.659 240 243.5 239.619 243.182 239.312C242.864 239 242.375 238.767 241.716 238.614L239.534 238.102C238.336 237.818 237.455 237.378 236.892 236.781C236.336 236.179 236.057 235.426 236.057 234.523C236.057 233.784 236.265 233.131 236.679 232.562C237.1 231.994 237.671 231.548 238.392 231.224C239.12 230.901 239.944 230.739 240.864 230.739C242.159 230.739 243.176 231.023 243.915 231.591C244.659 232.159 245.188 232.909 245.5 233.841ZM254.255 244.273C252.994 244.273 251.906 243.994 250.991 243.438C250.082 242.875 249.38 242.091 248.886 241.085C248.397 240.074 248.153 238.898 248.153 237.557C248.153 236.216 248.397 235.034 248.886 234.011C249.38 232.983 250.068 232.182 250.949 231.608C251.835 231.028 252.869 230.739 254.051 230.739C254.733 230.739 255.406 230.852 256.071 231.08C256.735 231.307 257.341 231.676 257.886 232.188C258.431 232.693 258.866 233.364 259.19 234.199C259.514 235.034 259.676 236.062 259.676 237.284V238.136H249.585V236.398H257.63C257.63 235.659 257.483 235 257.187 234.42C256.897 233.841 256.483 233.384 255.943 233.048C255.409 232.713 254.778 232.545 254.051 232.545C253.25 232.545 252.556 232.744 251.971 233.142C251.392 233.534 250.946 234.045 250.633 234.676C250.321 235.307 250.164 235.983 250.164 236.705V237.864C250.164 238.852 250.335 239.69 250.676 240.378C251.022 241.06 251.502 241.58 252.116 241.938C252.73 242.29 253.443 242.466 254.255 242.466C254.784 242.466 255.261 242.392 255.687 242.244C256.119 242.091 256.491 241.864 256.804 241.562C257.116 241.256 257.358 240.875 257.528 240.42L259.471 240.966C259.267 241.625 258.923 242.205 258.44 242.705C257.957 243.199 257.36 243.585 256.65 243.864C255.94 244.136 255.142 244.273 254.255 244.273ZM268.054 244.273C266.826 244.273 265.77 243.983 264.883 243.403C263.997 242.824 263.315 242.026 262.838 241.009C262.36 239.991 262.122 238.83 262.122 237.523C262.122 236.193 262.366 235.02 262.855 234.003C263.349 232.98 264.037 232.182 264.917 231.608C265.804 231.028 266.838 230.739 268.02 230.739C268.94 230.739 269.77 230.909 270.508 231.25C271.247 231.591 271.852 232.068 272.324 232.682C272.795 233.295 273.088 234.011 273.201 234.83H271.19C271.037 234.233 270.696 233.705 270.167 233.244C269.645 232.778 268.94 232.545 268.054 232.545C267.27 232.545 266.582 232.75 265.991 233.159C265.406 233.562 264.949 234.134 264.619 234.872C264.295 235.605 264.133 236.466 264.133 237.455C264.133 238.466 264.292 239.347 264.61 240.097C264.934 240.847 265.389 241.429 265.974 241.844C266.565 242.259 267.258 242.466 268.054 242.466C268.576 242.466 269.051 242.375 269.477 242.193C269.903 242.011 270.264 241.75 270.559 241.409C270.855 241.068 271.065 240.659 271.19 240.182H273.201C273.088 240.955 272.806 241.651 272.358 242.27C271.914 242.884 271.326 243.372 270.593 243.736C269.866 244.094 269.02 244.273 268.054 244.273ZM281.835 230.909V232.614H275.051V230.909H281.835ZM277.028 227.773H279.039V240.25C279.039 240.818 279.122 241.244 279.287 241.528C279.457 241.807 279.673 241.994 279.934 242.091C280.201 242.182 280.483 242.227 280.778 242.227C281 242.227 281.181 242.216 281.324 242.193C281.466 242.165 281.579 242.142 281.664 242.125L282.074 243.932C281.937 243.983 281.747 244.034 281.502 244.085C281.258 244.142 280.949 244.17 280.574 244.17C280.005 244.17 279.449 244.048 278.903 243.804C278.363 243.56 277.914 243.188 277.556 242.688C277.204 242.188 277.028 241.557 277.028 240.795V227.773ZM290.208 244.273C288.947 244.273 287.859 243.994 286.944 243.438C286.035 242.875 285.333 242.091 284.839 241.085C284.35 240.074 284.106 238.898 284.106 237.557C284.106 236.216 284.35 235.034 284.839 234.011C285.333 232.983 286.021 232.182 286.902 231.608C287.788 231.028 288.822 230.739 290.004 230.739C290.686 230.739 291.359 230.852 292.024 231.08C292.689 231.307 293.294 231.676 293.839 232.188C294.385 232.693 294.819 233.364 295.143 234.199C295.467 235.034 295.629 236.062 295.629 237.284V238.136H285.538V236.398H293.583C293.583 235.659 293.436 235 293.14 234.42C292.85 233.841 292.436 233.384 291.896 233.048C291.362 232.713 290.731 232.545 290.004 232.545C289.203 232.545 288.51 232.744 287.924 233.142C287.345 233.534 286.899 234.045 286.586 234.676C286.274 235.307 286.118 235.983 286.118 236.705V237.864C286.118 238.852 286.288 239.69 286.629 240.378C286.975 241.06 287.456 241.58 288.069 241.938C288.683 242.29 289.396 242.466 290.208 242.466C290.737 242.466 291.214 242.392 291.64 242.244C292.072 242.091 292.444 241.864 292.757 241.562C293.069 241.256 293.311 240.875 293.481 240.42L295.424 240.966C295.22 241.625 294.876 242.205 294.393 242.705C293.91 243.199 293.314 243.585 292.603 243.864C291.893 244.136 291.095 244.273 290.208 244.273ZM304.382 230.909V232.614H297.598V230.909H304.382ZM299.575 227.773H301.586V240.25C301.586 240.818 301.669 241.244 301.833 241.528C302.004 241.807 302.22 241.994 302.481 242.091C302.748 242.182 303.029 242.227 303.325 242.227C303.547 242.227 303.728 242.216 303.87 242.193C304.012 242.165 304.126 242.142 304.211 242.125L304.62 243.932C304.484 243.983 304.294 244.034 304.049 244.085C303.805 244.142 303.495 244.17 303.12 244.17C302.552 244.17 301.995 244.048 301.45 243.804C300.91 243.56 300.461 243.188 300.103 242.688C299.751 242.188 299.575 241.557 299.575 240.795V227.773ZM315.657 238.648V230.909H317.669V244H315.657V241.784H315.521C315.214 242.449 314.737 243.014 314.089 243.48C313.441 243.94 312.623 244.17 311.635 244.17C310.816 244.17 310.089 243.991 309.453 243.634C308.816 243.27 308.316 242.724 307.953 241.997C307.589 241.264 307.407 240.341 307.407 239.227V230.909H309.419V239.091C309.419 240.045 309.686 240.807 310.22 241.375C310.76 241.943 311.447 242.227 312.282 242.227C312.782 242.227 313.291 242.099 313.808 241.844C314.331 241.588 314.768 241.196 315.12 240.668C315.478 240.139 315.657 239.466 315.657 238.648ZM321.353 244V230.909H323.296V232.886H323.432C323.671 232.239 324.103 231.713 324.728 231.31C325.353 230.906 326.057 230.705 326.841 230.705C326.989 230.705 327.174 230.707 327.395 230.713C327.617 230.719 327.784 230.727 327.898 230.739V232.784C327.83 232.767 327.674 232.741 327.429 232.707C327.191 232.668 326.938 232.648 326.671 232.648C326.034 232.648 325.466 232.781 324.966 233.048C324.472 233.31 324.08 233.673 323.79 234.139C323.506 234.599 323.364 235.125 323.364 235.716V244H321.353ZM340.885 244.307C340.055 244.307 339.302 244.151 338.626 243.838C337.95 243.52 337.413 243.062 337.015 242.466C336.618 241.864 336.419 241.136 336.419 240.284C336.419 239.534 336.566 238.926 336.862 238.46C337.157 237.989 337.552 237.619 338.047 237.352C338.541 237.085 339.086 236.886 339.683 236.756C340.285 236.619 340.89 236.511 341.498 236.432C342.294 236.33 342.939 236.253 343.433 236.202C343.933 236.145 344.297 236.051 344.524 235.92C344.757 235.79 344.873 235.562 344.873 235.239V235.17C344.873 234.33 344.643 233.676 344.183 233.21C343.728 232.744 343.038 232.511 342.112 232.511C341.152 232.511 340.399 232.722 339.853 233.142C339.308 233.562 338.924 234.011 338.703 234.489L336.794 233.807C337.135 233.011 337.589 232.392 338.157 231.949C338.731 231.5 339.356 231.187 340.032 231.011C340.714 230.83 341.385 230.739 342.044 230.739C342.464 230.739 342.947 230.79 343.493 230.892C344.044 230.989 344.575 231.19 345.086 231.497C345.603 231.804 346.032 232.267 346.373 232.886C346.714 233.506 346.885 234.335 346.885 235.375V244H344.873V242.227H344.771C344.635 242.511 344.407 242.815 344.089 243.139C343.771 243.463 343.348 243.739 342.819 243.966C342.291 244.193 341.646 244.307 340.885 244.307ZM341.191 242.5C341.987 242.5 342.657 242.344 343.203 242.031C343.754 241.719 344.169 241.315 344.447 240.821C344.731 240.327 344.873 239.807 344.873 239.261V237.42C344.788 237.523 344.6 237.616 344.311 237.702C344.027 237.781 343.697 237.852 343.322 237.915C342.953 237.972 342.592 238.023 342.24 238.068C341.893 238.108 341.612 238.142 341.396 238.17C340.873 238.239 340.385 238.349 339.93 238.503C339.481 238.651 339.118 238.875 338.839 239.176C338.566 239.472 338.43 239.875 338.43 240.386C338.43 241.085 338.689 241.614 339.206 241.972C339.728 242.324 340.39 242.5 341.191 242.5ZM355.499 244.273C354.408 244.273 353.445 243.997 352.61 243.446C351.775 242.889 351.121 242.105 350.65 241.094C350.178 240.077 349.942 238.875 349.942 237.489C349.942 236.114 350.178 234.92 350.65 233.909C351.121 232.898 351.777 232.116 352.618 231.565C353.459 231.014 354.431 230.739 355.533 230.739C356.385 230.739 357.059 230.881 357.553 231.165C358.053 231.443 358.434 231.761 358.695 232.119C358.962 232.472 359.169 232.761 359.317 232.989H359.488V226.545H361.499V244H359.556V241.989H359.317C359.169 242.227 358.959 242.528 358.686 242.892C358.414 243.25 358.025 243.571 357.519 243.855C357.013 244.134 356.34 244.273 355.499 244.273ZM355.772 242.466C356.578 242.466 357.26 242.256 357.817 241.835C358.374 241.409 358.797 240.821 359.087 240.071C359.377 239.315 359.522 238.443 359.522 237.455C359.522 236.477 359.38 235.622 359.096 234.889C358.811 234.151 358.391 233.577 357.834 233.168C357.277 232.753 356.59 232.545 355.772 232.545C354.919 232.545 354.209 232.764 353.641 233.202C353.078 233.634 352.655 234.222 352.371 234.966C352.093 235.705 351.953 236.534 351.953 237.455C351.953 238.386 352.096 239.233 352.38 239.994C352.669 240.75 353.096 241.352 353.658 241.801C354.226 242.244 354.931 242.466 355.772 242.466ZM365.462 244V230.909H367.473V244H365.462ZM366.485 228.727C366.093 228.727 365.755 228.594 365.471 228.327C365.192 228.06 365.053 227.739 365.053 227.364C365.053 226.989 365.192 226.668 365.471 226.401C365.755 226.134 366.093 226 366.485 226C366.877 226 367.212 226.134 367.49 226.401C367.775 226.668 367.917 226.989 367.917 227.364C367.917 227.739 367.775 228.06 367.49 228.327C367.212 228.594 366.877 228.727 366.485 228.727ZM371.157 248.909V230.909H373.1V232.989H373.339C373.487 232.761 373.691 232.472 373.953 232.119C374.22 231.761 374.6 231.443 375.095 231.165C375.595 230.881 376.271 230.739 377.123 230.739C378.225 230.739 379.197 231.014 380.038 231.565C380.879 232.116 381.535 232.898 382.007 233.909C382.478 234.92 382.714 236.114 382.714 237.489C382.714 238.875 382.478 240.077 382.007 241.094C381.535 242.105 380.882 242.889 380.047 243.446C379.211 243.997 378.248 244.273 377.157 244.273C376.316 244.273 375.643 244.134 375.137 243.855C374.632 243.571 374.243 243.25 373.97 242.892C373.697 242.528 373.487 242.227 373.339 241.989H373.169V248.909H371.157ZM373.135 237.455C373.135 238.443 373.279 239.315 373.569 240.071C373.859 240.821 374.282 241.409 374.839 241.835C375.396 242.256 376.078 242.466 376.885 242.466C377.725 242.466 378.427 242.244 378.99 241.801C379.558 241.352 379.984 240.75 380.268 239.994C380.558 239.233 380.703 238.386 380.703 237.455C380.703 236.534 380.561 235.705 380.277 234.966C379.998 234.222 379.575 233.634 379.007 233.202C378.444 232.764 377.737 232.545 376.885 232.545C376.066 232.545 375.379 232.753 374.822 233.168C374.265 233.577 373.845 234.151 373.561 234.889C373.277 235.622 373.135 236.477 373.135 237.455ZM385.782 244V230.909H387.794V244H385.782ZM386.805 228.727C386.413 228.727 386.075 228.594 385.791 228.327C385.512 228.06 385.373 227.739 385.373 227.364C385.373 226.989 385.512 226.668 385.791 226.401C386.075 226.134 386.413 226 386.805 226C387.197 226 387.532 226.134 387.811 226.401C388.095 226.668 388.237 226.989 388.237 227.364C388.237 227.739 388.095 228.06 387.811 228.327C387.532 228.594 387.197 228.727 386.805 228.727ZM400.75 233.841L398.944 234.352C398.83 234.051 398.662 233.759 398.441 233.474C398.225 233.185 397.929 232.946 397.554 232.759C397.179 232.571 396.699 232.477 396.114 232.477C395.313 232.477 394.645 232.662 394.111 233.031C393.583 233.395 393.319 233.858 393.319 234.42C393.319 234.92 393.5 235.315 393.864 235.605C394.228 235.895 394.796 236.136 395.569 236.33L397.512 236.807C398.682 237.091 399.554 237.526 400.128 238.111C400.702 238.69 400.989 239.437 400.989 240.352C400.989 241.102 400.773 241.773 400.341 242.364C399.915 242.955 399.319 243.42 398.551 243.761C397.784 244.102 396.892 244.273 395.875 244.273C394.54 244.273 393.435 243.983 392.56 243.403C391.685 242.824 391.131 241.977 390.898 240.864L392.807 240.386C392.989 241.091 393.333 241.619 393.838 241.972C394.35 242.324 395.017 242.5 395.841 242.5C396.779 242.5 397.523 242.301 398.074 241.903C398.631 241.5 398.909 241.017 398.909 240.455C398.909 240 398.75 239.619 398.432 239.312C398.114 239 397.625 238.767 396.966 238.614L394.784 238.102C393.586 237.818 392.705 237.378 392.142 236.781C391.586 236.179 391.307 235.426 391.307 234.523C391.307 233.784 391.515 233.131 391.929 232.562C392.35 231.994 392.921 231.548 393.642 231.224C394.37 230.901 395.194 230.739 396.114 230.739C397.409 230.739 398.426 231.023 399.165 231.591C399.909 232.159 400.438 232.909 400.75 233.841ZM409.335 244.273C408.108 244.273 407.051 243.983 406.164 243.403C405.278 242.824 404.596 242.026 404.119 241.009C403.642 239.991 403.403 238.83 403.403 237.523C403.403 236.193 403.647 235.02 404.136 234.003C404.63 232.98 405.318 232.182 406.199 231.608C407.085 231.028 408.119 230.739 409.301 230.739C410.221 230.739 411.051 230.909 411.789 231.25C412.528 231.591 413.133 232.068 413.605 232.682C414.076 233.295 414.369 234.011 414.483 234.83H412.471C412.318 234.233 411.977 233.705 411.449 233.244C410.926 232.778 410.221 232.545 409.335 232.545C408.551 232.545 407.863 232.75 407.272 233.159C406.687 233.562 406.23 234.134 405.9 234.872C405.576 235.605 405.414 236.466 405.414 237.455C405.414 238.466 405.574 239.347 405.892 240.097C406.216 240.847 406.67 241.429 407.255 241.844C407.846 242.259 408.539 242.466 409.335 242.466C409.858 242.466 410.332 242.375 410.758 242.193C411.184 242.011 411.545 241.75 411.841 241.409C412.136 241.068 412.346 240.659 412.471 240.182H414.483C414.369 240.955 414.088 241.651 413.639 242.27C413.196 242.884 412.608 243.372 411.875 243.736C411.147 244.094 410.301 244.273 409.335 244.273ZM417.423 244V230.909H419.434V244H417.423ZM418.446 228.727C418.054 228.727 417.716 228.594 417.431 228.327C417.153 228.06 417.014 227.739 417.014 227.364C417.014 226.989 417.153 226.668 417.431 226.401C417.716 226.134 418.054 226 418.446 226C418.838 226 419.173 226.134 419.451 226.401C419.735 226.668 419.877 226.989 419.877 227.364C419.877 227.739 419.735 228.06 419.451 228.327C419.173 228.594 418.838 228.727 418.446 228.727ZM425.13 236.125V244H423.118V230.909H425.061V232.955H425.232C425.539 232.29 426.005 231.756 426.63 231.352C427.255 230.943 428.061 230.739 429.05 230.739C429.936 230.739 430.712 230.92 431.377 231.284C432.042 231.642 432.559 232.188 432.928 232.92C433.297 233.648 433.482 234.568 433.482 235.682V244H431.471V235.818C431.471 234.79 431.203 233.989 430.669 233.415C430.135 232.835 429.402 232.545 428.471 232.545C427.828 232.545 427.255 232.685 426.749 232.963C426.249 233.241 425.854 233.648 425.564 234.182C425.275 234.716 425.13 235.364 425.13 236.125ZM442.441 249.182C441.47 249.182 440.635 249.057 439.936 248.807C439.237 248.562 438.654 248.239 438.189 247.835C437.728 247.438 437.362 247.011 437.089 246.557L438.691 245.432C438.873 245.67 439.103 245.943 439.382 246.25C439.66 246.562 440.041 246.832 440.524 247.06C441.012 247.293 441.652 247.409 442.441 247.409C443.498 247.409 444.37 247.153 445.058 246.642C445.745 246.131 446.089 245.33 446.089 244.239V241.58H445.919C445.771 241.818 445.561 242.114 445.288 242.466C445.021 242.812 444.635 243.122 444.129 243.395C443.629 243.662 442.953 243.795 442.1 243.795C441.044 243.795 440.095 243.545 439.254 243.045C438.419 242.545 437.757 241.818 437.268 240.864C436.785 239.909 436.544 238.75 436.544 237.386C436.544 236.045 436.779 234.878 437.251 233.884C437.723 232.884 438.379 232.111 439.22 231.565C440.061 231.014 441.032 230.739 442.135 230.739C442.987 230.739 443.663 230.881 444.163 231.165C444.669 231.443 445.055 231.761 445.322 232.119C445.595 232.472 445.805 232.761 445.953 232.989H446.157V230.909H448.1V244.375C448.1 245.5 447.845 246.415 447.333 247.119C446.828 247.83 446.146 248.349 445.288 248.679C444.436 249.014 443.487 249.182 442.441 249.182ZM442.373 241.989C443.18 241.989 443.862 241.804 444.419 241.435C444.975 241.065 445.399 240.534 445.689 239.841C445.978 239.148 446.123 238.318 446.123 237.352C446.123 236.409 445.981 235.577 445.697 234.855C445.413 234.134 444.993 233.568 444.436 233.159C443.879 232.75 443.191 232.545 442.373 232.545C441.521 232.545 440.811 232.761 440.243 233.193C439.68 233.625 439.257 234.205 438.973 234.932C438.694 235.659 438.555 236.466 438.555 237.352C438.555 238.261 438.697 239.065 438.981 239.764C439.271 240.457 439.697 241.003 440.26 241.401C440.828 241.793 441.532 241.989 442.373 241.989ZM464.021 244.273C462.76 244.273 461.672 243.994 460.757 243.438C459.848 242.875 459.146 242.091 458.652 241.085C458.163 240.074 457.919 238.898 457.919 237.557C457.919 236.216 458.163 235.034 458.652 234.011C459.146 232.983 459.833 232.182 460.714 231.608C461.6 231.028 462.635 230.739 463.816 230.739C464.498 230.739 465.172 230.852 465.836 231.08C466.501 231.307 467.106 231.676 467.652 232.188C468.197 232.693 468.632 233.364 468.956 234.199C469.279 235.034 469.441 236.062 469.441 237.284V238.136H459.35V236.398H467.396C467.396 235.659 467.248 235 466.953 234.42C466.663 233.841 466.248 233.384 465.708 233.048C465.174 232.713 464.544 232.545 463.816 232.545C463.015 232.545 462.322 232.744 461.737 233.142C461.157 233.534 460.711 234.045 460.399 234.676C460.086 235.307 459.93 235.983 459.93 236.705V237.864C459.93 238.852 460.1 239.69 460.441 240.378C460.788 241.06 461.268 241.58 461.882 241.938C462.495 242.29 463.208 242.466 464.021 242.466C464.549 242.466 465.027 242.392 465.453 242.244C465.885 242.091 466.257 241.864 466.569 241.562C466.882 241.256 467.123 240.875 467.294 240.42L469.237 240.966C469.032 241.625 468.689 242.205 468.206 242.705C467.723 243.199 467.126 243.585 466.416 243.864C465.706 244.136 464.907 244.273 464.021 244.273ZM474.512 226.545V244H472.501V226.545H474.512ZM478.196 244V230.909H480.208V244H478.196ZM479.219 228.727C478.827 228.727 478.489 228.594 478.205 228.327C477.926 228.06 477.787 227.739 477.787 227.364C477.787 226.989 477.926 226.668 478.205 226.401C478.489 226.134 478.827 226 479.219 226C479.611 226 479.946 226.134 480.225 226.401C480.509 226.668 480.651 226.989 480.651 227.364C480.651 227.739 480.509 228.06 480.225 228.327C479.946 228.594 479.611 228.727 479.219 228.727ZM489.585 230.909V232.614H482.801V230.909H489.585ZM484.778 227.773H486.789V240.25C486.789 240.818 486.872 241.244 487.037 241.528C487.207 241.807 487.423 241.994 487.684 242.091C487.951 242.182 488.233 242.227 488.528 242.227C488.75 242.227 488.931 242.216 489.074 242.193C489.216 242.165 489.329 242.142 489.414 242.125L489.824 243.932C489.687 243.983 489.497 244.034 489.252 244.085C489.008 244.142 488.699 244.17 488.324 244.17C487.755 244.17 487.199 244.048 486.653 243.804C486.113 243.56 485.664 243.188 485.306 242.688C484.954 242.188 484.778 241.557 484.778 240.795V227.773ZM494.076 244.136C493.656 244.136 493.295 243.986 492.994 243.685C492.693 243.384 492.542 243.023 492.542 242.602C492.542 242.182 492.693 241.821 492.994 241.52C493.295 241.219 493.656 241.068 494.076 241.068C494.497 241.068 494.858 241.219 495.159 241.52C495.46 241.821 495.61 242.182 495.61 242.602C495.61 242.881 495.539 243.136 495.397 243.369C495.261 243.602 495.076 243.79 494.843 243.932C494.616 244.068 494.36 244.136 494.076 244.136Z" fill="black"/>
<path d="M297.45 149.625V145.091H324.467V149.625H313.575V180H308.325V149.625H297.45ZM337.515 180.528C334.935 180.528 332.714 179.977 330.85 178.875C328.998 177.761 327.566 176.199 326.555 174.188C325.555 172.165 325.055 169.795 325.055 167.08C325.055 164.398 325.555 162.034 326.555 159.989C327.566 157.943 328.975 156.347 330.782 155.199C332.6 154.051 334.725 153.477 337.157 153.477C338.634 153.477 340.066 153.722 341.452 154.21C342.839 154.699 344.083 155.466 345.185 156.511C346.288 157.557 347.157 158.915 347.793 160.585C348.43 162.244 348.748 164.261 348.748 166.636V168.443H327.935V164.625H343.754C343.754 163.284 343.481 162.097 342.935 161.062C342.39 160.017 341.623 159.193 340.634 158.591C339.657 157.989 338.509 157.688 337.191 157.688C335.759 157.688 334.509 158.04 333.441 158.744C332.384 159.437 331.566 160.347 330.987 161.472C330.418 162.585 330.134 163.795 330.134 165.102V168.085C330.134 169.835 330.441 171.324 331.055 172.551C331.68 173.778 332.549 174.716 333.663 175.364C334.776 176 336.077 176.318 337.566 176.318C338.532 176.318 339.413 176.182 340.208 175.909C341.004 175.625 341.691 175.205 342.271 174.648C342.85 174.091 343.293 173.403 343.6 172.585L348.424 173.455C348.038 174.875 347.344 176.119 346.344 177.188C345.356 178.244 344.112 179.068 342.612 179.659C341.123 180.239 339.424 180.528 337.515 180.528ZM357.816 153.818L363.594 164.011L369.424 153.818H374.998L366.833 166.909L375.066 180H369.492L363.594 170.216L357.714 180H352.123L360.271 166.909L352.225 153.818H357.816ZM392.452 153.818V157.909H378.151V153.818H392.452ZM381.987 147.545H387.083V172.312C387.083 173.301 387.231 174.045 387.526 174.545C387.822 175.034 388.202 175.369 388.668 175.551C389.146 175.722 389.663 175.807 390.219 175.807C390.629 175.807 390.987 175.778 391.293 175.722C391.6 175.665 391.839 175.619 392.009 175.585L392.93 179.795C392.634 179.909 392.214 180.023 391.668 180.136C391.123 180.261 390.441 180.33 389.623 180.341C388.282 180.364 387.032 180.125 385.873 179.625C384.714 179.125 383.776 178.352 383.06 177.307C382.344 176.261 381.987 174.949 381.987 173.369V147.545Z" fill="black"/>
<rect x="251.314" y="361.5" width="187.814" height="44.6089" rx="3.5" fill="#188BDE"/>
<path d="M316.537 392.305V374.85H318.651V390.43H326.765V392.305H316.537ZM333.617 392.612C332.787 392.612 332.035 392.455 331.358 392.143C330.682 391.825 330.145 391.367 329.748 390.771C329.35 390.168 329.151 389.441 329.151 388.589C329.151 387.839 329.299 387.231 329.594 386.765C329.89 386.293 330.285 385.924 330.779 385.657C331.273 385.39 331.819 385.191 332.415 385.06C333.018 384.924 333.623 384.816 334.231 384.737C335.026 384.634 335.671 384.558 336.165 384.506C336.665 384.45 337.029 384.356 337.256 384.225C337.489 384.094 337.606 383.867 337.606 383.543V383.475C337.606 382.634 337.376 381.981 336.915 381.515C336.461 381.049 335.77 380.816 334.844 380.816C333.884 380.816 333.131 381.026 332.586 381.447C332.04 381.867 331.657 382.316 331.435 382.793L329.526 382.112C329.867 381.316 330.322 380.697 330.89 380.254C331.464 379.805 332.089 379.492 332.765 379.316C333.447 379.134 334.117 379.043 334.776 379.043C335.197 379.043 335.68 379.094 336.225 379.197C336.776 379.293 337.307 379.495 337.819 379.802C338.336 380.109 338.765 380.572 339.106 381.191C339.447 381.81 339.617 382.64 339.617 383.68V392.305H337.606V390.532H337.503C337.367 390.816 337.14 391.12 336.822 391.444C336.503 391.768 336.08 392.043 335.552 392.271C335.023 392.498 334.378 392.612 333.617 392.612ZM333.924 390.805C334.719 390.805 335.39 390.648 335.935 390.336C336.486 390.023 336.901 389.62 337.18 389.126C337.464 388.631 337.606 388.112 337.606 387.566V385.725C337.52 385.827 337.333 385.921 337.043 386.006C336.759 386.086 336.43 386.157 336.055 386.219C335.685 386.276 335.324 386.327 334.972 386.373C334.626 386.413 334.344 386.447 334.128 386.475C333.606 386.543 333.117 386.654 332.662 386.808C332.214 386.955 331.85 387.18 331.572 387.481C331.299 387.776 331.162 388.18 331.162 388.691C331.162 389.39 331.421 389.918 331.938 390.276C332.461 390.629 333.123 390.805 333.924 390.805ZM343.561 392.305V374.85H345.572V381.293H345.743C345.89 381.066 346.095 380.776 346.356 380.424C346.623 380.066 347.004 379.748 347.498 379.469C347.998 379.185 348.675 379.043 349.527 379.043C350.629 379.043 351.601 379.319 352.442 379.87C353.282 380.421 353.939 381.202 354.41 382.214C354.882 383.225 355.118 384.418 355.118 385.793C355.118 387.18 354.882 388.381 354.41 389.398C353.939 390.41 353.285 391.194 352.45 391.751C351.615 392.302 350.652 392.577 349.561 392.577C348.72 392.577 348.047 392.438 347.541 392.16C347.035 391.876 346.646 391.555 346.373 391.197C346.101 390.833 345.89 390.532 345.743 390.293H345.504V392.305H343.561ZM345.538 385.759C345.538 386.748 345.683 387.62 345.973 388.376C346.263 389.126 346.686 389.714 347.243 390.14C347.8 390.56 348.481 390.771 349.288 390.771C350.129 390.771 350.831 390.549 351.393 390.106C351.961 389.657 352.388 389.055 352.672 388.299C352.961 387.538 353.106 386.691 353.106 385.759C353.106 384.839 352.964 384.009 352.68 383.271C352.402 382.526 351.979 381.938 351.41 381.506C350.848 381.069 350.14 380.85 349.288 380.85C348.47 380.85 347.782 381.058 347.226 381.472C346.669 381.881 346.248 382.455 345.964 383.194C345.68 383.927 345.538 384.782 345.538 385.759ZM363.683 392.577C362.422 392.577 361.334 392.299 360.419 391.742C359.51 391.18 358.808 390.396 358.314 389.39C357.825 388.379 357.581 387.202 357.581 385.862C357.581 384.521 357.825 383.339 358.314 382.316C358.808 381.288 359.496 380.487 360.376 379.913C361.263 379.333 362.297 379.043 363.479 379.043C364.16 379.043 364.834 379.157 365.498 379.384C366.163 379.612 366.768 379.981 367.314 380.492C367.859 380.998 368.294 381.668 368.618 382.504C368.942 383.339 369.104 384.367 369.104 385.589V386.441H359.013V384.702H367.058C367.058 383.964 366.91 383.305 366.615 382.725C366.325 382.146 365.91 381.688 365.371 381.353C364.836 381.018 364.206 380.85 363.479 380.85C362.677 380.85 361.984 381.049 361.399 381.447C360.819 381.839 360.373 382.35 360.061 382.981C359.748 383.612 359.592 384.288 359.592 385.009V386.168C359.592 387.157 359.763 387.995 360.104 388.683C360.45 389.364 360.93 389.884 361.544 390.242C362.157 390.594 362.871 390.771 363.683 390.771C364.211 390.771 364.689 390.697 365.115 390.549C365.547 390.396 365.919 390.168 366.231 389.867C366.544 389.56 366.785 389.18 366.956 388.725L368.899 389.271C368.694 389.93 368.351 390.509 367.868 391.009C367.385 391.504 366.788 391.89 366.078 392.168C365.368 392.441 364.569 392.577 363.683 392.577ZM374.175 374.85V392.305H372.163V374.85H374.175Z" fill="white"/>
<rect x="251.314" y="361.5" width="187.814" height="44.6089" rx="3.5" stroke="url(#paint0_linear_2_1855)"/>
<rect x="455.128" y="361.5" width="187.814" height="44.6089" rx="3.5" fill="#188BDE"/>
<path d="M520.351 392.305V374.85H522.465V390.43H530.579V392.305H520.351ZM537.431 392.612C536.601 392.612 535.849 392.455 535.172 392.143C534.496 391.825 533.959 391.367 533.562 390.771C533.164 390.168 532.965 389.441 532.965 388.589C532.965 387.839 533.113 387.231 533.408 386.765C533.704 386.293 534.099 385.924 534.593 385.657C535.087 385.39 535.633 385.191 536.229 385.06C536.832 384.924 537.437 384.816 538.045 384.737C538.84 384.634 539.485 384.558 539.979 384.506C540.479 384.45 540.843 384.356 541.07 384.225C541.303 384.094 541.42 383.867 541.42 383.543V383.475C541.42 382.634 541.189 381.981 540.729 381.515C540.275 381.049 539.584 380.816 538.658 380.816C537.698 380.816 536.945 381.026 536.4 381.447C535.854 381.867 535.471 382.316 535.249 382.793L533.34 382.112C533.681 381.316 534.136 380.697 534.704 380.254C535.278 379.805 535.903 379.492 536.579 379.316C537.261 379.134 537.931 379.043 538.59 379.043C539.011 379.043 539.493 379.094 540.039 379.197C540.59 379.293 541.121 379.495 541.633 379.802C542.15 380.109 542.579 380.572 542.92 381.191C543.261 381.81 543.431 382.64 543.431 383.68V392.305H541.42V390.532H541.317C541.181 390.816 540.954 391.12 540.636 391.444C540.317 391.768 539.894 392.043 539.366 392.271C538.837 392.498 538.192 392.612 537.431 392.612ZM537.738 390.805C538.533 390.805 539.204 390.648 539.749 390.336C540.3 390.023 540.715 389.62 540.993 389.126C541.278 388.631 541.42 388.112 541.42 387.566V385.725C541.334 385.827 541.147 385.921 540.857 386.006C540.573 386.086 540.243 386.157 539.868 386.219C539.499 386.276 539.138 386.327 538.786 386.373C538.439 386.413 538.158 386.447 537.942 386.475C537.42 386.543 536.931 386.654 536.476 386.808C536.028 386.955 535.664 387.18 535.386 387.481C535.113 387.776 534.976 388.18 534.976 388.691C534.976 389.39 535.235 389.918 535.752 390.276C536.275 390.629 536.937 390.805 537.738 390.805ZM547.375 392.305V374.85H549.386V381.293H549.557C549.704 381.066 549.909 380.776 550.17 380.424C550.437 380.066 550.818 379.748 551.312 379.469C551.812 379.185 552.489 379.043 553.341 379.043C554.443 379.043 555.415 379.319 556.256 379.87C557.096 380.421 557.753 381.202 558.224 382.214C558.696 383.225 558.932 384.418 558.932 385.793C558.932 387.18 558.696 388.381 558.224 389.398C557.753 390.41 557.099 391.194 556.264 391.751C555.429 392.302 554.466 392.577 553.375 392.577C552.534 392.577 551.861 392.438 551.355 392.16C550.849 391.876 550.46 391.555 550.187 391.197C549.915 390.833 549.704 390.532 549.557 390.293H549.318V392.305H547.375ZM549.352 385.759C549.352 386.748 549.497 387.62 549.787 388.376C550.077 389.126 550.5 389.714 551.057 390.14C551.614 390.56 552.295 390.771 553.102 390.771C553.943 390.771 554.645 390.549 555.207 390.106C555.775 389.657 556.202 389.055 556.486 388.299C556.775 387.538 556.92 386.691 556.92 385.759C556.92 384.839 556.778 384.009 556.494 383.271C556.216 382.526 555.792 381.938 555.224 381.506C554.662 381.069 553.954 380.85 553.102 380.85C552.284 380.85 551.596 381.058 551.04 381.472C550.483 381.881 550.062 382.455 549.778 383.194C549.494 383.927 549.352 384.782 549.352 385.759ZM567.497 392.577C566.236 392.577 565.148 392.299 564.233 391.742C563.324 391.18 562.622 390.396 562.128 389.39C561.639 388.379 561.395 387.202 561.395 385.862C561.395 384.521 561.639 383.339 562.128 382.316C562.622 381.288 563.31 380.487 564.19 379.913C565.077 379.333 566.111 379.043 567.292 379.043C567.974 379.043 568.648 379.157 569.312 379.384C569.977 379.612 570.582 379.981 571.128 380.492C571.673 380.998 572.108 381.668 572.432 382.504C572.756 383.339 572.917 384.367 572.917 385.589V386.441H562.827V384.702H570.872C570.872 383.964 570.724 383.305 570.429 382.725C570.139 382.146 569.724 381.688 569.185 381.353C568.65 381.018 568.02 380.85 567.292 380.85C566.491 380.85 565.798 381.049 565.213 381.447C564.633 381.839 564.187 382.35 563.875 382.981C563.562 383.612 563.406 384.288 563.406 385.009V386.168C563.406 387.157 563.577 387.995 563.917 388.683C564.264 389.364 564.744 389.884 565.358 390.242C565.971 390.594 566.685 390.771 567.497 390.771C568.025 390.771 568.503 390.697 568.929 390.549C569.361 390.396 569.733 390.168 570.045 389.867C570.358 389.56 570.599 389.18 570.77 388.725L572.713 389.271C572.508 389.93 572.165 390.509 571.682 391.009C571.199 391.504 570.602 391.89 569.892 392.168C569.182 392.441 568.383 392.577 567.497 392.577ZM577.989 374.85V392.305H575.977V374.85H577.989Z" fill="white"/>
<rect x="455.128" y="361.5" width="187.814" height="44.6089" rx="3.5" stroke="url(#paint1_linear_2_1855)"/>
<rect x="47" y="361" width="188.814" height="45.6089" rx="4" fill="#9D9D9D"/>
<path d="M112.723 392.305V374.85H114.837V390.43H122.951V392.305H112.723ZM129.803 392.612C128.973 392.612 128.221 392.455 127.545 392.143C126.868 391.825 126.331 391.367 125.934 390.771C125.536 390.168 125.337 389.441 125.337 388.589C125.337 387.839 125.485 387.231 125.78 386.765C126.076 386.293 126.471 385.924 126.965 385.657C127.459 385.39 128.005 385.191 128.601 385.06C129.204 384.924 129.809 384.816 130.417 384.737C131.212 384.634 131.857 384.558 132.351 384.506C132.851 384.45 133.215 384.356 133.442 384.225C133.675 384.094 133.792 383.867 133.792 383.543V383.475C133.792 382.634 133.562 381.981 133.101 381.515C132.647 381.049 131.956 380.816 131.03 380.816C130.07 380.816 129.317 381.026 128.772 381.447C128.226 381.867 127.843 382.316 127.621 382.793L125.712 382.112C126.053 381.316 126.508 380.697 127.076 380.254C127.65 379.805 128.275 379.492 128.951 379.316C129.633 379.134 130.303 379.043 130.962 379.043C131.383 379.043 131.866 379.094 132.411 379.197C132.962 379.293 133.493 379.495 134.005 379.802C134.522 380.109 134.951 380.572 135.292 381.191C135.633 381.81 135.803 382.64 135.803 383.68V392.305H133.792V390.532H133.689C133.553 390.816 133.326 391.12 133.008 391.444C132.689 391.768 132.266 392.043 131.738 392.271C131.209 392.498 130.564 392.612 129.803 392.612ZM130.11 390.805C130.905 390.805 131.576 390.648 132.121 390.336C132.672 390.023 133.087 389.62 133.366 389.126C133.65 388.631 133.792 388.112 133.792 387.566V385.725C133.706 385.827 133.519 385.921 133.229 386.006C132.945 386.086 132.616 386.157 132.241 386.219C131.871 386.276 131.51 386.327 131.158 386.373C130.812 386.413 130.53 386.447 130.314 386.475C129.792 386.543 129.303 386.654 128.848 386.808C128.4 386.955 128.036 387.18 127.758 387.481C127.485 387.776 127.348 388.18 127.348 388.691C127.348 389.39 127.607 389.918 128.124 390.276C128.647 390.629 129.309 390.805 130.11 390.805ZM139.747 392.305V374.85H141.758V381.293H141.929C142.076 381.066 142.281 380.776 142.542 380.424C142.809 380.066 143.19 379.748 143.684 379.469C144.184 379.185 144.861 379.043 145.713 379.043C146.815 379.043 147.787 379.319 148.628 379.87C149.469 380.421 150.125 381.202 150.596 382.214C151.068 383.225 151.304 384.418 151.304 385.793C151.304 387.18 151.068 388.381 150.596 389.398C150.125 390.41 149.471 391.194 148.636 391.751C147.801 392.302 146.838 392.577 145.747 392.577C144.906 392.577 144.233 392.438 143.727 392.16C143.221 391.876 142.832 391.555 142.559 391.197C142.287 390.833 142.076 390.532 141.929 390.293H141.69V392.305H139.747ZM141.724 385.759C141.724 386.748 141.869 387.62 142.159 388.376C142.449 389.126 142.872 389.714 143.429 390.14C143.986 390.56 144.667 390.771 145.474 390.771C146.315 390.771 147.017 390.549 147.579 390.106C148.148 389.657 148.574 389.055 148.858 388.299C149.148 387.538 149.292 386.691 149.292 385.759C149.292 384.839 149.15 384.009 148.866 383.271C148.588 382.526 148.165 381.938 147.596 381.506C147.034 381.069 146.326 380.85 145.474 380.85C144.656 380.85 143.969 381.058 143.412 381.472C142.855 381.881 142.434 382.455 142.15 383.194C141.866 383.927 141.724 384.782 141.724 385.759ZM159.869 392.577C158.608 392.577 157.52 392.299 156.605 391.742C155.696 391.18 154.994 390.396 154.5 389.39C154.011 388.379 153.767 387.202 153.767 385.862C153.767 384.521 154.011 383.339 154.5 382.316C154.994 381.288 155.682 380.487 156.562 379.913C157.449 379.333 158.483 379.043 159.665 379.043C160.346 379.043 161.02 379.157 161.684 379.384C162.349 379.612 162.954 379.981 163.5 380.492C164.045 380.998 164.48 381.668 164.804 382.504C165.128 383.339 165.29 384.367 165.29 385.589V386.441H155.199V384.702H163.244C163.244 383.964 163.096 383.305 162.801 382.725C162.511 382.146 162.096 381.688 161.557 381.353C161.023 381.018 160.392 380.85 159.665 380.85C158.863 380.85 158.17 381.049 157.585 381.447C157.005 381.839 156.559 382.35 156.247 382.981C155.934 383.612 155.778 384.288 155.778 385.009V386.168C155.778 387.157 155.949 387.995 156.29 388.683C156.636 389.364 157.116 389.884 157.73 390.242C158.344 390.594 159.057 390.771 159.869 390.771C160.398 390.771 160.875 390.697 161.301 390.549C161.733 390.396 162.105 390.168 162.417 389.867C162.73 389.56 162.971 389.18 163.142 388.725L165.085 389.271C164.88 389.93 164.537 390.509 164.054 391.009C163.571 391.504 162.974 391.89 162.264 392.168C161.554 392.441 160.755 392.577 159.869 392.577ZM170.361 374.85V392.305H168.349V374.85H170.361Z" fill="white"/>
<defs>
<filter id="filter0_dd_2_1855" x="-28" y="24" width="745" height="485" filterUnits="userSpaceOnUse" color-interpolation-filters="sRGB">
<feFlood flood-opacity="0" result="BackgroundImageFix"/>
<feColorMatrix in="SourceAlpha" type="matrix" values="0 0 0 0 0 0 0 0 0 0 0 0 0 0 0 0 0 0 127 0" result="hardAlpha"/>
<feOffset dy="2"/>
<feGaussianBlur stdDeviation="10.5"/>
<feComposite in2="hardAlpha" operator="out"/>
<feColorMatrix type="matrix" values="0 0 0 0 0 0 0 0 0 0 0 0 0 0 0 0 0 0 0.25 0"/>
<feBlend mode="normal" in2="BackgroundImageFix" result="effect1_dropShadow_2_1855"/>
<feColorMatrix in="SourceAlpha" type="matrix" values="0 0 0 0 0 0 0 0 0 0 0 0 0 0 0 0 0 0 127 0" result="hardAlpha"/>
<feOffset dy="32"/>
<feGaussianBlur stdDeviation="24"/>
<feComposite in2="hardAlpha" operator="out"/>
<feColorMatrix type="matrix" values="0 0 0 0 0 0 0 0 0 0 0 0 0 0 0 0 0 0 0.25 0"/>
<feBlend mode="normal" in2="effect1_dropShadow_2_1855" result="effect2_dropShadow_2_1855"/>
<feBlend mode="normal" in="SourceGraphic" in2="effect2_dropShadow_2_1855" result="shape"/>
</filter>
<filter id="filter1_b_2_1855" x="-80" y="-57" width="849" height="586" filterUnits="userSpaceOnUse" color-interpolation-filters="sRGB">
<feFlood flood-opacity="0" result="BackgroundImageFix"/>
<feGaussianBlur in="BackgroundImageFix" stdDeviation="50"/>
<feComposite in2="SourceAlpha" operator="in" result="effect1_backgroundBlur_2_1855"/>
<feBlend mode="normal" in="SourceGraphic" in2="effect1_backgroundBlur_2_1855" result="shape"/>
</filter>
<linearGradient id="paint0_linear_2_1855" x1="345.221" y1="361" x2="345.221" y2="406.609" gradientUnits="userSpaceOnUse">
<stop offset="0.55" stop-color="#1D93E9"/>
<stop offset="0.794792" stop-color="#0074C7"/>
</linearGradient>
<linearGradient id="paint1_linear_2_1855" x1="549.035" y1="361" x2="549.035" y2="406.609" gradientUnits="userSpaceOnUse">
<stop offset="0.55" stop-color="#1D93E9"/>
<stop offset="0.794792" stop-color="#0074C7"/>
</linearGradient>
</defs>
</svg>
