<svg width="717" height="570" viewBox="0 0 717 570" fill="none" xmlns="http://www.w3.org/2000/svg">
<g filter="url(#filter0_dd_2_1811)">
<rect x="20" y="19" width="649" height="471" rx="10" fill="#F8F8F8" fill-opacity="0.01" shape-rendering="crispEdges"/>
</g>
<g filter="url(#filter1_b_2_1811)">
<rect x="20" y="19" width="649" height="471" rx="10" fill="#F8F8F8" fill-opacity="0.9"/>
</g>
<mask id="path-3-inside-1_2_1811" fill="white">
<path d="M20 401.033H669V29.0001C669 23.4772 664.523 19.0001 659 19.0001H30C24.4772 19.0001 20 23.4772 20 29.0001V401.033Z"/>
</mask>
<path d="M20 401.033H669V29.0001C669 23.4772 664.523 19.0001 659 19.0001H30C24.4772 19.0001 20 23.4772 20 29.0001V401.033Z" fill="white"/>
<path d="M20 404.033H669V398.033H20V404.033ZM669 19.0001H20H669ZM20 19.0001V401.033V19.0001ZM669 401.033V19.0001V401.033Z" fill="#F3F0F0" mask="url(#path-3-inside-1_2_1811)"/>
<path d="M189.731 204.117V186.662H191.844V202.242H199.958V204.117H189.731ZM208.276 204.39C207.094 204.39 206.058 204.108 205.165 203.546C204.279 202.983 203.586 202.196 203.086 201.185C202.592 200.174 202.344 198.992 202.344 197.64C202.344 196.276 202.592 195.086 203.086 194.069C203.586 193.052 204.279 192.262 205.165 191.699C206.058 191.137 207.094 190.856 208.276 190.856C209.458 190.856 210.492 191.137 211.379 191.699C212.271 192.262 212.964 193.052 213.458 194.069C213.958 195.086 214.208 196.276 214.208 197.64C214.208 198.992 213.958 200.174 213.458 201.185C212.964 202.196 212.271 202.983 211.379 203.546C210.492 204.108 209.458 204.39 208.276 204.39ZM208.276 202.583C209.174 202.583 209.913 202.353 210.492 201.893C211.072 201.432 211.501 200.827 211.779 200.077C212.058 199.327 212.197 198.515 212.197 197.64C212.197 196.765 212.058 195.949 211.779 195.194C211.501 194.438 211.072 193.827 210.492 193.361C209.913 192.895 209.174 192.662 208.276 192.662C207.379 192.662 206.64 192.895 206.06 193.361C205.481 193.827 205.052 194.438 204.773 195.194C204.495 195.949 204.356 196.765 204.356 197.64C204.356 198.515 204.495 199.327 204.773 200.077C205.052 200.827 205.481 201.432 206.06 201.893C206.64 202.353 207.379 202.583 208.276 202.583ZM217.278 204.117V191.026H219.222V193.003H219.358C219.597 192.356 220.028 191.83 220.653 191.427C221.278 191.023 221.983 190.821 222.767 190.821C222.915 190.821 223.099 190.824 223.321 190.83C223.543 190.836 223.71 190.844 223.824 190.856V192.901C223.756 192.884 223.599 192.858 223.355 192.824C223.116 192.785 222.864 192.765 222.597 192.765C221.96 192.765 221.392 192.898 220.892 193.165C220.398 193.427 220.006 193.79 219.716 194.256C219.432 194.716 219.29 195.242 219.29 195.833V204.117H217.278ZM231.298 204.39C230.037 204.39 228.949 204.111 228.034 203.554C227.125 202.992 226.423 202.208 225.929 201.202C225.44 200.191 225.196 199.015 225.196 197.674C225.196 196.333 225.44 195.151 225.929 194.128C226.423 193.1 227.111 192.299 227.991 191.725C228.878 191.145 229.912 190.856 231.094 190.856C231.776 190.856 232.449 190.969 233.114 191.196C233.778 191.424 234.384 191.793 234.929 192.304C235.474 192.81 235.909 193.481 236.233 194.316C236.557 195.151 236.719 196.179 236.719 197.401V198.253H226.628V196.515H234.673C234.673 195.776 234.526 195.117 234.23 194.537C233.94 193.958 233.526 193.5 232.986 193.165C232.452 192.83 231.821 192.662 231.094 192.662C230.293 192.662 229.599 192.861 229.014 193.259C228.435 193.651 227.989 194.162 227.676 194.793C227.364 195.424 227.207 196.1 227.207 196.821V197.981C227.207 198.969 227.378 199.807 227.719 200.495C228.065 201.177 228.545 201.696 229.159 202.054C229.773 202.407 230.486 202.583 231.298 202.583C231.827 202.583 232.304 202.509 232.73 202.361C233.162 202.208 233.534 201.981 233.847 201.679C234.159 201.373 234.401 200.992 234.571 200.537L236.514 201.083C236.31 201.742 235.966 202.321 235.483 202.821C235 203.316 234.403 203.702 233.693 203.981C232.983 204.253 232.185 204.39 231.298 204.39ZM239.778 204.117V191.026H241.722V193.071H241.892C242.165 192.373 242.605 191.83 243.213 191.444C243.821 191.052 244.551 190.856 245.403 190.856C246.267 190.856 246.986 191.052 247.56 191.444C248.139 191.83 248.591 192.373 248.915 193.071H249.051C249.386 192.395 249.889 191.858 250.56 191.461C251.23 191.057 252.034 190.856 252.972 190.856C254.142 190.856 255.099 191.222 255.844 191.955C256.588 192.682 256.96 193.816 256.96 195.356V204.117H254.949V195.356C254.949 194.39 254.685 193.699 254.156 193.285C253.628 192.87 253.006 192.662 252.29 192.662C251.369 192.662 250.656 192.941 250.151 193.498C249.645 194.049 249.392 194.748 249.392 195.594V204.117H247.347V195.151C247.347 194.407 247.105 193.807 246.622 193.353C246.139 192.893 245.517 192.662 244.756 192.662C244.233 192.662 243.744 192.802 243.29 193.08C242.841 193.358 242.477 193.745 242.199 194.239C241.926 194.728 241.79 195.293 241.79 195.935V204.117H239.778ZM267.388 204.117V191.026H269.399V204.117H267.388ZM268.411 188.844C268.018 188.844 267.68 188.711 267.396 188.444C267.118 188.177 266.979 187.856 266.979 187.481C266.979 187.106 267.118 186.785 267.396 186.518C267.68 186.25 268.018 186.117 268.411 186.117C268.803 186.117 269.138 186.25 269.416 186.518C269.7 186.785 269.842 187.106 269.842 187.481C269.842 187.856 269.7 188.177 269.416 188.444C269.138 188.711 268.803 188.844 268.411 188.844ZM273.083 209.026V191.026H275.026V193.106H275.265C275.413 192.878 275.617 192.589 275.879 192.236C276.146 191.878 276.526 191.56 277.021 191.282C277.521 190.998 278.197 190.856 279.049 190.856C280.151 190.856 281.123 191.131 281.964 191.682C282.805 192.233 283.461 193.015 283.933 194.026C284.404 195.037 284.64 196.231 284.64 197.606C284.64 198.992 284.404 200.194 283.933 201.211C283.461 202.222 282.808 203.006 281.972 203.563C281.137 204.114 280.174 204.39 279.083 204.39C278.242 204.39 277.569 204.25 277.063 203.972C276.558 203.688 276.168 203.367 275.896 203.009C275.623 202.645 275.413 202.344 275.265 202.106H275.094V209.026H273.083ZM275.06 197.571C275.06 198.56 275.205 199.432 275.495 200.188C275.785 200.938 276.208 201.526 276.765 201.952C277.322 202.373 278.004 202.583 278.81 202.583C279.651 202.583 280.353 202.361 280.915 201.918C281.484 201.469 281.91 200.867 282.194 200.111C282.484 199.35 282.629 198.503 282.629 197.571C282.629 196.651 282.487 195.821 282.202 195.083C281.924 194.339 281.501 193.75 280.933 193.319C280.37 192.881 279.663 192.662 278.81 192.662C277.992 192.662 277.305 192.87 276.748 193.285C276.191 193.694 275.771 194.268 275.487 195.006C275.202 195.739 275.06 196.594 275.06 197.571ZM296.981 193.958L295.174 194.469C295.06 194.168 294.893 193.875 294.671 193.591C294.455 193.302 294.16 193.063 293.785 192.875C293.41 192.688 292.93 192.594 292.344 192.594C291.543 192.594 290.876 192.779 290.342 193.148C289.813 193.512 289.549 193.975 289.549 194.537C289.549 195.037 289.731 195.432 290.094 195.722C290.458 196.012 291.026 196.253 291.799 196.446L293.742 196.924C294.913 197.208 295.785 197.643 296.359 198.228C296.933 198.807 297.219 199.554 297.219 200.469C297.219 201.219 297.004 201.89 296.572 202.481C296.146 203.071 295.549 203.537 294.782 203.878C294.015 204.219 293.123 204.39 292.106 204.39C290.771 204.39 289.665 204.1 288.79 203.52C287.915 202.941 287.362 202.094 287.129 200.981L289.038 200.503C289.219 201.208 289.563 201.736 290.069 202.089C290.58 202.441 291.248 202.617 292.072 202.617C293.009 202.617 293.754 202.418 294.305 202.02C294.862 201.617 295.14 201.134 295.14 200.571C295.14 200.117 294.981 199.736 294.663 199.429C294.344 199.117 293.856 198.884 293.197 198.731L291.015 198.219C289.816 197.935 288.935 197.495 288.373 196.898C287.816 196.296 287.538 195.543 287.538 194.64C287.538 193.901 287.745 193.248 288.16 192.679C288.58 192.111 289.151 191.665 289.873 191.341C290.6 191.018 291.424 190.856 292.344 190.856C293.64 190.856 294.657 191.14 295.396 191.708C296.14 192.276 296.668 193.026 296.981 193.958ZM308.497 198.765V191.026H310.509V204.117H308.497V201.901H308.361C308.054 202.566 307.577 203.131 306.929 203.597C306.281 204.057 305.463 204.287 304.474 204.287C303.656 204.287 302.929 204.108 302.293 203.75C301.656 203.387 301.156 202.841 300.793 202.114C300.429 201.381 300.247 200.458 300.247 199.344V191.026H302.259V199.208C302.259 200.162 302.526 200.924 303.06 201.492C303.599 202.06 304.287 202.344 305.122 202.344C305.622 202.344 306.131 202.216 306.648 201.961C307.17 201.705 307.608 201.313 307.96 200.785C308.318 200.256 308.497 199.583 308.497 198.765ZM314.192 204.117V191.026H316.136V193.071H316.306C316.579 192.373 317.019 191.83 317.627 191.444C318.235 191.052 318.965 190.856 319.817 190.856C320.681 190.856 321.4 191.052 321.974 191.444C322.553 191.83 323.005 192.373 323.329 193.071H323.465C323.8 192.395 324.303 191.858 324.974 191.461C325.644 191.057 326.448 190.856 327.386 190.856C328.556 190.856 329.513 191.222 330.258 191.955C331.002 192.682 331.374 193.816 331.374 195.356V204.117H329.363V195.356C329.363 194.39 329.099 193.699 328.57 193.285C328.042 192.87 327.42 192.662 326.704 192.662C325.783 192.662 325.07 192.941 324.565 193.498C324.059 194.049 323.806 194.748 323.806 195.594V204.117H321.761V195.151C321.761 194.407 321.519 193.807 321.036 193.353C320.553 192.893 319.931 192.662 319.17 192.662C318.647 192.662 318.158 192.802 317.704 193.08C317.255 193.358 316.891 193.745 316.613 194.239C316.34 194.728 316.204 195.293 316.204 195.935V204.117H314.192ZM346.745 204.39C345.654 204.39 344.691 204.114 343.856 203.563C343.021 203.006 342.367 202.222 341.896 201.211C341.424 200.194 341.188 198.992 341.188 197.606C341.188 196.231 341.424 195.037 341.896 194.026C342.367 193.015 343.023 192.233 343.864 191.682C344.705 191.131 345.677 190.856 346.779 190.856C347.631 190.856 348.305 190.998 348.799 191.282C349.299 191.56 349.68 191.878 349.941 192.236C350.208 192.589 350.415 192.878 350.563 193.106H350.734V186.662H352.745V204.117H350.802V202.106H350.563C350.415 202.344 350.205 202.645 349.933 203.009C349.66 203.367 349.271 203.688 348.765 203.972C348.259 204.25 347.586 204.39 346.745 204.39ZM347.018 202.583C347.825 202.583 348.506 202.373 349.063 201.952C349.62 201.526 350.043 200.938 350.333 200.188C350.623 199.432 350.768 198.56 350.768 197.571C350.768 196.594 350.626 195.739 350.342 195.006C350.058 194.268 349.637 193.694 349.08 193.285C348.523 192.87 347.836 192.662 347.018 192.662C346.165 192.662 345.455 192.881 344.887 193.319C344.325 193.75 343.901 194.339 343.617 195.083C343.339 195.821 343.2 196.651 343.2 197.571C343.2 198.503 343.342 199.35 343.626 200.111C343.915 200.867 344.342 201.469 344.904 201.918C345.472 202.361 346.177 202.583 347.018 202.583ZM362.026 204.39C360.844 204.39 359.808 204.108 358.915 203.546C358.029 202.983 357.336 202.196 356.836 201.185C356.342 200.174 356.094 198.992 356.094 197.64C356.094 196.276 356.342 195.086 356.836 194.069C357.336 193.052 358.029 192.262 358.915 191.699C359.808 191.137 360.844 190.856 362.026 190.856C363.208 190.856 364.242 191.137 365.129 191.699C366.021 192.262 366.714 193.052 367.208 194.069C367.708 195.086 367.958 196.276 367.958 197.64C367.958 198.992 367.708 200.174 367.208 201.185C366.714 202.196 366.021 202.983 365.129 203.546C364.242 204.108 363.208 204.39 362.026 204.39ZM362.026 202.583C362.924 202.583 363.663 202.353 364.242 201.893C364.822 201.432 365.251 200.827 365.529 200.077C365.808 199.327 365.947 198.515 365.947 197.64C365.947 196.765 365.808 195.949 365.529 195.194C365.251 194.438 364.822 193.827 364.242 193.361C363.663 192.895 362.924 192.662 362.026 192.662C361.129 192.662 360.39 192.895 359.81 193.361C359.231 193.827 358.802 194.438 358.523 195.194C358.245 195.949 358.106 196.765 358.106 197.64C358.106 198.515 358.245 199.327 358.523 200.077C358.802 200.827 359.231 201.432 359.81 201.893C360.39 202.353 361.129 202.583 362.026 202.583ZM373.04 186.662V204.117H371.028V186.662H373.04ZM382.042 204.39C380.86 204.39 379.823 204.108 378.931 203.546C378.045 202.983 377.352 202.196 376.852 201.185C376.357 200.174 376.11 198.992 376.11 197.64C376.11 196.276 376.357 195.086 376.852 194.069C377.352 193.052 378.045 192.262 378.931 191.699C379.823 191.137 380.86 190.856 382.042 190.856C383.224 190.856 384.258 191.137 385.144 191.699C386.036 192.262 386.729 193.052 387.224 194.069C387.724 195.086 387.974 196.276 387.974 197.64C387.974 198.992 387.724 200.174 387.224 201.185C386.729 202.196 386.036 202.983 385.144 203.546C384.258 204.108 383.224 204.39 382.042 204.39ZM382.042 202.583C382.94 202.583 383.678 202.353 384.258 201.893C384.837 201.432 385.266 200.827 385.545 200.077C385.823 199.327 385.962 198.515 385.962 197.64C385.962 196.765 385.823 195.949 385.545 195.194C385.266 194.438 384.837 193.827 384.258 193.361C383.678 192.895 382.94 192.662 382.042 192.662C381.144 192.662 380.406 192.895 379.826 193.361C379.246 193.827 378.817 194.438 378.539 195.194C378.261 195.949 378.121 196.765 378.121 197.64C378.121 198.515 378.261 199.327 378.539 200.077C378.817 200.827 379.246 201.432 379.826 201.893C380.406 202.353 381.144 202.583 382.042 202.583ZM391.044 204.117V191.026H392.987V193.003H393.124C393.362 192.356 393.794 191.83 394.419 191.427C395.044 191.023 395.749 190.821 396.533 190.821C396.68 190.821 396.865 190.824 397.087 190.83C397.308 190.836 397.476 190.844 397.589 190.856V192.901C397.521 192.884 397.365 192.858 397.121 192.824C396.882 192.785 396.629 192.765 396.362 192.765C395.726 192.765 395.158 192.898 394.658 193.165C394.163 193.427 393.771 193.79 393.482 194.256C393.197 194.716 393.055 195.242 393.055 195.833V204.117H391.044ZM415.996 193.958L414.19 194.469C414.076 194.168 413.908 193.875 413.687 193.591C413.471 193.302 413.175 193.063 412.8 192.875C412.425 192.688 411.945 192.594 411.36 192.594C410.559 192.594 409.891 192.779 409.357 193.148C408.829 193.512 408.565 193.975 408.565 194.537C408.565 195.037 408.746 195.432 409.11 195.722C409.474 196.012 410.042 196.253 410.815 196.446L412.758 196.924C413.928 197.208 414.8 197.643 415.374 198.228C415.948 198.807 416.235 199.554 416.235 200.469C416.235 201.219 416.019 201.89 415.587 202.481C415.161 203.071 414.565 203.537 413.798 203.878C413.031 204.219 412.138 204.39 411.121 204.39C409.786 204.39 408.681 204.1 407.806 203.52C406.931 202.941 406.377 202.094 406.144 200.981L408.053 200.503C408.235 201.208 408.579 201.736 409.085 202.089C409.596 202.441 410.263 202.617 411.087 202.617C412.025 202.617 412.769 202.418 413.32 202.02C413.877 201.617 414.156 201.134 414.156 200.571C414.156 200.117 413.996 199.736 413.678 199.429C413.36 199.117 412.871 198.884 412.212 198.731L410.031 198.219C408.832 197.935 407.951 197.495 407.388 196.898C406.832 196.296 406.553 195.543 406.553 194.64C406.553 193.901 406.761 193.248 407.175 192.679C407.596 192.111 408.167 191.665 408.888 191.341C409.616 191.018 410.44 190.856 411.36 190.856C412.656 190.856 413.673 191.14 414.411 191.708C415.156 192.276 415.684 193.026 415.996 193.958ZM419.263 204.117V191.026H421.274V204.117H419.263ZM420.286 188.844C419.893 188.844 419.555 188.711 419.271 188.444C418.993 188.177 418.854 187.856 418.854 187.481C418.854 187.106 418.993 186.785 419.271 186.518C419.555 186.25 419.893 186.117 420.286 186.117C420.678 186.117 421.013 186.25 421.291 186.518C421.575 186.785 421.717 187.106 421.717 187.481C421.717 187.856 421.575 188.177 421.291 188.444C421.013 188.711 420.678 188.844 420.286 188.844ZM430.651 191.026V192.731H423.867V191.026H430.651ZM425.844 187.89H427.856V200.367C427.856 200.935 427.938 201.361 428.103 201.645C428.273 201.924 428.489 202.111 428.751 202.208C429.018 202.299 429.299 202.344 429.594 202.344C429.816 202.344 429.998 202.333 430.14 202.31C430.282 202.282 430.396 202.259 430.481 202.242L430.89 204.049C430.754 204.1 430.563 204.151 430.319 204.202C430.075 204.259 429.765 204.287 429.39 204.287C428.822 204.287 428.265 204.165 427.719 203.921C427.18 203.677 426.731 203.304 426.373 202.804C426.021 202.304 425.844 201.674 425.844 200.912V187.89ZM444.279 204.424C443.45 204.424 442.697 204.268 442.021 203.955C441.344 203.637 440.808 203.179 440.41 202.583C440.012 201.981 439.813 201.253 439.813 200.401C439.813 199.651 439.961 199.043 440.256 198.577C440.552 198.106 440.947 197.736 441.441 197.469C441.935 197.202 442.481 197.003 443.077 196.873C443.68 196.736 444.285 196.628 444.893 196.549C445.688 196.446 446.333 196.37 446.827 196.319C447.327 196.262 447.691 196.168 447.918 196.037C448.151 195.907 448.268 195.679 448.268 195.356V195.287C448.268 194.446 448.038 193.793 447.577 193.327C447.123 192.861 446.433 192.628 445.506 192.628C444.546 192.628 443.793 192.839 443.248 193.259C442.702 193.679 442.319 194.128 442.097 194.606L440.188 193.924C440.529 193.128 440.984 192.509 441.552 192.066C442.126 191.617 442.751 191.304 443.427 191.128C444.109 190.946 444.779 190.856 445.438 190.856C445.859 190.856 446.342 190.907 446.887 191.009C447.438 191.106 447.969 191.307 448.481 191.614C448.998 191.921 449.427 192.384 449.768 193.003C450.109 193.623 450.279 194.452 450.279 195.492V204.117H448.268V202.344H448.165C448.029 202.628 447.802 202.932 447.484 203.256C447.165 203.58 446.742 203.856 446.214 204.083C445.685 204.31 445.04 204.424 444.279 204.424ZM444.586 202.617C445.381 202.617 446.052 202.461 446.597 202.148C447.148 201.836 447.563 201.432 447.842 200.938C448.126 200.444 448.268 199.924 448.268 199.378V197.537C448.183 197.64 447.995 197.733 447.705 197.819C447.421 197.898 447.092 197.969 446.717 198.032C446.347 198.089 445.987 198.14 445.634 198.185C445.288 198.225 445.006 198.259 444.79 198.287C444.268 198.356 443.779 198.466 443.325 198.62C442.876 198.768 442.512 198.992 442.234 199.293C441.961 199.589 441.825 199.992 441.825 200.503C441.825 201.202 442.083 201.731 442.6 202.089C443.123 202.441 443.785 202.617 444.586 202.617ZM453.95 204.117V191.026H455.893V193.071H456.064C456.337 192.373 456.777 191.83 457.385 191.444C457.993 191.052 458.723 190.856 459.575 190.856C460.439 190.856 461.158 191.052 461.732 191.444C462.311 191.83 462.763 192.373 463.087 193.071H463.223C463.558 192.395 464.061 191.858 464.732 191.461C465.402 191.057 466.206 190.856 467.143 190.856C468.314 190.856 469.271 191.222 470.016 191.955C470.76 192.682 471.132 193.816 471.132 195.356V204.117H469.121V195.356C469.121 194.39 468.857 193.699 468.328 193.285C467.8 192.87 467.178 192.662 466.462 192.662C465.541 192.662 464.828 192.941 464.322 193.498C463.817 194.049 463.564 194.748 463.564 195.594V204.117H461.518V195.151C461.518 194.407 461.277 193.807 460.794 193.353C460.311 192.893 459.689 192.662 458.928 192.662C458.405 192.662 457.916 192.802 457.462 193.08C457.013 193.358 456.649 193.745 456.371 194.239C456.098 194.728 455.962 195.293 455.962 195.935V204.117H453.95ZM480.298 204.39C479.037 204.39 477.949 204.111 477.034 203.554C476.125 202.992 475.423 202.208 474.929 201.202C474.44 200.191 474.196 199.015 474.196 197.674C474.196 196.333 474.44 195.151 474.929 194.128C475.423 193.1 476.111 192.299 476.991 191.725C477.878 191.145 478.912 190.856 480.094 190.856C480.776 190.856 481.449 190.969 482.114 191.196C482.778 191.424 483.384 191.793 483.929 192.304C484.474 192.81 484.909 193.481 485.233 194.316C485.557 195.151 485.719 196.179 485.719 197.401V198.253H475.628V196.515H483.673C483.673 195.776 483.526 195.117 483.23 194.537C482.94 193.958 482.526 193.5 481.986 193.165C481.452 192.83 480.821 192.662 480.094 192.662C479.293 192.662 478.599 192.861 478.014 193.259C477.435 193.651 476.989 194.162 476.676 194.793C476.364 195.424 476.207 196.1 476.207 196.821V197.981C476.207 198.969 476.378 199.807 476.719 200.495C477.065 201.177 477.545 201.696 478.159 202.054C478.773 202.407 479.486 202.583 480.298 202.583C480.827 202.583 481.304 202.509 481.73 202.361C482.162 202.208 482.534 201.981 482.847 201.679C483.159 201.373 483.401 200.992 483.571 200.537L485.514 201.083C485.31 201.742 484.966 202.321 484.483 202.821C484 203.316 483.403 203.702 482.693 203.981C481.983 204.253 481.185 204.39 480.298 204.39ZM494.472 191.026V192.731H487.688V191.026H494.472ZM489.665 187.89H491.676V200.367C491.676 200.935 491.759 201.361 491.923 201.645C492.094 201.924 492.31 202.111 492.571 202.208C492.838 202.299 493.119 202.344 493.415 202.344C493.636 202.344 493.818 202.333 493.96 202.31C494.102 202.282 494.216 202.259 494.301 202.242L494.71 204.049C494.574 204.1 494.384 204.151 494.139 204.202C493.895 204.259 493.585 204.287 493.21 204.287C492.642 204.287 492.085 204.165 491.54 203.921C491 203.677 490.551 203.304 490.193 202.804C489.841 202.304 489.665 201.674 489.665 200.912V187.89ZM500.497 201.731L500.361 202.651C500.264 203.299 500.116 203.992 499.918 204.731C499.724 205.469 499.523 206.165 499.312 206.819C499.102 207.472 498.929 207.992 498.793 208.378H497.259C497.332 208.015 497.429 207.535 497.548 206.938C497.668 206.341 497.787 205.674 497.906 204.935C498.031 204.202 498.134 203.452 498.213 202.685L498.315 201.731H500.497ZM145.64 233.39C144.412 233.39 143.355 233.1 142.469 232.52C141.583 231.941 140.901 231.143 140.424 230.125C139.946 229.108 139.708 227.946 139.708 226.64C139.708 225.31 139.952 224.137 140.441 223.12C140.935 222.097 141.623 221.299 142.503 220.725C143.39 220.145 144.424 219.856 145.605 219.856C146.526 219.856 147.355 220.026 148.094 220.367C148.833 220.708 149.438 221.185 149.909 221.799C150.381 222.412 150.674 223.128 150.787 223.946H148.776C148.623 223.35 148.282 222.821 147.753 222.361C147.23 221.895 146.526 221.662 145.64 221.662C144.855 221.662 144.168 221.867 143.577 222.276C142.992 222.679 142.534 223.25 142.205 223.989C141.881 224.722 141.719 225.583 141.719 226.571C141.719 227.583 141.878 228.464 142.196 229.214C142.52 229.964 142.975 230.546 143.56 230.961C144.151 231.375 144.844 231.583 145.64 231.583C146.162 231.583 146.637 231.492 147.063 231.31C147.489 231.128 147.85 230.867 148.145 230.526C148.441 230.185 148.651 229.776 148.776 229.299H150.787C150.674 230.071 150.392 230.768 149.944 231.387C149.5 232 148.912 232.489 148.179 232.853C147.452 233.211 146.605 233.39 145.64 233.39ZM159.046 233.39C157.864 233.39 156.827 233.108 155.935 232.546C155.049 231.983 154.355 231.196 153.855 230.185C153.361 229.174 153.114 227.992 153.114 226.64C153.114 225.276 153.361 224.086 153.855 223.069C154.355 222.052 155.049 221.262 155.935 220.699C156.827 220.137 157.864 219.856 159.046 219.856C160.228 219.856 161.262 220.137 162.148 220.699C163.04 221.262 163.733 222.052 164.228 223.069C164.728 224.086 164.978 225.276 164.978 226.64C164.978 227.992 164.728 229.174 164.228 230.185C163.733 231.196 163.04 231.983 162.148 232.546C161.262 233.108 160.228 233.39 159.046 233.39ZM159.046 231.583C159.944 231.583 160.682 231.353 161.262 230.893C161.841 230.432 162.27 229.827 162.549 229.077C162.827 228.327 162.966 227.515 162.966 226.64C162.966 225.765 162.827 224.949 162.549 224.194C162.27 223.438 161.841 222.827 161.262 222.361C160.682 221.895 159.944 221.662 159.046 221.662C158.148 221.662 157.409 221.895 156.83 222.361C156.25 222.827 155.821 223.438 155.543 224.194C155.265 224.949 155.125 225.765 155.125 226.64C155.125 227.515 155.265 228.327 155.543 229.077C155.821 229.827 156.25 230.432 156.83 230.893C157.409 231.353 158.148 231.583 159.046 231.583ZM170.059 225.242V233.117H168.048V220.026H169.991V222.071H170.162C170.468 221.407 170.934 220.873 171.559 220.469C172.184 220.06 172.991 219.856 173.98 219.856C174.866 219.856 175.642 220.037 176.306 220.401C176.971 220.759 177.488 221.304 177.858 222.037C178.227 222.765 178.412 223.685 178.412 224.799V233.117H176.4V224.935C176.4 223.907 176.133 223.106 175.599 222.532C175.065 221.952 174.332 221.662 173.4 221.662C172.758 221.662 172.184 221.802 171.679 222.08C171.179 222.358 170.784 222.765 170.494 223.299C170.204 223.833 170.059 224.481 170.059 225.242ZM191.36 222.958L189.553 223.469C189.439 223.168 189.272 222.875 189.05 222.591C188.834 222.302 188.539 222.063 188.164 221.875C187.789 221.688 187.309 221.594 186.723 221.594C185.922 221.594 185.255 221.779 184.721 222.148C184.192 222.512 183.928 222.975 183.928 223.537C183.928 224.037 184.11 224.432 184.473 224.722C184.837 225.012 185.405 225.253 186.178 225.446L188.121 225.924C189.292 226.208 190.164 226.643 190.738 227.228C191.311 227.807 191.598 228.554 191.598 229.469C191.598 230.219 191.382 230.89 190.951 231.481C190.525 232.071 189.928 232.537 189.161 232.878C188.394 233.219 187.502 233.39 186.485 233.39C185.15 233.39 184.044 233.1 183.169 232.52C182.294 231.941 181.74 231.094 181.507 229.981L183.417 229.503C183.598 230.208 183.942 230.736 184.448 231.089C184.959 231.441 185.627 231.617 186.451 231.617C187.388 231.617 188.132 231.418 188.684 231.02C189.24 230.617 189.519 230.134 189.519 229.571C189.519 229.117 189.36 228.736 189.042 228.429C188.723 228.117 188.235 227.884 187.576 227.731L185.394 227.219C184.195 226.935 183.314 226.495 182.752 225.898C182.195 225.296 181.917 224.543 181.917 223.64C181.917 222.901 182.124 222.248 182.539 221.679C182.959 221.111 183.53 220.665 184.252 220.341C184.979 220.018 185.803 219.856 186.723 219.856C188.019 219.856 189.036 220.14 189.775 220.708C190.519 221.276 191.047 222.026 191.36 222.958ZM200.115 233.39C198.853 233.39 197.765 233.111 196.85 232.554C195.941 231.992 195.24 231.208 194.745 230.202C194.257 229.191 194.012 228.015 194.012 226.674C194.012 225.333 194.257 224.151 194.745 223.128C195.24 222.1 195.927 221.299 196.808 220.725C197.694 220.145 198.728 219.856 199.91 219.856C200.592 219.856 201.265 219.969 201.93 220.196C202.595 220.424 203.2 220.793 203.745 221.304C204.291 221.81 204.725 222.481 205.049 223.316C205.373 224.151 205.535 225.179 205.535 226.401V227.253H195.444V225.515H203.49C203.49 224.776 203.342 224.117 203.047 223.537C202.757 222.958 202.342 222.5 201.802 222.165C201.268 221.83 200.637 221.662 199.91 221.662C199.109 221.662 198.416 221.861 197.831 222.259C197.251 222.651 196.805 223.162 196.493 223.793C196.18 224.424 196.024 225.1 196.024 225.821V226.981C196.024 227.969 196.194 228.807 196.535 229.495C196.882 230.177 197.362 230.696 197.975 231.054C198.589 231.407 199.302 231.583 200.115 231.583C200.643 231.583 201.12 231.509 201.547 231.361C201.978 231.208 202.35 230.981 202.663 230.679C202.975 230.373 203.217 229.992 203.387 229.537L205.331 230.083C205.126 230.742 204.782 231.321 204.299 231.821C203.816 232.316 203.22 232.702 202.51 232.981C201.799 233.253 201.001 233.39 200.115 233.39ZM213.913 233.39C212.686 233.39 211.629 233.1 210.743 232.52C209.856 231.941 209.174 231.143 208.697 230.125C208.22 229.108 207.981 227.946 207.981 226.64C207.981 225.31 208.225 224.137 208.714 223.12C209.208 222.097 209.896 221.299 210.777 220.725C211.663 220.145 212.697 219.856 213.879 219.856C214.799 219.856 215.629 220.026 216.368 220.367C217.106 220.708 217.711 221.185 218.183 221.799C218.654 222.412 218.947 223.128 219.061 223.946H217.049C216.896 223.35 216.555 222.821 216.027 222.361C215.504 221.895 214.799 221.662 213.913 221.662C213.129 221.662 212.441 221.867 211.85 222.276C211.265 222.679 210.808 223.25 210.478 223.989C210.154 224.722 209.993 225.583 209.993 226.571C209.993 227.583 210.152 228.464 210.47 229.214C210.794 229.964 211.248 230.546 211.833 230.961C212.424 231.375 213.118 231.583 213.913 231.583C214.436 231.583 214.91 231.492 215.336 231.31C215.762 231.128 216.123 230.867 216.419 230.526C216.714 230.185 216.924 229.776 217.049 229.299H219.061C218.947 230.071 218.666 230.768 218.217 231.387C217.774 232 217.186 232.489 216.453 232.853C215.725 233.211 214.879 233.39 213.913 233.39ZM227.694 220.026V221.731H220.91V220.026H227.694ZM222.887 216.89H224.899V229.367C224.899 229.935 224.981 230.361 225.146 230.645C225.316 230.924 225.532 231.111 225.794 231.208C226.061 231.299 226.342 231.344 226.637 231.344C226.859 231.344 227.041 231.333 227.183 231.31C227.325 231.282 227.439 231.259 227.524 231.242L227.933 233.049C227.797 233.1 227.606 233.151 227.362 233.202C227.118 233.259 226.808 233.287 226.433 233.287C225.865 233.287 225.308 233.165 224.762 232.921C224.223 232.677 223.774 232.304 223.416 231.804C223.064 231.304 222.887 230.674 222.887 229.912V216.89ZM236.068 233.39C234.806 233.39 233.718 233.111 232.804 232.554C231.895 231.992 231.193 231.208 230.699 230.202C230.21 229.191 229.966 228.015 229.966 226.674C229.966 225.333 230.21 224.151 230.699 223.128C231.193 222.1 231.88 221.299 232.761 220.725C233.647 220.145 234.681 219.856 235.863 219.856C236.545 219.856 237.218 219.969 237.883 220.196C238.548 220.424 239.153 220.793 239.699 221.304C240.244 221.81 240.679 222.481 241.002 223.316C241.326 224.151 241.488 225.179 241.488 226.401V227.253H231.397V225.515H239.443C239.443 224.776 239.295 224.117 239 223.537C238.71 222.958 238.295 222.5 237.755 222.165C237.221 221.83 236.591 221.662 235.863 221.662C235.062 221.662 234.369 221.861 233.784 222.259C233.204 222.651 232.758 223.162 232.446 223.793C232.133 224.424 231.977 225.1 231.977 225.821V226.981C231.977 227.969 232.147 228.807 232.488 229.495C232.835 230.177 233.315 230.696 233.929 231.054C234.542 231.407 235.255 231.583 236.068 231.583C236.596 231.583 237.074 231.509 237.5 231.361C237.931 231.208 238.304 230.981 238.616 230.679C238.929 230.373 239.17 229.992 239.341 229.537L241.284 230.083C241.079 230.742 240.735 231.321 240.252 231.821C239.77 232.316 239.173 232.702 238.463 232.981C237.752 233.253 236.954 233.39 236.068 233.39ZM250.241 220.026V221.731H243.457V220.026H250.241ZM245.434 216.89H247.446V229.367C247.446 229.935 247.528 230.361 247.693 230.645C247.863 230.924 248.079 231.111 248.341 231.208C248.608 231.299 248.889 231.344 249.184 231.344C249.406 231.344 249.588 231.333 249.73 231.31C249.872 231.282 249.985 231.259 250.071 231.242L250.48 233.049C250.343 233.1 250.153 233.151 249.909 233.202C249.664 233.259 249.355 233.287 248.98 233.287C248.412 233.287 247.855 233.165 247.309 232.921C246.77 232.677 246.321 232.304 245.963 231.804C245.61 231.304 245.434 230.674 245.434 229.912V216.89ZM261.517 227.765V220.026H263.528V233.117H261.517V230.901H261.38C261.074 231.566 260.596 232.131 259.949 232.597C259.301 233.057 258.483 233.287 257.494 233.287C256.676 233.287 255.949 233.108 255.312 232.75C254.676 232.387 254.176 231.841 253.812 231.114C253.449 230.381 253.267 229.458 253.267 228.344V220.026H255.278V228.208C255.278 229.162 255.545 229.924 256.079 230.492C256.619 231.06 257.306 231.344 258.142 231.344C258.642 231.344 259.15 231.216 259.667 230.961C260.19 230.705 260.627 230.313 260.98 229.785C261.338 229.256 261.517 228.583 261.517 227.765ZM267.212 233.117V220.026H269.155V222.003H269.292C269.53 221.356 269.962 220.83 270.587 220.427C271.212 220.023 271.917 219.821 272.701 219.821C272.848 219.821 273.033 219.824 273.255 219.83C273.476 219.836 273.644 219.844 273.757 219.856V221.901C273.689 221.884 273.533 221.858 273.289 221.824C273.05 221.785 272.797 221.765 272.53 221.765C271.894 221.765 271.326 221.898 270.826 222.165C270.331 222.427 269.939 222.79 269.65 223.256C269.365 223.716 269.223 224.242 269.223 224.833V233.117H267.212ZM286.744 233.424C285.914 233.424 285.162 233.268 284.485 232.955C283.809 232.637 283.272 232.179 282.875 231.583C282.477 230.981 282.278 230.253 282.278 229.401C282.278 228.651 282.426 228.043 282.721 227.577C283.017 227.106 283.412 226.736 283.906 226.469C284.4 226.202 284.946 226.003 285.542 225.873C286.145 225.736 286.75 225.628 287.358 225.549C288.153 225.446 288.798 225.37 289.292 225.319C289.792 225.262 290.156 225.168 290.383 225.037C290.616 224.907 290.733 224.679 290.733 224.356V224.287C290.733 223.446 290.502 222.793 290.042 222.327C289.588 221.861 288.897 221.628 287.971 221.628C287.011 221.628 286.258 221.839 285.713 222.259C285.167 222.679 284.784 223.128 284.562 223.606L282.653 222.924C282.994 222.128 283.449 221.509 284.017 221.066C284.591 220.617 285.216 220.304 285.892 220.128C286.574 219.946 287.244 219.856 287.903 219.856C288.324 219.856 288.806 219.907 289.352 220.009C289.903 220.106 290.434 220.307 290.946 220.614C291.463 220.921 291.892 221.384 292.233 222.003C292.574 222.623 292.744 223.452 292.744 224.492V233.117H290.733V231.344H290.63C290.494 231.628 290.267 231.932 289.949 232.256C289.63 232.58 289.207 232.856 288.679 233.083C288.15 233.31 287.505 233.424 286.744 233.424ZM287.051 231.617C287.846 231.617 288.517 231.461 289.062 231.148C289.613 230.836 290.028 230.432 290.306 229.938C290.591 229.444 290.733 228.924 290.733 228.378V226.537C290.647 226.64 290.46 226.733 290.17 226.819C289.886 226.898 289.556 226.969 289.181 227.032C288.812 227.089 288.451 227.14 288.099 227.185C287.752 227.225 287.471 227.259 287.255 227.287C286.733 227.356 286.244 227.466 285.789 227.62C285.341 227.768 284.977 227.992 284.699 228.293C284.426 228.589 284.289 228.992 284.289 229.503C284.289 230.202 284.548 230.731 285.065 231.089C285.588 231.441 286.25 231.617 287.051 231.617ZM301.358 233.39C300.267 233.39 299.304 233.114 298.469 232.563C297.634 232.006 296.98 231.222 296.509 230.211C296.037 229.194 295.801 227.992 295.801 226.606C295.801 225.231 296.037 224.037 296.509 223.026C296.98 222.015 297.637 221.233 298.478 220.682C299.319 220.131 300.29 219.856 301.392 219.856C302.245 219.856 302.918 219.998 303.412 220.282C303.912 220.56 304.293 220.878 304.554 221.236C304.821 221.589 305.029 221.878 305.176 222.106H305.347V215.662H307.358V233.117H305.415V231.106H305.176C305.029 231.344 304.819 231.645 304.546 232.009C304.273 232.367 303.884 232.688 303.378 232.972C302.873 233.25 302.199 233.39 301.358 233.39ZM301.631 231.583C302.438 231.583 303.12 231.373 303.676 230.952C304.233 230.526 304.657 229.938 304.946 229.188C305.236 228.432 305.381 227.56 305.381 226.571C305.381 225.594 305.239 224.739 304.955 224.006C304.671 223.268 304.25 222.694 303.694 222.285C303.137 221.87 302.449 221.662 301.631 221.662C300.779 221.662 300.069 221.881 299.5 222.319C298.938 222.75 298.515 223.339 298.23 224.083C297.952 224.821 297.813 225.651 297.813 226.571C297.813 227.503 297.955 228.35 298.239 229.111C298.529 229.867 298.955 230.469 299.517 230.918C300.086 231.361 300.79 231.583 301.631 231.583ZM311.321 233.117V220.026H313.333V233.117H311.321ZM312.344 217.844C311.952 217.844 311.614 217.711 311.33 217.444C311.051 217.177 310.912 216.856 310.912 216.481C310.912 216.106 311.051 215.785 311.33 215.518C311.614 215.25 311.952 215.117 312.344 215.117C312.736 215.117 313.071 215.25 313.35 215.518C313.634 215.785 313.776 216.106 313.776 216.481C313.776 216.856 313.634 217.177 313.35 217.444C313.071 217.711 312.736 217.844 312.344 217.844ZM317.017 238.026V220.026H318.96V222.106H319.199C319.346 221.878 319.551 221.589 319.812 221.236C320.079 220.878 320.46 220.56 320.954 220.282C321.454 219.998 322.13 219.856 322.983 219.856C324.085 219.856 325.056 220.131 325.897 220.682C326.738 221.233 327.395 222.015 327.866 223.026C328.338 224.037 328.574 225.231 328.574 226.606C328.574 227.992 328.338 229.194 327.866 230.211C327.395 231.222 326.741 232.006 325.906 232.563C325.071 233.114 324.108 233.39 323.017 233.39C322.176 233.39 321.502 233.25 320.997 232.972C320.491 232.688 320.102 232.367 319.829 232.009C319.556 231.645 319.346 231.344 319.199 231.106H319.028V238.026H317.017ZM318.994 226.571C318.994 227.56 319.139 228.432 319.429 229.188C319.718 229.938 320.142 230.526 320.699 230.952C321.255 231.373 321.937 231.583 322.744 231.583C323.585 231.583 324.287 231.361 324.849 230.918C325.417 230.469 325.843 229.867 326.127 229.111C326.417 228.35 326.562 227.503 326.562 226.571C326.562 225.651 326.42 224.821 326.136 224.083C325.858 223.339 325.434 222.75 324.866 222.319C324.304 221.881 323.596 221.662 322.744 221.662C321.926 221.662 321.238 221.87 320.681 222.285C320.125 222.694 319.704 223.268 319.42 224.006C319.136 224.739 318.994 225.594 318.994 226.571ZM331.642 233.117V220.026H333.653V233.117H331.642ZM332.664 217.844C332.272 217.844 331.934 217.711 331.65 217.444C331.372 217.177 331.233 216.856 331.233 216.481C331.233 216.106 331.372 215.785 331.65 215.518C331.934 215.25 332.272 215.117 332.664 215.117C333.056 215.117 333.392 215.25 333.67 215.518C333.954 215.785 334.096 216.106 334.096 216.481C334.096 216.856 333.954 217.177 333.67 217.444C333.392 217.711 333.056 217.844 332.664 217.844ZM346.61 222.958L344.803 223.469C344.689 223.168 344.522 222.875 344.3 222.591C344.084 222.302 343.789 222.063 343.414 221.875C343.039 221.688 342.559 221.594 341.973 221.594C341.172 221.594 340.505 221.779 339.971 222.148C339.442 222.512 339.178 222.975 339.178 223.537C339.178 224.037 339.36 224.432 339.723 224.722C340.087 225.012 340.655 225.253 341.428 225.446L343.371 225.924C344.542 226.208 345.414 226.643 345.988 227.228C346.561 227.807 346.848 228.554 346.848 229.469C346.848 230.219 346.632 230.89 346.201 231.481C345.775 232.071 345.178 232.537 344.411 232.878C343.644 233.219 342.752 233.39 341.735 233.39C340.4 233.39 339.294 233.1 338.419 232.52C337.544 231.941 336.99 231.094 336.757 229.981L338.667 229.503C338.848 230.208 339.192 230.736 339.698 231.089C340.209 231.441 340.877 231.617 341.701 231.617C342.638 231.617 343.382 231.418 343.934 231.02C344.49 230.617 344.769 230.134 344.769 229.571C344.769 229.117 344.61 228.736 344.292 228.429C343.973 228.117 343.485 227.884 342.826 227.731L340.644 227.219C339.445 226.935 338.564 226.495 338.002 225.898C337.445 225.296 337.167 224.543 337.167 223.64C337.167 222.901 337.374 222.248 337.789 221.679C338.209 221.111 338.78 220.665 339.502 220.341C340.229 220.018 341.053 219.856 341.973 219.856C343.269 219.856 344.286 220.14 345.025 220.708C345.769 221.276 346.297 222.026 346.61 222.958ZM355.194 233.39C353.967 233.39 352.91 233.1 352.024 232.52C351.137 231.941 350.456 231.143 349.978 230.125C349.501 229.108 349.262 227.946 349.262 226.64C349.262 225.31 349.507 224.137 349.995 223.12C350.49 222.097 351.177 221.299 352.058 220.725C352.944 220.145 353.978 219.856 355.16 219.856C356.081 219.856 356.91 220.026 357.649 220.367C358.387 220.708 358.993 221.185 359.464 221.799C359.936 222.412 360.228 223.128 360.342 223.946H358.331C358.177 223.35 357.836 222.821 357.308 222.361C356.785 221.895 356.081 221.662 355.194 221.662C354.41 221.662 353.723 221.867 353.132 222.276C352.547 222.679 352.089 223.25 351.76 223.989C351.436 224.722 351.274 225.583 351.274 226.571C351.274 227.583 351.433 228.464 351.751 229.214C352.075 229.964 352.529 230.546 353.115 230.961C353.706 231.375 354.399 231.583 355.194 231.583C355.717 231.583 356.191 231.492 356.618 231.31C357.044 231.128 357.404 230.867 357.7 230.526C357.995 230.185 358.206 229.776 358.331 229.299H360.342C360.228 230.071 359.947 230.768 359.498 231.387C359.055 232 358.467 232.489 357.734 232.853C357.007 233.211 356.16 233.39 355.194 233.39ZM363.282 233.117V220.026H365.294V233.117H363.282ZM364.305 217.844C363.913 217.844 363.575 217.711 363.291 217.444C363.012 217.177 362.873 216.856 362.873 216.481C362.873 216.106 363.012 215.785 363.291 215.518C363.575 215.25 363.913 215.117 364.305 215.117C364.697 215.117 365.032 215.25 365.311 215.518C365.595 215.785 365.737 216.106 365.737 216.481C365.737 216.856 365.595 217.177 365.311 217.444C365.032 217.711 364.697 217.844 364.305 217.844ZM370.989 225.242V233.117H368.978V220.026H370.921V222.071H371.091C371.398 221.407 371.864 220.873 372.489 220.469C373.114 220.06 373.921 219.856 374.909 219.856C375.796 219.856 376.571 220.037 377.236 220.401C377.901 220.759 378.418 221.304 378.787 222.037C379.157 222.765 379.341 223.685 379.341 224.799V233.117H377.33V224.935C377.33 223.907 377.063 223.106 376.529 222.532C375.995 221.952 375.262 221.662 374.33 221.662C373.688 221.662 373.114 221.802 372.608 222.08C372.108 222.358 371.713 222.765 371.424 223.299C371.134 223.833 370.989 224.481 370.989 225.242ZM388.301 238.299C387.329 238.299 386.494 238.174 385.795 237.924C385.096 237.679 384.514 237.356 384.048 236.952C383.588 236.554 383.221 236.128 382.949 235.674L384.551 234.549C384.733 234.787 384.963 235.06 385.241 235.367C385.52 235.679 385.9 235.949 386.383 236.177C386.872 236.41 387.511 236.526 388.301 236.526C389.358 236.526 390.23 236.27 390.917 235.759C391.605 235.248 391.949 234.446 391.949 233.356V230.696H391.778C391.63 230.935 391.42 231.231 391.147 231.583C390.88 231.929 390.494 232.239 389.988 232.512C389.488 232.779 388.812 232.912 387.96 232.912C386.903 232.912 385.954 232.662 385.113 232.162C384.278 231.662 383.616 230.935 383.127 229.981C382.645 229.026 382.403 227.867 382.403 226.503C382.403 225.162 382.639 223.995 383.11 223C383.582 222 384.238 221.228 385.079 220.682C385.92 220.131 386.892 219.856 387.994 219.856C388.846 219.856 389.522 219.998 390.022 220.282C390.528 220.56 390.914 220.878 391.181 221.236C391.454 221.589 391.664 221.878 391.812 222.106H392.017V220.026H393.96V233.492C393.96 234.617 393.704 235.532 393.193 236.236C392.687 236.946 392.005 237.466 391.147 237.796C390.295 238.131 389.346 238.299 388.301 238.299ZM388.233 231.106C389.039 231.106 389.721 230.921 390.278 230.552C390.835 230.182 391.258 229.651 391.548 228.958C391.838 228.265 391.983 227.435 391.983 226.469C391.983 225.526 391.841 224.694 391.556 223.972C391.272 223.25 390.852 222.685 390.295 222.276C389.738 221.867 389.051 221.662 388.233 221.662C387.38 221.662 386.67 221.878 386.102 222.31C385.539 222.742 385.116 223.321 384.832 224.049C384.554 224.776 384.414 225.583 384.414 226.469C384.414 227.378 384.556 228.182 384.841 228.881C385.13 229.574 385.556 230.12 386.119 230.518C386.687 230.91 387.392 231.106 388.233 231.106ZM409.88 233.39C408.619 233.39 407.531 233.111 406.616 232.554C405.707 231.992 405.005 231.208 404.511 230.202C404.022 229.191 403.778 228.015 403.778 226.674C403.778 225.333 404.022 224.151 404.511 223.128C405.005 222.1 405.693 221.299 406.574 220.725C407.46 220.145 408.494 219.856 409.676 219.856C410.358 219.856 411.031 219.969 411.696 220.196C412.36 220.424 412.966 220.793 413.511 221.304C414.056 221.81 414.491 222.481 414.815 223.316C415.139 224.151 415.301 225.179 415.301 226.401V227.253H405.21V225.515H413.255C413.255 224.776 413.108 224.117 412.812 223.537C412.522 222.958 412.108 222.5 411.568 222.165C411.034 221.83 410.403 221.662 409.676 221.662C408.875 221.662 408.181 221.861 407.596 222.259C407.017 222.651 406.571 223.162 406.258 223.793C405.946 224.424 405.789 225.1 405.789 225.821V226.981C405.789 227.969 405.96 228.807 406.301 229.495C406.647 230.177 407.127 230.696 407.741 231.054C408.355 231.407 409.068 231.583 409.88 231.583C410.409 231.583 410.886 231.509 411.312 231.361C411.744 231.208 412.116 230.981 412.429 230.679C412.741 230.373 412.983 229.992 413.153 229.537L415.096 230.083C414.892 230.742 414.548 231.321 414.065 231.821C413.582 232.316 412.985 232.702 412.275 232.981C411.565 233.253 410.767 233.39 409.88 233.39ZM420.372 215.662V233.117H418.36V215.662H420.372ZM424.056 233.117V220.026H426.067V233.117H424.056ZM425.078 217.844C424.686 217.844 424.348 217.711 424.064 217.444C423.786 217.177 423.647 216.856 423.647 216.481C423.647 216.106 423.786 215.785 424.064 215.518C424.348 215.25 424.686 215.117 425.078 215.117C425.471 215.117 425.806 215.25 426.084 215.518C426.368 215.785 426.51 216.106 426.51 216.481C426.51 216.856 426.368 217.177 426.084 217.444C425.806 217.711 425.471 217.844 425.078 217.844ZM435.444 220.026V221.731H428.66V220.026H435.444ZM430.637 216.89H432.649V229.367C432.649 229.935 432.731 230.361 432.896 230.645C433.066 230.924 433.282 231.111 433.544 231.208C433.811 231.299 434.092 231.344 434.387 231.344C434.609 231.344 434.791 231.333 434.933 231.31C435.075 231.282 435.189 231.259 435.274 231.242L435.683 233.049C435.547 233.1 435.356 233.151 435.112 233.202C434.868 233.259 434.558 233.287 434.183 233.287C433.615 233.287 433.058 233.165 432.512 232.921C431.973 232.677 431.524 232.304 431.166 231.804C430.814 231.304 430.637 230.674 430.637 229.912V216.89ZM439.936 233.253C439.515 233.253 439.154 233.103 438.853 232.802C438.552 232.5 438.402 232.14 438.402 231.719C438.402 231.299 438.552 230.938 438.853 230.637C439.154 230.336 439.515 230.185 439.936 230.185C440.356 230.185 440.717 230.336 441.018 230.637C441.319 230.938 441.47 231.299 441.47 231.719C441.47 231.998 441.399 232.253 441.257 232.486C441.12 232.719 440.936 232.907 440.703 233.049C440.475 233.185 440.22 233.253 439.936 233.253ZM452.102 233.117V215.662H462.636V217.537H454.216V223.435H462.091V225.31H454.216V231.242H462.772V233.117H452.102ZM475.446 222.958L473.639 223.469C473.525 223.168 473.358 222.875 473.136 222.591C472.92 222.302 472.625 222.063 472.25 221.875C471.875 221.688 471.395 221.594 470.809 221.594C470.008 221.594 469.341 221.779 468.806 222.148C468.278 222.512 468.014 222.975 468.014 223.537C468.014 224.037 468.196 224.432 468.559 224.722C468.923 225.012 469.491 225.253 470.264 225.446L472.207 225.924C473.377 226.208 474.25 226.643 474.824 227.228C475.397 227.807 475.684 228.554 475.684 229.469C475.684 230.219 475.468 230.89 475.037 231.481C474.61 232.071 474.014 232.537 473.247 232.878C472.48 233.219 471.588 233.39 470.571 233.39C469.235 233.39 468.13 233.1 467.255 232.52C466.38 231.941 465.826 231.094 465.593 229.981L467.502 229.503C467.684 230.208 468.028 230.736 468.534 231.089C469.045 231.441 469.713 231.617 470.537 231.617C471.474 231.617 472.218 231.418 472.77 231.02C473.326 230.617 473.605 230.134 473.605 229.571C473.605 229.117 473.446 228.736 473.127 228.429C472.809 228.117 472.321 227.884 471.662 227.731L469.48 227.219C468.281 226.935 467.4 226.495 466.838 225.898C466.281 225.296 466.002 224.543 466.002 223.64C466.002 222.901 466.21 222.248 466.625 221.679C467.045 221.111 467.616 220.665 468.338 220.341C469.065 220.018 469.889 219.856 470.809 219.856C472.105 219.856 473.122 220.14 473.86 220.708C474.605 221.276 475.133 222.026 475.446 222.958ZM484.405 220.026V221.731H477.621V220.026H484.405ZM479.598 216.89H481.61V229.367C481.61 229.935 481.692 230.361 481.857 230.645C482.027 230.924 482.243 231.111 482.505 231.208C482.772 231.299 483.053 231.344 483.348 231.344C483.57 231.344 483.752 231.333 483.894 231.31C484.036 231.282 484.15 231.259 484.235 231.242L484.644 233.049C484.507 233.1 484.317 233.151 484.073 233.202C483.828 233.259 483.519 233.287 483.144 233.287C482.576 233.287 482.019 233.165 481.473 232.921C480.934 232.677 480.485 232.304 480.127 231.804C479.775 231.304 479.598 230.674 479.598 229.912V216.89ZM496.192 215.662V233.117H494.181V215.662H496.192ZM499.876 233.117V220.026H501.887V233.117H499.876ZM500.899 217.844C500.507 217.844 500.169 217.711 499.885 217.444C499.606 217.177 499.467 216.856 499.467 216.481C499.467 216.106 499.606 215.785 499.885 215.518C500.169 215.25 500.507 215.117 500.899 215.117C501.291 215.117 501.626 215.25 501.904 215.518C502.189 215.785 502.331 216.106 502.331 216.481C502.331 216.856 502.189 217.177 501.904 217.444C501.626 217.711 501.291 217.844 500.899 217.844ZM510.855 238.299C509.884 238.299 509.049 238.174 508.35 237.924C507.651 237.679 507.069 237.356 506.603 236.952C506.142 236.554 505.776 236.128 505.503 235.674L507.105 234.549C507.287 234.787 507.517 235.06 507.796 235.367C508.074 235.679 508.455 235.949 508.938 236.177C509.426 236.41 510.066 236.526 510.855 236.526C511.912 236.526 512.784 236.27 513.472 235.759C514.159 235.248 514.503 234.446 514.503 233.356V230.696H514.333C514.185 230.935 513.975 231.231 513.702 231.583C513.435 231.929 513.049 232.239 512.543 232.512C512.043 232.779 511.367 232.912 510.515 232.912C509.458 232.912 508.509 232.662 507.668 232.162C506.833 231.662 506.171 230.935 505.682 229.981C505.199 229.026 504.958 227.867 504.958 226.503C504.958 225.162 505.194 223.995 505.665 223C506.137 222 506.793 221.228 507.634 220.682C508.475 220.131 509.446 219.856 510.549 219.856C511.401 219.856 512.077 219.998 512.577 220.282C513.083 220.56 513.469 220.878 513.736 221.236C514.009 221.589 514.219 221.878 514.367 222.106H514.571V220.026H516.515V233.492C516.515 234.617 516.259 235.532 515.748 236.236C515.242 236.946 514.56 237.466 513.702 237.796C512.85 238.131 511.901 238.299 510.855 238.299ZM510.787 231.106C511.594 231.106 512.276 230.921 512.833 230.552C513.39 230.182 513.813 229.651 514.103 228.958C514.392 228.265 514.537 227.435 514.537 226.469C514.537 225.526 514.395 224.694 514.111 223.972C513.827 223.25 513.407 222.685 512.85 222.276C512.293 221.867 511.605 221.662 510.787 221.662C509.935 221.662 509.225 221.878 508.657 222.31C508.094 222.742 507.671 223.321 507.387 224.049C507.108 224.776 506.969 225.583 506.969 226.469C506.969 227.378 507.111 228.182 507.395 228.881C507.685 229.574 508.111 230.12 508.674 230.518C509.242 230.91 509.946 231.106 510.787 231.106ZM528.446 227.765V220.026H530.458V233.117H528.446V230.901H528.31C528.003 231.566 527.526 232.131 526.878 232.597C526.23 233.057 525.412 233.287 524.424 233.287C523.605 233.287 522.878 233.108 522.242 232.75C521.605 232.387 521.105 231.841 520.742 231.114C520.378 230.381 520.196 229.458 520.196 228.344V220.026H522.208V228.208C522.208 229.162 522.475 229.924 523.009 230.492C523.549 231.06 524.236 231.344 525.071 231.344C525.571 231.344 526.08 231.216 526.597 230.961C527.12 230.705 527.557 230.313 527.909 229.785C528.267 229.256 528.446 228.583 528.446 227.765ZM536.153 215.662V233.117H534.142V215.662H536.153ZM543.689 233.424C542.86 233.424 542.107 233.268 541.431 232.955C540.755 232.637 540.218 232.179 539.82 231.583C539.422 230.981 539.223 230.253 539.223 229.401C539.223 228.651 539.371 228.043 539.667 227.577C539.962 227.106 540.357 226.736 540.851 226.469C541.346 226.202 541.891 226.003 542.488 225.873C543.09 225.736 543.695 225.628 544.303 225.549C545.098 225.446 545.743 225.37 546.238 225.319C546.738 225.262 547.101 225.168 547.328 225.037C547.561 224.907 547.678 224.679 547.678 224.356V224.287C547.678 223.446 547.448 222.793 546.988 222.327C546.533 221.861 545.843 221.628 544.917 221.628C543.956 221.628 543.203 221.839 542.658 222.259C542.113 222.679 541.729 223.128 541.507 223.606L539.598 222.924C539.939 222.128 540.394 221.509 540.962 221.066C541.536 220.617 542.161 220.304 542.837 220.128C543.519 219.946 544.189 219.856 544.848 219.856C545.269 219.856 545.752 219.907 546.297 220.009C546.848 220.106 547.38 220.307 547.891 220.614C548.408 220.921 548.837 221.384 549.178 222.003C549.519 222.623 549.689 223.452 549.689 224.492V233.117H547.678V231.344H547.576C547.439 231.628 547.212 231.932 546.894 232.256C546.576 232.58 546.152 232.856 545.624 233.083C545.096 233.31 544.451 233.424 543.689 233.424ZM543.996 231.617C544.792 231.617 545.462 231.461 546.007 231.148C546.559 230.836 546.973 230.432 547.252 229.938C547.536 229.444 547.678 228.924 547.678 228.378V226.537C547.593 226.64 547.405 226.733 547.115 226.819C546.831 226.898 546.502 226.969 546.127 227.032C545.757 227.089 545.397 227.14 545.044 227.185C544.698 227.225 544.417 227.259 544.201 227.287C543.678 227.356 543.189 227.466 542.735 227.62C542.286 227.768 541.922 227.992 541.644 228.293C541.371 228.589 541.235 228.992 541.235 229.503C541.235 230.202 541.493 230.731 542.01 231.089C542.533 231.441 543.195 231.617 543.996 231.617ZM193.686 249.026V250.731H186.902V249.026H193.686ZM188.88 245.89H190.891V258.367C190.891 258.935 190.973 259.361 191.138 259.645C191.309 259.924 191.525 260.111 191.786 260.208C192.053 260.299 192.334 260.344 192.63 260.344C192.851 260.344 193.033 260.333 193.175 260.31C193.317 260.282 193.431 260.259 193.516 260.242L193.925 262.049C193.789 262.1 193.598 262.151 193.354 262.202C193.11 262.259 192.8 262.287 192.425 262.287C191.857 262.287 191.3 262.165 190.755 261.921C190.215 261.677 189.766 261.304 189.408 260.804C189.056 260.304 188.88 259.674 188.88 258.912V245.89ZM196.712 262.117V249.026H198.655V251.003H198.792C199.03 250.356 199.462 249.83 200.087 249.427C200.712 249.023 201.417 248.821 202.201 248.821C202.348 248.821 202.533 248.824 202.755 248.83C202.976 248.836 203.144 248.844 203.257 248.856V250.901C203.189 250.884 203.033 250.858 202.789 250.824C202.55 250.785 202.297 250.765 202.03 250.765C201.394 250.765 200.826 250.898 200.326 251.165C199.831 251.427 199.439 251.79 199.15 252.256C198.865 252.716 198.723 253.242 198.723 253.833V262.117H196.712ZM205.642 262.117V249.026H207.653V262.117H205.642ZM206.664 246.844C206.272 246.844 205.934 246.711 205.65 246.444C205.372 246.177 205.233 245.856 205.233 245.481C205.233 245.106 205.372 244.785 205.65 244.518C205.934 244.25 206.272 244.117 206.664 244.117C207.056 244.117 207.392 244.25 207.67 244.518C207.954 244.785 208.096 245.106 208.096 245.481C208.096 245.856 207.954 246.177 207.67 246.444C207.392 246.711 207.056 246.844 206.664 246.844ZM220.61 251.958L218.803 252.469C218.689 252.168 218.522 251.875 218.3 251.591C218.084 251.302 217.789 251.063 217.414 250.875C217.039 250.688 216.559 250.594 215.973 250.594C215.172 250.594 214.505 250.779 213.971 251.148C213.442 251.512 213.178 251.975 213.178 252.537C213.178 253.037 213.36 253.432 213.723 253.722C214.087 254.012 214.655 254.253 215.428 254.446L217.371 254.924C218.542 255.208 219.414 255.643 219.988 256.228C220.561 256.807 220.848 257.554 220.848 258.469C220.848 259.219 220.632 259.89 220.201 260.481C219.775 261.071 219.178 261.537 218.411 261.878C217.644 262.219 216.752 262.39 215.735 262.39C214.4 262.39 213.294 262.1 212.419 261.52C211.544 260.941 210.99 260.094 210.757 258.981L212.667 258.503C212.848 259.208 213.192 259.736 213.698 260.089C214.209 260.441 214.877 260.617 215.701 260.617C216.638 260.617 217.382 260.418 217.934 260.02C218.49 259.617 218.769 259.134 218.769 258.571C218.769 258.117 218.61 257.736 218.292 257.429C217.973 257.117 217.485 256.884 216.826 256.731L214.644 256.219C213.445 255.935 212.564 255.495 212.002 254.898C211.445 254.296 211.167 253.543 211.167 252.64C211.167 251.901 211.374 251.248 211.789 250.679C212.209 250.111 212.78 249.665 213.502 249.341C214.229 249.018 215.053 248.856 215.973 248.856C217.269 248.856 218.286 249.14 219.025 249.708C219.769 250.276 220.297 251.026 220.61 251.958ZM229.569 249.026V250.731H222.785V249.026H229.569ZM224.762 245.89H226.774V258.367C226.774 258.935 226.856 259.361 227.021 259.645C227.191 259.924 227.407 260.111 227.669 260.208C227.936 260.299 228.217 260.344 228.512 260.344C228.734 260.344 228.916 260.333 229.058 260.31C229.2 260.282 229.314 260.259 229.399 260.242L229.808 262.049C229.672 262.1 229.481 262.151 229.237 262.202C228.993 262.259 228.683 262.287 228.308 262.287C227.74 262.287 227.183 262.165 226.637 261.921C226.098 261.677 225.649 261.304 225.291 260.804C224.939 260.304 224.762 259.674 224.762 258.912V245.89ZM232.595 262.117V249.026H234.606V262.117H232.595ZM233.618 246.844C233.225 246.844 232.887 246.711 232.603 246.444C232.325 246.177 232.186 245.856 232.186 245.481C232.186 245.106 232.325 244.785 232.603 244.518C232.887 244.25 233.225 244.117 233.618 244.117C234.01 244.117 234.345 244.25 234.623 244.518C234.907 244.785 235.049 245.106 235.049 245.481C235.049 245.856 234.907 246.177 234.623 246.444C234.345 246.711 234.01 246.844 233.618 246.844ZM247.222 267.026V260.106H247.051C246.904 260.344 246.694 260.645 246.421 261.009C246.148 261.367 245.759 261.688 245.253 261.972C244.748 262.25 244.074 262.39 243.233 262.39C242.142 262.39 241.179 262.114 240.344 261.563C239.509 261.006 238.855 260.222 238.384 259.211C237.912 258.194 237.676 256.992 237.676 255.606C237.676 254.231 237.912 253.037 238.384 252.026C238.855 251.015 239.512 250.233 240.353 249.682C241.194 249.131 242.165 248.856 243.267 248.856C244.12 248.856 244.793 248.998 245.287 249.282C245.787 249.56 246.168 249.878 246.429 250.236C246.696 250.589 246.904 250.878 247.051 251.106H247.29V249.026H249.233V267.026H247.222ZM243.506 260.583C244.313 260.583 244.995 260.373 245.551 259.952C246.108 259.526 246.532 258.938 246.821 258.188C247.111 257.432 247.256 256.56 247.256 255.571C247.256 254.594 247.114 253.739 246.83 253.006C246.546 252.268 246.125 251.694 245.569 251.285C245.012 250.87 244.324 250.662 243.506 250.662C242.654 250.662 241.944 250.881 241.375 251.319C240.813 251.75 240.39 252.339 240.105 253.083C239.827 253.821 239.688 254.651 239.688 255.571C239.688 256.503 239.83 257.35 240.114 258.111C240.404 258.867 240.83 259.469 241.392 259.918C241.961 260.361 242.665 260.583 243.506 260.583ZM261.165 256.765V249.026H263.176V262.117H261.165V259.901H261.029C260.722 260.566 260.245 261.131 259.597 261.597C258.949 262.057 258.131 262.287 257.142 262.287C256.324 262.287 255.597 262.108 254.961 261.75C254.324 261.387 253.824 260.841 253.461 260.114C253.097 259.381 252.915 258.458 252.915 257.344V249.026H254.926V257.208C254.926 258.162 255.194 258.924 255.728 259.492C256.267 260.06 256.955 260.344 257.79 260.344C258.29 260.344 258.799 260.216 259.316 259.961C259.838 259.705 260.276 259.313 260.628 258.785C260.986 258.256 261.165 257.583 261.165 256.765ZM272.349 262.39C271.088 262.39 270 262.111 269.085 261.554C268.176 260.992 267.474 260.208 266.98 259.202C266.491 258.191 266.247 257.015 266.247 255.674C266.247 254.333 266.491 253.151 266.98 252.128C267.474 251.1 268.162 250.299 269.042 249.725C269.929 249.145 270.963 248.856 272.145 248.856C272.826 248.856 273.5 248.969 274.164 249.196C274.829 249.424 275.434 249.793 275.98 250.304C276.525 250.81 276.96 251.481 277.284 252.316C277.608 253.151 277.77 254.179 277.77 255.401V256.253H267.679V254.515H275.724C275.724 253.776 275.576 253.117 275.281 252.537C274.991 251.958 274.576 251.5 274.037 251.165C273.502 250.83 272.872 250.662 272.145 250.662C271.343 250.662 270.65 250.861 270.065 251.259C269.485 251.651 269.039 252.162 268.727 252.793C268.414 253.424 268.258 254.1 268.258 254.821V255.981C268.258 256.969 268.429 257.807 268.77 258.495C269.116 259.177 269.596 259.696 270.21 260.054C270.824 260.407 271.537 260.583 272.349 260.583C272.877 260.583 273.355 260.509 273.781 260.361C274.213 260.208 274.585 259.981 274.897 259.679C275.21 259.373 275.451 258.992 275.622 258.537L277.565 259.083C277.36 259.742 277.017 260.321 276.534 260.821C276.051 261.316 275.454 261.702 274.744 261.981C274.034 262.253 273.235 262.39 272.349 262.39ZM291.431 262.424C290.602 262.424 289.849 262.268 289.173 261.955C288.497 261.637 287.96 261.179 287.562 260.583C287.164 259.981 286.966 259.253 286.966 258.401C286.966 257.651 287.113 257.043 287.409 256.577C287.704 256.106 288.099 255.736 288.593 255.469C289.088 255.202 289.633 255.003 290.23 254.873C290.832 254.736 291.437 254.628 292.045 254.549C292.841 254.446 293.485 254.37 293.98 254.319C294.48 254.262 294.843 254.168 295.071 254.037C295.304 253.907 295.42 253.679 295.42 253.356V253.287C295.42 252.446 295.19 251.793 294.73 251.327C294.275 250.861 293.585 250.628 292.659 250.628C291.699 250.628 290.946 250.839 290.4 251.259C289.855 251.679 289.471 252.128 289.25 252.606L287.341 251.924C287.681 251.128 288.136 250.509 288.704 250.066C289.278 249.617 289.903 249.304 290.579 249.128C291.261 248.946 291.931 248.856 292.591 248.856C293.011 248.856 293.494 248.907 294.039 249.009C294.591 249.106 295.122 249.307 295.633 249.614C296.15 249.921 296.579 250.384 296.92 251.003C297.261 251.623 297.431 252.452 297.431 253.492V262.117H295.42V260.344H295.318C295.181 260.628 294.954 260.932 294.636 261.256C294.318 261.58 293.895 261.856 293.366 262.083C292.838 262.31 292.193 262.424 291.431 262.424ZM291.738 260.617C292.534 260.617 293.204 260.461 293.75 260.148C294.301 259.836 294.716 259.432 294.994 258.938C295.278 258.444 295.42 257.924 295.42 257.378V255.537C295.335 255.64 295.147 255.733 294.858 255.819C294.574 255.898 294.244 255.969 293.869 256.032C293.5 256.089 293.139 256.14 292.787 256.185C292.44 256.225 292.159 256.259 291.943 256.287C291.42 256.356 290.931 256.466 290.477 256.62C290.028 256.768 289.664 256.992 289.386 257.293C289.113 257.589 288.977 257.992 288.977 258.503C288.977 259.202 289.235 259.731 289.752 260.089C290.275 260.441 290.937 260.617 291.738 260.617ZM309.353 256.765V249.026H311.364V262.117H309.353V259.901H309.216C308.909 260.566 308.432 261.131 307.784 261.597C307.137 262.057 306.319 262.287 305.33 262.287C304.512 262.287 303.784 262.108 303.148 261.75C302.512 261.387 302.012 260.841 301.648 260.114C301.284 259.381 301.103 258.458 301.103 257.344V249.026H303.114V257.208C303.114 258.162 303.381 258.924 303.915 259.492C304.455 260.06 305.142 260.344 305.978 260.344C306.478 260.344 306.986 260.216 307.503 259.961C308.026 259.705 308.463 259.313 308.816 258.785C309.174 258.256 309.353 257.583 309.353 256.765ZM320.332 267.299C319.36 267.299 318.525 267.174 317.826 266.924C317.127 266.679 316.545 266.356 316.079 265.952C315.619 265.554 315.252 265.128 314.98 264.674L316.582 263.549C316.764 263.787 316.994 264.06 317.272 264.367C317.551 264.679 317.931 264.949 318.414 265.177C318.903 265.41 319.542 265.526 320.332 265.526C321.389 265.526 322.261 265.27 322.949 264.759C323.636 264.248 323.98 263.446 323.98 262.356V259.696H323.809C323.662 259.935 323.451 260.231 323.179 260.583C322.912 260.929 322.525 261.239 322.02 261.512C321.52 261.779 320.843 261.912 319.991 261.912C318.934 261.912 317.985 261.662 317.145 261.162C316.309 260.662 315.647 259.935 315.159 258.981C314.676 258.026 314.434 256.867 314.434 255.503C314.434 254.162 314.67 252.995 315.142 252C315.613 251 316.27 250.228 317.11 249.682C317.951 249.131 318.923 248.856 320.025 248.856C320.877 248.856 321.554 248.998 322.054 249.282C322.559 249.56 322.946 249.878 323.213 250.236C323.485 250.589 323.696 250.878 323.843 251.106H324.048V249.026H325.991V262.492C325.991 263.617 325.735 264.532 325.224 265.236C324.718 265.946 324.037 266.466 323.179 266.796C322.326 267.131 321.377 267.299 320.332 267.299ZM320.264 260.106C321.071 260.106 321.752 259.921 322.309 259.552C322.866 259.182 323.289 258.651 323.579 257.958C323.869 257.265 324.014 256.435 324.014 255.469C324.014 254.526 323.872 253.694 323.588 252.972C323.304 252.25 322.883 251.685 322.326 251.276C321.77 250.867 321.082 250.662 320.264 250.662C319.412 250.662 318.701 250.878 318.133 251.31C317.571 251.742 317.147 252.321 316.863 253.049C316.585 253.776 316.446 254.583 316.446 255.469C316.446 256.378 316.588 257.182 316.872 257.881C317.162 258.574 317.588 259.12 318.15 259.518C318.718 259.91 319.423 260.106 320.264 260.106ZM337.923 256.765V249.026H339.934V262.117H337.923V259.901H337.787C337.48 260.566 337.002 261.131 336.355 261.597C335.707 262.057 334.889 262.287 333.9 262.287C333.082 262.287 332.355 262.108 331.718 261.75C331.082 261.387 330.582 260.841 330.218 260.114C329.855 259.381 329.673 258.458 329.673 257.344V249.026H331.684V257.208C331.684 258.162 331.951 258.924 332.485 259.492C333.025 260.06 333.713 260.344 334.548 260.344C335.048 260.344 335.556 260.216 336.074 259.961C336.596 259.705 337.034 259.313 337.386 258.785C337.744 258.256 337.923 257.583 337.923 256.765ZM349.107 262.39C347.846 262.39 346.757 262.111 345.843 261.554C344.934 260.992 344.232 260.208 343.738 259.202C343.249 258.191 343.005 257.015 343.005 255.674C343.005 254.333 343.249 253.151 343.738 252.128C344.232 251.1 344.919 250.299 345.8 249.725C346.686 249.145 347.721 248.856 348.902 248.856C349.584 248.856 350.257 248.969 350.922 249.196C351.587 249.424 352.192 249.793 352.738 250.304C353.283 250.81 353.718 251.481 354.042 252.316C354.365 253.151 354.527 254.179 354.527 255.401V256.253H344.436V254.515H352.482C352.482 253.776 352.334 253.117 352.039 252.537C351.749 251.958 351.334 251.5 350.794 251.165C350.26 250.83 349.63 250.662 348.902 250.662C348.101 250.662 347.408 250.861 346.823 251.259C346.243 251.651 345.797 252.162 345.485 252.793C345.172 253.424 345.016 254.1 345.016 254.821V255.981C345.016 256.969 345.186 257.807 345.527 258.495C345.874 259.177 346.354 259.696 346.968 260.054C347.581 260.407 348.294 260.583 349.107 260.583C349.635 260.583 350.113 260.509 350.539 260.361C350.971 260.208 351.343 259.981 351.655 259.679C351.968 259.373 352.209 258.992 352.38 258.537L354.323 259.083C354.118 259.742 353.775 260.321 353.292 260.821C352.809 261.316 352.212 261.702 351.502 261.981C350.792 262.253 349.993 262.39 349.107 262.39ZM364.337 267.026V249.026H366.28V251.106H366.519C366.667 250.878 366.871 250.589 367.132 250.236C367.4 249.878 367.78 249.56 368.275 249.282C368.775 248.998 369.451 248.856 370.303 248.856C371.405 248.856 372.377 249.131 373.218 249.682C374.059 250.233 374.715 251.015 375.186 252.026C375.658 253.037 375.894 254.231 375.894 255.606C375.894 256.992 375.658 258.194 375.186 259.211C374.715 260.222 374.061 261.006 373.226 261.563C372.391 262.114 371.428 262.39 370.337 262.39C369.496 262.39 368.823 262.25 368.317 261.972C367.811 261.688 367.422 261.367 367.15 261.009C366.877 260.645 366.667 260.344 366.519 260.106H366.348V267.026H364.337ZM366.314 255.571C366.314 256.56 366.459 257.432 366.749 258.188C367.039 258.938 367.462 259.526 368.019 259.952C368.576 260.373 369.257 260.583 370.064 260.583C370.905 260.583 371.607 260.361 372.169 259.918C372.738 259.469 373.164 258.867 373.448 258.111C373.738 257.35 373.882 256.503 373.882 255.571C373.882 254.651 373.74 253.821 373.456 253.083C373.178 252.339 372.755 251.75 372.186 251.319C371.624 250.881 370.917 250.662 370.064 250.662C369.246 250.662 368.559 250.87 368.002 251.285C367.445 251.694 367.025 252.268 366.74 253.006C366.456 253.739 366.314 254.594 366.314 255.571ZM382.814 262.424C381.985 262.424 381.232 262.268 380.556 261.955C379.88 261.637 379.343 261.179 378.945 260.583C378.547 259.981 378.348 259.253 378.348 258.401C378.348 257.651 378.496 257.043 378.792 256.577C379.087 256.106 379.482 255.736 379.976 255.469C380.471 255.202 381.016 255.003 381.613 254.873C382.215 254.736 382.82 254.628 383.428 254.549C384.223 254.446 384.868 254.37 385.363 254.319C385.863 254.262 386.226 254.168 386.453 254.037C386.686 253.907 386.803 253.679 386.803 253.356V253.287C386.803 252.446 386.573 251.793 386.113 251.327C385.658 250.861 384.968 250.628 384.042 250.628C383.081 250.628 382.328 250.839 381.783 251.259C381.238 251.679 380.854 252.128 380.632 252.606L378.723 251.924C379.064 251.128 379.519 250.509 380.087 250.066C380.661 249.617 381.286 249.304 381.962 249.128C382.644 248.946 383.314 248.856 383.973 248.856C384.394 248.856 384.877 248.907 385.422 249.009C385.973 249.106 386.505 249.307 387.016 249.614C387.533 249.921 387.962 250.384 388.303 251.003C388.644 251.623 388.814 252.452 388.814 253.492V262.117H386.803V260.344H386.701C386.564 260.628 386.337 260.932 386.019 261.256C385.701 261.58 385.277 261.856 384.749 262.083C384.221 262.31 383.576 262.424 382.814 262.424ZM383.121 260.617C383.917 260.617 384.587 260.461 385.132 260.148C385.684 259.836 386.098 259.432 386.377 258.938C386.661 258.444 386.803 257.924 386.803 257.378V255.537C386.718 255.64 386.53 255.733 386.24 255.819C385.956 255.898 385.627 255.969 385.252 256.032C384.882 256.089 384.522 256.14 384.169 256.185C383.823 256.225 383.542 256.259 383.326 256.287C382.803 256.356 382.314 256.466 381.86 256.62C381.411 256.768 381.047 256.992 380.769 257.293C380.496 257.589 380.36 257.992 380.36 258.503C380.36 259.202 380.618 259.731 381.135 260.089C381.658 260.441 382.32 260.617 383.121 260.617ZM392.485 262.117V249.026H394.429V251.003H394.565C394.804 250.356 395.235 249.83 395.86 249.427C396.485 249.023 397.19 248.821 397.974 248.821C398.122 248.821 398.306 248.824 398.528 248.83C398.75 248.836 398.917 248.844 399.031 248.856V250.901C398.963 250.884 398.806 250.858 398.562 250.824C398.324 250.785 398.071 250.765 397.804 250.765C397.167 250.765 396.599 250.898 396.099 251.165C395.605 251.427 395.213 251.79 394.923 252.256C394.639 252.716 394.497 253.242 394.497 253.833V262.117H392.485ZM407.929 249.026V250.731H401.145V249.026H407.929ZM403.122 245.89H405.133V258.367C405.133 258.935 405.216 259.361 405.38 259.645C405.551 259.924 405.767 260.111 406.028 260.208C406.295 260.299 406.576 260.344 406.872 260.344C407.093 260.344 407.275 260.333 407.417 260.31C407.559 260.282 407.673 260.259 407.758 260.242L408.167 262.049C408.031 262.1 407.841 262.151 407.596 262.202C407.352 262.259 407.042 262.287 406.667 262.287C406.099 262.287 405.542 262.165 404.997 261.921C404.457 261.677 404.008 261.304 403.65 260.804C403.298 260.304 403.122 259.674 403.122 258.912V245.89ZM419.204 256.765V249.026H421.216V262.117H419.204V259.901H419.068C418.761 260.566 418.284 261.131 417.636 261.597C416.988 262.057 416.17 262.287 415.181 262.287C414.363 262.287 413.636 262.108 413 261.75C412.363 261.387 411.863 260.841 411.5 260.114C411.136 259.381 410.954 258.458 410.954 257.344V249.026H412.966V257.208C412.966 258.162 413.233 258.924 413.767 259.492C414.306 260.06 414.994 260.344 415.829 260.344C416.329 260.344 416.838 260.216 417.355 259.961C417.877 259.705 418.315 259.313 418.667 258.785C419.025 258.256 419.204 257.583 419.204 256.765ZM424.9 262.117V249.026H426.843V251.003H426.979C427.218 250.356 427.65 249.83 428.275 249.427C428.9 249.023 429.604 248.821 430.388 248.821C430.536 248.821 430.721 248.824 430.942 248.83C431.164 248.836 431.331 248.844 431.445 248.856V250.901C431.377 250.884 431.221 250.858 430.976 250.824C430.738 250.785 430.485 250.765 430.218 250.765C429.581 250.765 429.013 250.898 428.513 251.165C428.019 251.427 427.627 251.79 427.337 252.256C427.053 252.716 426.911 253.242 426.911 253.833V262.117H424.9ZM433.829 262.117V249.026H435.841V262.117H433.829ZM434.852 246.844C434.46 246.844 434.122 246.711 433.838 246.444C433.559 246.177 433.42 245.856 433.42 245.481C433.42 245.106 433.559 244.785 433.838 244.518C434.122 244.25 434.46 244.117 434.852 244.117C435.244 244.117 435.579 244.25 435.858 244.518C436.142 244.785 436.284 245.106 436.284 245.481C436.284 245.856 436.142 246.177 435.858 246.444C435.579 246.711 435.244 246.844 434.852 246.844ZM445.013 262.39C443.752 262.39 442.664 262.111 441.749 261.554C440.84 260.992 440.138 260.208 439.644 259.202C439.155 258.191 438.911 257.015 438.911 255.674C438.911 254.333 439.155 253.151 439.644 252.128C440.138 251.1 440.826 250.299 441.706 249.725C442.593 249.145 443.627 248.856 444.809 248.856C445.49 248.856 446.164 248.969 446.828 249.196C447.493 249.424 448.098 249.793 448.644 250.304C449.189 250.81 449.624 251.481 449.948 252.316C450.272 253.151 450.434 254.179 450.434 255.401V256.253H440.343V254.515H448.388C448.388 253.776 448.24 253.117 447.945 252.537C447.655 251.958 447.24 251.5 446.701 251.165C446.167 250.83 445.536 250.662 444.809 250.662C444.007 250.662 443.314 250.861 442.729 251.259C442.15 251.651 441.703 252.162 441.391 252.793C441.078 253.424 440.922 254.1 440.922 254.821V255.981C440.922 256.969 441.093 257.807 441.434 258.495C441.78 259.177 442.26 259.696 442.874 260.054C443.488 260.407 444.201 260.583 445.013 260.583C445.542 260.583 446.019 260.509 446.445 260.361C446.877 260.208 447.249 259.981 447.561 259.679C447.874 259.373 448.115 258.992 448.286 258.537L450.229 259.083C450.025 259.742 449.681 260.321 449.198 260.821C448.715 261.316 448.118 261.702 447.408 261.981C446.698 262.253 445.9 262.39 445.013 262.39ZM455.505 254.242V262.117H453.493V249.026H455.436V251.071H455.607C455.914 250.407 456.38 249.873 457.005 249.469C457.63 249.06 458.436 248.856 459.425 248.856C460.311 248.856 461.087 249.037 461.752 249.401C462.417 249.759 462.934 250.304 463.303 251.037C463.672 251.765 463.857 252.685 463.857 253.799V262.117H461.846V253.935C461.846 252.907 461.578 252.106 461.044 251.532C460.51 250.952 459.777 250.662 458.846 250.662C458.203 250.662 457.63 250.802 457.124 251.08C456.624 251.358 456.229 251.765 455.939 252.299C455.65 252.833 455.505 253.481 455.505 254.242ZM473.225 249.026V250.731H466.441V249.026H473.225ZM468.419 245.89H470.43V258.367C470.43 258.935 470.512 259.361 470.677 259.645C470.848 259.924 471.064 260.111 471.325 260.208C471.592 260.299 471.873 260.344 472.169 260.344C472.39 260.344 472.572 260.333 472.714 260.31C472.856 260.282 472.97 260.259 473.055 260.242L473.464 262.049C473.328 262.1 473.137 262.151 472.893 262.202C472.649 262.259 472.339 262.287 471.964 262.287C471.396 262.287 470.839 262.165 470.294 261.921C469.754 261.677 469.305 261.304 468.947 260.804C468.595 260.304 468.419 259.674 468.419 258.912V245.89ZM488.49 262.39C487.228 262.39 486.14 262.111 485.225 261.554C484.316 260.992 483.615 260.208 483.12 259.202C482.632 258.191 482.387 257.015 482.387 255.674C482.387 254.333 482.632 253.151 483.12 252.128C483.615 251.1 484.302 250.299 485.183 249.725C486.069 249.145 487.103 248.856 488.285 248.856C488.967 248.856 489.64 248.969 490.305 249.196C490.97 249.424 491.575 249.793 492.12 250.304C492.666 250.81 493.1 251.481 493.424 252.316C493.748 253.151 493.91 254.179 493.91 255.401V256.253H483.819V254.515H491.865C491.865 253.776 491.717 253.117 491.422 252.537C491.132 251.958 490.717 251.5 490.177 251.165C489.643 250.83 489.012 250.662 488.285 250.662C487.484 250.662 486.791 250.861 486.206 251.259C485.626 251.651 485.18 252.162 484.868 252.793C484.555 253.424 484.399 254.1 484.399 254.821V255.981C484.399 256.969 484.569 257.807 484.91 258.495C485.257 259.177 485.737 259.696 486.35 260.054C486.964 260.407 487.677 260.583 488.49 260.583C489.018 260.583 489.495 260.509 489.922 260.361C490.353 260.208 490.725 259.981 491.038 259.679C491.35 259.373 491.592 258.992 491.762 258.537L493.706 259.083C493.501 259.742 493.157 260.321 492.674 260.821C492.191 261.316 491.595 261.702 490.885 261.981C490.174 262.253 489.376 262.39 488.49 262.39ZM502.663 249.026V250.731H495.879V249.026H502.663ZM497.856 245.89H499.868V258.367C499.868 258.935 499.95 259.361 500.115 259.645C500.285 259.924 500.501 260.111 500.762 260.208C501.029 260.299 501.311 260.344 501.606 260.344C501.828 260.344 502.01 260.333 502.152 260.31C502.294 260.282 502.407 260.259 502.493 260.242L502.902 262.049C502.765 262.1 502.575 262.151 502.331 262.202C502.086 262.259 501.777 262.287 501.402 262.287C500.833 262.287 500.277 262.165 499.731 261.921C499.191 261.677 498.743 261.304 498.385 260.804C498.032 260.304 497.856 259.674 497.856 258.912V245.89ZM266.669 283.242V291.117H264.657V273.662H266.669V280.071H266.839C267.146 279.395 267.606 278.858 268.22 278.461C268.839 278.057 269.663 277.856 270.691 277.856C271.583 277.856 272.365 278.035 273.035 278.393C273.706 278.745 274.225 279.287 274.595 280.02C274.97 280.748 275.157 281.674 275.157 282.799V291.117H273.146V282.935C273.146 281.895 272.876 281.091 272.336 280.523C271.802 279.949 271.061 279.662 270.112 279.662C269.453 279.662 268.862 279.802 268.339 280.08C267.822 280.358 267.413 280.765 267.112 281.299C266.816 281.833 266.669 282.481 266.669 283.242ZM282.689 291.424C281.86 291.424 281.107 291.268 280.431 290.955C279.755 290.637 279.218 290.179 278.82 289.583C278.422 288.981 278.223 288.253 278.223 287.401C278.223 286.651 278.371 286.043 278.667 285.577C278.962 285.106 279.357 284.736 279.851 284.469C280.346 284.202 280.891 284.003 281.488 283.873C282.09 283.736 282.695 283.628 283.303 283.549C284.098 283.446 284.743 283.37 285.238 283.319C285.738 283.262 286.101 283.168 286.328 283.037C286.561 282.907 286.678 282.679 286.678 282.356V282.287C286.678 281.446 286.448 280.793 285.988 280.327C285.533 279.861 284.843 279.628 283.917 279.628C282.956 279.628 282.203 279.839 281.658 280.259C281.113 280.679 280.729 281.128 280.507 281.606L278.598 280.924C278.939 280.128 279.394 279.509 279.962 279.066C280.536 278.617 281.161 278.304 281.837 278.128C282.519 277.946 283.189 277.856 283.848 277.856C284.269 277.856 284.752 277.907 285.297 278.009C285.848 278.106 286.38 278.307 286.891 278.614C287.408 278.921 287.837 279.384 288.178 280.003C288.519 280.623 288.689 281.452 288.689 282.492V291.117H286.678V289.344H286.576C286.439 289.628 286.212 289.932 285.894 290.256C285.576 290.58 285.152 290.856 284.624 291.083C284.096 291.31 283.451 291.424 282.689 291.424ZM282.996 289.617C283.792 289.617 284.462 289.461 285.007 289.148C285.559 288.836 285.973 288.432 286.252 287.938C286.536 287.444 286.678 286.924 286.678 286.378V284.537C286.593 284.64 286.405 284.733 286.115 284.819C285.831 284.898 285.502 284.969 285.127 285.032C284.757 285.089 284.397 285.14 284.044 285.185C283.698 285.225 283.417 285.259 283.201 285.287C282.678 285.356 282.189 285.466 281.735 285.62C281.286 285.768 280.922 285.992 280.644 286.293C280.371 286.589 280.235 286.992 280.235 287.503C280.235 288.202 280.493 288.731 281.01 289.089C281.533 289.441 282.195 289.617 282.996 289.617ZM292.633 291.117V273.662H294.645V280.106H294.815C294.963 279.878 295.167 279.589 295.429 279.236C295.696 278.878 296.076 278.56 296.571 278.282C297.071 277.998 297.747 277.856 298.599 277.856C299.701 277.856 300.673 278.131 301.514 278.682C302.355 279.233 303.011 280.015 303.483 281.026C303.954 282.037 304.19 283.231 304.19 284.606C304.19 285.992 303.954 287.194 303.483 288.211C303.011 289.222 302.358 290.006 301.522 290.563C300.687 291.114 299.724 291.39 298.633 291.39C297.792 291.39 297.119 291.25 296.613 290.972C296.108 290.688 295.718 290.367 295.446 290.009C295.173 289.645 294.963 289.344 294.815 289.106H294.576V291.117H292.633ZM294.61 284.571C294.61 285.56 294.755 286.432 295.045 287.188C295.335 287.938 295.758 288.526 296.315 288.952C296.872 289.373 297.554 289.583 298.36 289.583C299.201 289.583 299.903 289.361 300.466 288.918C301.034 288.469 301.46 287.867 301.744 287.111C302.034 286.35 302.179 285.503 302.179 284.571C302.179 283.651 302.037 282.821 301.752 282.083C301.474 281.339 301.051 280.75 300.483 280.319C299.92 279.881 299.213 279.662 298.36 279.662C297.542 279.662 296.855 279.87 296.298 280.285C295.741 280.694 295.321 281.268 295.037 282.006C294.752 282.739 294.61 283.594 294.61 284.571ZM307.267 291.117V278.026H309.278V291.117H307.267ZM308.289 275.844C307.897 275.844 307.559 275.711 307.275 275.444C306.997 275.177 306.858 274.856 306.858 274.481C306.858 274.106 306.997 273.785 307.275 273.518C307.559 273.25 307.897 273.117 308.289 273.117C308.681 273.117 309.017 273.25 309.295 273.518C309.579 273.785 309.721 274.106 309.721 274.481C309.721 274.856 309.579 275.177 309.295 275.444C309.017 275.711 308.681 275.844 308.289 275.844ZM318.655 278.026V279.731H311.871V278.026H318.655ZM313.848 274.89H315.86V287.367C315.86 287.935 315.942 288.361 316.107 288.645C316.277 288.924 316.493 289.111 316.755 289.208C317.022 289.299 317.303 289.344 317.598 289.344C317.82 289.344 318.002 289.333 318.144 289.31C318.286 289.282 318.4 289.259 318.485 289.242L318.894 291.049C318.757 291.1 318.567 291.151 318.323 291.202C318.078 291.259 317.769 291.287 317.394 291.287C316.826 291.287 316.269 291.165 315.723 290.921C315.184 290.677 314.735 290.304 314.377 289.804C314.025 289.304 313.848 288.674 313.848 287.912V274.89ZM325.533 291.424C324.703 291.424 323.951 291.268 323.275 290.955C322.598 290.637 322.061 290.179 321.664 289.583C321.266 288.981 321.067 288.253 321.067 287.401C321.067 286.651 321.215 286.043 321.51 285.577C321.806 285.106 322.201 284.736 322.695 284.469C323.189 284.202 323.735 284.003 324.331 283.873C324.934 283.736 325.539 283.628 326.147 283.549C326.942 283.446 327.587 283.37 328.081 283.319C328.581 283.262 328.945 283.168 329.172 283.037C329.405 282.907 329.522 282.679 329.522 282.356V282.287C329.522 281.446 329.292 280.793 328.831 280.327C328.377 279.861 327.686 279.628 326.76 279.628C325.8 279.628 325.047 279.839 324.502 280.259C323.956 280.679 323.573 281.128 323.351 281.606L321.442 280.924C321.783 280.128 322.238 279.509 322.806 279.066C323.38 278.617 324.005 278.304 324.681 278.128C325.363 277.946 326.033 277.856 326.692 277.856C327.113 277.856 327.596 277.907 328.141 278.009C328.692 278.106 329.223 278.307 329.735 278.614C330.252 278.921 330.681 279.384 331.022 280.003C331.363 280.623 331.533 281.452 331.533 282.492V291.117H329.522V289.344H329.419C329.283 289.628 329.056 289.932 328.738 290.256C328.419 290.58 327.996 290.856 327.468 291.083C326.939 291.31 326.294 291.424 325.533 291.424ZM325.84 289.617C326.635 289.617 327.306 289.461 327.851 289.148C328.402 288.836 328.817 288.432 329.096 287.938C329.38 287.444 329.522 286.924 329.522 286.378V284.537C329.436 284.64 329.249 284.733 328.959 284.819C328.675 284.898 328.346 284.969 327.971 285.032C327.601 285.089 327.24 285.14 326.888 285.185C326.542 285.225 326.26 285.259 326.044 285.287C325.522 285.356 325.033 285.466 324.578 285.62C324.13 285.768 323.766 285.992 323.488 286.293C323.215 286.589 323.078 286.992 323.078 287.503C323.078 288.202 323.337 288.731 323.854 289.089C324.377 289.441 325.039 289.617 325.84 289.617ZM344.477 280.958L342.67 281.469C342.556 281.168 342.389 280.875 342.167 280.591C341.951 280.302 341.656 280.063 341.281 279.875C340.906 279.688 340.426 279.594 339.841 279.594C339.039 279.594 338.372 279.779 337.838 280.148C337.309 280.512 337.045 280.975 337.045 281.537C337.045 282.037 337.227 282.432 337.591 282.722C337.954 283.012 338.522 283.253 339.295 283.446L341.238 283.924C342.409 284.208 343.281 284.643 343.855 285.228C344.429 285.807 344.716 286.554 344.716 287.469C344.716 288.219 344.5 288.89 344.068 289.481C343.642 290.071 343.045 290.537 342.278 290.878C341.511 291.219 340.619 291.39 339.602 291.39C338.267 291.39 337.162 291.1 336.287 290.52C335.412 289.941 334.858 289.094 334.625 287.981L336.534 287.503C336.716 288.208 337.059 288.736 337.565 289.089C338.076 289.441 338.744 289.617 339.568 289.617C340.505 289.617 341.25 289.418 341.801 289.02C342.358 288.617 342.636 288.134 342.636 287.571C342.636 287.117 342.477 286.736 342.159 286.429C341.841 286.117 341.352 285.884 340.693 285.731L338.511 285.219C337.312 284.935 336.431 284.495 335.869 283.898C335.312 283.296 335.034 282.543 335.034 281.64C335.034 280.901 335.241 280.248 335.656 279.679C336.076 279.111 336.647 278.665 337.369 278.341C338.096 278.018 338.92 277.856 339.841 277.856C341.136 277.856 342.153 278.14 342.892 278.708C343.636 279.276 344.164 280.026 344.477 280.958ZM357.016 280.958L355.209 281.469C355.096 281.168 354.928 280.875 354.706 280.591C354.49 280.302 354.195 280.063 353.82 279.875C353.445 279.688 352.965 279.594 352.38 279.594C351.578 279.594 350.911 279.779 350.377 280.148C349.848 280.512 349.584 280.975 349.584 281.537C349.584 282.037 349.766 282.432 350.13 282.722C350.493 283.012 351.061 283.253 351.834 283.446L353.777 283.924C354.948 284.208 355.82 284.643 356.394 285.228C356.968 285.807 357.255 286.554 357.255 287.469C357.255 288.219 357.039 288.89 356.607 289.481C356.181 290.071 355.584 290.537 354.817 290.878C354.05 291.219 353.158 291.39 352.141 291.39C350.806 291.39 349.701 291.1 348.826 290.52C347.951 289.941 347.397 289.094 347.164 287.981L349.073 287.503C349.255 288.208 349.598 288.736 350.104 289.089C350.615 289.441 351.283 289.617 352.107 289.617C353.044 289.617 353.789 289.418 354.34 289.02C354.897 288.617 355.175 288.134 355.175 287.571C355.175 287.117 355.016 286.736 354.698 286.429C354.38 286.117 353.891 285.884 353.232 285.731L351.05 285.219C349.851 284.935 348.971 284.495 348.408 283.898C347.851 283.296 347.573 282.543 347.573 281.64C347.573 280.901 347.78 280.248 348.195 279.679C348.615 279.111 349.186 278.665 349.908 278.341C350.635 278.018 351.459 277.856 352.38 277.856C353.675 277.856 354.692 278.14 355.431 278.708C356.175 279.276 356.703 280.026 357.016 280.958ZM365.771 291.39C364.51 291.39 363.422 291.111 362.507 290.554C361.598 289.992 360.896 289.208 360.402 288.202C359.913 287.191 359.669 286.015 359.669 284.674C359.669 283.333 359.913 282.151 360.402 281.128C360.896 280.1 361.583 279.299 362.464 278.725C363.35 278.145 364.385 277.856 365.566 277.856C366.248 277.856 366.922 277.969 367.586 278.196C368.251 278.424 368.856 278.793 369.402 279.304C369.947 279.81 370.382 280.481 370.706 281.316C371.029 282.151 371.191 283.179 371.191 284.401V285.253H361.1V283.515H369.146C369.146 282.776 368.998 282.117 368.703 281.537C368.413 280.958 367.998 280.5 367.458 280.165C366.924 279.83 366.294 279.662 365.566 279.662C364.765 279.662 364.072 279.861 363.487 280.259C362.907 280.651 362.461 281.162 362.149 281.793C361.836 282.424 361.68 283.1 361.68 283.821V284.981C361.68 285.969 361.85 286.807 362.191 287.495C362.538 288.177 363.018 288.696 363.632 289.054C364.245 289.407 364.958 289.583 365.771 289.583C366.299 289.583 366.777 289.509 367.203 289.361C367.635 289.208 368.007 288.981 368.319 288.679C368.632 288.373 368.873 287.992 369.044 287.537L370.987 288.083C370.782 288.742 370.439 289.321 369.956 289.821C369.473 290.316 368.876 290.702 368.166 290.981C367.456 291.253 366.657 291.39 365.771 291.39ZM390.274 280.958L388.467 281.469C388.353 281.168 388.186 280.875 387.964 280.591C387.748 280.302 387.453 280.063 387.078 279.875C386.703 279.688 386.223 279.594 385.637 279.594C384.836 279.594 384.169 279.779 383.635 280.148C383.106 280.512 382.842 280.975 382.842 281.537C382.842 282.037 383.024 282.432 383.387 282.722C383.751 283.012 384.319 283.253 385.092 283.446L387.035 283.924C388.206 284.208 389.078 284.643 389.652 285.228C390.225 285.807 390.512 286.554 390.512 287.469C390.512 288.219 390.297 288.89 389.865 289.481C389.439 290.071 388.842 290.537 388.075 290.878C387.308 291.219 386.416 291.39 385.399 291.39C384.064 291.39 382.958 291.1 382.083 290.52C381.208 289.941 380.654 289.094 380.422 287.981L382.331 287.503C382.512 288.208 382.856 288.736 383.362 289.089C383.873 289.441 384.541 289.617 385.365 289.617C386.302 289.617 387.047 289.418 387.598 289.02C388.154 288.617 388.433 288.134 388.433 287.571C388.433 287.117 388.274 286.736 387.956 286.429C387.637 286.117 387.149 285.884 386.49 285.731L384.308 285.219C383.109 284.935 382.228 284.495 381.666 283.898C381.109 283.296 380.831 282.543 380.831 281.64C380.831 280.901 381.038 280.248 381.453 279.679C381.873 279.111 382.444 278.665 383.166 278.341C383.893 278.018 384.717 277.856 385.637 277.856C386.933 277.856 387.95 278.14 388.689 278.708C389.433 279.276 389.961 280.026 390.274 280.958ZM399.029 291.39C397.767 291.39 396.679 291.111 395.765 290.554C394.855 289.992 394.154 289.208 393.659 288.202C393.171 287.191 392.926 286.015 392.926 284.674C392.926 283.333 393.171 282.151 393.659 281.128C394.154 280.1 394.841 279.299 395.722 278.725C396.608 278.145 397.642 277.856 398.824 277.856C399.506 277.856 400.179 277.969 400.844 278.196C401.509 278.424 402.114 278.793 402.659 279.304C403.205 279.81 403.64 280.481 403.963 281.316C404.287 282.151 404.449 283.179 404.449 284.401V285.253H394.358V283.515H402.404C402.404 282.776 402.256 282.117 401.961 281.537C401.671 280.958 401.256 280.5 400.716 280.165C400.182 279.83 399.551 279.662 398.824 279.662C398.023 279.662 397.33 279.861 396.745 280.259C396.165 280.651 395.719 281.162 395.407 281.793C395.094 282.424 394.938 283.1 394.938 283.821V284.981C394.938 285.969 395.108 286.807 395.449 287.495C395.796 288.177 396.276 288.696 396.89 289.054C397.503 289.407 398.216 289.583 399.029 289.583C399.557 289.583 400.034 289.509 400.461 289.361C400.892 289.208 401.265 288.981 401.577 288.679C401.89 288.373 402.131 287.992 402.301 287.537L404.245 288.083C404.04 288.742 403.696 289.321 403.213 289.821C402.73 290.316 402.134 290.702 401.424 290.981C400.713 291.253 399.915 291.39 399.029 291.39ZM412.452 291.39C411.361 291.39 410.398 291.114 409.563 290.563C408.728 290.006 408.074 289.222 407.603 288.211C407.131 287.194 406.895 285.992 406.895 284.606C406.895 283.231 407.131 282.037 407.603 281.026C408.074 280.015 408.73 279.233 409.571 278.682C410.412 278.131 411.384 277.856 412.486 277.856C413.338 277.856 414.012 277.998 414.506 278.282C415.006 278.56 415.387 278.878 415.648 279.236C415.915 279.589 416.123 279.878 416.27 280.106H416.441V273.662H418.452V291.117H416.509V289.106H416.27C416.123 289.344 415.912 289.645 415.64 290.009C415.367 290.367 414.978 290.688 414.472 290.972C413.966 291.25 413.293 291.39 412.452 291.39ZM412.725 289.583C413.532 289.583 414.213 289.373 414.77 288.952C415.327 288.526 415.75 287.938 416.04 287.188C416.33 286.432 416.475 285.56 416.475 284.571C416.475 283.594 416.333 282.739 416.049 282.006C415.765 281.268 415.344 280.694 414.787 280.285C414.23 279.87 413.543 279.662 412.725 279.662C411.873 279.662 411.162 279.881 410.594 280.319C410.032 280.75 409.608 281.339 409.324 282.083C409.046 282.821 408.907 283.651 408.907 284.571C408.907 285.503 409.049 286.35 409.333 287.111C409.623 287.867 410.049 288.469 410.611 288.918C411.179 289.361 411.884 289.583 412.725 289.583ZM423.881 291.253C423.461 291.253 423.1 291.103 422.799 290.802C422.498 290.5 422.347 290.14 422.347 289.719C422.347 289.299 422.498 288.938 422.799 288.637C423.1 288.336 423.461 288.185 423.881 288.185C424.301 288.185 424.662 288.336 424.963 288.637C425.265 288.938 425.415 289.299 425.415 289.719C425.415 289.998 425.344 290.253 425.202 290.486C425.066 290.719 424.881 290.907 424.648 291.049C424.421 291.185 424.165 291.253 423.881 291.253Z" fill="black"/>
<path d="M297.45 138.625V134.091H324.467V138.625H313.575V169H308.325V138.625H297.45ZM337.515 169.528C334.935 169.528 332.714 168.977 330.85 167.875C328.998 166.761 327.566 165.199 326.555 163.187C325.555 161.165 325.055 158.795 325.055 156.079C325.055 153.397 325.555 151.034 326.555 148.988C327.566 146.943 328.975 145.346 330.782 144.199C332.6 143.051 334.725 142.477 337.157 142.477C338.634 142.477 340.066 142.721 341.452 143.21C342.839 143.699 344.083 144.466 345.185 145.511C346.288 146.557 347.157 147.915 347.793 149.585C348.43 151.244 348.748 153.261 348.748 155.636V157.443H327.935V153.625H343.754C343.754 152.284 343.481 151.096 342.935 150.062C342.39 149.017 341.623 148.193 340.634 147.591C339.657 146.988 338.509 146.687 337.191 146.687C335.759 146.687 334.509 147.04 333.441 147.744C332.384 148.437 331.566 149.346 330.987 150.471C330.418 151.585 330.134 152.795 330.134 154.102V157.085C330.134 158.835 330.441 160.324 331.055 161.551C331.68 162.778 332.549 163.716 333.663 164.363C334.776 165 336.077 165.318 337.566 165.318C338.532 165.318 339.413 165.182 340.208 164.909C341.004 164.625 341.691 164.204 342.271 163.647C342.85 163.091 343.293 162.403 343.6 161.585L348.424 162.454C348.038 163.875 347.344 165.119 346.344 166.187C345.356 167.244 344.112 168.068 342.612 168.659C341.123 169.238 339.424 169.528 337.515 169.528ZM357.816 142.818L363.594 153.011L369.424 142.818H374.998L366.833 155.909L375.066 169H369.492L363.594 159.216L357.714 169H352.123L360.271 155.909L352.225 142.818H357.816ZM392.452 142.818V146.909H378.151V142.818H392.452ZM381.987 136.545H387.083V161.312C387.083 162.301 387.231 163.045 387.526 163.545C387.822 164.034 388.202 164.369 388.668 164.551C389.146 164.721 389.663 164.807 390.219 164.807C390.629 164.807 390.987 164.778 391.293 164.721C391.6 164.665 391.839 164.619 392.009 164.585L392.93 168.795C392.634 168.909 392.214 169.022 391.668 169.136C391.123 169.261 390.441 169.329 389.623 169.341C388.282 169.363 387.032 169.125 385.873 168.625C384.714 168.125 383.776 167.352 383.06 166.307C382.344 165.261 381.987 163.949 381.987 162.369V136.545Z" fill="black"/>
<rect x="250.593" y="422.087" width="187.814" height="44.6089" rx="3.5" fill="#188BDE"/>
<path d="M315.817 452.891V435.437H317.93V451.016H326.044V452.891H315.817ZM332.896 453.198C332.067 453.198 331.314 453.042 330.638 452.729C329.962 452.411 329.425 451.954 329.027 451.357C328.629 450.755 328.43 450.027 328.43 449.175C328.43 448.425 328.578 447.817 328.874 447.351C329.169 446.88 329.564 446.51 330.058 446.243C330.553 445.976 331.098 445.777 331.695 445.647C332.297 445.51 332.902 445.402 333.51 445.323C334.305 445.221 334.95 445.144 335.445 445.093C335.945 445.036 336.308 444.942 336.536 444.812C336.768 444.681 336.885 444.454 336.885 444.13V444.062C336.885 443.221 336.655 442.567 336.195 442.101C335.74 441.635 335.05 441.402 334.124 441.402C333.163 441.402 332.411 441.613 331.865 442.033C331.32 442.454 330.936 442.902 330.714 443.38L328.805 442.698C329.146 441.902 329.601 441.283 330.169 440.84C330.743 440.391 331.368 440.079 332.044 439.902C332.726 439.721 333.396 439.63 334.055 439.63C334.476 439.63 334.959 439.681 335.504 439.783C336.055 439.88 336.587 440.081 337.098 440.388C337.615 440.695 338.044 441.158 338.385 441.777C338.726 442.397 338.896 443.226 338.896 444.266V452.891H336.885V451.118H336.783C336.646 451.402 336.419 451.706 336.101 452.03C335.783 452.354 335.359 452.63 334.831 452.857C334.303 453.084 333.658 453.198 332.896 453.198ZM333.203 451.391C333.999 451.391 334.669 451.235 335.214 450.922C335.766 450.61 336.18 450.206 336.459 449.712C336.743 449.218 336.885 448.698 336.885 448.152V446.312C336.8 446.414 336.612 446.508 336.322 446.593C336.038 446.672 335.709 446.743 335.334 446.806C334.964 446.863 334.604 446.914 334.251 446.959C333.905 446.999 333.624 447.033 333.408 447.062C332.885 447.13 332.396 447.241 331.942 447.394C331.493 447.542 331.129 447.766 330.851 448.067C330.578 448.363 330.442 448.766 330.442 449.277C330.442 449.976 330.7 450.505 331.217 450.863C331.74 451.215 332.402 451.391 333.203 451.391ZM342.84 452.891V435.437H344.852V441.88H345.022C345.17 441.652 345.374 441.363 345.636 441.01C345.903 440.652 346.283 440.334 346.778 440.056C347.278 439.772 347.954 439.63 348.806 439.63C349.908 439.63 350.88 439.905 351.721 440.456C352.562 441.008 353.218 441.789 353.69 442.8C354.161 443.812 354.397 445.005 354.397 446.38C354.397 447.766 354.161 448.968 353.69 449.985C353.218 450.996 352.565 451.78 351.729 452.337C350.894 452.888 349.931 453.164 348.84 453.164C347.999 453.164 347.326 453.025 346.82 452.746C346.315 452.462 345.925 452.141 345.653 451.783C345.38 451.42 345.17 451.118 345.022 450.88H344.783V452.891H342.84ZM344.817 446.346C344.817 447.334 344.962 448.206 345.252 448.962C345.542 449.712 345.965 450.3 346.522 450.726C347.079 451.147 347.761 451.357 348.567 451.357C349.408 451.357 350.11 451.135 350.673 450.692C351.241 450.243 351.667 449.641 351.951 448.885C352.241 448.124 352.386 447.277 352.386 446.346C352.386 445.425 352.244 444.596 351.96 443.857C351.681 443.113 351.258 442.525 350.69 442.093C350.127 441.655 349.42 441.437 348.567 441.437C347.749 441.437 347.062 441.644 346.505 442.059C345.948 442.468 345.528 443.042 345.244 443.78C344.96 444.513 344.817 445.368 344.817 446.346ZM362.962 453.164C361.701 453.164 360.613 452.885 359.698 452.329C358.789 451.766 358.087 450.982 357.593 449.976C357.104 448.965 356.86 447.789 356.86 446.448C356.86 445.107 357.104 443.925 357.593 442.902C358.087 441.874 358.775 441.073 359.656 440.499C360.542 439.92 361.576 439.63 362.758 439.63C363.44 439.63 364.113 439.743 364.778 439.971C365.442 440.198 366.048 440.567 366.593 441.079C367.138 441.584 367.573 442.255 367.897 443.09C368.221 443.925 368.383 444.954 368.383 446.175V447.027H358.292V445.289H366.337C366.337 444.55 366.19 443.891 365.894 443.312C365.604 442.732 365.19 442.275 364.65 441.939C364.116 441.604 363.485 441.437 362.758 441.437C361.957 441.437 361.263 441.635 360.678 442.033C360.099 442.425 359.653 442.937 359.34 443.567C359.028 444.198 358.871 444.874 358.871 445.596V446.755C358.871 447.743 359.042 448.581 359.383 449.269C359.729 449.951 360.21 450.471 360.823 450.829C361.437 451.181 362.15 451.357 362.962 451.357C363.491 451.357 363.968 451.283 364.394 451.135C364.826 450.982 365.198 450.755 365.511 450.454C365.823 450.147 366.065 449.766 366.235 449.312L368.178 449.857C367.974 450.516 367.63 451.096 367.147 451.596C366.664 452.09 366.067 452.476 365.357 452.755C364.647 453.027 363.849 453.164 362.962 453.164ZM373.454 435.437V452.891H371.442V435.437H373.454Z" fill="white"/>
<rect x="250.593" y="422.087" width="187.814" height="44.6089" rx="3.5" stroke="url(#paint0_linear_2_1811)"/>
<defs>
<filter id="filter0_dd_2_1811" x="-28" y="0" width="745" height="570" filterUnits="userSpaceOnUse" color-interpolation-filters="sRGB">
<feFlood flood-opacity="0" result="BackgroundImageFix"/>
<feColorMatrix in="SourceAlpha" type="matrix" values="0 0 0 0 0 0 0 0 0 0 0 0 0 0 0 0 0 0 127 0" result="hardAlpha"/>
<feOffset dy="2"/>
<feGaussianBlur stdDeviation="10.5"/>
<feComposite in2="hardAlpha" operator="out"/>
<feColorMatrix type="matrix" values="0 0 0 0 0 0 0 0 0 0 0 0 0 0 0 0 0 0 0.25 0"/>
<feBlend mode="normal" in2="BackgroundImageFix" result="effect1_dropShadow_2_1811"/>
<feColorMatrix in="SourceAlpha" type="matrix" values="0 0 0 0 0 0 0 0 0 0 0 0 0 0 0 0 0 0 127 0" result="hardAlpha"/>
<feOffset dy="32"/>
<feGaussianBlur stdDeviation="24"/>
<feComposite in2="hardAlpha" operator="out"/>
<feColorMatrix type="matrix" values="0 0 0 0 0 0 0 0 0 0 0 0 0 0 0 0 0 0 0.25 0"/>
<feBlend mode="normal" in2="effect1_dropShadow_2_1811" result="effect2_dropShadow_2_1811"/>
<feBlend mode="normal" in="SourceGraphic" in2="effect2_dropShadow_2_1811" result="shape"/>
</filter>
<filter id="filter1_b_2_1811" x="-80" y="-81" width="849" height="671" filterUnits="userSpaceOnUse" color-interpolation-filters="sRGB">
<feFlood flood-opacity="0" result="BackgroundImageFix"/>
<feGaussianBlur in="BackgroundImageFix" stdDeviation="50"/>
<feComposite in2="SourceAlpha" operator="in" result="effect1_backgroundBlur_2_1811"/>
<feBlend mode="normal" in="SourceGraphic" in2="effect1_backgroundBlur_2_1811" result="shape"/>
</filter>
<linearGradient id="paint0_linear_2_1811" x1="344.5" y1="421.587" x2="344.5" y2="467.196" gradientUnits="userSpaceOnUse">
<stop offset="0.55" stop-color="#1D93E9"/>
<stop offset="0.794792" stop-color="#0074C7"/>
</linearGradient>
</defs>
</svg>
