<svg width="100" height="100" viewBox="0 0 100 100" fill="none" xmlns="http://www.w3.org/2000/svg">
<circle cx="50" cy="50" r="50" fill="#005FB8"/>
<path d="M21.8352 67V32.0909H27.1023V48.7614H27.5284L42.1705 32.0909H48.8011L34.7216 47.8068L48.8523 67H42.5114L31.2273 51.4034L27.1023 56.142V67H21.8352ZM53.7102 67V32.0909H66.4943C68.9716 32.0909 71.0227 32.5 72.6477 33.3182C74.2727 34.125 75.4886 35.2216 76.2955 36.608C77.1023 37.983 77.5057 39.5341 77.5057 41.2614C77.5057 42.7159 77.2386 43.9432 76.7045 44.9432C76.1705 45.9318 75.4545 46.7273 74.5568 47.3295C73.6705 47.9205 72.6932 48.3523 71.625 48.625V48.9659C72.7841 49.0227 73.9148 49.3977 75.017 50.0909C76.1307 50.7727 77.0511 51.7443 77.7784 53.0057C78.5057 54.267 78.8693 55.8011 78.8693 57.608C78.8693 59.392 78.4489 60.9943 77.608 62.4148C76.7784 63.8239 75.4943 64.9432 73.7557 65.7727C72.017 66.5909 69.7955 67 67.0909 67H53.7102ZM58.9773 62.483H66.5795C69.1023 62.483 70.9091 61.9943 72 61.017C73.0909 60.0398 73.6364 58.8182 73.6364 57.3523C73.6364 56.25 73.358 55.2386 72.8011 54.3182C72.2443 53.3977 71.4489 52.6648 70.4148 52.1193C69.392 51.5739 68.1761 51.3011 66.767 51.3011H58.9773V62.483ZM58.9773 47.1932H66.0341C67.2159 47.1932 68.2784 46.9659 69.2216 46.5114C70.1761 46.0568 70.9318 45.4205 71.4886 44.6023C72.0568 43.7727 72.3409 42.7955 72.3409 41.6705C72.3409 40.2273 71.8352 39.017 70.8239 38.0398C69.8125 37.0625 68.2614 36.5739 66.1705 36.5739H58.9773V47.1932Z" fill="white"/>
</svg>
