<svg width="450" height="310" viewBox="0 0 450 310" fill="none" xmlns="http://www.w3.org/2000/svg">
<path d="M0 0H225V31H0V0Z" fill="white"/>
<path d="M98.9437 11.9119V10.8182H106.58V11.9119H103.378V21H102.145V11.9119H98.9437ZM110.418 21.1591C109.682 21.1591 109.048 20.9967 108.514 20.6719C107.984 20.3438 107.574 19.8864 107.286 19.2997C107.001 18.7098 106.858 18.0237 106.858 17.2415C106.858 16.4593 107.001 15.7699 107.286 15.1733C107.574 14.5734 107.975 14.1061 108.489 13.7713C109.006 13.4332 109.609 13.2642 110.299 13.2642C110.697 13.2642 111.089 13.3305 111.477 13.4631C111.865 13.5956 112.218 13.8111 112.536 14.1094C112.854 14.4044 113.108 14.7955 113.297 15.2827C113.486 15.7699 113.58 16.3698 113.58 17.0824V17.5795H107.694V16.5653H112.387C112.387 16.1345 112.301 15.75 112.128 15.4119C111.959 15.0739 111.717 14.8071 111.403 14.6115C111.091 14.416 110.723 14.3182 110.299 14.3182C109.831 14.3182 109.427 14.4342 109.086 14.6662C108.748 14.8949 108.488 15.1932 108.305 15.5611C108.123 15.929 108.032 16.3234 108.032 16.7443V17.4205C108.032 17.9972 108.131 18.486 108.33 18.8871C108.532 19.2848 108.812 19.5881 109.17 19.7969C109.528 20.0024 109.944 20.1051 110.418 20.1051C110.726 20.1051 111.005 20.062 111.253 19.9759C111.505 19.8864 111.722 19.7538 111.905 19.5781C112.087 19.3991 112.228 19.1771 112.327 18.9119L113.461 19.2301C113.341 19.6146 113.141 19.9527 112.859 20.2443C112.577 20.5327 112.229 20.758 111.815 20.9205C111.401 21.0795 110.935 21.1591 110.418 21.1591ZM116.035 13.3636L117.864 16.4858L119.694 13.3636H121.046L118.58 17.1818L121.046 21H119.694L117.864 18.0369L116.035 21H114.683L117.109 17.1818L114.683 13.3636H116.035ZM126.041 13.3636V14.358H122.084V13.3636H126.041ZM123.237 11.5341H124.411V18.8125C124.411 19.1439 124.459 19.3925 124.555 19.5582C124.654 19.7206 124.78 19.83 124.933 19.8864C125.088 19.9394 125.253 19.9659 125.425 19.9659C125.554 19.9659 125.66 19.9593 125.743 19.946C125.826 19.9295 125.892 19.9162 125.942 19.9062L126.181 20.9602C126.101 20.9901 125.99 21.0199 125.847 21.0497C125.705 21.0829 125.524 21.0994 125.306 21.0994C124.974 21.0994 124.649 21.0282 124.331 20.8857C124.016 20.7431 123.754 20.526 123.546 20.2344C123.34 19.9427 123.237 19.5748 123.237 19.1307V11.5341Z" fill="black"/>
<path d="M98.9437 42.9119V41.8182H106.58V42.9119H103.378V52H102.145V42.9119H98.9437ZM110.418 52.1591C109.682 52.1591 109.048 51.9967 108.514 51.6719C107.984 51.3438 107.574 50.8864 107.286 50.2997C107.001 49.7098 106.858 49.0237 106.858 48.2415C106.858 47.4593 107.001 46.7699 107.286 46.1733C107.574 45.5734 107.975 45.1061 108.489 44.7713C109.006 44.4332 109.609 44.2642 110.299 44.2642C110.697 44.2642 111.089 44.3305 111.477 44.4631C111.865 44.5956 112.218 44.8111 112.536 45.1094C112.854 45.4044 113.108 45.7955 113.297 46.2827C113.486 46.7699 113.58 47.3698 113.58 48.0824V48.5795H107.694V47.5653H112.387C112.387 47.1345 112.301 46.75 112.128 46.4119C111.959 46.0739 111.717 45.8071 111.403 45.6115C111.091 45.416 110.723 45.3182 110.299 45.3182C109.831 45.3182 109.427 45.4342 109.086 45.6662C108.748 45.8949 108.488 46.1932 108.305 46.5611C108.123 46.929 108.032 47.3234 108.032 47.7443V48.4205C108.032 48.9972 108.131 49.486 108.33 49.8871C108.532 50.2848 108.812 50.5881 109.17 50.7969C109.528 51.0024 109.944 51.1051 110.418 51.1051C110.726 51.1051 111.005 51.062 111.253 50.9759C111.505 50.8864 111.722 50.7538 111.905 50.5781C112.087 50.3991 112.228 50.1771 112.327 49.9119L113.461 50.2301C113.341 50.6146 113.141 50.9527 112.859 51.2443C112.577 51.5327 112.229 51.758 111.815 51.9205C111.401 52.0795 110.935 52.1591 110.418 52.1591ZM116.035 44.3636L117.864 47.4858L119.694 44.3636H121.046L118.58 48.1818L121.046 52H119.694L117.864 49.0369L116.035 52H114.683L117.109 48.1818L114.683 44.3636H116.035ZM126.041 44.3636V45.358H122.084V44.3636H126.041ZM123.237 42.5341H124.411V49.8125C124.411 50.1439 124.459 50.3925 124.555 50.5582C124.654 50.7206 124.78 50.83 124.933 50.8864C125.088 50.9394 125.253 50.9659 125.425 50.9659C125.554 50.9659 125.66 50.9593 125.743 50.946C125.826 50.9295 125.892 50.9162 125.942 50.9062L126.181 51.9602C126.101 51.9901 125.99 52.0199 125.847 52.0497C125.705 52.0829 125.524 52.0994 125.306 52.0994C124.974 52.0994 124.649 52.0282 124.331 51.8857C124.016 51.7431 123.754 51.526 123.546 51.2344C123.34 50.9427 123.237 50.5748 123.237 50.1307V42.5341Z" fill="black"/>
<path d="M98.9437 73.9119V72.8182H106.58V73.9119H103.378V83H102.145V73.9119H98.9437ZM110.418 83.1591C109.682 83.1591 109.048 82.9967 108.514 82.6719C107.984 82.3438 107.574 81.8864 107.286 81.2997C107.001 80.7098 106.858 80.0237 106.858 79.2415C106.858 78.4593 107.001 77.7699 107.286 77.1733C107.574 76.5734 107.975 76.1061 108.489 75.7713C109.006 75.4332 109.609 75.2642 110.299 75.2642C110.697 75.2642 111.089 75.3305 111.477 75.4631C111.865 75.5956 112.218 75.8111 112.536 76.1094C112.854 76.4044 113.108 76.7955 113.297 77.2827C113.486 77.7699 113.58 78.3698 113.58 79.0824V79.5795H107.694V78.5653H112.387C112.387 78.1345 112.301 77.75 112.128 77.4119C111.959 77.0739 111.717 76.8071 111.403 76.6115C111.091 76.416 110.723 76.3182 110.299 76.3182C109.831 76.3182 109.427 76.4342 109.086 76.6662C108.748 76.8949 108.488 77.1932 108.305 77.5611C108.123 77.929 108.032 78.3234 108.032 78.7443V79.4205C108.032 79.9972 108.131 80.486 108.33 80.8871C108.532 81.2848 108.812 81.5881 109.17 81.7969C109.528 82.0024 109.944 82.1051 110.418 82.1051C110.726 82.1051 111.005 82.062 111.253 81.9759C111.505 81.8864 111.722 81.7538 111.905 81.5781C112.087 81.3991 112.228 81.1771 112.327 80.9119L113.461 81.2301C113.341 81.6146 113.141 81.9527 112.859 82.2443C112.577 82.5327 112.229 82.758 111.815 82.9205C111.401 83.0795 110.935 83.1591 110.418 83.1591ZM116.035 75.3636L117.864 78.4858L119.694 75.3636H121.046L118.58 79.1818L121.046 83H119.694L117.864 80.0369L116.035 83H114.683L117.109 79.1818L114.683 75.3636H116.035ZM126.041 75.3636V76.358H122.084V75.3636H126.041ZM123.237 73.5341H124.411V80.8125C124.411 81.1439 124.459 81.3925 124.555 81.5582C124.654 81.7206 124.78 81.83 124.933 81.8864C125.088 81.9394 125.253 81.9659 125.425 81.9659C125.554 81.9659 125.66 81.9593 125.743 81.946C125.826 81.9295 125.892 81.9162 125.942 81.9062L126.181 82.9602C126.101 82.9901 125.99 83.0199 125.847 83.0497C125.705 83.0829 125.524 83.0994 125.306 83.0994C124.974 83.0994 124.649 83.0282 124.331 82.8857C124.016 82.7431 123.754 82.526 123.546 82.2344C123.34 81.9427 123.237 81.5748 123.237 81.1307V73.5341Z" fill="black"/>
<path d="M98.9437 104.912V103.818H106.58V104.912H103.378V114H102.145V104.912H98.9437ZM110.418 114.159C109.682 114.159 109.048 113.997 108.514 113.672C107.984 113.344 107.574 112.886 107.286 112.3C107.001 111.71 106.858 111.024 106.858 110.241C106.858 109.459 107.001 108.77 107.286 108.173C107.574 107.573 107.975 107.106 108.489 106.771C109.006 106.433 109.609 106.264 110.299 106.264C110.697 106.264 111.089 106.33 111.477 106.463C111.865 106.596 112.218 106.811 112.536 107.109C112.854 107.404 113.108 107.795 113.297 108.283C113.486 108.77 113.58 109.37 113.58 110.082V110.58H107.694V109.565H112.387C112.387 109.134 112.301 108.75 112.128 108.412C111.959 108.074 111.717 107.807 111.403 107.612C111.091 107.416 110.723 107.318 110.299 107.318C109.831 107.318 109.427 107.434 109.086 107.666C108.748 107.895 108.488 108.193 108.305 108.561C108.123 108.929 108.032 109.323 108.032 109.744V110.42C108.032 110.997 108.131 111.486 108.33 111.887C108.532 112.285 108.812 112.588 109.17 112.797C109.528 113.002 109.944 113.105 110.418 113.105C110.726 113.105 111.005 113.062 111.253 112.976C111.505 112.886 111.722 112.754 111.905 112.578C112.087 112.399 112.228 112.177 112.327 111.912L113.461 112.23C113.341 112.615 113.141 112.953 112.859 113.244C112.577 113.533 112.229 113.758 111.815 113.92C111.401 114.08 110.935 114.159 110.418 114.159ZM116.035 106.364L117.864 109.486L119.694 106.364H121.046L118.58 110.182L121.046 114H119.694L117.864 111.037L116.035 114H114.683L117.109 110.182L114.683 106.364H116.035ZM126.041 106.364V107.358H122.084V106.364H126.041ZM123.237 104.534H124.411V111.812C124.411 112.144 124.459 112.393 124.555 112.558C124.654 112.721 124.78 112.83 124.933 112.886C125.088 112.939 125.253 112.966 125.425 112.966C125.554 112.966 125.66 112.959 125.743 112.946C125.826 112.929 125.892 112.916 125.942 112.906L126.181 113.96C126.101 113.99 125.99 114.02 125.847 114.05C125.705 114.083 125.524 114.099 125.306 114.099C124.974 114.099 124.649 114.028 124.331 113.886C124.016 113.743 123.754 113.526 123.546 113.234C123.34 112.943 123.237 112.575 123.237 112.131V104.534Z" fill="black"/>
<path d="M98.9437 135.912V134.818H106.58V135.912H103.378V145H102.145V135.912H98.9437ZM110.418 145.159C109.682 145.159 109.048 144.997 108.514 144.672C107.984 144.344 107.574 143.886 107.286 143.3C107.001 142.71 106.858 142.024 106.858 141.241C106.858 140.459 107.001 139.77 107.286 139.173C107.574 138.573 107.975 138.106 108.489 137.771C109.006 137.433 109.609 137.264 110.299 137.264C110.697 137.264 111.089 137.33 111.477 137.463C111.865 137.596 112.218 137.811 112.536 138.109C112.854 138.404 113.108 138.795 113.297 139.283C113.486 139.77 113.58 140.37 113.58 141.082V141.58H107.694V140.565H112.387C112.387 140.134 112.301 139.75 112.128 139.412C111.959 139.074 111.717 138.807 111.403 138.612C111.091 138.416 110.723 138.318 110.299 138.318C109.831 138.318 109.427 138.434 109.086 138.666C108.748 138.895 108.488 139.193 108.305 139.561C108.123 139.929 108.032 140.323 108.032 140.744V141.42C108.032 141.997 108.131 142.486 108.33 142.887C108.532 143.285 108.812 143.588 109.17 143.797C109.528 144.002 109.944 144.105 110.418 144.105C110.726 144.105 111.005 144.062 111.253 143.976C111.505 143.886 111.722 143.754 111.905 143.578C112.087 143.399 112.228 143.177 112.327 142.912L113.461 143.23C113.341 143.615 113.141 143.953 112.859 144.244C112.577 144.533 112.229 144.758 111.815 144.92C111.401 145.08 110.935 145.159 110.418 145.159ZM116.035 137.364L117.864 140.486L119.694 137.364H121.046L118.58 141.182L121.046 145H119.694L117.864 142.037L116.035 145H114.683L117.109 141.182L114.683 137.364H116.035ZM126.041 137.364V138.358H122.084V137.364H126.041ZM123.237 135.534H124.411V142.812C124.411 143.144 124.459 143.393 124.555 143.558C124.654 143.721 124.78 143.83 124.933 143.886C125.088 143.939 125.253 143.966 125.425 143.966C125.554 143.966 125.66 143.959 125.743 143.946C125.826 143.929 125.892 143.916 125.942 143.906L126.181 144.96C126.101 144.99 125.99 145.02 125.847 145.05C125.705 145.083 125.524 145.099 125.306 145.099C124.974 145.099 124.649 145.028 124.331 144.886C124.016 144.743 123.754 144.526 123.546 144.234C123.34 143.943 123.237 143.575 123.237 143.131V135.534Z" fill="black"/>
<path d="M323.944 11.9119V10.8182H331.58V11.9119H328.378V21H327.145V11.9119H323.944ZM335.418 21.1591C334.682 21.1591 334.048 20.9967 333.514 20.6719C332.984 20.3438 332.574 19.8864 332.286 19.2997C332.001 18.7098 331.858 18.0237 331.858 17.2415C331.858 16.4593 332.001 15.7699 332.286 15.1733C332.574 14.5734 332.975 14.1061 333.489 13.7713C334.006 13.4332 334.609 13.2642 335.299 13.2642C335.697 13.2642 336.089 13.3305 336.477 13.4631C336.865 13.5956 337.218 13.8111 337.536 14.1094C337.854 14.4044 338.108 14.7955 338.297 15.2827C338.486 15.7699 338.58 16.3698 338.58 17.0824V17.5795H332.694V16.5653H337.387C337.387 16.1345 337.301 15.75 337.128 15.4119C336.959 15.0739 336.717 14.8071 336.403 14.6115C336.091 14.416 335.723 14.3182 335.299 14.3182C334.831 14.3182 334.427 14.4342 334.086 14.6662C333.748 14.8949 333.488 15.1932 333.305 15.5611C333.123 15.929 333.032 16.3234 333.032 16.7443V17.4205C333.032 17.9972 333.131 18.486 333.33 18.8871C333.532 19.2848 333.812 19.5881 334.17 19.7969C334.528 20.0024 334.944 20.1051 335.418 20.1051C335.726 20.1051 336.005 20.062 336.253 19.9759C336.505 19.8864 336.722 19.7538 336.905 19.5781C337.087 19.3991 337.228 19.1771 337.327 18.9119L338.461 19.2301C338.341 19.6146 338.141 19.9527 337.859 20.2443C337.577 20.5327 337.229 20.758 336.815 20.9205C336.401 21.0795 335.935 21.1591 335.418 21.1591ZM341.035 13.3636L342.864 16.4858L344.694 13.3636H346.046L343.58 17.1818L346.046 21H344.694L342.864 18.0369L341.035 21H339.683L342.109 17.1818L339.683 13.3636H341.035ZM351.041 13.3636V14.358H347.084V13.3636H351.041ZM348.237 11.5341H349.411V18.8125C349.411 19.1439 349.459 19.3925 349.555 19.5582C349.654 19.7206 349.78 19.83 349.933 19.8864C350.088 19.9394 350.253 19.9659 350.425 19.9659C350.554 19.9659 350.66 19.9593 350.743 19.946C350.826 19.9295 350.892 19.9162 350.942 19.9062L351.181 20.9602C351.101 20.9901 350.99 21.0199 350.847 21.0497C350.705 21.0829 350.524 21.0994 350.306 21.0994C349.974 21.0994 349.649 21.0282 349.331 20.8857C349.016 20.7431 348.754 20.526 348.546 20.2344C348.34 19.9427 348.237 19.5748 348.237 19.1307V11.5341Z" fill="black"/>
<path d="M323.944 42.9119V41.8182H331.58V42.9119H328.378V52H327.145V42.9119H323.944ZM335.418 52.1591C334.682 52.1591 334.048 51.9967 333.514 51.6719C332.984 51.3438 332.574 50.8864 332.286 50.2997C332.001 49.7098 331.858 49.0237 331.858 48.2415C331.858 47.4593 332.001 46.7699 332.286 46.1733C332.574 45.5734 332.975 45.1061 333.489 44.7713C334.006 44.4332 334.609 44.2642 335.299 44.2642C335.697 44.2642 336.089 44.3305 336.477 44.4631C336.865 44.5956 337.218 44.8111 337.536 45.1094C337.854 45.4044 338.108 45.7955 338.297 46.2827C338.486 46.7699 338.58 47.3698 338.58 48.0824V48.5795H332.694V47.5653H337.387C337.387 47.1345 337.301 46.75 337.128 46.4119C336.959 46.0739 336.717 45.8071 336.403 45.6115C336.091 45.416 335.723 45.3182 335.299 45.3182C334.831 45.3182 334.427 45.4342 334.086 45.6662C333.748 45.8949 333.488 46.1932 333.305 46.5611C333.123 46.929 333.032 47.3234 333.032 47.7443V48.4205C333.032 48.9972 333.131 49.486 333.33 49.8871C333.532 50.2848 333.812 50.5881 334.17 50.7969C334.528 51.0024 334.944 51.1051 335.418 51.1051C335.726 51.1051 336.005 51.062 336.253 50.9759C336.505 50.8864 336.722 50.7538 336.905 50.5781C337.087 50.3991 337.228 50.1771 337.327 49.9119L338.461 50.2301C338.341 50.6146 338.141 50.9527 337.859 51.2443C337.577 51.5327 337.229 51.758 336.815 51.9205C336.401 52.0795 335.935 52.1591 335.418 52.1591ZM341.035 44.3636L342.864 47.4858L344.694 44.3636H346.046L343.58 48.1818L346.046 52H344.694L342.864 49.0369L341.035 52H339.683L342.109 48.1818L339.683 44.3636H341.035ZM351.041 44.3636V45.358H347.084V44.3636H351.041ZM348.237 42.5341H349.411V49.8125C349.411 50.1439 349.459 50.3925 349.555 50.5582C349.654 50.7206 349.78 50.83 349.933 50.8864C350.088 50.9394 350.253 50.9659 350.425 50.9659C350.554 50.9659 350.66 50.9593 350.743 50.946C350.826 50.9295 350.892 50.9162 350.942 50.9062L351.181 51.9602C351.101 51.9901 350.99 52.0199 350.847 52.0497C350.705 52.0829 350.524 52.0994 350.306 52.0994C349.974 52.0994 349.649 52.0282 349.331 51.8857C349.016 51.7431 348.754 51.526 348.546 51.2344C348.34 50.9427 348.237 50.5748 348.237 50.1307V42.5341Z" fill="black"/>
<path d="M323.944 73.9119V72.8182H331.58V73.9119H328.378V83H327.145V73.9119H323.944ZM335.418 83.1591C334.682 83.1591 334.048 82.9967 333.514 82.6719C332.984 82.3438 332.574 81.8864 332.286 81.2997C332.001 80.7098 331.858 80.0237 331.858 79.2415C331.858 78.4593 332.001 77.7699 332.286 77.1733C332.574 76.5734 332.975 76.1061 333.489 75.7713C334.006 75.4332 334.609 75.2642 335.299 75.2642C335.697 75.2642 336.089 75.3305 336.477 75.4631C336.865 75.5956 337.218 75.8111 337.536 76.1094C337.854 76.4044 338.108 76.7955 338.297 77.2827C338.486 77.7699 338.58 78.3698 338.58 79.0824V79.5795H332.694V78.5653H337.387C337.387 78.1345 337.301 77.75 337.128 77.4119C336.959 77.0739 336.717 76.8071 336.403 76.6115C336.091 76.416 335.723 76.3182 335.299 76.3182C334.831 76.3182 334.427 76.4342 334.086 76.6662C333.748 76.8949 333.488 77.1932 333.305 77.5611C333.123 77.929 333.032 78.3234 333.032 78.7443V79.4205C333.032 79.9972 333.131 80.486 333.33 80.8871C333.532 81.2848 333.812 81.5881 334.17 81.7969C334.528 82.0024 334.944 82.1051 335.418 82.1051C335.726 82.1051 336.005 82.062 336.253 81.9759C336.505 81.8864 336.722 81.7538 336.905 81.5781C337.087 81.3991 337.228 81.1771 337.327 80.9119L338.461 81.2301C338.341 81.6146 338.141 81.9527 337.859 82.2443C337.577 82.5327 337.229 82.758 336.815 82.9205C336.401 83.0795 335.935 83.1591 335.418 83.1591ZM341.035 75.3636L342.864 78.4858L344.694 75.3636H346.046L343.58 79.1818L346.046 83H344.694L342.864 80.0369L341.035 83H339.683L342.109 79.1818L339.683 75.3636H341.035ZM351.041 75.3636V76.358H347.084V75.3636H351.041ZM348.237 73.5341H349.411V80.8125C349.411 81.1439 349.459 81.3925 349.555 81.5582C349.654 81.7206 349.78 81.83 349.933 81.8864C350.088 81.9394 350.253 81.9659 350.425 81.9659C350.554 81.9659 350.66 81.9593 350.743 81.946C350.826 81.9295 350.892 81.9162 350.942 81.9062L351.181 82.9602C351.101 82.9901 350.99 83.0199 350.847 83.0497C350.705 83.0829 350.524 83.0994 350.306 83.0994C349.974 83.0994 349.649 83.0282 349.331 82.8857C349.016 82.7431 348.754 82.526 348.546 82.2344C348.34 81.9427 348.237 81.5748 348.237 81.1307V73.5341Z" fill="black"/>
<path d="M323.944 104.912V103.818H331.58V104.912H328.378V114H327.145V104.912H323.944ZM335.418 114.159C334.682 114.159 334.048 113.997 333.514 113.672C332.984 113.344 332.574 112.886 332.286 112.3C332.001 111.71 331.858 111.024 331.858 110.241C331.858 109.459 332.001 108.77 332.286 108.173C332.574 107.573 332.975 107.106 333.489 106.771C334.006 106.433 334.609 106.264 335.299 106.264C335.697 106.264 336.089 106.33 336.477 106.463C336.865 106.596 337.218 106.811 337.536 107.109C337.854 107.404 338.108 107.795 338.297 108.283C338.486 108.77 338.58 109.37 338.58 110.082V110.58H332.694V109.565H337.387C337.387 109.134 337.301 108.75 337.128 108.412C336.959 108.074 336.717 107.807 336.403 107.612C336.091 107.416 335.723 107.318 335.299 107.318C334.831 107.318 334.427 107.434 334.086 107.666C333.748 107.895 333.488 108.193 333.305 108.561C333.123 108.929 333.032 109.323 333.032 109.744V110.42C333.032 110.997 333.131 111.486 333.33 111.887C333.532 112.285 333.812 112.588 334.17 112.797C334.528 113.002 334.944 113.105 335.418 113.105C335.726 113.105 336.005 113.062 336.253 112.976C336.505 112.886 336.722 112.754 336.905 112.578C337.087 112.399 337.228 112.177 337.327 111.912L338.461 112.23C338.341 112.615 338.141 112.953 337.859 113.244C337.577 113.533 337.229 113.758 336.815 113.92C336.401 114.08 335.935 114.159 335.418 114.159ZM341.035 106.364L342.864 109.486L344.694 106.364H346.046L343.58 110.182L346.046 114H344.694L342.864 111.037L341.035 114H339.683L342.109 110.182L339.683 106.364H341.035ZM351.041 106.364V107.358H347.084V106.364H351.041ZM348.237 104.534H349.411V111.812C349.411 112.144 349.459 112.393 349.555 112.558C349.654 112.721 349.78 112.83 349.933 112.886C350.088 112.939 350.253 112.966 350.425 112.966C350.554 112.966 350.66 112.959 350.743 112.946C350.826 112.929 350.892 112.916 350.942 112.906L351.181 113.96C351.101 113.99 350.99 114.02 350.847 114.05C350.705 114.083 350.524 114.099 350.306 114.099C349.974 114.099 349.649 114.028 349.331 113.886C349.016 113.743 348.754 113.526 348.546 113.234C348.34 112.943 348.237 112.575 348.237 112.131V104.534Z" fill="black"/>
<path d="M323.944 135.912V134.818H331.58V135.912H328.378V145H327.145V135.912H323.944ZM335.418 145.159C334.682 145.159 334.048 144.997 333.514 144.672C332.984 144.344 332.574 143.886 332.286 143.3C332.001 142.71 331.858 142.024 331.858 141.241C331.858 140.459 332.001 139.77 332.286 139.173C332.574 138.573 332.975 138.106 333.489 137.771C334.006 137.433 334.609 137.264 335.299 137.264C335.697 137.264 336.089 137.33 336.477 137.463C336.865 137.596 337.218 137.811 337.536 138.109C337.854 138.404 338.108 138.795 338.297 139.283C338.486 139.77 338.58 140.37 338.58 141.082V141.58H332.694V140.565H337.387C337.387 140.134 337.301 139.75 337.128 139.412C336.959 139.074 336.717 138.807 336.403 138.612C336.091 138.416 335.723 138.318 335.299 138.318C334.831 138.318 334.427 138.434 334.086 138.666C333.748 138.895 333.488 139.193 333.305 139.561C333.123 139.929 333.032 140.323 333.032 140.744V141.42C333.032 141.997 333.131 142.486 333.33 142.887C333.532 143.285 333.812 143.588 334.17 143.797C334.528 144.002 334.944 144.105 335.418 144.105C335.726 144.105 336.005 144.062 336.253 143.976C336.505 143.886 336.722 143.754 336.905 143.578C337.087 143.399 337.228 143.177 337.327 142.912L338.461 143.23C338.341 143.615 338.141 143.953 337.859 144.244C337.577 144.533 337.229 144.758 336.815 144.92C336.401 145.08 335.935 145.159 335.418 145.159ZM341.035 137.364L342.864 140.486L344.694 137.364H346.046L343.58 141.182L346.046 145H344.694L342.864 142.037L341.035 145H339.683L342.109 141.182L339.683 137.364H341.035ZM351.041 137.364V138.358H347.084V137.364H351.041ZM348.237 135.534H349.411V142.812C349.411 143.144 349.459 143.393 349.555 143.558C349.654 143.721 349.78 143.83 349.933 143.886C350.088 143.939 350.253 143.966 350.425 143.966C350.554 143.966 350.66 143.959 350.743 143.946C350.826 143.929 350.892 143.916 350.942 143.906L351.181 144.96C351.101 144.99 350.99 145.02 350.847 145.05C350.705 145.083 350.524 145.099 350.306 145.099C349.974 145.099 349.649 145.028 349.331 144.886C349.016 144.743 348.754 144.526 348.546 144.234C348.34 143.943 348.237 143.575 348.237 143.131V135.534Z" fill="black"/>
<path d="M0 155H225V186H0V155Z" fill="white"/>
<path d="M98.9437 166.912V165.818H106.58V166.912H103.378V176H102.145V166.912H98.9437ZM110.418 176.159C109.682 176.159 109.048 175.997 108.514 175.672C107.984 175.344 107.574 174.886 107.286 174.3C107.001 173.71 106.858 173.024 106.858 172.241C106.858 171.459 107.001 170.77 107.286 170.173C107.574 169.573 107.975 169.106 108.489 168.771C109.006 168.433 109.609 168.264 110.299 168.264C110.697 168.264 111.089 168.33 111.477 168.463C111.865 168.596 112.218 168.811 112.536 169.109C112.854 169.404 113.108 169.795 113.297 170.283C113.486 170.77 113.58 171.37 113.58 172.082V172.58H107.694V171.565H112.387C112.387 171.134 112.301 170.75 112.128 170.412C111.959 170.074 111.717 169.807 111.403 169.612C111.091 169.416 110.723 169.318 110.299 169.318C109.831 169.318 109.427 169.434 109.086 169.666C108.748 169.895 108.488 170.193 108.305 170.561C108.123 170.929 108.032 171.323 108.032 171.744V172.42C108.032 172.997 108.131 173.486 108.33 173.887C108.532 174.285 108.812 174.588 109.17 174.797C109.528 175.002 109.944 175.105 110.418 175.105C110.726 175.105 111.005 175.062 111.253 174.976C111.505 174.886 111.722 174.754 111.905 174.578C112.087 174.399 112.228 174.177 112.327 173.912L113.461 174.23C113.341 174.615 113.141 174.953 112.859 175.244C112.577 175.533 112.229 175.758 111.815 175.92C111.401 176.08 110.935 176.159 110.418 176.159ZM116.035 168.364L117.864 171.486L119.694 168.364H121.046L118.58 172.182L121.046 176H119.694L117.864 173.037L116.035 176H114.683L117.109 172.182L114.683 168.364H116.035ZM126.041 168.364V169.358H122.084V168.364H126.041ZM123.237 166.534H124.411V173.812C124.411 174.144 124.459 174.393 124.555 174.558C124.654 174.721 124.78 174.83 124.933 174.886C125.088 174.939 125.253 174.966 125.425 174.966C125.554 174.966 125.66 174.959 125.743 174.946C125.826 174.929 125.892 174.916 125.942 174.906L126.181 175.96C126.101 175.99 125.99 176.02 125.847 176.05C125.705 176.083 125.524 176.099 125.306 176.099C124.974 176.099 124.649 176.028 124.331 175.886C124.016 175.743 123.754 175.526 123.546 175.234C123.34 174.943 123.237 174.575 123.237 174.131V166.534Z" fill="black"/>
<path d="M98.9437 197.912V196.818H106.58V197.912H103.378V207H102.145V197.912H98.9437ZM110.418 207.159C109.682 207.159 109.048 206.997 108.514 206.672C107.984 206.344 107.574 205.886 107.286 205.3C107.001 204.71 106.858 204.024 106.858 203.241C106.858 202.459 107.001 201.77 107.286 201.173C107.574 200.573 107.975 200.106 108.489 199.771C109.006 199.433 109.609 199.264 110.299 199.264C110.697 199.264 111.089 199.33 111.477 199.463C111.865 199.596 112.218 199.811 112.536 200.109C112.854 200.404 113.108 200.795 113.297 201.283C113.486 201.77 113.58 202.37 113.58 203.082V203.58H107.694V202.565H112.387C112.387 202.134 112.301 201.75 112.128 201.412C111.959 201.074 111.717 200.807 111.403 200.612C111.091 200.416 110.723 200.318 110.299 200.318C109.831 200.318 109.427 200.434 109.086 200.666C108.748 200.895 108.488 201.193 108.305 201.561C108.123 201.929 108.032 202.323 108.032 202.744V203.42C108.032 203.997 108.131 204.486 108.33 204.887C108.532 205.285 108.812 205.588 109.17 205.797C109.528 206.002 109.944 206.105 110.418 206.105C110.726 206.105 111.005 206.062 111.253 205.976C111.505 205.886 111.722 205.754 111.905 205.578C112.087 205.399 112.228 205.177 112.327 204.912L113.461 205.23C113.341 205.615 113.141 205.953 112.859 206.244C112.577 206.533 112.229 206.758 111.815 206.92C111.401 207.08 110.935 207.159 110.418 207.159ZM116.035 199.364L117.864 202.486L119.694 199.364H121.046L118.58 203.182L121.046 207H119.694L117.864 204.037L116.035 207H114.683L117.109 203.182L114.683 199.364H116.035ZM126.041 199.364V200.358H122.084V199.364H126.041ZM123.237 197.534H124.411V204.812C124.411 205.144 124.459 205.393 124.555 205.558C124.654 205.721 124.78 205.83 124.933 205.886C125.088 205.939 125.253 205.966 125.425 205.966C125.554 205.966 125.66 205.959 125.743 205.946C125.826 205.929 125.892 205.916 125.942 205.906L126.181 206.96C126.101 206.99 125.99 207.02 125.847 207.05C125.705 207.083 125.524 207.099 125.306 207.099C124.974 207.099 124.649 207.028 124.331 206.886C124.016 206.743 123.754 206.526 123.546 206.234C123.34 205.943 123.237 205.575 123.237 205.131V197.534Z" fill="black"/>
<path d="M98.9437 228.912V227.818H106.58V228.912H103.378V238H102.145V228.912H98.9437ZM110.418 238.159C109.682 238.159 109.048 237.997 108.514 237.672C107.984 237.344 107.574 236.886 107.286 236.3C107.001 235.71 106.858 235.024 106.858 234.241C106.858 233.459 107.001 232.77 107.286 232.173C107.574 231.573 107.975 231.106 108.489 230.771C109.006 230.433 109.609 230.264 110.299 230.264C110.697 230.264 111.089 230.33 111.477 230.463C111.865 230.596 112.218 230.811 112.536 231.109C112.854 231.404 113.108 231.795 113.297 232.283C113.486 232.77 113.58 233.37 113.58 234.082V234.58H107.694V233.565H112.387C112.387 233.134 112.301 232.75 112.128 232.412C111.959 232.074 111.717 231.807 111.403 231.612C111.091 231.416 110.723 231.318 110.299 231.318C109.831 231.318 109.427 231.434 109.086 231.666C108.748 231.895 108.488 232.193 108.305 232.561C108.123 232.929 108.032 233.323 108.032 233.744V234.42C108.032 234.997 108.131 235.486 108.33 235.887C108.532 236.285 108.812 236.588 109.17 236.797C109.528 237.002 109.944 237.105 110.418 237.105C110.726 237.105 111.005 237.062 111.253 236.976C111.505 236.886 111.722 236.754 111.905 236.578C112.087 236.399 112.228 236.177 112.327 235.912L113.461 236.23C113.341 236.615 113.141 236.953 112.859 237.244C112.577 237.533 112.229 237.758 111.815 237.92C111.401 238.08 110.935 238.159 110.418 238.159ZM116.035 230.364L117.864 233.486L119.694 230.364H121.046L118.58 234.182L121.046 238H119.694L117.864 235.037L116.035 238H114.683L117.109 234.182L114.683 230.364H116.035ZM126.041 230.364V231.358H122.084V230.364H126.041ZM123.237 228.534H124.411V235.812C124.411 236.144 124.459 236.393 124.555 236.558C124.654 236.721 124.78 236.83 124.933 236.886C125.088 236.939 125.253 236.966 125.425 236.966C125.554 236.966 125.66 236.959 125.743 236.946C125.826 236.929 125.892 236.916 125.942 236.906L126.181 237.96C126.101 237.99 125.99 238.02 125.847 238.05C125.705 238.083 125.524 238.099 125.306 238.099C124.974 238.099 124.649 238.028 124.331 237.886C124.016 237.743 123.754 237.526 123.546 237.234C123.34 236.943 123.237 236.575 123.237 236.131V228.534Z" fill="black"/>
<path d="M98.9437 259.912V258.818H106.58V259.912H103.378V269H102.145V259.912H98.9437ZM110.418 269.159C109.682 269.159 109.048 268.997 108.514 268.672C107.984 268.344 107.574 267.886 107.286 267.3C107.001 266.71 106.858 266.024 106.858 265.241C106.858 264.459 107.001 263.77 107.286 263.173C107.574 262.573 107.975 262.106 108.489 261.771C109.006 261.433 109.609 261.264 110.299 261.264C110.697 261.264 111.089 261.33 111.477 261.463C111.865 261.596 112.218 261.811 112.536 262.109C112.854 262.404 113.108 262.795 113.297 263.283C113.486 263.77 113.58 264.37 113.58 265.082V265.58H107.694V264.565H112.387C112.387 264.134 112.301 263.75 112.128 263.412C111.959 263.074 111.717 262.807 111.403 262.612C111.091 262.416 110.723 262.318 110.299 262.318C109.831 262.318 109.427 262.434 109.086 262.666C108.748 262.895 108.488 263.193 108.305 263.561C108.123 263.929 108.032 264.323 108.032 264.744V265.42C108.032 265.997 108.131 266.486 108.33 266.887C108.532 267.285 108.812 267.588 109.17 267.797C109.528 268.002 109.944 268.105 110.418 268.105C110.726 268.105 111.005 268.062 111.253 267.976C111.505 267.886 111.722 267.754 111.905 267.578C112.087 267.399 112.228 267.177 112.327 266.912L113.461 267.23C113.341 267.615 113.141 267.953 112.859 268.244C112.577 268.533 112.229 268.758 111.815 268.92C111.401 269.08 110.935 269.159 110.418 269.159ZM116.035 261.364L117.864 264.486L119.694 261.364H121.046L118.58 265.182L121.046 269H119.694L117.864 266.037L116.035 269H114.683L117.109 265.182L114.683 261.364H116.035ZM126.041 261.364V262.358H122.084V261.364H126.041ZM123.237 259.534H124.411V266.812C124.411 267.144 124.459 267.393 124.555 267.558C124.654 267.721 124.78 267.83 124.933 267.886C125.088 267.939 125.253 267.966 125.425 267.966C125.554 267.966 125.66 267.959 125.743 267.946C125.826 267.929 125.892 267.916 125.942 267.906L126.181 268.96C126.101 268.99 125.99 269.02 125.847 269.05C125.705 269.083 125.524 269.099 125.306 269.099C124.974 269.099 124.649 269.028 124.331 268.886C124.016 268.743 123.754 268.526 123.546 268.234C123.34 267.943 123.237 267.575 123.237 267.131V259.534Z" fill="black"/>
<path d="M98.9437 290.912V289.818H106.58V290.912H103.378V300H102.145V290.912H98.9437ZM110.418 300.159C109.682 300.159 109.048 299.997 108.514 299.672C107.984 299.344 107.574 298.886 107.286 298.3C107.001 297.71 106.858 297.024 106.858 296.241C106.858 295.459 107.001 294.77 107.286 294.173C107.574 293.573 107.975 293.106 108.489 292.771C109.006 292.433 109.609 292.264 110.299 292.264C110.697 292.264 111.089 292.33 111.477 292.463C111.865 292.596 112.218 292.811 112.536 293.109C112.854 293.404 113.108 293.795 113.297 294.283C113.486 294.77 113.58 295.37 113.58 296.082V296.58H107.694V295.565H112.387C112.387 295.134 112.301 294.75 112.128 294.412C111.959 294.074 111.717 293.807 111.403 293.612C111.091 293.416 110.723 293.318 110.299 293.318C109.831 293.318 109.427 293.434 109.086 293.666C108.748 293.895 108.488 294.193 108.305 294.561C108.123 294.929 108.032 295.323 108.032 295.744V296.42C108.032 296.997 108.131 297.486 108.33 297.887C108.532 298.285 108.812 298.588 109.17 298.797C109.528 299.002 109.944 299.105 110.418 299.105C110.726 299.105 111.005 299.062 111.253 298.976C111.505 298.886 111.722 298.754 111.905 298.578C112.087 298.399 112.228 298.177 112.327 297.912L113.461 298.23C113.341 298.615 113.141 298.953 112.859 299.244C112.577 299.533 112.229 299.758 111.815 299.92C111.401 300.08 110.935 300.159 110.418 300.159ZM116.035 292.364L117.864 295.486L119.694 292.364H121.046L118.58 296.182L121.046 300H119.694L117.864 297.037L116.035 300H114.683L117.109 296.182L114.683 292.364H116.035ZM126.041 292.364V293.358H122.084V292.364H126.041ZM123.237 290.534H124.411V297.812C124.411 298.144 124.459 298.393 124.555 298.558C124.654 298.721 124.78 298.83 124.933 298.886C125.088 298.939 125.253 298.966 125.425 298.966C125.554 298.966 125.66 298.959 125.743 298.946C125.826 298.929 125.892 298.916 125.942 298.906L126.181 299.96C126.101 299.99 125.99 300.02 125.847 300.05C125.705 300.083 125.524 300.099 125.306 300.099C124.974 300.099 124.649 300.028 124.331 299.886C124.016 299.743 123.754 299.526 123.546 299.234C123.34 298.943 123.237 298.575 123.237 298.131V290.534Z" fill="black"/>
<path d="M323.944 166.912V165.818H331.58V166.912H328.378V176H327.145V166.912H323.944ZM335.418 176.159C334.682 176.159 334.048 175.997 333.514 175.672C332.984 175.344 332.574 174.886 332.286 174.3C332.001 173.71 331.858 173.024 331.858 172.241C331.858 171.459 332.001 170.77 332.286 170.173C332.574 169.573 332.975 169.106 333.489 168.771C334.006 168.433 334.609 168.264 335.299 168.264C335.697 168.264 336.089 168.33 336.477 168.463C336.865 168.596 337.218 168.811 337.536 169.109C337.854 169.404 338.108 169.795 338.297 170.283C338.486 170.77 338.58 171.37 338.58 172.082V172.58H332.694V171.565H337.387C337.387 171.134 337.301 170.75 337.128 170.412C336.959 170.074 336.717 169.807 336.403 169.612C336.091 169.416 335.723 169.318 335.299 169.318C334.831 169.318 334.427 169.434 334.086 169.666C333.748 169.895 333.488 170.193 333.305 170.561C333.123 170.929 333.032 171.323 333.032 171.744V172.42C333.032 172.997 333.131 173.486 333.33 173.887C333.532 174.285 333.812 174.588 334.17 174.797C334.528 175.002 334.944 175.105 335.418 175.105C335.726 175.105 336.005 175.062 336.253 174.976C336.505 174.886 336.722 174.754 336.905 174.578C337.087 174.399 337.228 174.177 337.327 173.912L338.461 174.23C338.341 174.615 338.141 174.953 337.859 175.244C337.577 175.533 337.229 175.758 336.815 175.92C336.401 176.08 335.935 176.159 335.418 176.159ZM341.035 168.364L342.864 171.486L344.694 168.364H346.046L343.58 172.182L346.046 176H344.694L342.864 173.037L341.035 176H339.683L342.109 172.182L339.683 168.364H341.035ZM351.041 168.364V169.358H347.084V168.364H351.041ZM348.237 166.534H349.411V173.812C349.411 174.144 349.459 174.393 349.555 174.558C349.654 174.721 349.78 174.83 349.933 174.886C350.088 174.939 350.253 174.966 350.425 174.966C350.554 174.966 350.66 174.959 350.743 174.946C350.826 174.929 350.892 174.916 350.942 174.906L351.181 175.96C351.101 175.99 350.99 176.02 350.847 176.05C350.705 176.083 350.524 176.099 350.306 176.099C349.974 176.099 349.649 176.028 349.331 175.886C349.016 175.743 348.754 175.526 348.546 175.234C348.34 174.943 348.237 174.575 348.237 174.131V166.534Z" fill="black"/>
<path d="M323.944 197.912V196.818H331.58V197.912H328.378V207H327.145V197.912H323.944ZM335.418 207.159C334.682 207.159 334.048 206.997 333.514 206.672C332.984 206.344 332.574 205.886 332.286 205.3C332.001 204.71 331.858 204.024 331.858 203.241C331.858 202.459 332.001 201.77 332.286 201.173C332.574 200.573 332.975 200.106 333.489 199.771C334.006 199.433 334.609 199.264 335.299 199.264C335.697 199.264 336.089 199.33 336.477 199.463C336.865 199.596 337.218 199.811 337.536 200.109C337.854 200.404 338.108 200.795 338.297 201.283C338.486 201.77 338.58 202.37 338.58 203.082V203.58H332.694V202.565H337.387C337.387 202.134 337.301 201.75 337.128 201.412C336.959 201.074 336.717 200.807 336.403 200.612C336.091 200.416 335.723 200.318 335.299 200.318C334.831 200.318 334.427 200.434 334.086 200.666C333.748 200.895 333.488 201.193 333.305 201.561C333.123 201.929 333.032 202.323 333.032 202.744V203.42C333.032 203.997 333.131 204.486 333.33 204.887C333.532 205.285 333.812 205.588 334.17 205.797C334.528 206.002 334.944 206.105 335.418 206.105C335.726 206.105 336.005 206.062 336.253 205.976C336.505 205.886 336.722 205.754 336.905 205.578C337.087 205.399 337.228 205.177 337.327 204.912L338.461 205.23C338.341 205.615 338.141 205.953 337.859 206.244C337.577 206.533 337.229 206.758 336.815 206.92C336.401 207.08 335.935 207.159 335.418 207.159ZM341.035 199.364L342.864 202.486L344.694 199.364H346.046L343.58 203.182L346.046 207H344.694L342.864 204.037L341.035 207H339.683L342.109 203.182L339.683 199.364H341.035ZM351.041 199.364V200.358H347.084V199.364H351.041ZM348.237 197.534H349.411V204.812C349.411 205.144 349.459 205.393 349.555 205.558C349.654 205.721 349.78 205.83 349.933 205.886C350.088 205.939 350.253 205.966 350.425 205.966C350.554 205.966 350.66 205.959 350.743 205.946C350.826 205.929 350.892 205.916 350.942 205.906L351.181 206.96C351.101 206.99 350.99 207.02 350.847 207.05C350.705 207.083 350.524 207.099 350.306 207.099C349.974 207.099 349.649 207.028 349.331 206.886C349.016 206.743 348.754 206.526 348.546 206.234C348.34 205.943 348.237 205.575 348.237 205.131V197.534Z" fill="black"/>
<path d="M323.944 228.912V227.818H331.58V228.912H328.378V238H327.145V228.912H323.944ZM335.418 238.159C334.682 238.159 334.048 237.997 333.514 237.672C332.984 237.344 332.574 236.886 332.286 236.3C332.001 235.71 331.858 235.024 331.858 234.241C331.858 233.459 332.001 232.77 332.286 232.173C332.574 231.573 332.975 231.106 333.489 230.771C334.006 230.433 334.609 230.264 335.299 230.264C335.697 230.264 336.089 230.33 336.477 230.463C336.865 230.596 337.218 230.811 337.536 231.109C337.854 231.404 338.108 231.795 338.297 232.283C338.486 232.77 338.58 233.37 338.58 234.082V234.58H332.694V233.565H337.387C337.387 233.134 337.301 232.75 337.128 232.412C336.959 232.074 336.717 231.807 336.403 231.612C336.091 231.416 335.723 231.318 335.299 231.318C334.831 231.318 334.427 231.434 334.086 231.666C333.748 231.895 333.488 232.193 333.305 232.561C333.123 232.929 333.032 233.323 333.032 233.744V234.42C333.032 234.997 333.131 235.486 333.33 235.887C333.532 236.285 333.812 236.588 334.17 236.797C334.528 237.002 334.944 237.105 335.418 237.105C335.726 237.105 336.005 237.062 336.253 236.976C336.505 236.886 336.722 236.754 336.905 236.578C337.087 236.399 337.228 236.177 337.327 235.912L338.461 236.23C338.341 236.615 338.141 236.953 337.859 237.244C337.577 237.533 337.229 237.758 336.815 237.92C336.401 238.08 335.935 238.159 335.418 238.159ZM341.035 230.364L342.864 233.486L344.694 230.364H346.046L343.58 234.182L346.046 238H344.694L342.864 235.037L341.035 238H339.683L342.109 234.182L339.683 230.364H341.035ZM351.041 230.364V231.358H347.084V230.364H351.041ZM348.237 228.534H349.411V235.812C349.411 236.144 349.459 236.393 349.555 236.558C349.654 236.721 349.78 236.83 349.933 236.886C350.088 236.939 350.253 236.966 350.425 236.966C350.554 236.966 350.66 236.959 350.743 236.946C350.826 236.929 350.892 236.916 350.942 236.906L351.181 237.96C351.101 237.99 350.99 238.02 350.847 238.05C350.705 238.083 350.524 238.099 350.306 238.099C349.974 238.099 349.649 238.028 349.331 237.886C349.016 237.743 348.754 237.526 348.546 237.234C348.34 236.943 348.237 236.575 348.237 236.131V228.534Z" fill="black"/>
<path d="M323.944 259.912V258.818H331.58V259.912H328.378V269H327.145V259.912H323.944ZM335.418 269.159C334.682 269.159 334.048 268.997 333.514 268.672C332.984 268.344 332.574 267.886 332.286 267.3C332.001 266.71 331.858 266.024 331.858 265.241C331.858 264.459 332.001 263.77 332.286 263.173C332.574 262.573 332.975 262.106 333.489 261.771C334.006 261.433 334.609 261.264 335.299 261.264C335.697 261.264 336.089 261.33 336.477 261.463C336.865 261.596 337.218 261.811 337.536 262.109C337.854 262.404 338.108 262.795 338.297 263.283C338.486 263.77 338.58 264.37 338.58 265.082V265.58H332.694V264.565H337.387C337.387 264.134 337.301 263.75 337.128 263.412C336.959 263.074 336.717 262.807 336.403 262.612C336.091 262.416 335.723 262.318 335.299 262.318C334.831 262.318 334.427 262.434 334.086 262.666C333.748 262.895 333.488 263.193 333.305 263.561C333.123 263.929 333.032 264.323 333.032 264.744V265.42C333.032 265.997 333.131 266.486 333.33 266.887C333.532 267.285 333.812 267.588 334.17 267.797C334.528 268.002 334.944 268.105 335.418 268.105C335.726 268.105 336.005 268.062 336.253 267.976C336.505 267.886 336.722 267.754 336.905 267.578C337.087 267.399 337.228 267.177 337.327 266.912L338.461 267.23C338.341 267.615 338.141 267.953 337.859 268.244C337.577 268.533 337.229 268.758 336.815 268.92C336.401 269.08 335.935 269.159 335.418 269.159ZM341.035 261.364L342.864 264.486L344.694 261.364H346.046L343.58 265.182L346.046 269H344.694L342.864 266.037L341.035 269H339.683L342.109 265.182L339.683 261.364H341.035ZM351.041 261.364V262.358H347.084V261.364H351.041ZM348.237 259.534H349.411V266.812C349.411 267.144 349.459 267.393 349.555 267.558C349.654 267.721 349.78 267.83 349.933 267.886C350.088 267.939 350.253 267.966 350.425 267.966C350.554 267.966 350.66 267.959 350.743 267.946C350.826 267.929 350.892 267.916 350.942 267.906L351.181 268.96C351.101 268.99 350.99 269.02 350.847 269.05C350.705 269.083 350.524 269.099 350.306 269.099C349.974 269.099 349.649 269.028 349.331 268.886C349.016 268.743 348.754 268.526 348.546 268.234C348.34 267.943 348.237 267.575 348.237 267.131V259.534Z" fill="black"/>
<path d="M323.944 290.912V289.818H331.58V290.912H328.378V300H327.145V290.912H323.944ZM335.418 300.159C334.682 300.159 334.048 299.997 333.514 299.672C332.984 299.344 332.574 298.886 332.286 298.3C332.001 297.71 331.858 297.024 331.858 296.241C331.858 295.459 332.001 294.77 332.286 294.173C332.574 293.573 332.975 293.106 333.489 292.771C334.006 292.433 334.609 292.264 335.299 292.264C335.697 292.264 336.089 292.33 336.477 292.463C336.865 292.596 337.218 292.811 337.536 293.109C337.854 293.404 338.108 293.795 338.297 294.283C338.486 294.77 338.58 295.37 338.58 296.082V296.58H332.694V295.565H337.387C337.387 295.134 337.301 294.75 337.128 294.412C336.959 294.074 336.717 293.807 336.403 293.612C336.091 293.416 335.723 293.318 335.299 293.318C334.831 293.318 334.427 293.434 334.086 293.666C333.748 293.895 333.488 294.193 333.305 294.561C333.123 294.929 333.032 295.323 333.032 295.744V296.42C333.032 296.997 333.131 297.486 333.33 297.887C333.532 298.285 333.812 298.588 334.17 298.797C334.528 299.002 334.944 299.105 335.418 299.105C335.726 299.105 336.005 299.062 336.253 298.976C336.505 298.886 336.722 298.754 336.905 298.578C337.087 298.399 337.228 298.177 337.327 297.912L338.461 298.23C338.341 298.615 338.141 298.953 337.859 299.244C337.577 299.533 337.229 299.758 336.815 299.92C336.401 300.08 335.935 300.159 335.418 300.159ZM341.035 292.364L342.864 295.486L344.694 292.364H346.046L343.58 296.182L346.046 300H344.694L342.864 297.037L341.035 300H339.683L342.109 296.182L339.683 292.364H341.035ZM351.041 292.364V293.358H347.084V292.364H351.041ZM348.237 290.534H349.411V297.812C349.411 298.144 349.459 298.393 349.555 298.558C349.654 298.721 349.78 298.83 349.933 298.886C350.088 298.939 350.253 298.966 350.425 298.966C350.554 298.966 350.66 298.959 350.743 298.946C350.826 298.929 350.892 298.916 350.942 298.906L351.181 299.96C351.101 299.99 350.99 300.02 350.847 300.05C350.705 300.083 350.524 300.099 350.306 300.099C349.974 300.099 349.649 300.028 349.331 299.886C349.016 299.743 348.754 299.526 348.546 299.234C348.34 298.943 348.237 298.575 348.237 298.131V290.534Z" fill="black"/>
</svg>
