<svg width="675" height="155" viewBox="0 0 675 155" fill="none" xmlns="http://www.w3.org/2000/svg">
<path d="M0 0H225V31H0V0Z" fill="white"/>
<path d="M98.9437 11.9119V10.8182H106.58V11.9119H103.378V21H102.145V11.9119H98.9437ZM110.418 21.1591C109.682 21.1591 109.048 20.9967 108.514 20.6719C107.984 20.3438 107.574 19.8864 107.286 19.2997C107.001 18.7098 106.858 18.0237 106.858 17.2415C106.858 16.4593 107.001 15.7699 107.286 15.1733C107.574 14.5734 107.975 14.1061 108.489 13.7713C109.006 13.4332 109.609 13.2642 110.299 13.2642C110.697 13.2642 111.089 13.3305 111.477 13.4631C111.865 13.5956 112.218 13.8111 112.536 14.1094C112.854 14.4044 113.108 14.7955 113.297 15.2827C113.486 15.7699 113.58 16.3698 113.58 17.0824V17.5795H107.694V16.5653H112.387C112.387 16.1345 112.301 15.75 112.128 15.4119C111.959 15.0739 111.717 14.8071 111.403 14.6115C111.091 14.416 110.723 14.3182 110.299 14.3182C109.831 14.3182 109.427 14.4342 109.086 14.6662C108.748 14.8949 108.488 15.1932 108.305 15.5611C108.123 15.929 108.032 16.3234 108.032 16.7443V17.4205C108.032 17.9972 108.131 18.486 108.33 18.8871C108.532 19.2848 108.812 19.5881 109.17 19.7969C109.528 20.0024 109.944 20.1051 110.418 20.1051C110.726 20.1051 111.005 20.062 111.253 19.9759C111.505 19.8864 111.722 19.7538 111.905 19.5781C112.087 19.3991 112.228 19.1771 112.327 18.9119L113.461 19.2301C113.341 19.6146 113.141 19.9527 112.859 20.2443C112.577 20.5327 112.229 20.758 111.815 20.9205C111.401 21.0795 110.935 21.1591 110.418 21.1591ZM116.035 13.3636L117.864 16.4858L119.694 13.3636H121.046L118.58 17.1818L121.046 21H119.694L117.864 18.0369L116.035 21H114.683L117.109 17.1818L114.683 13.3636H116.035ZM126.041 13.3636V14.358H122.084V13.3636H126.041ZM123.237 11.5341H124.411V18.8125C124.411 19.1439 124.459 19.3925 124.555 19.5582C124.654 19.7206 124.78 19.83 124.933 19.8864C125.088 19.9394 125.253 19.9659 125.425 19.9659C125.554 19.9659 125.66 19.9593 125.743 19.946C125.826 19.9295 125.892 19.9162 125.942 19.9062L126.181 20.9602C126.101 20.9901 125.99 21.0199 125.847 21.0497C125.705 21.0829 125.524 21.0994 125.306 21.0994C124.974 21.0994 124.649 21.0282 124.331 20.8857C124.016 20.7431 123.754 20.526 123.546 20.2344C123.34 19.9427 123.237 19.5748 123.237 19.1307V11.5341Z" fill="black"/>
<path d="M98.9437 42.9119V41.8182H106.58V42.9119H103.378V52H102.145V42.9119H98.9437ZM110.418 52.1591C109.682 52.1591 109.048 51.9967 108.514 51.6719C107.984 51.3438 107.574 50.8864 107.286 50.2997C107.001 49.7098 106.858 49.0237 106.858 48.2415C106.858 47.4593 107.001 46.7699 107.286 46.1733C107.574 45.5734 107.975 45.1061 108.489 44.7713C109.006 44.4332 109.609 44.2642 110.299 44.2642C110.697 44.2642 111.089 44.3305 111.477 44.4631C111.865 44.5956 112.218 44.8111 112.536 45.1094C112.854 45.4044 113.108 45.7955 113.297 46.2827C113.486 46.7699 113.58 47.3698 113.58 48.0824V48.5795H107.694V47.5653H112.387C112.387 47.1345 112.301 46.75 112.128 46.4119C111.959 46.0739 111.717 45.8071 111.403 45.6115C111.091 45.416 110.723 45.3182 110.299 45.3182C109.831 45.3182 109.427 45.4342 109.086 45.6662C108.748 45.8949 108.488 46.1932 108.305 46.5611C108.123 46.929 108.032 47.3234 108.032 47.7443V48.4205C108.032 48.9972 108.131 49.486 108.33 49.8871C108.532 50.2848 108.812 50.5881 109.17 50.7969C109.528 51.0024 109.944 51.1051 110.418 51.1051C110.726 51.1051 111.005 51.062 111.253 50.9759C111.505 50.8864 111.722 50.7538 111.905 50.5781C112.087 50.3991 112.228 50.1771 112.327 49.9119L113.461 50.2301C113.341 50.6146 113.141 50.9527 112.859 51.2443C112.577 51.5327 112.229 51.758 111.815 51.9205C111.401 52.0795 110.935 52.1591 110.418 52.1591ZM116.035 44.3636L117.864 47.4858L119.694 44.3636H121.046L118.58 48.1818L121.046 52H119.694L117.864 49.0369L116.035 52H114.683L117.109 48.1818L114.683 44.3636H116.035ZM126.041 44.3636V45.358H122.084V44.3636H126.041ZM123.237 42.5341H124.411V49.8125C124.411 50.1439 124.459 50.3925 124.555 50.5582C124.654 50.7206 124.78 50.83 124.933 50.8864C125.088 50.9394 125.253 50.9659 125.425 50.9659C125.554 50.9659 125.66 50.9593 125.743 50.946C125.826 50.9295 125.892 50.9162 125.942 50.9062L126.181 51.9602C126.101 51.9901 125.99 52.0199 125.847 52.0497C125.705 52.0829 125.524 52.0994 125.306 52.0994C124.974 52.0994 124.649 52.0282 124.331 51.8857C124.016 51.7431 123.754 51.526 123.546 51.2344C123.34 50.9427 123.237 50.5748 123.237 50.1307V42.5341Z" fill="black"/>
<path d="M98.9437 73.9119V72.8182H106.58V73.9119H103.378V83H102.145V73.9119H98.9437ZM110.418 83.1591C109.682 83.1591 109.048 82.9967 108.514 82.6719C107.984 82.3438 107.574 81.8864 107.286 81.2997C107.001 80.7098 106.858 80.0237 106.858 79.2415C106.858 78.4593 107.001 77.7699 107.286 77.1733C107.574 76.5734 107.975 76.1061 108.489 75.7713C109.006 75.4332 109.609 75.2642 110.299 75.2642C110.697 75.2642 111.089 75.3305 111.477 75.4631C111.865 75.5956 112.218 75.8111 112.536 76.1094C112.854 76.4044 113.108 76.7955 113.297 77.2827C113.486 77.7699 113.58 78.3698 113.58 79.0824V79.5795H107.694V78.5653H112.387C112.387 78.1345 112.301 77.75 112.128 77.4119C111.959 77.0739 111.717 76.8071 111.403 76.6115C111.091 76.416 110.723 76.3182 110.299 76.3182C109.831 76.3182 109.427 76.4342 109.086 76.6662C108.748 76.8949 108.488 77.1932 108.305 77.5611C108.123 77.929 108.032 78.3234 108.032 78.7443V79.4205C108.032 79.9972 108.131 80.486 108.33 80.8871C108.532 81.2848 108.812 81.5881 109.17 81.7969C109.528 82.0024 109.944 82.1051 110.418 82.1051C110.726 82.1051 111.005 82.062 111.253 81.9759C111.505 81.8864 111.722 81.7538 111.905 81.5781C112.087 81.3991 112.228 81.1771 112.327 80.9119L113.461 81.2301C113.341 81.6146 113.141 81.9527 112.859 82.2443C112.577 82.5327 112.229 82.758 111.815 82.9205C111.401 83.0795 110.935 83.1591 110.418 83.1591ZM116.035 75.3636L117.864 78.4858L119.694 75.3636H121.046L118.58 79.1818L121.046 83H119.694L117.864 80.0369L116.035 83H114.683L117.109 79.1818L114.683 75.3636H116.035ZM126.041 75.3636V76.358H122.084V75.3636H126.041ZM123.237 73.5341H124.411V80.8125C124.411 81.1439 124.459 81.3925 124.555 81.5582C124.654 81.7206 124.78 81.83 124.933 81.8864C125.088 81.9394 125.253 81.9659 125.425 81.9659C125.554 81.9659 125.66 81.9593 125.743 81.946C125.826 81.9295 125.892 81.9162 125.942 81.9062L126.181 82.9602C126.101 82.9901 125.99 83.0199 125.847 83.0497C125.705 83.0829 125.524 83.0994 125.306 83.0994C124.974 83.0994 124.649 83.0282 124.331 82.8857C124.016 82.7431 123.754 82.526 123.546 82.2344C123.34 81.9427 123.237 81.5748 123.237 81.1307V73.5341Z" fill="black"/>
<path d="M98.9437 104.912V103.818H106.58V104.912H103.378V114H102.145V104.912H98.9437ZM110.418 114.159C109.682 114.159 109.048 113.997 108.514 113.672C107.984 113.344 107.574 112.886 107.286 112.3C107.001 111.71 106.858 111.024 106.858 110.241C106.858 109.459 107.001 108.77 107.286 108.173C107.574 107.573 107.975 107.106 108.489 106.771C109.006 106.433 109.609 106.264 110.299 106.264C110.697 106.264 111.089 106.33 111.477 106.463C111.865 106.596 112.218 106.811 112.536 107.109C112.854 107.404 113.108 107.795 113.297 108.283C113.486 108.77 113.58 109.37 113.58 110.082V110.58H107.694V109.565H112.387C112.387 109.134 112.301 108.75 112.128 108.412C111.959 108.074 111.717 107.807 111.403 107.612C111.091 107.416 110.723 107.318 110.299 107.318C109.831 107.318 109.427 107.434 109.086 107.666C108.748 107.895 108.488 108.193 108.305 108.561C108.123 108.929 108.032 109.323 108.032 109.744V110.42C108.032 110.997 108.131 111.486 108.33 111.887C108.532 112.285 108.812 112.588 109.17 112.797C109.528 113.002 109.944 113.105 110.418 113.105C110.726 113.105 111.005 113.062 111.253 112.976C111.505 112.886 111.722 112.754 111.905 112.578C112.087 112.399 112.228 112.177 112.327 111.912L113.461 112.23C113.341 112.615 113.141 112.953 112.859 113.244C112.577 113.533 112.229 113.758 111.815 113.92C111.401 114.08 110.935 114.159 110.418 114.159ZM116.035 106.364L117.864 109.486L119.694 106.364H121.046L118.58 110.182L121.046 114H119.694L117.864 111.037L116.035 114H114.683L117.109 110.182L114.683 106.364H116.035ZM126.041 106.364V107.358H122.084V106.364H126.041ZM123.237 104.534H124.411V111.812C124.411 112.144 124.459 112.393 124.555 112.558C124.654 112.721 124.78 112.83 124.933 112.886C125.088 112.939 125.253 112.966 125.425 112.966C125.554 112.966 125.66 112.959 125.743 112.946C125.826 112.929 125.892 112.916 125.942 112.906L126.181 113.96C126.101 113.99 125.99 114.02 125.847 114.05C125.705 114.083 125.524 114.099 125.306 114.099C124.974 114.099 124.649 114.028 124.331 113.886C124.016 113.743 123.754 113.526 123.546 113.234C123.34 112.943 123.237 112.575 123.237 112.131V104.534Z" fill="black"/>
<path d="M98.9437 135.912V134.818H106.58V135.912H103.378V145H102.145V135.912H98.9437ZM110.418 145.159C109.682 145.159 109.048 144.997 108.514 144.672C107.984 144.344 107.574 143.886 107.286 143.3C107.001 142.71 106.858 142.024 106.858 141.241C106.858 140.459 107.001 139.77 107.286 139.173C107.574 138.573 107.975 138.106 108.489 137.771C109.006 137.433 109.609 137.264 110.299 137.264C110.697 137.264 111.089 137.33 111.477 137.463C111.865 137.596 112.218 137.811 112.536 138.109C112.854 138.404 113.108 138.795 113.297 139.283C113.486 139.77 113.58 140.37 113.58 141.082V141.58H107.694V140.565H112.387C112.387 140.134 112.301 139.75 112.128 139.412C111.959 139.074 111.717 138.807 111.403 138.612C111.091 138.416 110.723 138.318 110.299 138.318C109.831 138.318 109.427 138.434 109.086 138.666C108.748 138.895 108.488 139.193 108.305 139.561C108.123 139.929 108.032 140.323 108.032 140.744V141.42C108.032 141.997 108.131 142.486 108.33 142.887C108.532 143.285 108.812 143.588 109.17 143.797C109.528 144.002 109.944 144.105 110.418 144.105C110.726 144.105 111.005 144.062 111.253 143.976C111.505 143.886 111.722 143.754 111.905 143.578C112.087 143.399 112.228 143.177 112.327 142.912L113.461 143.23C113.341 143.615 113.141 143.953 112.859 144.244C112.577 144.533 112.229 144.758 111.815 144.92C111.401 145.08 110.935 145.159 110.418 145.159ZM116.035 137.364L117.864 140.486L119.694 137.364H121.046L118.58 141.182L121.046 145H119.694L117.864 142.037L116.035 145H114.683L117.109 141.182L114.683 137.364H116.035ZM126.041 137.364V138.358H122.084V137.364H126.041ZM123.237 135.534H124.411V142.812C124.411 143.144 124.459 143.393 124.555 143.558C124.654 143.721 124.78 143.83 124.933 143.886C125.088 143.939 125.253 143.966 125.425 143.966C125.554 143.966 125.66 143.959 125.743 143.946C125.826 143.929 125.892 143.916 125.942 143.906L126.181 144.96C126.101 144.99 125.99 145.02 125.847 145.05C125.705 145.083 125.524 145.099 125.306 145.099C124.974 145.099 124.649 145.028 124.331 144.886C124.016 144.743 123.754 144.526 123.546 144.234C123.34 143.943 123.237 143.575 123.237 143.131V135.534Z" fill="black"/>
<path d="M323.944 11.9119V10.8182H331.58V11.9119H328.378V21H327.145V11.9119H323.944ZM335.418 21.1591C334.682 21.1591 334.048 20.9967 333.514 20.6719C332.984 20.3438 332.574 19.8864 332.286 19.2997C332.001 18.7098 331.858 18.0237 331.858 17.2415C331.858 16.4593 332.001 15.7699 332.286 15.1733C332.574 14.5734 332.975 14.1061 333.489 13.7713C334.006 13.4332 334.609 13.2642 335.299 13.2642C335.697 13.2642 336.089 13.3305 336.477 13.4631C336.865 13.5956 337.218 13.8111 337.536 14.1094C337.854 14.4044 338.108 14.7955 338.297 15.2827C338.486 15.7699 338.58 16.3698 338.58 17.0824V17.5795H332.694V16.5653H337.387C337.387 16.1345 337.301 15.75 337.128 15.4119C336.959 15.0739 336.717 14.8071 336.403 14.6115C336.091 14.416 335.723 14.3182 335.299 14.3182C334.831 14.3182 334.427 14.4342 334.086 14.6662C333.748 14.8949 333.488 15.1932 333.305 15.5611C333.123 15.929 333.032 16.3234 333.032 16.7443V17.4205C333.032 17.9972 333.131 18.486 333.33 18.8871C333.532 19.2848 333.812 19.5881 334.17 19.7969C334.528 20.0024 334.944 20.1051 335.418 20.1051C335.726 20.1051 336.005 20.062 336.253 19.9759C336.505 19.8864 336.722 19.7538 336.905 19.5781C337.087 19.3991 337.228 19.1771 337.327 18.9119L338.461 19.2301C338.341 19.6146 338.141 19.9527 337.859 20.2443C337.577 20.5327 337.229 20.758 336.815 20.9205C336.401 21.0795 335.935 21.1591 335.418 21.1591ZM341.035 13.3636L342.864 16.4858L344.694 13.3636H346.046L343.58 17.1818L346.046 21H344.694L342.864 18.0369L341.035 21H339.683L342.109 17.1818L339.683 13.3636H341.035ZM351.041 13.3636V14.358H347.084V13.3636H351.041ZM348.237 11.5341H349.411V18.8125C349.411 19.1439 349.459 19.3925 349.555 19.5582C349.654 19.7206 349.78 19.83 349.933 19.8864C350.088 19.9394 350.253 19.9659 350.425 19.9659C350.554 19.9659 350.66 19.9593 350.743 19.946C350.826 19.9295 350.892 19.9162 350.942 19.9062L351.181 20.9602C351.101 20.9901 350.99 21.0199 350.847 21.0497C350.705 21.0829 350.524 21.0994 350.306 21.0994C349.974 21.0994 349.649 21.0282 349.331 20.8857C349.016 20.7431 348.754 20.526 348.546 20.2344C348.34 19.9427 348.237 19.5748 348.237 19.1307V11.5341Z" fill="black"/>
<path d="M323.944 42.9119V41.8182H331.58V42.9119H328.378V52H327.145V42.9119H323.944ZM335.418 52.1591C334.682 52.1591 334.048 51.9967 333.514 51.6719C332.984 51.3438 332.574 50.8864 332.286 50.2997C332.001 49.7098 331.858 49.0237 331.858 48.2415C331.858 47.4593 332.001 46.7699 332.286 46.1733C332.574 45.5734 332.975 45.1061 333.489 44.7713C334.006 44.4332 334.609 44.2642 335.299 44.2642C335.697 44.2642 336.089 44.3305 336.477 44.4631C336.865 44.5956 337.218 44.8111 337.536 45.1094C337.854 45.4044 338.108 45.7955 338.297 46.2827C338.486 46.7699 338.58 47.3698 338.58 48.0824V48.5795H332.694V47.5653H337.387C337.387 47.1345 337.301 46.75 337.128 46.4119C336.959 46.0739 336.717 45.8071 336.403 45.6115C336.091 45.416 335.723 45.3182 335.299 45.3182C334.831 45.3182 334.427 45.4342 334.086 45.6662C333.748 45.8949 333.488 46.1932 333.305 46.5611C333.123 46.929 333.032 47.3234 333.032 47.7443V48.4205C333.032 48.9972 333.131 49.486 333.33 49.8871C333.532 50.2848 333.812 50.5881 334.17 50.7969C334.528 51.0024 334.944 51.1051 335.418 51.1051C335.726 51.1051 336.005 51.062 336.253 50.9759C336.505 50.8864 336.722 50.7538 336.905 50.5781C337.087 50.3991 337.228 50.1771 337.327 49.9119L338.461 50.2301C338.341 50.6146 338.141 50.9527 337.859 51.2443C337.577 51.5327 337.229 51.758 336.815 51.9205C336.401 52.0795 335.935 52.1591 335.418 52.1591ZM341.035 44.3636L342.864 47.4858L344.694 44.3636H346.046L343.58 48.1818L346.046 52H344.694L342.864 49.0369L341.035 52H339.683L342.109 48.1818L339.683 44.3636H341.035ZM351.041 44.3636V45.358H347.084V44.3636H351.041ZM348.237 42.5341H349.411V49.8125C349.411 50.1439 349.459 50.3925 349.555 50.5582C349.654 50.7206 349.78 50.83 349.933 50.8864C350.088 50.9394 350.253 50.9659 350.425 50.9659C350.554 50.9659 350.66 50.9593 350.743 50.946C350.826 50.9295 350.892 50.9162 350.942 50.9062L351.181 51.9602C351.101 51.9901 350.99 52.0199 350.847 52.0497C350.705 52.0829 350.524 52.0994 350.306 52.0994C349.974 52.0994 349.649 52.0282 349.331 51.8857C349.016 51.7431 348.754 51.526 348.546 51.2344C348.34 50.9427 348.237 50.5748 348.237 50.1307V42.5341Z" fill="black"/>
<path d="M323.944 73.9119V72.8182H331.58V73.9119H328.378V83H327.145V73.9119H323.944ZM335.418 83.1591C334.682 83.1591 334.048 82.9967 333.514 82.6719C332.984 82.3438 332.574 81.8864 332.286 81.2997C332.001 80.7098 331.858 80.0237 331.858 79.2415C331.858 78.4593 332.001 77.7699 332.286 77.1733C332.574 76.5734 332.975 76.1061 333.489 75.7713C334.006 75.4332 334.609 75.2642 335.299 75.2642C335.697 75.2642 336.089 75.3305 336.477 75.4631C336.865 75.5956 337.218 75.8111 337.536 76.1094C337.854 76.4044 338.108 76.7955 338.297 77.2827C338.486 77.7699 338.58 78.3698 338.58 79.0824V79.5795H332.694V78.5653H337.387C337.387 78.1345 337.301 77.75 337.128 77.4119C336.959 77.0739 336.717 76.8071 336.403 76.6115C336.091 76.416 335.723 76.3182 335.299 76.3182C334.831 76.3182 334.427 76.4342 334.086 76.6662C333.748 76.8949 333.488 77.1932 333.305 77.5611C333.123 77.929 333.032 78.3234 333.032 78.7443V79.4205C333.032 79.9972 333.131 80.486 333.33 80.8871C333.532 81.2848 333.812 81.5881 334.17 81.7969C334.528 82.0024 334.944 82.1051 335.418 82.1051C335.726 82.1051 336.005 82.062 336.253 81.9759C336.505 81.8864 336.722 81.7538 336.905 81.5781C337.087 81.3991 337.228 81.1771 337.327 80.9119L338.461 81.2301C338.341 81.6146 338.141 81.9527 337.859 82.2443C337.577 82.5327 337.229 82.758 336.815 82.9205C336.401 83.0795 335.935 83.1591 335.418 83.1591ZM341.035 75.3636L342.864 78.4858L344.694 75.3636H346.046L343.58 79.1818L346.046 83H344.694L342.864 80.0369L341.035 83H339.683L342.109 79.1818L339.683 75.3636H341.035ZM351.041 75.3636V76.358H347.084V75.3636H351.041ZM348.237 73.5341H349.411V80.8125C349.411 81.1439 349.459 81.3925 349.555 81.5582C349.654 81.7206 349.78 81.83 349.933 81.8864C350.088 81.9394 350.253 81.9659 350.425 81.9659C350.554 81.9659 350.66 81.9593 350.743 81.946C350.826 81.9295 350.892 81.9162 350.942 81.9062L351.181 82.9602C351.101 82.9901 350.99 83.0199 350.847 83.0497C350.705 83.0829 350.524 83.0994 350.306 83.0994C349.974 83.0994 349.649 83.0282 349.331 82.8857C349.016 82.7431 348.754 82.526 348.546 82.2344C348.34 81.9427 348.237 81.5748 348.237 81.1307V73.5341Z" fill="black"/>
<path d="M323.944 104.912V103.818H331.58V104.912H328.378V114H327.145V104.912H323.944ZM335.418 114.159C334.682 114.159 334.048 113.997 333.514 113.672C332.984 113.344 332.574 112.886 332.286 112.3C332.001 111.71 331.858 111.024 331.858 110.241C331.858 109.459 332.001 108.77 332.286 108.173C332.574 107.573 332.975 107.106 333.489 106.771C334.006 106.433 334.609 106.264 335.299 106.264C335.697 106.264 336.089 106.33 336.477 106.463C336.865 106.596 337.218 106.811 337.536 107.109C337.854 107.404 338.108 107.795 338.297 108.283C338.486 108.77 338.58 109.37 338.58 110.082V110.58H332.694V109.565H337.387C337.387 109.134 337.301 108.75 337.128 108.412C336.959 108.074 336.717 107.807 336.403 107.612C336.091 107.416 335.723 107.318 335.299 107.318C334.831 107.318 334.427 107.434 334.086 107.666C333.748 107.895 333.488 108.193 333.305 108.561C333.123 108.929 333.032 109.323 333.032 109.744V110.42C333.032 110.997 333.131 111.486 333.33 111.887C333.532 112.285 333.812 112.588 334.17 112.797C334.528 113.002 334.944 113.105 335.418 113.105C335.726 113.105 336.005 113.062 336.253 112.976C336.505 112.886 336.722 112.754 336.905 112.578C337.087 112.399 337.228 112.177 337.327 111.912L338.461 112.23C338.341 112.615 338.141 112.953 337.859 113.244C337.577 113.533 337.229 113.758 336.815 113.92C336.401 114.08 335.935 114.159 335.418 114.159ZM341.035 106.364L342.864 109.486L344.694 106.364H346.046L343.58 110.182L346.046 114H344.694L342.864 111.037L341.035 114H339.683L342.109 110.182L339.683 106.364H341.035ZM351.041 106.364V107.358H347.084V106.364H351.041ZM348.237 104.534H349.411V111.812C349.411 112.144 349.459 112.393 349.555 112.558C349.654 112.721 349.78 112.83 349.933 112.886C350.088 112.939 350.253 112.966 350.425 112.966C350.554 112.966 350.66 112.959 350.743 112.946C350.826 112.929 350.892 112.916 350.942 112.906L351.181 113.96C351.101 113.99 350.99 114.02 350.847 114.05C350.705 114.083 350.524 114.099 350.306 114.099C349.974 114.099 349.649 114.028 349.331 113.886C349.016 113.743 348.754 113.526 348.546 113.234C348.34 112.943 348.237 112.575 348.237 112.131V104.534Z" fill="black"/>
<path d="M323.944 135.912V134.818H331.58V135.912H328.378V145H327.145V135.912H323.944ZM335.418 145.159C334.682 145.159 334.048 144.997 333.514 144.672C332.984 144.344 332.574 143.886 332.286 143.3C332.001 142.71 331.858 142.024 331.858 141.241C331.858 140.459 332.001 139.77 332.286 139.173C332.574 138.573 332.975 138.106 333.489 137.771C334.006 137.433 334.609 137.264 335.299 137.264C335.697 137.264 336.089 137.33 336.477 137.463C336.865 137.596 337.218 137.811 337.536 138.109C337.854 138.404 338.108 138.795 338.297 139.283C338.486 139.77 338.58 140.37 338.58 141.082V141.58H332.694V140.565H337.387C337.387 140.134 337.301 139.75 337.128 139.412C336.959 139.074 336.717 138.807 336.403 138.612C336.091 138.416 335.723 138.318 335.299 138.318C334.831 138.318 334.427 138.434 334.086 138.666C333.748 138.895 333.488 139.193 333.305 139.561C333.123 139.929 333.032 140.323 333.032 140.744V141.42C333.032 141.997 333.131 142.486 333.33 142.887C333.532 143.285 333.812 143.588 334.17 143.797C334.528 144.002 334.944 144.105 335.418 144.105C335.726 144.105 336.005 144.062 336.253 143.976C336.505 143.886 336.722 143.754 336.905 143.578C337.087 143.399 337.228 143.177 337.327 142.912L338.461 143.23C338.341 143.615 338.141 143.953 337.859 144.244C337.577 144.533 337.229 144.758 336.815 144.92C336.401 145.08 335.935 145.159 335.418 145.159ZM341.035 137.364L342.864 140.486L344.694 137.364H346.046L343.58 141.182L346.046 145H344.694L342.864 142.037L341.035 145H339.683L342.109 141.182L339.683 137.364H341.035ZM351.041 137.364V138.358H347.084V137.364H351.041ZM348.237 135.534H349.411V142.812C349.411 143.144 349.459 143.393 349.555 143.558C349.654 143.721 349.78 143.83 349.933 143.886C350.088 143.939 350.253 143.966 350.425 143.966C350.554 143.966 350.66 143.959 350.743 143.946C350.826 143.929 350.892 143.916 350.942 143.906L351.181 144.96C351.101 144.99 350.99 145.02 350.847 145.05C350.705 145.083 350.524 145.099 350.306 145.099C349.974 145.099 349.649 145.028 349.331 144.886C349.016 144.743 348.754 144.526 348.546 144.234C348.34 143.943 348.237 143.575 348.237 143.131V135.534Z" fill="black"/>
<path d="M548.944 11.9119V10.8182H556.58V11.9119H553.378V21H552.145V11.9119H548.944ZM560.418 21.1591C559.682 21.1591 559.048 20.9967 558.514 20.6719C557.984 20.3438 557.574 19.8864 557.286 19.2997C557.001 18.7098 556.858 18.0237 556.858 17.2415C556.858 16.4593 557.001 15.7699 557.286 15.1733C557.574 14.5734 557.975 14.1061 558.489 13.7713C559.006 13.4332 559.609 13.2642 560.299 13.2642C560.697 13.2642 561.089 13.3305 561.477 13.4631C561.865 13.5956 562.218 13.8111 562.536 14.1094C562.854 14.4044 563.108 14.7955 563.297 15.2827C563.486 15.7699 563.58 16.3698 563.58 17.0824V17.5795H557.694V16.5653H562.387C562.387 16.1345 562.301 15.75 562.128 15.4119C561.959 15.0739 561.717 14.8071 561.403 14.6115C561.091 14.416 560.723 14.3182 560.299 14.3182C559.831 14.3182 559.427 14.4342 559.086 14.6662C558.748 14.8949 558.488 15.1932 558.305 15.5611C558.123 15.929 558.032 16.3234 558.032 16.7443V17.4205C558.032 17.9972 558.131 18.486 558.33 18.8871C558.532 19.2848 558.812 19.5881 559.17 19.7969C559.528 20.0024 559.944 20.1051 560.418 20.1051C560.726 20.1051 561.005 20.062 561.253 19.9759C561.505 19.8864 561.722 19.7538 561.905 19.5781C562.087 19.3991 562.228 19.1771 562.327 18.9119L563.461 19.2301C563.341 19.6146 563.141 19.9527 562.859 20.2443C562.577 20.5327 562.229 20.758 561.815 20.9205C561.401 21.0795 560.935 21.1591 560.418 21.1591ZM566.035 13.3636L567.864 16.4858L569.694 13.3636H571.046L568.58 17.1818L571.046 21H569.694L567.864 18.0369L566.035 21H564.683L567.109 17.1818L564.683 13.3636H566.035ZM576.041 13.3636V14.358H572.084V13.3636H576.041ZM573.237 11.5341H574.411V18.8125C574.411 19.1439 574.459 19.3925 574.555 19.5582C574.654 19.7206 574.78 19.83 574.933 19.8864C575.088 19.9394 575.253 19.9659 575.425 19.9659C575.554 19.9659 575.66 19.9593 575.743 19.946C575.826 19.9295 575.892 19.9162 575.942 19.9062L576.181 20.9602C576.101 20.9901 575.99 21.0199 575.847 21.0497C575.705 21.0829 575.524 21.0994 575.306 21.0994C574.974 21.0994 574.649 21.0282 574.331 20.8857C574.016 20.7431 573.754 20.526 573.546 20.2344C573.34 19.9427 573.237 19.5748 573.237 19.1307V11.5341Z" fill="black"/>
<path d="M548.944 42.9119V41.8182H556.58V42.9119H553.378V52H552.145V42.9119H548.944ZM560.418 52.1591C559.682 52.1591 559.048 51.9967 558.514 51.6719C557.984 51.3438 557.574 50.8864 557.286 50.2997C557.001 49.7098 556.858 49.0237 556.858 48.2415C556.858 47.4593 557.001 46.7699 557.286 46.1733C557.574 45.5734 557.975 45.1061 558.489 44.7713C559.006 44.4332 559.609 44.2642 560.299 44.2642C560.697 44.2642 561.089 44.3305 561.477 44.4631C561.865 44.5956 562.218 44.8111 562.536 45.1094C562.854 45.4044 563.108 45.7955 563.297 46.2827C563.486 46.7699 563.58 47.3698 563.58 48.0824V48.5795H557.694V47.5653H562.387C562.387 47.1345 562.301 46.75 562.128 46.4119C561.959 46.0739 561.717 45.8071 561.403 45.6115C561.091 45.416 560.723 45.3182 560.299 45.3182C559.831 45.3182 559.427 45.4342 559.086 45.6662C558.748 45.8949 558.488 46.1932 558.305 46.5611C558.123 46.929 558.032 47.3234 558.032 47.7443V48.4205C558.032 48.9972 558.131 49.486 558.33 49.8871C558.532 50.2848 558.812 50.5881 559.17 50.7969C559.528 51.0024 559.944 51.1051 560.418 51.1051C560.726 51.1051 561.005 51.062 561.253 50.9759C561.505 50.8864 561.722 50.7538 561.905 50.5781C562.087 50.3991 562.228 50.1771 562.327 49.9119L563.461 50.2301C563.341 50.6146 563.141 50.9527 562.859 51.2443C562.577 51.5327 562.229 51.758 561.815 51.9205C561.401 52.0795 560.935 52.1591 560.418 52.1591ZM566.035 44.3636L567.864 47.4858L569.694 44.3636H571.046L568.58 48.1818L571.046 52H569.694L567.864 49.0369L566.035 52H564.683L567.109 48.1818L564.683 44.3636H566.035ZM576.041 44.3636V45.358H572.084V44.3636H576.041ZM573.237 42.5341H574.411V49.8125C574.411 50.1439 574.459 50.3925 574.555 50.5582C574.654 50.7206 574.78 50.83 574.933 50.8864C575.088 50.9394 575.253 50.9659 575.425 50.9659C575.554 50.9659 575.66 50.9593 575.743 50.946C575.826 50.9295 575.892 50.9162 575.942 50.9062L576.181 51.9602C576.101 51.9901 575.99 52.0199 575.847 52.0497C575.705 52.0829 575.524 52.0994 575.306 52.0994C574.974 52.0994 574.649 52.0282 574.331 51.8857C574.016 51.7431 573.754 51.526 573.546 51.2344C573.34 50.9427 573.237 50.5748 573.237 50.1307V42.5341Z" fill="black"/>
<path d="M548.944 73.9119V72.8182H556.58V73.9119H553.378V83H552.145V73.9119H548.944ZM560.418 83.1591C559.682 83.1591 559.048 82.9967 558.514 82.6719C557.984 82.3438 557.574 81.8864 557.286 81.2997C557.001 80.7098 556.858 80.0237 556.858 79.2415C556.858 78.4593 557.001 77.7699 557.286 77.1733C557.574 76.5734 557.975 76.1061 558.489 75.7713C559.006 75.4332 559.609 75.2642 560.299 75.2642C560.697 75.2642 561.089 75.3305 561.477 75.4631C561.865 75.5956 562.218 75.8111 562.536 76.1094C562.854 76.4044 563.108 76.7955 563.297 77.2827C563.486 77.7699 563.58 78.3698 563.58 79.0824V79.5795H557.694V78.5653H562.387C562.387 78.1345 562.301 77.75 562.128 77.4119C561.959 77.0739 561.717 76.8071 561.403 76.6115C561.091 76.416 560.723 76.3182 560.299 76.3182C559.831 76.3182 559.427 76.4342 559.086 76.6662C558.748 76.8949 558.488 77.1932 558.305 77.5611C558.123 77.929 558.032 78.3234 558.032 78.7443V79.4205C558.032 79.9972 558.131 80.486 558.33 80.8871C558.532 81.2848 558.812 81.5881 559.17 81.7969C559.528 82.0024 559.944 82.1051 560.418 82.1051C560.726 82.1051 561.005 82.062 561.253 81.9759C561.505 81.8864 561.722 81.7538 561.905 81.5781C562.087 81.3991 562.228 81.1771 562.327 80.9119L563.461 81.2301C563.341 81.6146 563.141 81.9527 562.859 82.2443C562.577 82.5327 562.229 82.758 561.815 82.9205C561.401 83.0795 560.935 83.1591 560.418 83.1591ZM566.035 75.3636L567.864 78.4858L569.694 75.3636H571.046L568.58 79.1818L571.046 83H569.694L567.864 80.0369L566.035 83H564.683L567.109 79.1818L564.683 75.3636H566.035ZM576.041 75.3636V76.358H572.084V75.3636H576.041ZM573.237 73.5341H574.411V80.8125C574.411 81.1439 574.459 81.3925 574.555 81.5582C574.654 81.7206 574.78 81.83 574.933 81.8864C575.088 81.9394 575.253 81.9659 575.425 81.9659C575.554 81.9659 575.66 81.9593 575.743 81.946C575.826 81.9295 575.892 81.9162 575.942 81.9062L576.181 82.9602C576.101 82.9901 575.99 83.0199 575.847 83.0497C575.705 83.0829 575.524 83.0994 575.306 83.0994C574.974 83.0994 574.649 83.0282 574.331 82.8857C574.016 82.7431 573.754 82.526 573.546 82.2344C573.34 81.9427 573.237 81.5748 573.237 81.1307V73.5341Z" fill="black"/>
<path d="M548.944 104.912V103.818H556.58V104.912H553.378V114H552.145V104.912H548.944ZM560.418 114.159C559.682 114.159 559.048 113.997 558.514 113.672C557.984 113.344 557.574 112.886 557.286 112.3C557.001 111.71 556.858 111.024 556.858 110.241C556.858 109.459 557.001 108.77 557.286 108.173C557.574 107.573 557.975 107.106 558.489 106.771C559.006 106.433 559.609 106.264 560.299 106.264C560.697 106.264 561.089 106.33 561.477 106.463C561.865 106.596 562.218 106.811 562.536 107.109C562.854 107.404 563.108 107.795 563.297 108.283C563.486 108.77 563.58 109.37 563.58 110.082V110.58H557.694V109.565H562.387C562.387 109.134 562.301 108.75 562.128 108.412C561.959 108.074 561.717 107.807 561.403 107.612C561.091 107.416 560.723 107.318 560.299 107.318C559.831 107.318 559.427 107.434 559.086 107.666C558.748 107.895 558.488 108.193 558.305 108.561C558.123 108.929 558.032 109.323 558.032 109.744V110.42C558.032 110.997 558.131 111.486 558.33 111.887C558.532 112.285 558.812 112.588 559.17 112.797C559.528 113.002 559.944 113.105 560.418 113.105C560.726 113.105 561.005 113.062 561.253 112.976C561.505 112.886 561.722 112.754 561.905 112.578C562.087 112.399 562.228 112.177 562.327 111.912L563.461 112.23C563.341 112.615 563.141 112.953 562.859 113.244C562.577 113.533 562.229 113.758 561.815 113.92C561.401 114.08 560.935 114.159 560.418 114.159ZM566.035 106.364L567.864 109.486L569.694 106.364H571.046L568.58 110.182L571.046 114H569.694L567.864 111.037L566.035 114H564.683L567.109 110.182L564.683 106.364H566.035ZM576.041 106.364V107.358H572.084V106.364H576.041ZM573.237 104.534H574.411V111.812C574.411 112.144 574.459 112.393 574.555 112.558C574.654 112.721 574.78 112.83 574.933 112.886C575.088 112.939 575.253 112.966 575.425 112.966C575.554 112.966 575.66 112.959 575.743 112.946C575.826 112.929 575.892 112.916 575.942 112.906L576.181 113.96C576.101 113.99 575.99 114.02 575.847 114.05C575.705 114.083 575.524 114.099 575.306 114.099C574.974 114.099 574.649 114.028 574.331 113.886C574.016 113.743 573.754 113.526 573.546 113.234C573.34 112.943 573.237 112.575 573.237 112.131V104.534Z" fill="black"/>
<path d="M548.944 135.912V134.818H556.58V135.912H553.378V145H552.145V135.912H548.944ZM560.418 145.159C559.682 145.159 559.048 144.997 558.514 144.672C557.984 144.344 557.574 143.886 557.286 143.3C557.001 142.71 556.858 142.024 556.858 141.241C556.858 140.459 557.001 139.77 557.286 139.173C557.574 138.573 557.975 138.106 558.489 137.771C559.006 137.433 559.609 137.264 560.299 137.264C560.697 137.264 561.089 137.33 561.477 137.463C561.865 137.596 562.218 137.811 562.536 138.109C562.854 138.404 563.108 138.795 563.297 139.283C563.486 139.77 563.58 140.37 563.58 141.082V141.58H557.694V140.565H562.387C562.387 140.134 562.301 139.75 562.128 139.412C561.959 139.074 561.717 138.807 561.403 138.612C561.091 138.416 560.723 138.318 560.299 138.318C559.831 138.318 559.427 138.434 559.086 138.666C558.748 138.895 558.488 139.193 558.305 139.561C558.123 139.929 558.032 140.323 558.032 140.744V141.42C558.032 141.997 558.131 142.486 558.33 142.887C558.532 143.285 558.812 143.588 559.17 143.797C559.528 144.002 559.944 144.105 560.418 144.105C560.726 144.105 561.005 144.062 561.253 143.976C561.505 143.886 561.722 143.754 561.905 143.578C562.087 143.399 562.228 143.177 562.327 142.912L563.461 143.23C563.341 143.615 563.141 143.953 562.859 144.244C562.577 144.533 562.229 144.758 561.815 144.92C561.401 145.08 560.935 145.159 560.418 145.159ZM566.035 137.364L567.864 140.486L569.694 137.364H571.046L568.58 141.182L571.046 145H569.694L567.864 142.037L566.035 145H564.683L567.109 141.182L564.683 137.364H566.035ZM576.041 137.364V138.358H572.084V137.364H576.041ZM573.237 135.534H574.411V142.812C574.411 143.144 574.459 143.393 574.555 143.558C574.654 143.721 574.78 143.83 574.933 143.886C575.088 143.939 575.253 143.966 575.425 143.966C575.554 143.966 575.66 143.959 575.743 143.946C575.826 143.929 575.892 143.916 575.942 143.906L576.181 144.96C576.101 144.99 575.99 145.02 575.847 145.05C575.705 145.083 575.524 145.099 575.306 145.099C574.974 145.099 574.649 145.028 574.331 144.886C574.016 144.743 573.754 144.526 573.546 144.234C573.34 143.943 573.237 143.575 573.237 143.131V135.534Z" fill="black"/>
</svg>
