<svg width="153" height="34" viewBox="0 0 153 34" fill="none" xmlns="http://www.w3.org/2000/svg">
<rect width="153" height="34" rx="4" fill="#EFEFEF"/>
<path d="M10.233 22.5V12.3182H11.4659V21.4062H16.1989V22.5H10.233ZM20.196 22.679C19.7121 22.679 19.273 22.5878 18.8786 22.4055C18.4841 22.2199 18.1709 21.9531 17.9389 21.6051C17.7069 21.2538 17.5909 20.8295 17.5909 20.3324C17.5909 19.8949 17.6771 19.5402 17.8494 19.2685C18.0218 18.9934 18.2521 18.7779 18.5405 18.6222C18.8288 18.4664 19.147 18.3504 19.495 18.2741C19.8464 18.1946 20.1993 18.1316 20.554 18.0852C21.018 18.0256 21.3942 17.9808 21.6825 17.951C21.9742 17.9179 22.1863 17.8632 22.3189 17.7869C22.4548 17.7107 22.5227 17.5781 22.5227 17.3892V17.3494C22.5227 16.8589 22.3885 16.4777 22.12 16.206C21.8549 15.9342 21.4522 15.7983 20.9119 15.7983C20.3518 15.7983 19.9126 15.9209 19.5945 16.1662C19.2763 16.4115 19.0526 16.6733 18.9233 16.9517L17.8097 16.554C18.0085 16.09 18.2737 15.7287 18.6051 15.4702C18.9399 15.2083 19.3045 15.026 19.6989 14.9233C20.0966 14.8172 20.4877 14.7642 20.8722 14.7642C21.1174 14.7642 21.3991 14.794 21.7173 14.8537C22.0388 14.91 22.3487 15.0277 22.647 15.2067C22.9486 15.3857 23.1989 15.6558 23.3977 16.017C23.5966 16.3783 23.696 16.8622 23.696 17.4688V22.5H22.5227V21.4659H22.4631C22.3835 21.6316 22.2509 21.8089 22.0653 21.9979C21.8797 22.1868 21.6328 22.3475 21.3246 22.4801C21.0163 22.6127 20.6402 22.679 20.196 22.679ZM20.375 21.625C20.839 21.625 21.2301 21.5339 21.5483 21.3516C21.8698 21.1693 22.1117 20.9339 22.2741 20.6456C22.4399 20.3572 22.5227 20.054 22.5227 19.7358V18.6619C22.473 18.7216 22.3636 18.7763 22.1946 18.826C22.0289 18.8724 21.8366 18.9138 21.6179 18.9503C21.4025 18.9834 21.192 19.0133 20.9865 19.0398C20.7843 19.063 20.6203 19.0829 20.4943 19.0994C20.1894 19.1392 19.9044 19.2038 19.6392 19.2933C19.3774 19.3795 19.1652 19.5104 19.0028 19.6861C18.8438 19.8584 18.7642 20.0937 18.7642 20.392C18.7642 20.7997 18.915 21.108 19.2166 21.3168C19.5215 21.5223 19.9077 21.625 20.375 21.625ZM25.9966 22.5V12.3182H27.1699V16.0767H27.2694C27.3555 15.9441 27.4748 15.7751 27.6273 15.5696C27.7831 15.3608 28.0051 15.1752 28.2935 15.0128C28.5852 14.8471 28.9796 14.7642 29.4767 14.7642C30.1197 14.7642 30.6865 14.925 31.177 15.2464C31.6676 15.5679 32.0504 16.0237 32.3255 16.6136C32.6006 17.2036 32.7381 17.8996 32.7381 18.7017C32.7381 19.5104 32.6006 20.2114 32.3255 20.8047C32.0504 21.3946 31.6692 21.852 31.182 22.1768C30.6948 22.4983 30.133 22.6591 29.4966 22.6591C29.0061 22.6591 28.6133 22.5779 28.3184 22.4155C28.0234 22.2498 27.7963 22.0625 27.6373 21.8537C27.4782 21.6416 27.3555 21.4659 27.2694 21.3267H27.1301V22.5H25.9966ZM27.15 18.6818C27.15 19.2585 27.2346 19.7673 27.4036 20.2081C27.5726 20.6456 27.8195 20.9886 28.1444 21.2372C28.4692 21.4825 28.8669 21.6051 29.3375 21.6051C29.8281 21.6051 30.2374 21.4759 30.5655 21.2173C30.897 20.9555 31.1455 20.6042 31.3113 20.1634C31.4803 19.7192 31.5648 19.2254 31.5648 18.6818C31.5648 18.1449 31.4819 17.661 31.3162 17.2301C31.1538 16.7959 30.9069 16.4529 30.5755 16.201C30.2473 15.9458 29.8347 15.8182 29.3375 15.8182C28.8603 15.8182 28.4592 15.9392 28.1344 16.1811C27.8096 16.4197 27.5643 16.7545 27.3986 17.1854C27.2329 17.6129 27.15 18.1117 27.15 18.6818ZM37.7346 22.6591C36.9988 22.6591 36.3641 22.4967 35.8304 22.1719C35.3001 21.8438 34.8908 21.3864 34.6025 20.7997C34.3174 20.2098 34.1749 19.5237 34.1749 18.7415C34.1749 17.9593 34.3174 17.2699 34.6025 16.6733C34.8908 16.0734 35.2918 15.6061 35.8056 15.2713C36.3226 14.9332 36.9258 14.7642 37.6152 14.7642C38.013 14.7642 38.4057 14.8305 38.7935 14.9631C39.1813 15.0956 39.5343 15.3111 39.8525 15.6094C40.1706 15.9044 40.4242 16.2955 40.6131 16.7827C40.802 17.2699 40.8965 17.8698 40.8965 18.5824V19.0795H35.0101V18.0653H39.7033C39.7033 17.6345 39.6171 17.25 39.4448 16.9119C39.2757 16.5739 39.0338 16.3071 38.7189 16.1115C38.4074 15.916 38.0395 15.8182 37.6152 15.8182C37.1479 15.8182 36.7435 15.9342 36.4022 16.1662C36.0641 16.3949 35.8039 16.6932 35.6216 17.0611C35.4393 17.429 35.3482 17.8234 35.3482 18.2443V18.9205C35.3482 19.4972 35.4476 19.986 35.6465 20.3871C35.8487 20.7848 36.1287 21.0881 36.4867 21.2969C36.8446 21.5024 37.2606 21.6051 37.7346 21.6051C38.0428 21.6051 38.3212 21.562 38.5698 21.4759C38.8217 21.3864 39.0388 21.2538 39.2211 21.0781C39.4034 20.8991 39.5442 20.6771 39.6436 20.4119L40.7772 20.7301C40.6578 21.1146 40.4573 21.4527 40.1756 21.7443C39.8939 22.0327 39.5459 22.258 39.1316 22.4205C38.7173 22.5795 38.2516 22.6591 37.7346 22.6591ZM43.8546 12.3182V22.5H42.6813V12.3182H43.8546Z" fill="#9D9D9D"/>
<path d="M139.853 14.6458C140.048 14.8407 140.049 15.1573 139.854 15.3529L134.389 20.8374C134.174 21.0531 133.825 21.0531 133.61 20.8374L128.145 15.3529C127.95 15.1573 127.95 14.8407 128.146 14.6458C128.342 14.4509 128.658 14.4515 128.853 14.6471L133.999 19.8117L139.146 14.6471C139.341 14.4515 139.657 14.4509 139.853 14.6458Z" fill="#9D9D9D"/>
</svg>
