<svg width="281" height="196" viewBox="0 0 281 196" fill="none" xmlns="http://www.w3.org/2000/svg">
<rect x="64.5" y="0.5" width="152" height="33" rx="3.5" fill="#188BDE"/>
<path d="M74.233 22.5V12.3182H75.4659V21.4062H80.1989V22.5H74.233ZM84.196 22.679C83.7121 22.679 83.273 22.5878 82.8786 22.4055C82.4841 22.2199 82.1709 21.9531 81.9389 21.6051C81.7069 21.2538 81.5909 20.8295 81.5909 20.3324C81.5909 19.8949 81.6771 19.5402 81.8494 19.2685C82.0218 18.9934 82.2521 18.7779 82.5405 18.6222C82.8288 18.4664 83.147 18.3504 83.495 18.2741C83.8464 18.1946 84.1993 18.1316 84.554 18.0852C85.018 18.0256 85.3942 17.9808 85.6825 17.951C85.9742 17.9179 86.1863 17.8632 86.3189 17.7869C86.4548 17.7107 86.5227 17.5781 86.5227 17.3892V17.3494C86.5227 16.8589 86.3885 16.4777 86.12 16.206C85.8549 15.9342 85.4522 15.7983 84.9119 15.7983C84.3518 15.7983 83.9126 15.9209 83.5945 16.1662C83.2763 16.4115 83.0526 16.6733 82.9233 16.9517L81.8097 16.554C82.0085 16.09 82.2737 15.7287 82.6051 15.4702C82.9399 15.2083 83.3045 15.026 83.6989 14.9233C84.0966 14.8172 84.4877 14.7642 84.8722 14.7642C85.1174 14.7642 85.3991 14.794 85.7173 14.8537C86.0388 14.91 86.3487 15.0277 86.647 15.2067C86.9486 15.3857 87.1989 15.6558 87.3977 16.017C87.5966 16.3783 87.696 16.8622 87.696 17.4688V22.5H86.5227V21.4659H86.4631C86.3835 21.6316 86.2509 21.8089 86.0653 21.9979C85.8797 22.1868 85.6328 22.3475 85.3246 22.4801C85.0163 22.6127 84.6402 22.679 84.196 22.679ZM84.375 21.625C84.839 21.625 85.2301 21.5339 85.5483 21.3516C85.8698 21.1693 86.1117 20.9339 86.2741 20.6456C86.4399 20.3572 86.5227 20.054 86.5227 19.7358V18.6619C86.473 18.7216 86.3636 18.7763 86.1946 18.826C86.0289 18.8724 85.8366 18.9138 85.6179 18.9503C85.4025 18.9834 85.192 19.0133 84.9865 19.0398C84.7843 19.063 84.6203 19.0829 84.4943 19.0994C84.1894 19.1392 83.9044 19.2038 83.6392 19.2933C83.3774 19.3795 83.1652 19.5104 83.0028 19.6861C82.8438 19.8584 82.7642 20.0937 82.7642 20.392C82.7642 20.7997 82.915 21.108 83.2166 21.3168C83.5215 21.5223 83.9077 21.625 84.375 21.625ZM89.9966 22.5V12.3182H91.1699V16.0767H91.2694C91.3555 15.9441 91.4748 15.7751 91.6273 15.5696C91.7831 15.3608 92.0051 15.1752 92.2935 15.0128C92.5852 14.8471 92.9796 14.7642 93.4767 14.7642C94.1197 14.7642 94.6865 14.925 95.177 15.2464C95.6676 15.5679 96.0504 16.0237 96.3255 16.6136C96.6006 17.2036 96.7381 17.8996 96.7381 18.7017C96.7381 19.5104 96.6006 20.2114 96.3255 20.8047C96.0504 21.3946 95.6692 21.852 95.182 22.1768C94.6948 22.4983 94.133 22.6591 93.4966 22.6591C93.0061 22.6591 92.6133 22.5779 92.3184 22.4155C92.0234 22.2498 91.7963 22.0625 91.6373 21.8537C91.4782 21.6416 91.3555 21.4659 91.2694 21.3267H91.1301V22.5H89.9966ZM91.15 18.6818C91.15 19.2585 91.2346 19.7673 91.4036 20.2081C91.5726 20.6456 91.8195 20.9886 92.1444 21.2372C92.4692 21.4825 92.8669 21.6051 93.3375 21.6051C93.8281 21.6051 94.2374 21.4759 94.5655 21.2173C94.897 20.9555 95.1455 20.6042 95.3113 20.1634C95.4803 19.7192 95.5648 19.2254 95.5648 18.6818C95.5648 18.1449 95.4819 17.661 95.3162 17.2301C95.1538 16.7959 94.9069 16.4529 94.5755 16.201C94.2473 15.9458 93.8347 15.8182 93.3375 15.8182C92.8603 15.8182 92.4592 15.9392 92.1344 16.1811C91.8096 16.4197 91.5643 16.7545 91.3986 17.1854C91.2329 17.6129 91.15 18.1117 91.15 18.6818ZM101.735 22.6591C100.999 22.6591 100.364 22.4967 99.8304 22.1719C99.3001 21.8438 98.8908 21.3864 98.6025 20.7997C98.3174 20.2098 98.1749 19.5237 98.1749 18.7415C98.1749 17.9593 98.3174 17.2699 98.6025 16.6733C98.8908 16.0734 99.2918 15.6061 99.8056 15.2713C100.323 14.9332 100.926 14.7642 101.615 14.7642C102.013 14.7642 102.406 14.8305 102.794 14.9631C103.181 15.0956 103.534 15.3111 103.852 15.6094C104.171 15.9044 104.424 16.2955 104.613 16.7827C104.802 17.2699 104.896 17.8698 104.896 18.5824V19.0795H99.0101V18.0653H103.703C103.703 17.6345 103.617 17.25 103.445 16.9119C103.276 16.5739 103.034 16.3071 102.719 16.1115C102.407 15.916 102.039 15.8182 101.615 15.8182C101.148 15.8182 100.744 15.9342 100.402 16.1662C100.064 16.3949 99.8039 16.6932 99.6216 17.0611C99.4393 17.429 99.3482 17.8234 99.3482 18.2443V18.9205C99.3482 19.4972 99.4476 19.986 99.6465 20.3871C99.8487 20.7848 100.129 21.0881 100.487 21.2969C100.845 21.5024 101.261 21.6051 101.735 21.6051C102.043 21.6051 102.321 21.562 102.57 21.4759C102.822 21.3864 103.039 21.2538 103.221 21.0781C103.403 20.8991 103.544 20.6771 103.644 20.4119L104.777 20.7301C104.658 21.1146 104.457 21.4527 104.176 21.7443C103.894 22.0327 103.546 22.258 103.132 22.4205C102.717 22.5795 102.252 22.6591 101.735 22.6591ZM107.855 12.3182V22.5H106.681V12.3182H107.855Z" fill="white"/>
<path d="M203.853 14.6458C204.048 14.8407 204.049 15.1573 203.854 15.3529L198.389 20.8374C198.174 21.0531 197.825 21.0531 197.61 20.8374L192.145 15.3529C191.95 15.1573 191.95 14.8407 192.146 14.6458C192.342 14.4509 192.658 14.4515 192.853 14.6471L197.999 19.8117L203.146 14.6471C203.341 14.4515 203.657 14.4509 203.853 14.6458Z" fill="white"/>
<rect x="64.5" y="0.5" width="152" height="33" rx="3.5" stroke="url(#paint0_linear_3_1637)"/>
<g filter="url(#filter0_d_3_1637)">
<rect x="20" y="37" width="241" height="127" rx="4" fill="#F8F8F8" shape-rendering="crispEdges"/>
<path d="M28 49C28 46.7909 29.7909 45 32 45H249C251.209 45 253 46.7909 253 49V72C253 74.2091 251.209 76 249 76H32C29.7909 76 28 74.2091 28 72V49Z" fill="white"/>
<path d="M126.944 56.9119V55.8182H134.58V56.9119H131.378V66H130.145V56.9119H126.944ZM138.418 66.1591C137.682 66.1591 137.048 65.9967 136.514 65.6719C135.984 65.3438 135.574 64.8864 135.286 64.2997C135.001 63.7098 134.858 63.0237 134.858 62.2415C134.858 61.4593 135.001 60.7699 135.286 60.1733C135.574 59.5734 135.975 59.1061 136.489 58.7713C137.006 58.4332 137.609 58.2642 138.299 58.2642C138.697 58.2642 139.089 58.3305 139.477 58.4631C139.865 58.5956 140.218 58.8111 140.536 59.1094C140.854 59.4044 141.108 59.7955 141.297 60.2827C141.486 60.7699 141.58 61.3698 141.58 62.0824V62.5795H135.694V61.5653H140.387C140.387 61.1345 140.301 60.75 140.128 60.4119C139.959 60.0739 139.717 59.8071 139.403 59.6115C139.091 59.416 138.723 59.3182 138.299 59.3182C137.831 59.3182 137.427 59.4342 137.086 59.6662C136.748 59.8949 136.488 60.1932 136.305 60.5611C136.123 60.929 136.032 61.3234 136.032 61.7443V62.4205C136.032 62.9972 136.131 63.486 136.33 63.8871C136.532 64.2848 136.812 64.5881 137.17 64.7969C137.528 65.0024 137.944 65.1051 138.418 65.1051C138.726 65.1051 139.005 65.062 139.253 64.9759C139.505 64.8864 139.722 64.7538 139.905 64.5781C140.087 64.3991 140.228 64.1771 140.327 63.9119L141.461 64.2301C141.341 64.6146 141.141 64.9527 140.859 65.2443C140.577 65.5327 140.229 65.758 139.815 65.9205C139.401 66.0795 138.935 66.1591 138.418 66.1591ZM144.035 58.3636L145.864 61.4858L147.694 58.3636H149.046L146.58 62.1818L149.046 66H147.694L145.864 63.0369L144.035 66H142.683L145.109 62.1818L142.683 58.3636H144.035ZM154.041 58.3636V59.358H150.084V58.3636H154.041ZM151.237 56.5341H152.411V63.8125C152.411 64.1439 152.459 64.3925 152.555 64.5582C152.654 64.7206 152.78 64.83 152.933 64.8864C153.088 64.9394 153.253 64.9659 153.425 64.9659C153.554 64.9659 153.66 64.9593 153.743 64.946C153.826 64.9295 153.892 64.9162 153.942 64.9062L154.181 65.9602C154.101 65.9901 153.99 66.0199 153.847 66.0497C153.705 66.0829 153.524 66.0994 153.306 66.0994C152.974 66.0994 152.649 66.0282 152.331 65.8857C152.016 65.7431 151.754 65.526 151.546 65.2344C151.34 64.9427 151.237 64.5748 151.237 64.1307V56.5341Z" fill="black"/>
<path d="M126.944 96.9119V95.8182H134.58V96.9119H131.378V106H130.145V96.9119H126.944ZM138.418 106.159C137.682 106.159 137.048 105.997 136.514 105.672C135.984 105.344 135.574 104.886 135.286 104.3C135.001 103.71 134.858 103.024 134.858 102.241C134.858 101.459 135.001 100.77 135.286 100.173C135.574 99.5734 135.975 99.1061 136.489 98.7713C137.006 98.4332 137.609 98.2642 138.299 98.2642C138.697 98.2642 139.089 98.3305 139.477 98.4631C139.865 98.5956 140.218 98.8111 140.536 99.1094C140.854 99.4044 141.108 99.7955 141.297 100.283C141.486 100.77 141.58 101.37 141.58 102.082V102.58H135.694V101.565H140.387C140.387 101.134 140.301 100.75 140.128 100.412C139.959 100.074 139.717 99.8071 139.403 99.6115C139.091 99.416 138.723 99.3182 138.299 99.3182C137.831 99.3182 137.427 99.4342 137.086 99.6662C136.748 99.8949 136.488 100.193 136.305 100.561C136.123 100.929 136.032 101.323 136.032 101.744V102.42C136.032 102.997 136.131 103.486 136.33 103.887C136.532 104.285 136.812 104.588 137.17 104.797C137.528 105.002 137.944 105.105 138.418 105.105C138.726 105.105 139.005 105.062 139.253 104.976C139.505 104.886 139.722 104.754 139.905 104.578C140.087 104.399 140.228 104.177 140.327 103.912L141.461 104.23C141.341 104.615 141.141 104.953 140.859 105.244C140.577 105.533 140.229 105.758 139.815 105.92C139.401 106.08 138.935 106.159 138.418 106.159ZM144.035 98.3636L145.864 101.486L147.694 98.3636H149.046L146.58 102.182L149.046 106H147.694L145.864 103.037L144.035 106H142.683L145.109 102.182L142.683 98.3636H144.035ZM154.041 98.3636V99.358H150.084V98.3636H154.041ZM151.237 96.5341H152.411V103.812C152.411 104.144 152.459 104.393 152.555 104.558C152.654 104.721 152.78 104.83 152.933 104.886C153.088 104.939 153.253 104.966 153.425 104.966C153.554 104.966 153.66 104.959 153.743 104.946C153.826 104.929 153.892 104.916 153.942 104.906L154.181 105.96C154.101 105.99 153.99 106.02 153.847 106.05C153.705 106.083 153.524 106.099 153.306 106.099C152.974 106.099 152.649 106.028 152.331 105.886C152.016 105.743 151.754 105.526 151.546 105.234C151.34 104.943 151.237 104.575 151.237 104.131V96.5341Z" fill="black"/>
<path d="M126.944 136.912V135.818H134.58V136.912H131.378V146H130.145V136.912H126.944ZM138.418 146.159C137.682 146.159 137.048 145.997 136.514 145.672C135.984 145.344 135.574 144.886 135.286 144.3C135.001 143.71 134.858 143.024 134.858 142.241C134.858 141.459 135.001 140.77 135.286 140.173C135.574 139.573 135.975 139.106 136.489 138.771C137.006 138.433 137.609 138.264 138.299 138.264C138.697 138.264 139.089 138.33 139.477 138.463C139.865 138.596 140.218 138.811 140.536 139.109C140.854 139.404 141.108 139.795 141.297 140.283C141.486 140.77 141.58 141.37 141.58 142.082V142.58H135.694V141.565H140.387C140.387 141.134 140.301 140.75 140.128 140.412C139.959 140.074 139.717 139.807 139.403 139.612C139.091 139.416 138.723 139.318 138.299 139.318C137.831 139.318 137.427 139.434 137.086 139.666C136.748 139.895 136.488 140.193 136.305 140.561C136.123 140.929 136.032 141.323 136.032 141.744V142.42C136.032 142.997 136.131 143.486 136.33 143.887C136.532 144.285 136.812 144.588 137.17 144.797C137.528 145.002 137.944 145.105 138.418 145.105C138.726 145.105 139.005 145.062 139.253 144.976C139.505 144.886 139.722 144.754 139.905 144.578C140.087 144.399 140.228 144.177 140.327 143.912L141.461 144.23C141.341 144.615 141.141 144.953 140.859 145.244C140.577 145.533 140.229 145.758 139.815 145.92C139.401 146.08 138.935 146.159 138.418 146.159ZM144.035 138.364L145.864 141.486L147.694 138.364H149.046L146.58 142.182L149.046 146H147.694L145.864 143.037L144.035 146H142.683L145.109 142.182L142.683 138.364H144.035ZM154.041 138.364V139.358H150.084V138.364H154.041ZM151.237 136.534H152.411V143.812C152.411 144.144 152.459 144.393 152.555 144.558C152.654 144.721 152.78 144.83 152.933 144.886C153.088 144.939 153.253 144.966 153.425 144.966C153.554 144.966 153.66 144.959 153.743 144.946C153.826 144.929 153.892 144.916 153.942 144.906L154.181 145.96C154.101 145.99 153.99 146.02 153.847 146.05C153.705 146.083 153.524 146.099 153.306 146.099C152.974 146.099 152.649 146.028 152.331 145.886C152.016 145.743 151.754 145.526 151.546 145.234C151.34 144.943 151.237 144.575 151.237 144.131V136.534Z" fill="black"/>
</g>
<defs>
<filter id="filter0_d_3_1637" x="0" y="29" width="281" height="167" filterUnits="userSpaceOnUse" color-interpolation-filters="sRGB">
<feFlood flood-opacity="0" result="BackgroundImageFix"/>
<feColorMatrix in="SourceAlpha" type="matrix" values="0 0 0 0 0 0 0 0 0 0 0 0 0 0 0 0 0 0 127 0" result="hardAlpha"/>
<feOffset dy="12"/>
<feGaussianBlur stdDeviation="10"/>
<feComposite in2="hardAlpha" operator="out"/>
<feColorMatrix type="matrix" values="0 0 0 0 0 0 0 0 0 0 0 0 0 0 0 0 0 0 0.25 0"/>
<feBlend mode="normal" in2="BackgroundImageFix" result="effect1_dropShadow_3_1637"/>
<feBlend mode="normal" in="SourceGraphic" in2="effect1_dropShadow_3_1637" result="shape"/>
</filter>
<linearGradient id="paint0_linear_3_1637" x1="140.5" y1="0" x2="140.5" y2="34" gradientUnits="userSpaceOnUse">
<stop offset="0.55" stop-color="#1D93E9"/>
<stop offset="0.794792" stop-color="#0074C7"/>
</linearGradient>
</defs>
</svg>
