<svg width="619" height="589" viewBox="0 0 619 589" fill="none" xmlns="http://www.w3.org/2000/svg">
<path d="M40.7273 244H9.18182V150.909H41.3636C50.6061 150.909 58.5455 152.773 65.1818 156.5C71.8485 160.197 76.9697 165.515 80.5455 172.455C84.1212 179.394 85.9091 187.697 85.9091 197.364C85.9091 207.061 84.1061 215.394 80.5 222.364C76.9242 229.333 71.7576 234.682 65 238.409C58.2727 242.136 50.1818 244 40.7273 244ZM26.0455 229.409H39.9091C46.3939 229.409 51.803 228.227 56.1364 225.864C60.4697 223.47 63.7273 219.909 65.9091 215.182C68.0909 210.424 69.1818 204.485 69.1818 197.364C69.1818 190.242 68.0909 184.333 65.9091 179.636C63.7273 174.909 60.5 171.379 56.2273 169.045C51.9848 166.682 46.7121 165.5 40.4091 165.5H26.0455V229.409ZM101.205 244V174.182H117.659V244H101.205ZM109.477 164.273C106.871 164.273 104.629 163.409 102.75 161.682C100.871 159.924 99.9318 157.818 99.9318 155.364C99.9318 152.879 100.871 150.773 102.75 149.045C104.629 147.288 106.871 146.409 109.477 146.409C112.114 146.409 114.356 147.288 116.205 149.045C118.083 150.773 119.023 152.879 119.023 155.364C119.023 157.818 118.083 159.924 116.205 161.682C114.356 163.409 112.114 164.273 109.477 164.273ZM189.761 192.636L174.761 194.273C174.337 192.758 173.595 191.333 172.534 190C171.504 188.667 170.11 187.591 168.352 186.773C166.595 185.955 164.443 185.545 161.898 185.545C158.473 185.545 155.595 186.288 153.261 187.773C150.958 189.258 149.822 191.182 149.852 193.545C149.822 195.576 150.564 197.227 152.08 198.5C153.625 199.773 156.17 200.818 159.716 201.636L171.625 204.182C178.231 205.606 183.14 207.864 186.352 210.955C189.595 214.045 191.231 218.091 191.261 223.091C191.231 227.485 189.943 231.364 187.398 234.727C184.883 238.061 181.383 240.667 176.898 242.545C172.413 244.424 167.261 245.364 161.443 245.364C152.898 245.364 146.019 243.576 140.807 240C135.595 236.394 132.489 231.379 131.489 224.955L147.534 223.409C148.261 226.561 149.807 228.939 152.17 230.545C154.534 232.152 157.61 232.955 161.398 232.955C165.307 232.955 168.443 232.152 170.807 230.545C173.201 228.939 174.398 226.955 174.398 224.591C174.398 222.591 173.625 220.939 172.08 219.636C170.564 218.333 168.201 217.333 164.989 216.636L153.08 214.136C146.383 212.742 141.428 210.394 138.216 207.091C135.004 203.758 133.413 199.545 133.443 194.455C133.413 190.152 134.58 186.424 136.943 183.273C139.337 180.091 142.655 177.636 146.898 175.909C151.17 174.152 156.095 173.273 161.67 173.273C169.852 173.273 176.292 175.015 180.989 178.5C185.716 181.985 188.64 186.697 189.761 192.636ZM204.83 270.182V174.182H221.011V185.727H221.966C222.814 184.03 224.011 182.227 225.557 180.318C227.102 178.379 229.193 176.727 231.83 175.364C234.466 173.97 237.83 173.273 241.92 173.273C247.314 173.273 252.178 174.652 256.511 177.409C260.875 180.136 264.33 184.182 266.875 189.545C269.451 194.879 270.739 201.424 270.739 209.182C270.739 216.848 269.481 223.364 266.966 228.727C264.451 234.091 261.027 238.182 256.693 241C252.36 243.818 247.451 245.227 241.966 245.227C237.966 245.227 234.648 244.561 232.011 243.227C229.375 241.894 227.254 240.288 225.648 238.409C224.072 236.5 222.845 234.697 221.966 233H221.284V270.182H204.83ZM220.966 209.091C220.966 213.606 221.602 217.561 222.875 220.955C224.178 224.348 226.042 227 228.466 228.909C230.92 230.788 233.89 231.727 237.375 231.727C241.011 231.727 244.057 230.758 246.511 228.818C248.966 226.848 250.814 224.167 252.057 220.773C253.33 217.348 253.966 213.455 253.966 209.091C253.966 204.758 253.345 200.909 252.102 197.545C250.86 194.182 249.011 191.545 246.557 189.636C244.102 187.727 241.042 186.773 237.375 186.773C233.86 186.773 230.875 187.697 228.42 189.545C225.966 191.394 224.102 193.985 222.83 197.318C221.587 200.652 220.966 204.576 220.966 209.091ZM301.284 150.909V244H284.83V150.909H301.284ZM338.295 245.409C333.871 245.409 329.886 244.621 326.341 243.045C322.826 241.439 320.038 239.076 317.977 235.955C315.947 232.833 314.932 228.985 314.932 224.409C314.932 220.47 315.659 217.212 317.114 214.636C318.568 212.061 320.553 210 323.068 208.455C325.583 206.909 328.417 205.742 331.568 204.955C334.75 204.136 338.038 203.545 341.432 203.182C345.523 202.758 348.841 202.379 351.386 202.045C353.932 201.682 355.78 201.136 356.932 200.409C358.114 199.652 358.705 198.485 358.705 196.909V196.636C358.705 193.212 357.689 190.561 355.659 188.682C353.629 186.803 350.705 185.864 346.886 185.864C342.856 185.864 339.659 186.742 337.295 188.5C334.962 190.258 333.386 192.333 332.568 194.727L317.205 192.545C318.417 188.303 320.417 184.758 323.205 181.909C325.992 179.03 329.402 176.879 333.432 175.455C337.462 174 341.917 173.273 346.795 173.273C350.159 173.273 353.508 173.667 356.841 174.455C360.174 175.242 363.22 176.545 365.977 178.364C368.735 180.152 370.947 182.591 372.614 185.682C374.311 188.773 375.159 192.636 375.159 197.273V244H359.341V234.409H358.795C357.795 236.348 356.386 238.167 354.568 239.864C352.78 241.53 350.523 242.879 347.795 243.909C345.098 244.909 341.932 245.409 338.295 245.409ZM342.568 233.318C345.871 233.318 348.735 232.667 351.159 231.364C353.583 230.03 355.447 228.273 356.75 226.091C358.083 223.909 358.75 221.53 358.75 218.955V210.727C358.235 211.152 357.356 211.545 356.114 211.909C354.902 212.273 353.538 212.591 352.023 212.864C350.508 213.136 349.008 213.379 347.523 213.591C346.038 213.803 344.75 213.985 343.659 214.136C341.205 214.47 339.008 215.015 337.068 215.773C335.129 216.53 333.598 217.591 332.477 218.955C331.356 220.288 330.795 222.015 330.795 224.136C330.795 227.167 331.902 229.455 334.114 231C336.326 232.545 339.144 233.318 342.568 233.318ZM399.432 270.182C397.189 270.182 395.114 270 393.205 269.636C391.326 269.303 389.826 268.909 388.705 268.455L392.523 255.636C394.917 256.333 397.053 256.667 398.932 256.636C400.811 256.606 402.462 256.015 403.886 254.864C405.341 253.742 406.568 251.864 407.568 249.227L408.977 245.455L383.659 174.182H401.114L417.205 226.909H417.932L434.068 174.182H451.568L423.614 252.455C422.311 256.152 420.583 259.318 418.432 261.955C416.28 264.621 413.644 266.652 410.523 268.045C407.432 269.47 403.735 270.182 399.432 270.182ZM44.8295 309.375C44.5114 306.398 43.1705 304.08 40.8068 302.42C38.4659 300.761 35.4205 299.932 31.6705 299.932C29.0341 299.932 26.7727 300.33 24.8864 301.125C23 301.92 21.5568 303 20.5568 304.364C19.5568 305.727 19.0455 307.284 19.0227 309.034C19.0227 310.489 19.3523 311.75 20.0114 312.818C20.6932 313.886 21.6136 314.795 22.7727 315.545C23.9318 316.273 25.2159 316.886 26.625 317.386C28.0341 317.886 29.4545 318.307 30.8864 318.648L37.4318 320.284C40.0682 320.898 42.6023 321.727 45.0341 322.773C47.4886 323.818 49.6818 325.136 51.6136 326.727C53.5682 328.318 55.1136 330.239 56.25 332.489C57.3864 334.739 57.9545 337.375 57.9545 340.398C57.9545 344.489 56.9091 348.091 54.8182 351.205C52.7273 354.295 49.7045 356.716 45.75 358.466C41.8182 360.193 37.0568 361.057 31.4659 361.057C26.0341 361.057 21.3182 360.216 17.3182 358.534C13.3409 356.852 10.2273 354.398 7.97727 351.17C5.75 347.943 4.54545 344.011 4.36364 339.375H16.8068C16.9886 341.807 17.7386 343.83 19.0568 345.443C20.375 347.057 22.0909 348.261 24.2045 349.057C26.3409 349.852 28.7273 350.25 31.3636 350.25C34.1136 350.25 36.5227 349.841 38.5909 349.023C40.6818 348.182 42.3182 347.023 43.5 345.545C44.6818 344.045 45.2841 342.295 45.3068 340.295C45.2841 338.477 44.75 336.977 43.7045 335.795C42.6591 334.591 41.1932 333.591 39.3068 332.795C37.4432 331.977 35.2614 331.25 32.7614 330.614L24.8182 328.568C19.0682 327.091 14.5227 324.852 11.1818 321.852C7.86364 318.83 6.20455 314.818 6.20455 309.818C6.20455 305.705 7.31818 302.102 9.54545 299.011C11.7955 295.92 14.8523 293.523 18.7159 291.818C22.5795 290.091 26.9545 289.227 31.8409 289.227C36.7955 289.227 41.1364 290.091 44.8636 291.818C48.6136 293.523 51.5568 295.898 53.6932 298.943C55.8295 301.966 56.9318 305.443 57 309.375H44.8295ZM68.6847 360V307.636H80.4801V316.534H81.0938C82.1847 313.534 83.9915 311.193 86.5142 309.511C89.0369 307.807 92.0483 306.955 95.5483 306.955C99.0938 306.955 102.082 307.818 104.514 309.545C106.969 311.25 108.696 313.58 109.696 316.534H110.241C111.401 313.625 113.355 311.307 116.105 309.58C118.878 307.83 122.162 306.955 125.957 306.955C130.776 306.955 134.707 308.477 137.753 311.523C140.798 314.568 142.321 319.011 142.321 324.852V360H129.946V326.761C129.946 323.511 129.082 321.136 127.355 319.636C125.628 318.114 123.514 317.352 121.014 317.352C118.037 317.352 115.707 318.284 114.026 320.148C112.366 321.989 111.537 324.386 111.537 327.341V360H99.4347V326.25C99.4347 323.545 98.6165 321.386 96.9801 319.773C95.3665 318.159 93.2528 317.352 90.6392 317.352C88.8665 317.352 87.2528 317.807 85.7983 318.716C84.3438 319.602 83.1847 320.864 82.321 322.5C81.4574 324.114 81.0256 326 81.0256 328.159V360H68.6847ZM169.909 361.057C166.591 361.057 163.602 360.466 160.943 359.284C158.307 358.08 156.216 356.307 154.67 353.966C153.148 351.625 152.386 348.739 152.386 345.307C152.386 342.352 152.932 339.909 154.023 337.977C155.114 336.045 156.602 334.5 158.489 333.341C160.375 332.182 162.5 331.307 164.864 330.716C167.25 330.102 169.716 329.659 172.261 329.386C175.33 329.068 177.818 328.784 179.727 328.534C181.636 328.261 183.023 327.852 183.886 327.307C184.773 326.739 185.216 325.864 185.216 324.682V324.477C185.216 321.909 184.455 319.92 182.932 318.511C181.409 317.102 179.216 316.398 176.352 316.398C173.33 316.398 170.932 317.057 169.159 318.375C167.409 319.693 166.227 321.25 165.614 323.045L154.091 321.409C155 318.227 156.5 315.568 158.591 313.432C160.682 311.273 163.239 309.659 166.261 308.591C169.284 307.5 172.625 306.955 176.284 306.955C178.807 306.955 181.318 307.25 183.818 307.841C186.318 308.432 188.602 309.409 190.67 310.773C192.739 312.114 194.398 313.943 195.648 316.261C196.92 318.58 197.557 321.477 197.557 324.955V360H185.693V352.807H185.284C184.534 354.261 183.477 355.625 182.114 356.898C180.773 358.148 179.08 359.159 177.034 359.932C175.011 360.682 172.636 361.057 169.909 361.057ZM173.114 351.989C175.591 351.989 177.739 351.5 179.557 350.523C181.375 349.523 182.773 348.205 183.75 346.568C184.75 344.932 185.25 343.148 185.25 341.216V335.045C184.864 335.364 184.205 335.659 183.273 335.932C182.364 336.205 181.341 336.443 180.205 336.648C179.068 336.852 177.943 337.034 176.83 337.193C175.716 337.352 174.75 337.489 173.932 337.602C172.091 337.852 170.443 338.261 168.989 338.83C167.534 339.398 166.386 340.193 165.545 341.216C164.705 342.216 164.284 343.511 164.284 345.102C164.284 347.375 165.114 349.091 166.773 350.25C168.432 351.409 170.545 351.989 173.114 351.989ZM222.307 290.182V360H209.966V290.182H222.307ZM247.338 290.182V360H234.997V290.182H247.338ZM308.045 360H284.386V290.182H308.523C315.455 290.182 321.409 291.58 326.386 294.375C331.386 297.148 335.227 301.136 337.909 306.341C340.591 311.545 341.932 317.773 341.932 325.023C341.932 332.295 340.58 338.545 337.875 343.773C335.193 349 331.318 353.011 326.25 355.807C321.205 358.602 315.136 360 308.045 360ZM297.034 349.057H307.432C312.295 349.057 316.352 348.17 319.602 346.398C322.852 344.602 325.295 341.932 326.932 338.386C328.568 334.818 329.386 330.364 329.386 325.023C329.386 319.682 328.568 315.25 326.932 311.727C325.295 308.182 322.875 305.534 319.67 303.784C316.489 302.011 312.534 301.125 307.807 301.125H297.034V349.057ZM353.403 360V307.636H365.744V360H353.403ZM359.608 300.205C357.653 300.205 355.972 299.557 354.562 298.261C353.153 296.943 352.449 295.364 352.449 293.523C352.449 291.659 353.153 290.08 354.562 288.784C355.972 287.466 357.653 286.807 359.608 286.807C361.585 286.807 363.267 287.466 364.653 288.784C366.063 290.08 366.767 291.659 366.767 293.523C366.767 295.364 366.063 296.943 364.653 298.261C363.267 299.557 361.585 300.205 359.608 300.205ZM419.821 321.477L408.571 322.705C408.253 321.568 407.696 320.5 406.901 319.5C406.128 318.5 405.082 317.693 403.764 317.08C402.446 316.466 400.832 316.159 398.923 316.159C396.355 316.159 394.196 316.716 392.446 317.83C390.719 318.943 389.866 320.386 389.889 322.159C389.866 323.682 390.423 324.92 391.56 325.875C392.719 326.83 394.628 327.614 397.287 328.227L406.219 330.136C411.173 331.205 414.855 332.898 417.264 335.216C419.696 337.534 420.923 340.568 420.946 344.318C420.923 347.614 419.957 350.523 418.048 353.045C416.162 355.545 413.537 357.5 410.173 358.909C406.81 360.318 402.946 361.023 398.582 361.023C392.173 361.023 387.014 359.682 383.105 357C379.196 354.295 376.866 350.534 376.116 345.716L388.151 344.557C388.696 346.92 389.855 348.705 391.628 349.909C393.401 351.114 395.707 351.716 398.548 351.716C401.48 351.716 403.832 351.114 405.605 349.909C407.401 348.705 408.298 347.216 408.298 345.443C408.298 343.943 407.719 342.705 406.56 341.727C405.423 340.75 403.651 340 401.241 339.477L392.31 337.602C387.287 336.557 383.571 334.795 381.162 332.318C378.753 329.818 377.56 326.659 377.582 322.841C377.56 319.614 378.435 316.818 380.207 314.455C382.003 312.068 384.491 310.227 387.673 308.932C390.878 307.614 394.571 306.955 398.753 306.955C404.889 306.955 409.719 308.261 413.241 310.875C416.787 313.489 418.98 317.023 419.821 321.477ZM431.122 379.636V307.636H443.259V316.295H443.974C444.611 315.023 445.509 313.67 446.668 312.239C447.827 310.784 449.395 309.545 451.372 308.523C453.349 307.477 455.872 306.955 458.94 306.955C462.986 306.955 466.634 307.989 469.884 310.057C473.156 312.102 475.747 315.136 477.656 319.159C479.588 323.159 480.554 328.068 480.554 333.886C480.554 339.636 479.611 344.523 477.724 348.545C475.838 352.568 473.27 355.636 470.02 357.75C466.77 359.864 463.088 360.92 458.974 360.92C455.974 360.92 453.486 360.42 451.509 359.42C449.531 358.42 447.94 357.216 446.736 355.807C445.554 354.375 444.634 353.023 443.974 351.75H443.463V379.636H431.122ZM443.224 333.818C443.224 337.205 443.702 340.17 444.656 342.716C445.634 345.261 447.031 347.25 448.849 348.682C450.69 350.091 452.918 350.795 455.531 350.795C458.259 350.795 460.543 350.068 462.384 348.614C464.224 347.136 465.611 345.125 466.543 342.58C467.497 340.011 467.974 337.091 467.974 333.818C467.974 330.568 467.509 327.682 466.577 325.159C465.645 322.636 464.259 320.659 462.418 319.227C460.577 317.795 458.281 317.08 455.531 317.08C452.895 317.08 450.656 317.773 448.815 319.159C446.974 320.545 445.577 322.489 444.622 324.989C443.69 327.489 443.224 330.432 443.224 333.818ZM503.463 290.182V360H491.122V290.182H503.463ZM531.222 361.057C527.903 361.057 524.915 360.466 522.256 359.284C519.619 358.08 517.528 356.307 515.983 353.966C514.46 351.625 513.699 348.739 513.699 345.307C513.699 342.352 514.244 339.909 515.335 337.977C516.426 336.045 517.915 334.5 519.801 333.341C521.688 332.182 523.813 331.307 526.176 330.716C528.563 330.102 531.028 329.659 533.574 329.386C536.642 329.068 539.131 328.784 541.04 328.534C542.949 328.261 544.335 327.852 545.199 327.307C546.085 326.739 546.528 325.864 546.528 324.682V324.477C546.528 321.909 545.767 319.92 544.244 318.511C542.722 317.102 540.528 316.398 537.665 316.398C534.642 316.398 532.244 317.057 530.472 318.375C528.722 319.693 527.54 321.25 526.926 323.045L515.403 321.409C516.313 318.227 517.813 315.568 519.903 313.432C521.994 311.273 524.551 309.659 527.574 308.591C530.597 307.5 533.938 306.955 537.597 306.955C540.119 306.955 542.631 307.25 545.131 307.841C547.631 308.432 549.915 309.409 551.983 310.773C554.051 312.114 555.71 313.943 556.96 316.261C558.233 318.58 558.869 321.477 558.869 324.955V360H547.006V352.807H546.597C545.847 354.261 544.79 355.625 543.426 356.898C542.085 358.148 540.392 359.159 538.347 359.932C536.324 360.682 533.949 361.057 531.222 361.057ZM534.426 351.989C536.903 351.989 539.051 351.5 540.869 350.523C542.688 349.523 544.085 348.205 545.062 346.568C546.062 344.932 546.562 343.148 546.562 341.216V335.045C546.176 335.364 545.517 335.659 544.585 335.932C543.676 336.205 542.653 336.443 541.517 336.648C540.381 336.852 539.256 337.034 538.142 337.193C537.028 337.352 536.063 337.489 535.244 337.602C533.403 337.852 531.756 338.261 530.301 338.83C528.847 339.398 527.699 340.193 526.858 341.216C526.017 342.216 525.597 343.511 525.597 345.102C525.597 347.375 526.426 349.091 528.085 350.25C529.744 351.409 531.858 351.989 534.426 351.989ZM577.074 379.636C575.392 379.636 573.835 379.5 572.403 379.227C570.994 378.977 569.869 378.682 569.028 378.341L571.892 368.727C573.688 369.25 575.29 369.5 576.699 369.477C578.108 369.455 579.347 369.011 580.415 368.148C581.506 367.307 582.426 365.898 583.176 363.92L584.233 361.091L565.244 307.636H578.335L590.403 347.182H590.949L603.051 307.636H616.176L595.21 366.341C594.233 369.114 592.938 371.489 591.324 373.466C589.71 375.466 587.733 376.989 585.392 378.034C583.074 379.102 580.301 379.636 577.074 379.636ZM2.54545 397.523V390.455H39.6818V397.523H25.2955V437H16.9318V397.523H2.54545ZM46.4773 437V402.091H54.7045V437H46.4773ZM50.6136 397.136C49.3106 397.136 48.1894 396.705 47.25 395.841C46.3106 394.962 45.8409 393.909 45.8409 392.682C45.8409 391.439 46.3106 390.386 47.25 389.523C48.1894 388.644 49.3106 388.205 50.6136 388.205C51.9318 388.205 53.053 388.644 53.9773 389.523C54.9167 390.386 55.3864 391.439 55.3864 392.682C55.3864 393.909 54.9167 394.962 53.9773 395.841C53.053 396.705 51.9318 397.136 50.6136 397.136ZM80.5966 402.091V408.455H60.5284V402.091H80.5966ZM65.483 393.727H73.7102V426.5C73.7102 427.606 73.8769 428.455 74.2102 429.045C74.5587 429.621 75.0133 430.015 75.5739 430.227C76.1345 430.439 76.7557 430.545 77.4375 430.545C77.9527 430.545 78.4223 430.508 78.8466 430.432C79.286 430.356 79.6193 430.288 79.8466 430.227L81.233 436.659C80.7936 436.811 80.1648 436.977 79.3466 437.159C78.5436 437.341 77.5587 437.447 76.392 437.477C74.3314 437.538 72.4754 437.227 70.8239 436.545C69.1723 435.848 67.8617 434.773 66.892 433.318C65.9375 431.864 65.4678 430.045 65.483 427.864V393.727ZM96.4545 390.455V437H88.2273V390.455H96.4545ZM120.369 437.682C116.869 437.682 113.847 436.955 111.301 435.5C108.771 434.03 106.824 431.955 105.46 429.273C104.097 426.576 103.415 423.402 103.415 419.75C103.415 416.159 104.097 413.008 105.46 410.295C106.839 407.568 108.763 405.447 111.233 403.932C113.703 402.402 116.604 401.636 119.938 401.636C122.089 401.636 124.119 401.985 126.028 402.682C127.953 403.364 129.65 404.424 131.119 405.864C132.604 407.303 133.771 409.136 134.619 411.364C135.468 413.576 135.892 416.212 135.892 419.273V421.795H107.278V416.25H128.006C127.991 414.674 127.65 413.273 126.983 412.045C126.316 410.803 125.384 409.826 124.188 409.114C123.006 408.402 121.627 408.045 120.051 408.045C118.369 408.045 116.892 408.455 115.619 409.273C114.347 410.076 113.354 411.136 112.642 412.455C111.945 413.758 111.589 415.189 111.574 416.75V421.591C111.574 423.621 111.945 425.364 112.688 426.818C113.43 428.258 114.468 429.364 115.801 430.136C117.134 430.894 118.695 431.273 120.483 431.273C121.68 431.273 122.763 431.106 123.733 430.773C124.703 430.424 125.544 429.917 126.256 429.25C126.968 428.583 127.506 427.758 127.869 426.773L135.551 427.636C135.066 429.667 134.142 431.439 132.778 432.955C131.43 434.455 129.703 435.621 127.597 436.455C125.491 437.273 123.081 437.682 120.369 437.682ZM22.875 469.261C22.6932 467.648 21.9432 466.398 20.625 465.511C19.3068 464.614 17.6477 464.165 15.6477 464.165C14.2159 464.165 12.9773 464.392 11.9318 464.847C10.8864 465.29 10.0739 465.903 9.49432 466.688C8.92614 467.46 8.64205 468.341 8.64205 469.33C8.64205 470.159 8.83523 470.875 9.22159 471.477C9.61932 472.08 10.1364 472.585 10.7727 472.994C11.4205 473.392 12.1136 473.727 12.8523 474C13.5909 474.261 14.3011 474.477 14.983 474.648L18.392 475.534C19.5057 475.807 20.6477 476.176 21.8182 476.642C22.9886 477.108 24.0739 477.722 25.0739 478.483C26.0739 479.244 26.8807 480.188 27.4943 481.312C28.1193 482.438 28.4318 483.784 28.4318 485.352C28.4318 487.33 27.9205 489.085 26.8977 490.619C25.8864 492.153 24.4148 493.364 22.483 494.25C20.5625 495.136 18.2386 495.58 15.5114 495.58C12.8977 495.58 10.6364 495.165 8.72727 494.335C6.81818 493.506 5.32386 492.33 4.24432 490.807C3.16477 489.273 2.56818 487.455 2.45455 485.352H7.73864C7.84091 486.614 8.25 487.665 8.96591 488.506C9.69318 489.335 10.6193 489.955 11.7443 490.364C12.8807 490.761 14.125 490.96 15.4773 490.96C16.9659 490.96 18.2898 490.727 19.4489 490.261C20.6193 489.784 21.5398 489.125 22.2102 488.284C22.8807 487.432 23.2159 486.437 23.2159 485.301C23.2159 484.267 22.9205 483.42 22.3295 482.761C21.75 482.102 20.9602 481.557 19.9602 481.125C18.9716 480.693 17.8523 480.312 16.6023 479.983L12.4773 478.858C9.68182 478.097 7.46591 476.977 5.82955 475.5C4.20455 474.023 3.39205 472.068 3.39205 469.636C3.39205 467.625 3.9375 465.869 5.02841 464.369C6.11932 462.869 7.59659 461.705 9.46023 460.875C11.3239 460.034 13.4261 459.614 15.767 459.614C18.1307 459.614 20.2159 460.028 22.0227 460.858C23.8409 461.688 25.2727 462.83 26.3182 464.284C27.3636 465.727 27.9091 467.386 27.9545 469.261H22.875ZM50.902 484.142V468.818H56.0156V495H51.0043V490.466H50.7315C50.1293 491.864 49.1634 493.028 47.8338 493.96C46.5156 494.881 44.8736 495.341 42.9077 495.341C41.2259 495.341 39.7372 494.972 38.4418 494.233C37.1577 493.483 36.1463 492.375 35.4077 490.909C34.6804 489.443 34.3168 487.631 34.3168 485.472V468.818H39.4134V484.858C39.4134 486.642 39.9077 488.062 40.8963 489.119C41.8849 490.176 43.169 490.705 44.7486 490.705C45.7031 490.705 46.652 490.466 47.5952 489.989C48.5497 489.511 49.3395 488.79 49.9645 487.824C50.6009 486.858 50.9134 485.631 50.902 484.142ZM63.2727 495V460.091H68.3693V473.062H68.6761C68.9716 472.517 69.3977 471.886 69.9545 471.17C70.5114 470.455 71.2841 469.83 72.2727 469.295C73.2614 468.75 74.5682 468.477 76.1932 468.477C78.3068 468.477 80.1932 469.011 81.8523 470.08C83.5114 471.148 84.8125 472.687 85.7557 474.699C86.7102 476.71 87.1875 479.131 87.1875 481.96C87.1875 484.79 86.7159 487.216 85.7727 489.239C84.8295 491.25 83.5341 492.801 81.8864 493.892C80.2386 494.972 78.358 495.511 76.2443 495.511C74.6534 495.511 73.3523 495.244 72.3409 494.71C71.3409 494.176 70.5568 493.551 69.9886 492.835C69.4205 492.119 68.983 491.483 68.6761 490.926H68.25V495H63.2727ZM68.267 481.909C68.267 483.75 68.5341 485.364 69.0682 486.75C69.6023 488.136 70.375 489.222 71.3864 490.006C72.3977 490.778 73.6364 491.165 75.1023 491.165C76.625 491.165 77.8977 490.761 78.9205 489.955C79.9432 489.136 80.7159 488.028 81.2386 486.631C81.7727 485.233 82.0398 483.659 82.0398 481.909C82.0398 480.182 81.7784 478.631 81.2557 477.256C80.7443 475.881 79.9716 474.795 78.9375 474C77.9148 473.205 76.6364 472.807 75.1023 472.807C73.625 472.807 72.375 473.187 71.3523 473.949C70.3409 474.71 69.5739 475.773 69.0511 477.136C68.5284 478.5 68.267 480.091 68.267 481.909ZM105.132 468.818V472.909H90.831V468.818H105.132ZM94.6662 462.545H99.7628V487.312C99.7628 488.301 99.9105 489.045 100.206 489.545C100.501 490.034 100.882 490.369 101.348 490.551C101.825 490.722 102.342 490.807 102.899 490.807C103.308 490.807 103.666 490.778 103.973 490.722C104.28 490.665 104.518 490.619 104.689 490.585L105.609 494.795C105.314 494.909 104.893 495.023 104.348 495.136C103.803 495.261 103.121 495.33 102.303 495.341C100.962 495.364 99.7116 495.125 98.5526 494.625C97.3935 494.125 96.456 493.352 95.7401 492.307C95.0241 491.261 94.6662 489.949 94.6662 488.369V462.545ZM110.77 495V468.818H115.866V495H110.77ZM113.344 464.778C112.457 464.778 111.696 464.483 111.06 463.892C110.435 463.29 110.122 462.574 110.122 461.744C110.122 460.903 110.435 460.187 111.06 459.597C111.696 458.994 112.457 458.693 113.344 458.693C114.23 458.693 114.986 458.994 115.611 459.597C116.247 460.187 116.565 460.903 116.565 461.744C116.565 462.574 116.247 463.29 115.611 463.892C114.986 464.483 114.23 464.778 113.344 464.778ZM134.945 468.818V472.909H120.643V468.818H134.945ZM124.479 462.545H129.575V487.312C129.575 488.301 129.723 489.045 130.018 489.545C130.314 490.034 130.695 490.369 131.161 490.551C131.638 490.722 132.155 490.807 132.712 490.807C133.121 490.807 133.479 490.778 133.786 490.722C134.092 490.665 134.331 490.619 134.501 490.585L135.422 494.795C135.126 494.909 134.706 495.023 134.161 495.136C133.615 495.261 132.933 495.33 132.115 495.341C130.774 495.364 129.524 495.125 128.365 494.625C127.206 494.125 126.268 493.352 125.553 492.307C124.837 491.261 124.479 489.949 124.479 488.369V462.545ZM146.241 460.091V495H141.145V460.091H146.241ZM164.382 495.528C161.803 495.528 159.581 494.977 157.717 493.875C155.865 492.761 154.433 491.199 153.422 489.188C152.422 487.165 151.922 484.795 151.922 482.08C151.922 479.398 152.422 477.034 153.422 474.989C154.433 472.943 155.842 471.347 157.649 470.199C159.467 469.051 161.592 468.477 164.024 468.477C165.501 468.477 166.933 468.722 168.32 469.21C169.706 469.699 170.95 470.466 172.053 471.511C173.155 472.557 174.024 473.915 174.661 475.585C175.297 477.244 175.615 479.261 175.615 481.636V483.443H154.803V479.625H170.621C170.621 478.284 170.348 477.097 169.803 476.062C169.257 475.017 168.49 474.193 167.501 473.591C166.524 472.989 165.376 472.688 164.058 472.688C162.626 472.688 161.376 473.04 160.308 473.744C159.251 474.437 158.433 475.347 157.854 476.472C157.286 477.585 157.001 478.795 157.001 480.102V483.085C157.001 484.835 157.308 486.324 157.922 487.551C158.547 488.778 159.416 489.716 160.53 490.364C161.643 491 162.945 491.318 164.433 491.318C165.399 491.318 166.28 491.182 167.075 490.909C167.871 490.625 168.558 490.205 169.138 489.648C169.717 489.091 170.161 488.403 170.467 487.585L175.291 488.455C174.905 489.875 174.212 491.119 173.212 492.188C172.223 493.244 170.979 494.068 169.479 494.659C167.99 495.239 166.291 495.528 164.382 495.528ZM3.17045 539V512.818H6.34091V536.188H18.5114V539H3.17045ZM28.7898 539.46C27.5455 539.46 26.4162 539.226 25.402 538.757C24.3878 538.28 23.5824 537.594 22.9858 536.699C22.3892 535.795 22.0909 534.705 22.0909 533.426C22.0909 532.301 22.3125 531.389 22.7557 530.69C23.1989 529.983 23.7912 529.429 24.5327 529.028C25.2741 528.628 26.0923 528.33 26.9872 528.134C27.8906 527.929 28.7983 527.767 29.7102 527.648C30.9034 527.494 31.8707 527.379 32.6122 527.303C33.3622 527.217 33.9077 527.077 34.2486 526.881C34.598 526.685 34.7727 526.344 34.7727 525.858V525.756C34.7727 524.494 34.4276 523.514 33.7372 522.815C33.0554 522.116 32.0199 521.767 30.6307 521.767C29.1903 521.767 28.0611 522.082 27.2429 522.713C26.4247 523.344 25.8494 524.017 25.517 524.733L22.6534 523.71C23.1648 522.517 23.8466 521.588 24.6989 520.923C25.5597 520.25 26.4972 519.781 27.5114 519.517C28.5341 519.244 29.5398 519.108 30.5284 519.108C31.1591 519.108 31.8835 519.185 32.7017 519.338C33.5284 519.483 34.3253 519.786 35.0923 520.246C35.8679 520.706 36.5114 521.401 37.0227 522.33C37.5341 523.259 37.7898 524.503 37.7898 526.062V539H34.7727V536.341H34.6193C34.4148 536.767 34.0739 537.223 33.5966 537.709C33.1193 538.195 32.4844 538.608 31.6918 538.949C30.8991 539.29 29.9318 539.46 28.7898 539.46ZM29.25 536.75C30.4432 536.75 31.4489 536.516 32.267 536.047C33.0938 535.578 33.7159 534.973 34.1335 534.232C34.5597 533.49 34.7727 532.71 34.7727 531.892V529.131C34.6449 529.284 34.3636 529.425 33.929 529.553C33.5028 529.672 33.0085 529.778 32.446 529.872C31.892 529.957 31.3509 530.034 30.8224 530.102C30.3026 530.162 29.8807 530.213 29.5568 530.256C28.7727 530.358 28.0398 530.524 27.358 530.754C26.6847 530.976 26.1392 531.312 25.7216 531.764C25.3125 532.207 25.108 532.812 25.108 533.58C25.108 534.628 25.4957 535.42 26.2713 535.957C27.0554 536.486 28.0483 536.75 29.25 536.75ZM43.2965 539V519.364H46.2113V522.33H46.4158C46.7738 521.358 47.4215 520.57 48.359 519.964C49.2965 519.359 50.3533 519.057 51.5295 519.057C51.7511 519.057 52.0281 519.061 52.3604 519.07C52.6928 519.078 52.9442 519.091 53.1147 519.108V522.176C53.0124 522.151 52.7781 522.112 52.4116 522.061C52.0536 522.001 51.6744 521.972 51.2738 521.972C50.3192 521.972 49.467 522.172 48.717 522.572C47.9755 522.964 47.3874 523.51 46.9528 524.209C46.5266 524.899 46.3136 525.687 46.3136 526.574V539H43.2965ZM64.0195 546.773C62.5621 546.773 61.3093 546.585 60.261 546.21C59.2127 545.844 58.3391 545.358 57.6403 544.753C56.9499 544.156 56.4002 543.517 55.9911 542.835L58.3945 541.148C58.6673 541.506 59.0124 541.915 59.43 542.375C59.8477 542.844 60.4187 543.249 61.1431 543.589C61.8761 543.939 62.8349 544.114 64.0195 544.114C65.6048 544.114 66.913 543.73 67.9442 542.963C68.9755 542.196 69.4911 540.994 69.4911 539.358V535.369H69.2354C69.0139 535.727 68.6985 536.17 68.2894 536.699C67.8888 537.219 67.3093 537.683 66.5508 538.092C65.8008 538.493 64.7866 538.693 63.5082 538.693C61.9229 538.693 60.4996 538.318 59.2383 537.568C57.9854 536.818 56.9925 535.727 56.2596 534.295C55.5352 532.864 55.1729 531.125 55.1729 529.08C55.1729 527.068 55.5266 525.317 56.234 523.825C56.9414 522.325 57.9258 521.166 59.1871 520.348C60.4485 519.521 61.9059 519.108 63.5593 519.108C64.8377 519.108 65.8519 519.321 66.6019 519.747C67.3604 520.165 67.94 520.642 68.3406 521.179C68.7496 521.707 69.065 522.142 69.2866 522.483H69.5934V519.364H72.5082V539.562C72.5082 541.25 72.1246 542.622 71.3576 543.679C70.5991 544.744 69.5763 545.524 68.2894 546.018C67.011 546.521 65.5877 546.773 64.0195 546.773ZM63.9173 535.983C65.1275 535.983 66.1502 535.706 66.9854 535.152C67.8207 534.598 68.4556 533.801 68.8903 532.761C69.3249 531.722 69.5423 530.477 69.5423 529.028C69.5423 527.614 69.3292 526.365 68.9031 525.283C68.4769 524.2 67.8462 523.352 67.011 522.739C66.1758 522.125 65.1445 521.818 63.9173 521.818C62.6388 521.818 61.5735 522.142 60.7212 522.79C59.8775 523.437 59.2425 524.307 58.8164 525.398C58.3988 526.489 58.19 527.699 58.19 529.028C58.19 530.392 58.4031 531.598 58.8292 532.646C59.2638 533.686 59.9031 534.504 60.7468 535.101C61.5991 535.689 62.6559 535.983 63.9173 535.983ZM86.2639 539.409C84.3718 539.409 82.7397 538.991 81.3675 538.156C80.0039 537.312 78.9513 536.136 78.2099 534.628C77.4769 533.111 77.1104 531.347 77.1104 529.335C77.1104 527.324 77.4769 525.551 78.2099 524.017C78.9513 522.474 79.9826 521.273 81.3036 520.412C82.6332 519.543 84.1843 519.108 85.957 519.108C86.9798 519.108 87.9897 519.278 88.9869 519.619C89.984 519.96 90.8917 520.514 91.7099 521.281C92.5281 522.04 93.18 523.045 93.6658 524.298C94.1516 525.551 94.3945 527.094 94.3945 528.926V530.205H79.2582V527.597H91.3264C91.3264 526.489 91.1048 525.5 90.6616 524.631C90.2269 523.761 89.6048 523.075 88.7951 522.572C87.994 522.07 87.0479 521.818 85.957 521.818C84.7553 521.818 83.7156 522.116 82.8377 522.713C81.9684 523.301 81.2994 524.068 80.8306 525.014C80.3619 525.96 80.1275 526.974 80.1275 528.057V529.795C80.1275 531.278 80.3832 532.536 80.8945 533.567C81.4144 534.589 82.1346 535.369 83.055 535.906C83.9755 536.435 85.0451 536.699 86.2639 536.699C87.0565 536.699 87.7724 536.588 88.4116 536.366C89.0593 536.136 89.6175 535.795 90.0863 535.344C90.555 534.884 90.9173 534.312 91.1729 533.631L94.0877 534.449C93.7809 535.438 93.2653 536.307 92.5408 537.057C91.8164 537.798 90.9215 538.378 89.8562 538.795C88.7908 539.205 87.5934 539.409 86.2639 539.409ZM109.518 539V512.818H118.672C120.495 512.818 122 513.134 123.184 513.764C124.369 514.386 125.251 515.226 125.831 516.283C126.41 517.331 126.7 518.494 126.7 519.773C126.7 520.898 126.5 521.827 126.099 522.56C125.707 523.293 125.187 523.872 124.539 524.298C123.9 524.724 123.206 525.04 122.456 525.244V525.5C123.257 525.551 124.062 525.832 124.872 526.344C125.681 526.855 126.359 527.588 126.904 528.543C127.45 529.497 127.723 530.665 127.723 532.045C127.723 533.358 127.424 534.538 126.828 535.587C126.231 536.635 125.289 537.466 124.002 538.08C122.716 538.693 121.041 539 118.978 539H109.518ZM112.689 536.188H118.978C121.049 536.188 122.52 535.787 123.389 534.986C124.267 534.176 124.706 533.196 124.706 532.045C124.706 531.159 124.48 530.341 124.028 529.591C123.576 528.832 122.933 528.227 122.098 527.776C121.262 527.315 120.274 527.085 119.132 527.085H112.689V536.188ZM112.689 524.324H118.569C119.524 524.324 120.385 524.136 121.152 523.761C121.927 523.386 122.541 522.858 122.993 522.176C123.453 521.494 123.683 520.693 123.683 519.773C123.683 518.622 123.282 517.646 122.481 516.845C121.68 516.036 120.41 515.631 118.672 515.631H112.689V524.324ZM140.5 539.409C138.728 539.409 137.172 538.987 135.834 538.143C134.505 537.3 133.465 536.119 132.715 534.602C131.973 533.085 131.603 531.312 131.603 529.284C131.603 527.239 131.973 525.453 132.715 523.928C133.465 522.402 134.505 521.217 135.834 520.374C137.172 519.53 138.728 519.108 140.5 519.108C142.273 519.108 143.824 519.53 145.154 520.374C146.492 521.217 147.532 522.402 148.273 523.928C149.023 525.453 149.398 527.239 149.398 529.284C149.398 531.312 149.023 533.085 148.273 534.602C147.532 536.119 146.492 537.3 145.154 538.143C143.824 538.987 142.273 539.409 140.5 539.409ZM140.5 536.699C141.847 536.699 142.955 536.354 143.824 535.663C144.694 534.973 145.337 534.065 145.755 532.94C146.172 531.815 146.381 530.597 146.381 529.284C146.381 527.972 146.172 526.749 145.755 525.615C145.337 524.482 144.694 523.565 143.824 522.866C142.955 522.168 141.847 521.818 140.5 521.818C139.154 521.818 138.046 522.168 137.176 522.866C136.307 523.565 135.664 524.482 135.246 525.615C134.828 526.749 134.62 527.972 134.62 529.284C134.62 530.597 134.828 531.815 135.246 532.94C135.664 534.065 136.307 534.973 137.176 535.663C138.046 536.354 139.154 536.699 140.5 536.699ZM161.418 539.409C159.782 539.409 158.337 538.996 157.085 538.169C155.832 537.334 154.852 536.158 154.144 534.641C153.437 533.115 153.083 531.312 153.083 529.233C153.083 527.17 153.437 525.381 154.144 523.864C154.852 522.347 155.836 521.175 157.097 520.348C158.359 519.521 159.816 519.108 161.469 519.108C162.748 519.108 163.758 519.321 164.499 519.747C165.249 520.165 165.82 520.642 166.212 521.179C166.613 521.707 166.924 522.142 167.146 522.483H167.401V512.818H170.418V539H167.504V535.983H167.146C166.924 536.341 166.609 536.793 166.2 537.338C165.79 537.875 165.207 538.357 164.448 538.783C163.69 539.2 162.68 539.409 161.418 539.409ZM161.827 536.699C163.038 536.699 164.06 536.384 164.896 535.753C165.731 535.114 166.366 534.232 166.8 533.107C167.235 531.973 167.452 530.665 167.452 529.182C167.452 527.716 167.239 526.433 166.813 525.334C166.387 524.226 165.756 523.365 164.921 522.751C164.086 522.129 163.055 521.818 161.827 521.818C160.549 521.818 159.484 522.146 158.631 522.803C157.788 523.45 157.153 524.332 156.727 525.449C156.309 526.557 156.1 527.801 156.1 529.182C156.1 530.58 156.313 531.849 156.739 532.991C157.174 534.125 157.813 535.028 158.657 535.702C159.509 536.366 160.566 536.699 161.827 536.699ZM178.306 546.364C177.795 546.364 177.339 546.321 176.938 546.236C176.538 546.159 176.261 546.082 176.107 546.006L176.874 543.347C177.607 543.534 178.255 543.602 178.817 543.551C179.38 543.5 179.879 543.249 180.313 542.797C180.756 542.354 181.161 541.634 181.528 540.636L182.09 539.102L174.829 519.364H178.102L183.522 535.011H183.727L189.147 519.364H192.42L184.085 541.864C183.71 542.878 183.245 543.717 182.691 544.382C182.137 545.055 181.494 545.554 180.761 545.878C180.036 546.202 179.218 546.364 178.306 546.364ZM2.11364 568V550.545H8.21591C9.43182 550.545 10.4347 550.756 11.2244 551.176C12.0142 551.591 12.6023 552.151 12.9886 552.855C13.375 553.554 13.5682 554.33 13.5682 555.182C13.5682 555.932 13.4347 556.551 13.1676 557.04C12.9063 557.528 12.5597 557.915 12.1278 558.199C11.7017 558.483 11.2386 558.693 10.7386 558.83V559C11.2727 559.034 11.8097 559.222 12.3494 559.562C12.8892 559.903 13.3409 560.392 13.7045 561.028C14.0682 561.665 14.25 562.443 14.25 563.364C14.25 564.239 14.0511 565.026 13.6534 565.724C13.2557 566.423 12.6278 566.977 11.7699 567.386C10.9119 567.795 9.79545 568 8.42045 568H2.11364ZM4.22727 566.125H8.42045C9.80114 566.125 10.7813 565.858 11.3608 565.324C11.946 564.784 12.2386 564.131 12.2386 563.364C12.2386 562.773 12.0881 562.227 11.7869 561.727C11.4858 561.222 11.0568 560.818 10.5 560.517C9.94318 560.21 9.28409 560.057 8.52273 560.057H4.22727V566.125ZM4.22727 558.216H8.14773C8.78409 558.216 9.35795 558.091 9.86932 557.841C10.3864 557.591 10.7955 557.239 11.0966 556.784C11.4034 556.33 11.5568 555.795 11.5568 555.182C11.5568 554.415 11.2898 553.764 10.7557 553.23C10.2216 552.69 9.375 552.42 8.21591 552.42H4.22727V558.216ZM22.7685 568.273C21.5866 568.273 20.5497 567.991 19.6577 567.429C18.7713 566.866 18.0781 566.08 17.5781 565.068C17.0838 564.057 16.8366 562.875 16.8366 561.523C16.8366 560.159 17.0838 558.969 17.5781 557.952C18.0781 556.935 18.7713 556.145 19.6577 555.582C20.5497 555.02 21.5866 554.739 22.7685 554.739C23.9503 554.739 24.9844 555.02 25.8707 555.582C26.7628 556.145 27.456 556.935 27.9503 557.952C28.4503 558.969 28.7003 560.159 28.7003 561.523C28.7003 562.875 28.4503 564.057 27.9503 565.068C27.456 566.08 26.7628 566.866 25.8707 567.429C24.9844 567.991 23.9503 568.273 22.7685 568.273ZM22.7685 566.466C23.6662 566.466 24.4048 566.236 24.9844 565.776C25.5639 565.315 25.9929 564.71 26.2713 563.96C26.5497 563.21 26.6889 562.398 26.6889 561.523C26.6889 560.648 26.5497 559.832 26.2713 559.077C25.9929 558.321 25.5639 557.71 24.9844 557.244C24.4048 556.778 23.6662 556.545 22.7685 556.545C21.8707 556.545 21.1321 556.778 20.5526 557.244C19.973 557.71 19.544 558.321 19.2656 559.077C18.9872 559.832 18.848 560.648 18.848 561.523C18.848 562.398 18.9872 563.21 19.2656 563.96C19.544 564.71 19.973 565.315 20.5526 565.776C21.1321 566.236 21.8707 566.466 22.7685 566.466ZM36.7138 568.273C35.6229 568.273 34.6598 567.997 33.8246 567.446C32.9893 566.889 32.3359 566.105 31.8643 565.094C31.3928 564.077 31.157 562.875 31.157 561.489C31.157 560.114 31.3928 558.92 31.8643 557.909C32.3359 556.898 32.9922 556.116 33.8331 555.565C34.674 555.014 35.6456 554.739 36.7479 554.739C37.6001 554.739 38.2734 554.881 38.7678 555.165C39.2678 555.443 39.6484 555.761 39.9098 556.119C40.1768 556.472 40.3842 556.761 40.532 556.989H40.7024V550.545H42.7138V568H40.7706V565.989H40.532C40.3842 566.227 40.174 566.528 39.9013 566.892C39.6286 567.25 39.2393 567.571 38.7337 567.855C38.228 568.134 37.5547 568.273 36.7138 568.273ZM36.9865 566.466C37.7933 566.466 38.4751 566.256 39.032 565.835C39.5888 565.409 40.0121 564.821 40.3018 564.071C40.5916 563.315 40.7365 562.443 40.7365 561.455C40.7365 560.477 40.5945 559.622 40.3104 558.889C40.0263 558.151 39.6058 557.577 39.049 557.168C38.4922 556.753 37.8047 556.545 36.9865 556.545C36.1342 556.545 35.424 556.764 34.8558 557.202C34.2933 557.634 33.87 558.222 33.5859 558.966C33.3075 559.705 33.1683 560.534 33.1683 561.455C33.1683 562.386 33.3104 563.233 33.5945 563.994C33.8842 564.75 34.3104 565.352 34.8729 565.801C35.4411 566.244 36.1456 566.466 36.9865 566.466ZM47.9723 572.909C47.6314 572.909 47.3274 572.881 47.0604 572.824C46.7933 572.773 46.6087 572.722 46.5064 572.67L47.0178 570.898C47.5064 571.023 47.9382 571.068 48.3132 571.034C48.6882 571 49.0206 570.832 49.3104 570.531C49.6058 570.236 49.8757 569.756 50.12 569.091L50.495 568.068L45.6541 554.909H47.8359L51.4496 565.341H51.5859L55.1996 554.909H57.3814L51.8246 569.909C51.5746 570.585 51.2649 571.145 50.8956 571.588C50.5263 572.037 50.0973 572.369 49.6087 572.585C49.1257 572.801 48.5803 572.909 47.9723 572.909ZM9.42614 578H8.19318C8.12027 577.645 7.99266 577.334 7.81037 577.065C7.63139 576.797 7.41264 576.571 7.15412 576.389C6.89891 576.204 6.61553 576.064 6.30398 575.972C5.99242 575.879 5.66761 575.832 5.32955 575.832C4.71307 575.832 4.15459 575.988 3.65412 576.3C3.15696 576.611 2.76089 577.07 2.46591 577.677C2.17424 578.283 2.02841 579.027 2.02841 579.909C2.02841 580.791 2.17424 581.535 2.46591 582.141C2.76089 582.748 3.15696 583.207 3.65412 583.518C4.15459 583.83 4.71307 583.986 5.32955 583.986C5.66761 583.986 5.99242 583.939 6.30398 583.847C6.61553 583.754 6.89891 583.616 7.15412 583.434C7.41264 583.248 7.63139 583.021 7.81037 582.753C7.99266 582.481 8.12027 582.17 8.19318 581.818H9.42614C9.33333 582.339 9.1643 582.804 8.91903 583.215C8.67377 583.626 8.36885 583.976 8.00426 584.264C7.63968 584.549 7.23035 584.766 6.77628 584.915C6.32552 585.065 5.84328 585.139 5.32955 585.139C4.46117 585.139 3.68892 584.927 3.01278 584.503C2.33665 584.079 1.80469 583.475 1.4169 582.693C1.02912 581.911 0.835227 580.983 0.835227 579.909C0.835227 578.835 1.02912 577.907 1.4169 577.125C1.80469 576.343 2.33665 575.74 3.01278 575.315C3.68892 574.891 4.46117 574.679 5.32955 574.679C5.84328 574.679 6.32552 574.754 6.77628 574.903C7.23035 575.052 7.63968 575.271 8.00426 575.559C8.36885 575.844 8.67377 576.192 8.91903 576.603C9.1643 577.011 9.33333 577.476 9.42614 578ZM13.5066 585.179C13.0227 585.179 12.5835 585.088 12.1891 584.906C11.7947 584.72 11.4815 584.453 11.2495 584.105C11.0175 583.754 10.9015 583.33 10.9015 582.832C10.9015 582.395 10.9876 582.04 11.16 581.768C11.3323 581.493 11.5627 581.278 11.851 581.122C12.1394 580.966 12.4576 580.85 12.8056 580.774C13.1569 580.695 13.5099 580.632 13.8645 580.585C14.3285 580.526 14.7047 580.481 14.9931 580.451C15.2847 580.418 15.4969 580.363 15.6294 580.287C15.7653 580.211 15.8333 580.078 15.8333 579.889V579.849C15.8333 579.359 15.699 578.978 15.4306 578.706C15.1654 578.434 14.7627 578.298 14.2225 578.298C13.6623 578.298 13.2232 578.421 12.905 578.666C12.5868 578.911 12.3631 579.173 12.2338 579.452L11.1202 579.054C11.3191 578.59 11.5842 578.229 11.9157 577.97C12.2504 577.708 12.615 577.526 13.0094 577.423C13.4071 577.317 13.7982 577.264 14.1827 577.264C14.428 577.264 14.7097 577.294 15.0279 577.354C15.3494 577.41 15.6593 577.528 15.9576 577.707C16.2592 577.886 16.5094 578.156 16.7083 578.517C16.9071 578.878 17.0066 579.362 17.0066 579.969V585H15.8333V583.966H15.7736C15.6941 584.132 15.5615 584.309 15.3759 584.498C15.1903 584.687 14.9434 584.848 14.6351 584.98C14.3269 585.113 13.9507 585.179 13.5066 585.179ZM13.6855 584.125C14.1496 584.125 14.5407 584.034 14.8588 583.852C15.1803 583.669 15.4223 583.434 15.5847 583.146C15.7504 582.857 15.8333 582.554 15.8333 582.236V581.162C15.7836 581.222 15.6742 581.276 15.5051 581.326C15.3394 581.372 15.1472 581.414 14.9284 581.45C14.713 581.483 14.5025 581.513 14.2971 581.54C14.0949 581.563 13.9308 581.583 13.8049 581.599C13.4999 581.639 13.2149 581.704 12.9498 581.793C12.6879 581.879 12.4758 582.01 12.3134 582.186C12.1543 582.358 12.0748 582.594 12.0748 582.892C12.0748 583.3 12.2256 583.608 12.5272 583.817C12.8321 584.022 13.2182 584.125 13.6855 584.125ZM19.1481 587.864V577.364H20.2816V578.577H20.4208C20.507 578.444 20.6263 578.275 20.7788 578.07C20.9345 577.861 21.1566 577.675 21.445 577.513C21.7366 577.347 22.131 577.264 22.6282 577.264C23.2712 577.264 23.838 577.425 24.3285 577.746C24.819 578.068 25.2018 578.524 25.4769 579.114C25.752 579.704 25.8896 580.4 25.8896 581.202C25.8896 582.01 25.752 582.711 25.4769 583.305C25.2018 583.895 24.8207 584.352 24.3335 584.677C23.8462 584.998 23.2844 585.159 22.6481 585.159C22.1576 585.159 21.7648 585.078 21.4698 584.915C21.1748 584.75 20.9478 584.562 20.7887 584.354C20.6296 584.142 20.507 583.966 20.4208 583.827H20.3214V587.864H19.1481ZM20.3015 581.182C20.3015 581.759 20.386 582.267 20.555 582.708C20.7241 583.146 20.971 583.489 21.2958 583.737C21.6206 583.982 22.0183 584.105 22.489 584.105C22.9795 584.105 23.3888 583.976 23.717 583.717C24.0484 583.455 24.297 583.104 24.4627 582.663C24.6317 582.219 24.7163 581.725 24.7163 581.182C24.7163 580.645 24.6334 580.161 24.4677 579.73C24.3053 579.296 24.0584 578.953 23.7269 578.701C23.3988 578.446 22.9862 578.318 22.489 578.318C22.0117 578.318 21.6107 578.439 21.2859 578.681C20.9611 578.92 20.7158 579.254 20.5501 579.685C20.3844 580.113 20.3015 580.612 20.3015 581.182ZM31.0004 577.364V578.358H27.043V577.364H31.0004ZM28.1964 575.534H29.3697V582.812C29.3697 583.144 29.4177 583.393 29.5138 583.558C29.6133 583.721 29.7392 583.83 29.8917 583.886C30.0475 583.939 30.2115 583.966 30.3839 583.966C30.5131 583.966 30.6192 583.959 30.7021 583.946C30.7849 583.929 30.8512 583.916 30.9009 583.906L31.1396 584.96C31.06 584.99 30.949 585.02 30.8065 585.05C30.6639 585.083 30.4833 585.099 30.2646 585.099C29.9331 585.099 29.6083 585.028 29.2901 584.886C28.9753 584.743 28.7134 584.526 28.5046 584.234C28.2991 583.943 28.1964 583.575 28.1964 583.131V575.534ZM32.7653 585V577.364H33.9386V585H32.7653ZM33.3619 576.091C33.1332 576.091 32.936 576.013 32.7702 575.857C32.6078 575.701 32.5266 575.514 32.5266 575.295C32.5266 575.077 32.6078 574.889 32.7702 574.734C32.936 574.578 33.1332 574.5 33.3619 574.5C33.5906 574.5 33.7861 574.578 33.9485 574.734C34.1142 574.889 34.1971 575.077 34.1971 575.295C34.1971 575.514 34.1142 575.701 33.9485 575.857C33.7861 576.013 33.5906 576.091 33.3619 576.091ZM39.1898 585.159C38.5004 585.159 37.8955 584.995 37.3752 584.667C36.8581 584.339 36.4538 583.88 36.1621 583.29C35.8738 582.7 35.7296 582.01 35.7296 581.222C35.7296 580.426 35.8738 579.732 36.1621 579.138C36.4538 578.545 36.8581 578.085 37.3752 577.756C37.8955 577.428 38.5004 577.264 39.1898 577.264C39.8792 577.264 40.4824 577.428 40.9995 577.756C41.5198 578.085 41.9242 578.545 42.2125 579.138C42.5042 579.732 42.65 580.426 42.65 581.222C42.65 582.01 42.5042 582.7 42.2125 583.29C41.9242 583.88 41.5198 584.339 40.9995 584.667C40.4824 584.995 39.8792 585.159 39.1898 585.159ZM39.1898 584.105C39.7135 584.105 40.1444 583.971 40.4824 583.702C40.8205 583.434 41.0707 583.081 41.2331 582.643C41.3955 582.206 41.4767 581.732 41.4767 581.222C41.4767 580.711 41.3955 580.236 41.2331 579.795C41.0707 579.354 40.8205 578.998 40.4824 578.726C40.1444 578.454 39.7135 578.318 39.1898 578.318C38.6661 578.318 38.2353 578.454 37.8972 578.726C37.5591 578.998 37.3089 579.354 37.1465 579.795C36.9841 580.236 36.9029 580.711 36.9029 581.222C36.9029 581.732 36.9841 582.206 37.1465 582.643C37.3089 583.081 37.5591 583.434 37.8972 583.702C38.2353 583.971 38.6661 584.105 39.1898 584.105ZM45.6143 580.406V585H44.4411V577.364H45.5746V578.557H45.674C45.853 578.169 46.1248 577.857 46.4893 577.622C46.8539 577.384 47.3246 577.264 47.9013 577.264C48.4183 577.264 48.8707 577.37 49.2585 577.582C49.6463 577.791 49.9479 578.109 50.1634 578.537C50.3788 578.961 50.4865 579.498 50.4865 580.148V585H49.3132V580.227C49.3132 579.627 49.1574 579.16 48.8459 578.825C48.5343 578.487 48.1068 578.318 47.5632 578.318C47.1887 578.318 46.8539 578.399 46.5589 578.562C46.2673 578.724 46.0369 578.961 45.8679 579.273C45.6989 579.584 45.6143 579.962 45.6143 580.406Z" fill="black"/>
<path d="M13.0227 15.4545V62H4.59091V15.4545H13.0227ZM30.017 41.5455V62H21.7898V27.0909H29.6534V33.0227H30.0625C30.8655 31.0682 32.1458 29.5152 33.9034 28.3636C35.6761 27.2121 37.8655 26.6364 40.4716 26.6364C42.8807 26.6364 44.9792 27.1515 46.767 28.1818C48.5701 29.2121 49.964 30.7045 50.9489 32.6591C51.9489 34.6136 52.4413 36.9848 52.4261 39.7727V62H44.1989V41.0455C44.1989 38.7121 43.5928 36.8864 42.3807 35.5682C41.1837 34.25 39.5246 33.5909 37.4034 33.5909C35.964 33.5909 34.6837 33.9091 33.5625 34.5455C32.4564 35.1667 31.5852 36.0682 30.9489 37.25C30.3277 38.4318 30.017 39.8636 30.017 41.5455ZM78.2216 27.0909V33.4545H58.1534V27.0909H78.2216ZM63.108 18.7273H71.3352V51.5C71.3352 52.6061 71.5019 53.4545 71.8352 54.0455C72.1837 54.6212 72.6383 55.0152 73.1989 55.2273C73.7595 55.4394 74.3807 55.5455 75.0625 55.5455C75.5777 55.5455 76.0473 55.5076 76.4716 55.4318C76.911 55.3561 77.2443 55.2879 77.4716 55.2273L78.858 61.6591C78.4186 61.8106 77.7898 61.9773 76.9716 62.1591C76.1686 62.3409 75.1837 62.447 74.017 62.4773C71.9564 62.5379 70.1004 62.2273 68.4489 61.5455C66.7973 60.8485 65.4867 59.7727 64.517 58.3182C63.5625 56.8636 63.0928 55.0455 63.108 52.8636V18.7273ZM100.182 62.6818C96.6818 62.6818 93.6591 61.9545 91.1136 60.5C88.5833 59.0303 86.6364 56.9545 85.2727 54.2727C83.9091 51.5758 83.2273 48.4015 83.2273 44.75C83.2273 41.1591 83.9091 38.0076 85.2727 35.2955C86.6515 32.5682 88.5758 30.447 91.0455 28.9318C93.5152 27.4015 96.4167 26.6364 99.75 26.6364C101.902 26.6364 103.932 26.9848 105.841 27.6818C107.765 28.3636 109.462 29.4242 110.932 30.8636C112.417 32.303 113.583 34.1364 114.432 36.3636C115.28 38.5758 115.705 41.2121 115.705 44.2727V46.7955H87.0909V41.25H107.818C107.803 39.6742 107.462 38.2727 106.795 37.0455C106.129 35.803 105.197 34.8258 104 34.1136C102.818 33.4015 101.439 33.0455 99.8636 33.0455C98.1818 33.0455 96.7045 33.4545 95.4318 34.2727C94.1591 35.0758 93.1667 36.1364 92.4545 37.4545C91.7576 38.7576 91.4015 40.1894 91.3864 41.75V46.5909C91.3864 48.6212 91.7576 50.3636 92.5 51.8182C93.2424 53.2576 94.2803 54.3636 95.6136 55.1364C96.947 55.8939 98.5076 56.2727 100.295 56.2727C101.492 56.2727 102.576 56.1061 103.545 55.7727C104.515 55.4242 105.356 54.9167 106.068 54.25C106.78 53.5833 107.318 52.7576 107.682 51.7727L115.364 52.6364C114.879 54.6667 113.955 56.4394 112.591 57.9545C111.242 59.4545 109.515 60.6212 107.409 61.4545C105.303 62.2727 102.894 62.6818 100.182 62.6818ZM122.665 62V27.0909H130.642V32.9091H131.006C131.642 30.8939 132.733 29.3409 134.278 28.25C135.839 27.1439 137.619 26.5909 139.619 26.5909C140.074 26.5909 140.581 26.6136 141.142 26.6591C141.718 26.6894 142.195 26.7424 142.574 26.8182V34.3864C142.225 34.2652 141.672 34.1591 140.915 34.0682C140.172 33.9621 139.453 33.9091 138.756 33.9091C137.256 33.9091 135.907 34.2348 134.71 34.8864C133.528 35.5227 132.597 36.4091 131.915 37.5455C131.233 38.6818 130.892 39.9924 130.892 41.4773V62H122.665Z" fill="black"/>
<path d="M0 74.7273H143.824V79.0909H0V74.7273Z" fill="black"/>
</svg>
