<svg width="1898" height="721" viewBox="0 0 1898 721" fill="none" xmlns="http://www.w3.org/2000/svg">
<g filter="url(#filter0_dd_972_2874)">
<rect x="20" y="19" width="1858" height="682" rx="5" fill="#F8F8F8" fill-opacity="0.01" shape-rendering="crispEdges"/>
</g>
<g filter="url(#filter1_b_972_2874)">
<rect x="20" y="19" width="1858" height="682" rx="5" fill="#F8F8F8" fill-opacity="0.9"/>
</g>
<line x1="47.5" y1="699.5" x2="1844.5" y2="699.5" stroke="black" stroke-width="3" stroke-linecap="round"/>
<line x1="947.5" y1="699.5" x2="1844.5" y2="699.5" stroke="#0067C7" stroke-width="3" stroke-linecap="round"/>
<rect x="354.5" y="70.5" width="804" height="39" rx="3.5" fill="white"/>
<path d="M370.801 87.8636C370.741 87.3598 370.5 86.9688 370.075 86.6903C369.651 86.4119 369.131 86.2727 368.514 86.2727C368.063 86.2727 367.669 86.3456 367.331 86.4915C366.996 86.6373 366.734 86.8378 366.545 87.093C366.36 87.3482 366.267 87.6383 366.267 87.9631C366.267 88.2348 366.332 88.4685 366.461 88.6641C366.594 88.8563 366.763 89.017 366.968 89.1463C367.174 89.2723 367.389 89.3767 367.614 89.4595C367.84 89.5391 368.047 89.6037 368.236 89.6534L369.27 89.9318C369.535 90.0014 369.83 90.0975 370.155 90.2202C370.483 90.3428 370.796 90.5102 371.094 90.7223C371.396 90.9311 371.645 91.1996 371.84 91.5277C372.036 91.8558 372.134 92.2585 372.134 92.7358C372.134 93.286 371.989 93.7831 371.701 94.2273C371.416 94.6714 370.998 95.0244 370.448 95.2862C369.901 95.5481 369.237 95.679 368.455 95.679C367.725 95.679 367.094 95.5613 366.56 95.326C366.03 95.0907 365.612 94.7625 365.308 94.3416C365.006 93.9207 364.835 93.4318 364.795 92.875H366.068C366.101 93.2595 366.231 93.5777 366.456 93.8295C366.685 94.0781 366.973 94.2637 367.321 94.3864C367.672 94.5057 368.05 94.5653 368.455 94.5653C368.925 94.5653 369.348 94.4891 369.722 94.3366C370.097 94.1809 370.393 93.9654 370.612 93.6903C370.831 93.4119 370.94 93.0871 370.94 92.7159C370.94 92.3778 370.846 92.1027 370.657 91.8906C370.468 91.6785 370.219 91.5062 369.911 91.3736C369.603 91.241 369.27 91.125 368.912 91.0256L367.659 90.6676C366.864 90.4389 366.234 90.1125 365.77 89.6882C365.306 89.264 365.074 88.7088 365.074 88.0227C365.074 87.4527 365.228 86.9555 365.536 86.5312C365.848 86.1037 366.265 85.7723 366.789 85.5369C367.316 85.2983 367.904 85.179 368.554 85.179C369.21 85.179 369.794 85.2966 370.304 85.532C370.814 85.764 371.219 86.0821 371.517 86.4865C371.819 86.8909 371.978 87.3499 371.994 87.8636H370.801ZM377.203 95.6591C376.468 95.6591 375.833 95.4967 375.299 95.1719C374.769 94.8438 374.36 94.3864 374.071 93.7997C373.786 93.2098 373.644 92.5237 373.644 91.7415C373.644 90.9593 373.786 90.2699 374.071 89.6733C374.36 89.0734 374.761 88.6061 375.274 88.2713C375.791 87.9332 376.395 87.7642 377.084 87.7642C377.482 87.7642 377.874 87.8305 378.262 87.9631C378.65 88.0956 379.003 88.3111 379.321 88.6094C379.639 88.9044 379.893 89.2955 380.082 89.7827C380.271 90.2699 380.365 90.8698 380.365 91.5824V92.0795H374.479V91.0653H379.172C379.172 90.6345 379.086 90.25 378.914 89.9119C378.744 89.5739 378.503 89.3071 378.188 89.1115C377.876 88.916 377.508 88.8182 377.084 88.8182C376.617 88.8182 376.212 88.9342 375.871 89.1662C375.533 89.3949 375.273 89.6932 375.09 90.0611C374.908 90.429 374.817 90.8234 374.817 91.2443V91.9205C374.817 92.4972 374.916 92.986 375.115 93.3871C375.317 93.7848 375.597 94.0881 375.955 94.2969C376.313 94.5024 376.729 94.6051 377.203 94.6051C377.512 94.6051 377.79 94.562 378.039 94.4759C378.29 94.3864 378.508 94.2538 378.69 94.0781C378.872 93.8991 379.013 93.6771 379.112 93.4119L380.246 93.7301C380.127 94.1146 379.926 94.4527 379.644 94.7443C379.363 95.0327 379.015 95.258 378.6 95.4205C378.186 95.5795 377.72 95.6591 377.203 95.6591ZM384.397 95.679C383.913 95.679 383.474 95.5878 383.08 95.4055C382.685 95.2199 382.372 94.9531 382.14 94.6051C381.908 94.2538 381.792 93.8295 381.792 93.3324C381.792 92.8949 381.878 92.5402 382.051 92.2685C382.223 91.9934 382.453 91.7779 382.742 91.6222C383.03 91.4664 383.348 91.3504 383.696 91.2741C384.048 91.1946 384.401 91.1316 384.755 91.0852C385.219 91.0256 385.595 90.9808 385.884 90.951C386.175 90.9179 386.387 90.8632 386.52 90.7869C386.656 90.7107 386.724 90.5781 386.724 90.3892V90.3494C386.724 89.8589 386.59 89.4777 386.321 89.206C386.056 88.9342 385.653 88.7983 385.113 88.7983C384.553 88.7983 384.114 88.9209 383.796 89.1662C383.477 89.4115 383.254 89.6733 383.124 89.9517L382.011 89.554C382.21 89.09 382.475 88.7287 382.806 88.4702C383.141 88.2083 383.506 88.026 383.9 87.9233C384.298 87.8172 384.689 87.7642 385.073 87.7642C385.319 87.7642 385.6 87.794 385.919 87.8537C386.24 87.91 386.55 88.0277 386.848 88.2067C387.15 88.3857 387.4 88.6558 387.599 89.017C387.798 89.3783 387.897 89.8622 387.897 90.4688V95.5H386.724V94.4659H386.664C386.585 94.6316 386.452 94.8089 386.267 94.9979C386.081 95.1868 385.834 95.3475 385.526 95.4801C385.218 95.6127 384.841 95.679 384.397 95.679ZM384.576 94.625C385.04 94.625 385.431 94.5339 385.749 94.3516C386.071 94.1693 386.313 93.9339 386.475 93.6456C386.641 93.3572 386.724 93.054 386.724 92.7358V91.6619C386.674 91.7216 386.565 91.7763 386.396 91.826C386.23 91.8724 386.038 91.9138 385.819 91.9503C385.604 91.9834 385.393 92.0133 385.188 92.0398C384.985 92.063 384.821 92.0829 384.695 92.0994C384.391 92.1392 384.106 92.2038 383.84 92.2933C383.579 92.3795 383.366 92.5104 383.204 92.6861C383.045 92.8584 382.965 93.0937 382.965 93.392C382.965 93.7997 383.116 94.108 383.418 94.3168C383.723 94.5223 384.109 94.625 384.576 94.625ZM390.039 95.5V87.8636H391.172V89.017H391.252C391.391 88.6392 391.643 88.3326 392.007 88.0973C392.372 87.862 392.783 87.7443 393.24 87.7443C393.327 87.7443 393.434 87.746 393.564 87.7493C393.693 87.7526 393.791 87.7576 393.857 87.7642V88.9574C393.817 88.9474 393.726 88.9325 393.583 88.9126C393.444 88.8894 393.297 88.8778 393.141 88.8778C392.77 88.8778 392.438 88.9557 392.147 89.1115C391.858 89.264 391.63 89.4761 391.461 89.7479C391.295 90.0163 391.212 90.3229 391.212 90.6676V95.5H390.039ZM398.118 95.6591C397.402 95.6591 396.785 95.4901 396.268 95.152C395.751 94.8139 395.353 94.3482 395.075 93.755C394.797 93.1617 394.657 92.4839 394.657 91.7216C394.657 90.946 394.8 90.2616 395.085 89.6683C395.373 89.0717 395.774 88.6061 396.288 88.2713C396.805 87.9332 397.408 87.7642 398.098 87.7642C398.635 87.7642 399.118 87.8636 399.549 88.0625C399.98 88.2614 400.333 88.5398 400.608 88.8977C400.883 89.2557 401.054 89.6733 401.12 90.1506H399.947C399.858 89.8026 399.659 89.4943 399.35 89.2259C399.046 88.9541 398.635 88.8182 398.118 88.8182C397.66 88.8182 397.259 88.9375 396.914 89.1761C396.573 89.4115 396.306 89.7446 396.114 90.1754C395.925 90.603 395.831 91.1051 395.831 91.6818C395.831 92.2718 395.923 92.7855 396.109 93.223C396.298 93.6605 396.563 94.0002 396.904 94.2422C397.249 94.4841 397.654 94.6051 398.118 94.6051C398.422 94.6051 398.699 94.5521 398.948 94.446C399.196 94.34 399.407 94.1875 399.579 93.9886C399.752 93.7898 399.874 93.5511 399.947 93.2727H401.12C401.054 93.7235 400.89 94.1295 400.628 94.4908C400.37 94.8487 400.027 95.1338 399.599 95.3459C399.175 95.5547 398.681 95.6591 398.118 95.6591ZM404.009 90.9062V95.5H402.836V85.3182H404.009V89.0568H404.108C404.287 88.6624 404.556 88.3492 404.914 88.1172C405.275 87.8819 405.756 87.7642 406.355 87.7642C406.876 87.7642 407.332 87.8686 407.723 88.0774C408.114 88.2829 408.417 88.5994 408.632 89.027C408.851 89.4512 408.961 89.9915 408.961 90.6477V95.5H407.787V90.7273C407.787 90.1207 407.63 89.6518 407.315 89.3203C407.003 88.9856 406.571 88.8182 406.017 88.8182C405.633 88.8182 405.288 88.8994 404.983 89.0618C404.682 89.2242 404.443 89.4612 404.267 89.7727C404.095 90.0843 404.009 90.4621 404.009 90.9062ZM417.292 95.679C416.808 95.679 416.369 95.5878 415.974 95.4055C415.58 95.2199 415.267 94.9531 415.035 94.6051C414.803 94.2538 414.687 93.8295 414.687 93.3324C414.687 92.8949 414.773 92.5402 414.945 92.2685C415.117 91.9934 415.348 91.7779 415.636 91.6222C415.925 91.4664 416.243 91.3504 416.591 91.2741C416.942 91.1946 417.295 91.1316 417.65 91.0852C418.114 91.0256 418.49 90.9808 418.778 90.951C419.07 90.9179 419.282 90.8632 419.415 90.7869C419.55 90.7107 419.618 90.5781 419.618 90.3892V90.3494C419.618 89.8589 419.484 89.4777 419.216 89.206C418.951 88.9342 418.548 88.7983 418.008 88.7983C417.448 88.7983 417.008 88.9209 416.69 89.1662C416.372 89.4115 416.148 89.6733 416.019 89.9517L414.905 89.554C415.104 89.09 415.369 88.7287 415.701 88.4702C416.036 88.2083 416.4 88.026 416.795 87.9233C417.192 87.8172 417.583 87.7642 417.968 87.7642C418.213 87.7642 418.495 87.794 418.813 87.8537C419.135 87.91 419.444 88.0277 419.743 88.2067C420.044 88.3857 420.295 88.6558 420.493 89.017C420.692 89.3783 420.792 89.8622 420.792 90.4688V95.5H419.618V94.4659H419.559C419.479 94.6316 419.347 94.8089 419.161 94.9979C418.975 95.1868 418.729 95.3475 418.42 95.4801C418.112 95.6127 417.736 95.679 417.292 95.679ZM417.471 94.625C417.935 94.625 418.326 94.5339 418.644 94.3516C418.965 94.1693 419.207 93.9339 419.37 93.6456C419.536 93.3572 419.618 93.054 419.618 92.7358V91.6619C419.569 91.7216 419.459 91.7763 419.29 91.826C419.125 91.8724 418.932 91.9138 418.714 91.9503C418.498 91.9834 418.288 92.0133 418.082 92.0398C417.88 92.063 417.716 92.0829 417.59 92.0994C417.285 92.1392 417 92.2038 416.735 92.2933C416.473 92.3795 416.261 92.5104 416.099 92.6861C415.939 92.8584 415.86 93.0937 415.86 93.392C415.86 93.7997 416.011 94.108 416.312 94.3168C416.617 94.5223 417.003 94.625 417.471 94.625ZM422.933 98.3636V87.8636H424.067V89.0767H424.206C424.292 88.9441 424.411 88.7751 424.564 88.5696C424.72 88.3608 424.942 88.1752 425.23 88.0128C425.522 87.8471 425.916 87.7642 426.413 87.7642C427.056 87.7642 427.623 87.925 428.114 88.2464C428.604 88.5679 428.987 89.0237 429.262 89.6136C429.537 90.2036 429.675 90.8996 429.675 91.7017C429.675 92.5104 429.537 93.2114 429.262 93.8047C428.987 94.3946 428.606 94.852 428.119 95.1768C427.631 95.4983 427.07 95.6591 426.433 95.6591C425.943 95.6591 425.55 95.5779 425.255 95.4155C424.96 95.2498 424.733 95.0625 424.574 94.8537C424.415 94.6416 424.292 94.4659 424.206 94.3267H424.107V98.3636H422.933ZM424.087 91.6818C424.087 92.2585 424.171 92.7673 424.34 93.2081C424.509 93.6456 424.756 93.9886 425.081 94.2372C425.406 94.4825 425.804 94.6051 426.274 94.6051C426.765 94.6051 427.174 94.4759 427.502 94.2173C427.834 93.9555 428.082 93.6042 428.248 93.1634C428.417 92.7192 428.501 92.2254 428.501 91.6818C428.501 91.1449 428.419 90.661 428.253 90.2301C428.09 89.7959 427.844 89.4529 427.512 89.201C427.184 88.9458 426.771 88.8182 426.274 88.8182C425.797 88.8182 425.396 88.9392 425.071 89.1811C424.746 89.4197 424.501 89.7545 424.335 90.1854C424.17 90.6129 424.087 91.1117 424.087 91.6818ZM431.464 98.3636V87.8636H432.598V89.0767H432.737C432.823 88.9441 432.943 88.7751 433.095 88.5696C433.251 88.3608 433.473 88.1752 433.761 88.0128C434.053 87.8471 434.447 87.7642 434.945 87.7642C435.588 87.7642 436.154 87.925 436.645 88.2464C437.135 88.5679 437.518 89.0237 437.793 89.6136C438.068 90.2036 438.206 90.8996 438.206 91.7017C438.206 92.5104 438.068 93.2114 437.793 93.8047C437.518 94.3946 437.137 94.852 436.65 95.1768C436.163 95.4983 435.601 95.6591 434.964 95.6591C434.474 95.6591 434.081 95.5779 433.786 95.4155C433.491 95.2498 433.264 95.0625 433.105 94.8537C432.946 94.6416 432.823 94.4659 432.737 94.3267H432.638V98.3636H431.464ZM432.618 91.6818C432.618 92.2585 432.702 92.7673 432.871 93.2081C433.04 93.6456 433.287 93.9886 433.612 94.2372C433.937 94.4825 434.335 94.6051 434.805 94.6051C435.296 94.6051 435.705 94.4759 436.033 94.2173C436.365 93.9555 436.613 93.6042 436.779 93.1634C436.948 92.7192 437.033 92.2254 437.033 91.6818C437.033 91.1449 436.95 90.661 436.784 90.2301C436.622 89.7959 436.375 89.4529 436.043 89.201C435.715 88.9458 435.303 88.8182 434.805 88.8182C434.328 88.8182 433.927 88.9392 433.602 89.1811C433.277 89.4197 433.032 89.7545 432.866 90.1854C432.701 90.6129 432.618 91.1117 432.618 91.6818ZM445.405 89.5739L444.351 89.8722C444.285 89.6965 444.187 89.5258 444.058 89.3601C443.932 89.1911 443.759 89.0518 443.54 88.9425C443.322 88.8331 443.042 88.7784 442.7 88.7784C442.233 88.7784 441.844 88.8861 441.532 89.1016C441.224 89.3137 441.07 89.5838 441.07 89.9119C441.07 90.2036 441.176 90.4339 441.388 90.603C441.6 90.772 441.931 90.9129 442.382 91.0256L443.516 91.304C444.198 91.4697 444.707 91.7232 445.042 92.0646C445.377 92.4027 445.544 92.8385 445.544 93.3722C445.544 93.8097 445.418 94.2008 445.166 94.5455C444.918 94.8902 444.57 95.1619 444.122 95.3608C443.675 95.5597 443.154 95.6591 442.561 95.6591C441.782 95.6591 441.138 95.4901 440.627 95.152C440.117 94.8139 439.794 94.3201 439.658 93.6705L440.771 93.392C440.877 93.803 441.078 94.1113 441.373 94.3168C441.671 94.5223 442.061 94.625 442.541 94.625C443.088 94.625 443.522 94.509 443.844 94.277C444.169 94.0417 444.331 93.7599 444.331 93.4318C444.331 93.1667 444.238 92.9446 444.053 92.7656C443.867 92.5833 443.582 92.4474 443.197 92.358L441.925 92.0597C441.225 91.8939 440.712 91.6371 440.384 91.2891C440.059 90.9377 439.896 90.4986 439.896 89.9716C439.896 89.5407 440.017 89.1596 440.259 88.8281C440.504 88.4967 440.838 88.2365 441.259 88.0476C441.683 87.8587 442.163 87.7642 442.7 87.7642C443.456 87.7642 444.049 87.9299 444.48 88.2614C444.914 88.5928 445.223 89.0303 445.405 89.5739ZM449.06 94.108L448.981 94.6449C448.924 95.0227 448.838 95.4271 448.722 95.858C448.609 96.2888 448.492 96.6948 448.369 97.076C448.247 97.4571 448.145 97.7604 448.066 97.9858H447.171C447.214 97.7737 447.27 97.4936 447.34 97.1456C447.41 96.7976 447.479 96.4081 447.549 95.9773C447.622 95.5497 447.681 95.1122 447.728 94.6648L447.787 94.108H449.06ZM458.572 87.8636V88.858H454.456V87.8636H458.572ZM455.689 95.5V86.8097C455.689 86.3722 455.791 86.0076 455.997 85.7159C456.202 85.4242 456.469 85.2055 456.797 85.0597C457.125 84.9138 457.472 84.8409 457.836 84.8409C458.125 84.8409 458.36 84.8641 458.542 84.9105C458.725 84.9569 458.86 85 458.95 85.0398L458.612 86.054C458.552 86.0341 458.469 86.0092 458.363 85.9794C458.261 85.9496 458.125 85.9347 457.956 85.9347C457.568 85.9347 457.288 86.0324 457.115 86.228C456.946 86.4235 456.862 86.7102 456.862 87.0881V95.5H455.689ZM460.216 95.5V87.8636H461.39V95.5H460.216ZM460.813 86.5909C460.584 86.5909 460.387 86.513 460.221 86.3572C460.059 86.2015 459.978 86.0142 459.978 85.7955C459.978 85.5767 460.059 85.3894 460.221 85.2337C460.387 85.0779 460.584 85 460.813 85C461.042 85 461.237 85.0779 461.4 85.2337C461.565 85.3894 461.648 85.5767 461.648 85.7955C461.648 86.0142 461.565 86.2015 461.4 86.3572C461.237 86.513 461.042 86.5909 460.813 86.5909ZM464.712 85.3182V95.5H463.539V85.3182H464.712ZM470.063 95.6591C469.327 95.6591 468.692 95.4967 468.159 95.1719C467.628 94.8438 467.219 94.3864 466.931 93.7997C466.646 93.2098 466.503 92.5237 466.503 91.7415C466.503 90.9593 466.646 90.2699 466.931 89.6733C467.219 89.0734 467.62 88.6061 468.134 88.2713C468.651 87.9332 469.254 87.7642 469.943 87.7642C470.341 87.7642 470.734 87.8305 471.122 87.9631C471.509 88.0956 471.862 88.3111 472.181 88.6094C472.499 88.9044 472.752 89.2955 472.941 89.7827C473.13 90.2699 473.225 90.8698 473.225 91.5824V92.0795H467.338V91.0653H472.031C472.031 90.6345 471.945 90.25 471.773 89.9119C471.604 89.5739 471.362 89.3071 471.047 89.1115C470.735 88.916 470.368 88.8182 469.943 88.8182C469.476 88.8182 469.072 88.9342 468.73 89.1662C468.392 89.3949 468.132 89.6932 467.95 90.0611C467.767 90.429 467.676 90.8234 467.676 91.2443V91.9205C467.676 92.4972 467.776 92.986 467.975 93.3871C468.177 93.7848 468.457 94.0881 468.815 94.2969C469.173 94.5024 469.589 94.6051 470.063 94.6051C470.371 94.6051 470.649 94.562 470.898 94.4759C471.15 94.3864 471.367 94.2538 471.549 94.0781C471.731 93.8991 471.872 93.6771 471.972 93.4119L473.105 93.7301C472.986 94.1146 472.785 94.4527 472.504 94.7443C472.222 95.0327 471.874 95.258 471.46 95.4205C471.045 95.5795 470.58 95.6591 470.063 95.6591ZM480.419 89.5739L479.365 89.8722C479.298 89.6965 479.2 89.5258 479.071 89.3601C478.945 89.1911 478.773 89.0518 478.554 88.9425C478.335 88.8331 478.055 88.7784 477.714 88.7784C477.247 88.7784 476.857 88.8861 476.546 89.1016C476.237 89.3137 476.083 89.5838 476.083 89.9119C476.083 90.2036 476.189 90.4339 476.401 90.603C476.614 90.772 476.945 90.9129 477.396 91.0256L478.529 91.304C479.212 91.4697 479.721 91.7232 480.056 92.0646C480.39 92.4027 480.558 92.8385 480.558 93.3722C480.558 93.8097 480.432 94.2008 480.18 94.5455C479.931 94.8902 479.583 95.1619 479.136 95.3608C478.688 95.5597 478.168 95.6591 477.575 95.6591C476.796 95.6591 476.151 95.4901 475.641 95.152C475.13 94.8139 474.807 94.3201 474.671 93.6705L475.785 93.392C475.891 93.803 476.092 94.1113 476.387 94.3168C476.685 94.5223 477.074 94.625 477.555 94.625C478.102 94.625 478.536 94.509 478.857 94.277C479.182 94.0417 479.345 93.7599 479.345 93.4318C479.345 93.1667 479.252 92.9446 479.066 92.7656C478.881 92.5833 478.596 92.4474 478.211 92.358L476.938 92.0597C476.239 91.8939 475.725 91.6371 475.397 91.2891C475.072 90.9377 474.91 90.4986 474.91 89.9716C474.91 89.5407 475.031 89.1596 475.273 88.8281C475.518 88.4967 475.851 88.2365 476.272 88.0476C476.696 87.8587 477.177 87.7642 477.714 87.7642C478.47 87.7642 479.063 87.9299 479.494 88.2614C479.928 88.5928 480.236 89.0303 480.419 89.5739ZM484.074 94.108L483.994 94.6449C483.938 95.0227 483.852 95.4271 483.736 95.858C483.623 96.2888 483.505 96.6948 483.383 97.076C483.26 97.4571 483.159 97.7604 483.08 97.9858H482.185C482.228 97.7737 482.284 97.4936 482.354 97.1456C482.423 96.7976 482.493 96.4081 482.562 95.9773C482.635 95.5497 482.695 95.1122 482.741 94.6648L482.801 94.108H484.074ZM493.506 87.8636V88.858H489.549V87.8636H493.506ZM490.702 86.0341H491.876V93.3125C491.876 93.6439 491.924 93.8925 492.02 94.0582C492.119 94.2206 492.245 94.33 492.398 94.3864C492.553 94.4394 492.717 94.4659 492.89 94.4659C493.019 94.4659 493.125 94.4593 493.208 94.446C493.291 94.4295 493.357 94.4162 493.407 94.4062L493.645 95.4602C493.566 95.4901 493.455 95.5199 493.312 95.5497C493.17 95.5829 492.989 95.5994 492.77 95.5994C492.439 95.5994 492.114 95.5282 491.796 95.3857C491.481 95.2431 491.219 95.026 491.01 94.7344C490.805 94.4427 490.702 94.0748 490.702 93.6307V86.0341ZM496.608 90.9062V95.5H495.435V85.3182H496.608V89.0568H496.708C496.887 88.6624 497.155 88.3492 497.513 88.1172C497.875 87.8819 498.355 87.7642 498.955 87.7642C499.475 87.7642 499.931 87.8686 500.322 88.0774C500.713 88.2829 501.017 88.5994 501.232 89.027C501.451 89.4512 501.56 89.9915 501.56 90.6477V95.5H500.387V90.7273C500.387 90.1207 500.229 89.6518 499.915 89.3203C499.603 88.9856 499.171 88.8182 498.617 88.8182C498.233 88.8182 497.888 88.8994 497.583 89.0618C497.281 89.2242 497.043 89.4612 496.867 89.7727C496.695 90.0843 496.608 90.4621 496.608 90.9062ZM506.908 95.6591C506.173 95.6591 505.538 95.4967 505.004 95.1719C504.474 94.8438 504.065 94.3864 503.776 93.7997C503.491 93.2098 503.349 92.5237 503.349 91.7415C503.349 90.9593 503.491 90.2699 503.776 89.6733C504.065 89.0734 504.466 88.6061 504.979 88.2713C505.496 87.9332 506.1 87.7642 506.789 87.7642C507.187 87.7642 507.58 87.8305 507.967 87.9631C508.355 88.0956 508.708 88.3111 509.026 88.6094C509.344 88.9044 509.598 89.2955 509.787 89.7827C509.976 90.2699 510.07 90.8698 510.07 91.5824V92.0795H504.184V91.0653H508.877C508.877 90.6345 508.791 90.25 508.619 89.9119C508.45 89.5739 508.208 89.3071 507.893 89.1115C507.581 88.916 507.213 88.8182 506.789 88.8182C506.322 88.8182 505.917 88.9342 505.576 89.1662C505.238 89.3949 504.978 89.6932 504.795 90.0611C504.613 90.429 504.522 90.8234 504.522 91.2443V91.9205C504.522 92.4972 504.621 92.986 504.82 93.3871C505.022 93.7848 505.303 94.0881 505.661 94.2969C506.018 94.5024 506.434 94.6051 506.908 94.6051C507.217 94.6051 507.495 94.562 507.744 94.4759C507.996 94.3864 508.213 94.2538 508.395 94.0781C508.577 93.8991 508.718 93.6771 508.817 93.4119L509.951 93.7301C509.832 94.1146 509.631 94.4527 509.349 94.7443C509.068 95.0327 508.72 95.258 508.305 95.4205C507.891 95.5795 507.425 95.6591 506.908 95.6591ZM517.523 95.5L515.196 87.8636H516.429L518.08 93.7102H518.159L519.79 87.8636H521.043L522.653 93.6903H522.733L524.384 87.8636H525.616L523.29 95.5H522.136L520.466 89.6335H520.347L518.676 95.5H517.523ZM530.11 95.6591C529.374 95.6591 528.739 95.4967 528.205 95.1719C527.675 94.8438 527.266 94.3864 526.977 93.7997C526.692 93.2098 526.55 92.5237 526.55 91.7415C526.55 90.9593 526.692 90.2699 526.977 89.6733C527.266 89.0734 527.667 88.6061 528.181 88.2713C528.698 87.9332 529.301 87.7642 529.99 87.7642C530.388 87.7642 530.781 87.8305 531.169 87.9631C531.556 88.0956 531.909 88.3111 532.227 88.6094C532.546 88.9044 532.799 89.2955 532.988 89.7827C533.177 90.2699 533.271 90.8698 533.271 91.5824V92.0795H527.385V91.0653H532.078C532.078 90.6345 531.992 90.25 531.82 89.9119C531.651 89.5739 531.409 89.3071 531.094 89.1115C530.782 88.916 530.414 88.8182 529.99 88.8182C529.523 88.8182 529.119 88.9342 528.777 89.1662C528.439 89.3949 528.179 89.6932 527.997 90.0611C527.814 90.429 527.723 90.8234 527.723 91.2443V91.9205C527.723 92.4972 527.823 92.986 528.021 93.3871C528.224 93.7848 528.504 94.0881 528.862 94.2969C529.22 94.5024 529.636 94.6051 530.11 94.6051C530.418 94.6051 530.696 94.562 530.945 94.4759C531.197 94.3864 531.414 94.2538 531.596 94.0781C531.778 93.8991 531.919 93.6771 532.019 93.4119L533.152 93.7301C533.033 94.1146 532.832 94.4527 532.551 94.7443C532.269 95.0327 531.921 95.258 531.507 95.4205C531.092 95.5795 530.627 95.6591 530.11 95.6591ZM535.215 95.5V85.3182H536.389V89.0767H536.488C536.574 88.9441 536.694 88.7751 536.846 88.5696C537.002 88.3608 537.224 88.1752 537.512 88.0128C537.804 87.8471 538.198 87.7642 538.695 87.7642C539.338 87.7642 539.905 87.925 540.396 88.2464C540.886 88.5679 541.269 89.0237 541.544 89.6136C541.819 90.2036 541.957 90.8996 541.957 91.7017C541.957 92.5104 541.819 93.2114 541.544 93.8047C541.269 94.3946 540.888 94.852 540.401 95.1768C539.914 95.4983 539.352 95.6591 538.715 95.6591C538.225 95.6591 537.832 95.5779 537.537 95.4155C537.242 95.2498 537.015 95.0625 536.856 94.8537C536.697 94.6416 536.574 94.4659 536.488 94.3267H536.349V95.5H535.215ZM536.369 91.6818C536.369 92.2585 536.453 92.7673 536.622 93.2081C536.791 93.6456 537.038 93.9886 537.363 94.2372C537.688 94.4825 538.086 94.6051 538.556 94.6051C539.047 94.6051 539.456 94.4759 539.784 94.2173C540.116 93.9555 540.364 93.6042 540.53 93.1634C540.699 92.7192 540.784 92.2254 540.784 91.6818C540.784 91.1449 540.701 90.661 540.535 90.2301C540.373 89.7959 540.126 89.4529 539.794 89.201C539.466 88.9458 539.053 88.8182 538.556 88.8182C538.079 88.8182 537.678 88.9392 537.353 89.1811C537.028 89.4197 536.783 89.7545 536.617 90.1854C536.452 90.6129 536.369 91.1117 536.369 91.6818Z" fill="black"/>
<path d="M1138.25 81C1142.25 81 1145.5 84.2459 1145.5 88.25C1145.5 89.9819 1144.89 91.5719 1143.88 92.8188L1148.78 97.7197C1149.07 98.0126 1149.07 98.4874 1148.78 98.7803C1148.51 99.0466 1148.1 99.0708 1147.8 98.8529L1147.72 98.7803L1142.82 93.8795C1141.57 94.8927 1139.98 95.5 1138.25 95.5C1134.25 95.5 1131 92.2541 1131 88.25C1131 84.2459 1134.25 81 1138.25 81ZM1138.25 82.5C1135.07 82.5 1132.5 85.0744 1132.5 88.25C1132.5 91.4256 1135.07 94 1138.25 94C1141.43 94 1144 91.4256 1144 88.25C1144 85.0744 1141.43 82.5 1138.25 82.5Z" fill="black"/>
<rect x="354.5" y="70.5" width="804" height="39" rx="3.5" stroke="url(#paint0_linear_972_2874)"/>
<rect x="1195.5" y="75.5" width="174" height="30" rx="3.5" fill="#188BDE"/>
<path d="M1238.43 96V85.8182H1241.99C1242.7 85.8182 1243.29 85.9408 1243.75 86.1861C1244.21 86.428 1244.55 86.7545 1244.77 87.1655C1245 87.5732 1245.11 88.0256 1245.11 88.5227C1245.11 88.9602 1245.04 89.3215 1244.88 89.6065C1244.73 89.8916 1244.52 90.117 1244.27 90.2827C1244.02 90.4484 1243.75 90.571 1243.46 90.6506V90.75C1243.77 90.7699 1244.09 90.8793 1244.4 91.0781C1244.72 91.277 1244.98 91.562 1245.19 91.9332C1245.4 92.3045 1245.51 92.7585 1245.51 93.2955C1245.51 93.8059 1245.39 94.2649 1245.16 94.6726C1244.93 95.0803 1244.56 95.4034 1244.06 95.642C1243.56 95.8807 1242.91 96 1242.11 96H1238.43ZM1239.66 94.9062H1242.11C1242.92 94.9062 1243.49 94.7505 1243.83 94.4389C1244.17 94.1241 1244.34 93.7429 1244.34 93.2955C1244.34 92.9508 1244.25 92.6326 1244.07 92.3409C1243.9 92.0459 1243.65 91.8106 1243.32 91.6349C1243 91.456 1242.61 91.3665 1242.17 91.3665H1239.66V94.9062ZM1239.66 90.2926H1241.95C1242.32 90.2926 1242.66 90.2197 1242.96 90.0739C1243.26 89.928 1243.5 89.7225 1243.67 89.4574C1243.85 89.1922 1243.94 88.8807 1243.94 88.5227C1243.94 88.0753 1243.78 87.6958 1243.47 87.3842C1243.16 87.0694 1242.67 86.9119 1241.99 86.9119H1239.66V90.2926ZM1249.62 96.179C1249.14 96.179 1248.7 96.0878 1248.31 95.9055C1247.91 95.7199 1247.6 95.4531 1247.37 95.1051C1247.14 94.7538 1247.02 94.3295 1247.02 93.8324C1247.02 93.3949 1247.11 93.0402 1247.28 92.7685C1247.45 92.4934 1247.68 92.2779 1247.97 92.1222C1248.26 91.9664 1248.58 91.8504 1248.92 91.7741C1249.28 91.6946 1249.63 91.6316 1249.98 91.5852C1250.45 91.5256 1250.82 91.4808 1251.11 91.451C1251.4 91.4179 1251.62 91.3632 1251.75 91.2869C1251.88 91.2107 1251.95 91.0781 1251.95 90.8892V90.8494C1251.95 90.3589 1251.82 89.9777 1251.55 89.706C1251.28 89.4342 1250.88 89.2983 1250.34 89.2983C1249.78 89.2983 1249.34 89.4209 1249.02 89.6662C1248.7 89.9115 1248.48 90.1733 1248.35 90.4517L1247.24 90.054C1247.44 89.59 1247.7 89.2287 1248.03 88.9702C1248.37 88.7083 1248.73 88.526 1249.13 88.4233C1249.53 88.3172 1249.92 88.2642 1250.3 88.2642C1250.55 88.2642 1250.83 88.294 1251.15 88.3537C1251.47 88.41 1251.78 88.5277 1252.08 88.7067C1252.38 88.8857 1252.63 89.1558 1252.83 89.517C1253.03 89.8783 1253.12 90.3622 1253.12 90.9688V96H1251.95V94.9659H1251.89C1251.81 95.1316 1251.68 95.3089 1251.49 95.4979C1251.31 95.6868 1251.06 95.8475 1250.75 95.9801C1250.45 96.1127 1250.07 96.179 1249.62 96.179ZM1249.8 95.125C1250.27 95.125 1250.66 95.0339 1250.98 94.8516C1251.3 94.6693 1251.54 94.4339 1251.7 94.1456C1251.87 93.8572 1251.95 93.554 1251.95 93.2358V92.1619C1251.9 92.2216 1251.79 92.2763 1251.62 92.326C1251.46 92.3724 1251.27 92.4138 1251.05 92.4503C1250.83 92.4834 1250.62 92.5133 1250.42 92.5398C1250.21 92.563 1250.05 92.5829 1249.92 92.5994C1249.62 92.6392 1249.33 92.7038 1249.07 92.7933C1248.81 92.8795 1248.59 93.0104 1248.43 93.1861C1248.27 93.3584 1248.19 93.5937 1248.19 93.892C1248.19 94.2997 1248.34 94.608 1248.65 94.8168C1248.95 95.0223 1249.34 95.125 1249.8 95.125ZM1258.37 96.1591C1257.65 96.1591 1257.04 95.9901 1256.52 95.652C1256 95.3139 1255.6 94.8482 1255.33 94.255C1255.05 93.6617 1254.91 92.9839 1254.91 92.2216C1254.91 91.446 1255.05 90.7616 1255.34 90.1683C1255.62 89.5717 1256.03 89.1061 1256.54 88.7713C1257.06 88.4332 1257.66 88.2642 1258.35 88.2642C1258.89 88.2642 1259.37 88.3636 1259.8 88.5625C1260.23 88.7614 1260.58 89.0398 1260.86 89.3977C1261.13 89.7557 1261.31 90.1733 1261.37 90.6506H1260.2C1260.11 90.3026 1259.91 89.9943 1259.6 89.7259C1259.3 89.4541 1258.89 89.3182 1258.37 89.3182C1257.91 89.3182 1257.51 89.4375 1257.17 89.6761C1256.82 89.9115 1256.56 90.2446 1256.36 90.6754C1256.18 91.103 1256.08 91.6051 1256.08 92.1818C1256.08 92.7718 1256.17 93.2855 1256.36 93.723C1256.55 94.1605 1256.81 94.5002 1257.16 94.7422C1257.5 94.9841 1257.9 95.1051 1258.37 95.1051C1258.67 95.1051 1258.95 95.0521 1259.2 94.946C1259.45 94.84 1259.66 94.6875 1259.83 94.4886C1260 94.2898 1260.13 94.0511 1260.2 93.7727H1261.37C1261.31 94.2235 1261.14 94.6295 1260.88 94.9908C1260.62 95.3487 1260.28 95.6338 1259.85 95.8459C1259.43 96.0547 1258.93 96.1591 1258.37 96.1591ZM1264.18 93.2159L1264.16 91.7642H1264.4L1267.74 88.3636H1269.19L1265.63 91.9631H1265.53L1264.18 93.2159ZM1263.09 96V85.8182H1264.26V96H1263.09ZM1267.94 96L1264.96 92.2216L1265.79 91.4062L1269.43 96H1267.94ZM1277.96 88.3636V89.358H1274V88.3636H1277.96ZM1275.16 86.5341H1276.33V93.8125C1276.33 94.1439 1276.38 94.3925 1276.47 94.5582C1276.57 94.7206 1276.7 94.83 1276.85 94.8864C1277.01 94.9394 1277.17 94.9659 1277.34 94.9659C1277.47 94.9659 1277.58 94.9593 1277.66 94.946C1277.74 94.9295 1277.81 94.9162 1277.86 94.9062L1278.1 95.9602C1278.02 95.9901 1277.91 96.0199 1277.77 96.0497C1277.62 96.0829 1277.44 96.0994 1277.22 96.0994C1276.89 96.0994 1276.57 96.0282 1276.25 95.8857C1275.94 95.7431 1275.67 95.526 1275.46 95.2344C1275.26 94.9427 1275.16 94.5748 1275.16 94.1307V86.5341ZM1282.75 96.1591C1282.06 96.1591 1281.45 95.995 1280.93 95.6669C1280.41 95.3388 1280.01 94.8797 1279.72 94.2898C1279.43 93.6998 1279.29 93.0104 1279.29 92.2216C1279.29 91.4261 1279.43 90.7318 1279.72 90.1385C1280.01 89.5452 1280.41 89.0845 1280.93 88.7564C1281.45 88.4283 1282.06 88.2642 1282.75 88.2642C1283.43 88.2642 1284.04 88.4283 1284.56 88.7564C1285.08 89.0845 1285.48 89.5452 1285.77 90.1385C1286.06 90.7318 1286.21 91.4261 1286.21 92.2216C1286.21 93.0104 1286.06 93.6998 1285.77 94.2898C1285.48 94.8797 1285.08 95.3388 1284.56 95.6669C1284.04 95.995 1283.43 96.1591 1282.75 96.1591ZM1282.75 95.1051C1283.27 95.1051 1283.7 94.9709 1284.04 94.7024C1284.38 94.4339 1284.63 94.081 1284.79 93.6435C1284.95 93.206 1285.03 92.732 1285.03 92.2216C1285.03 91.7112 1284.95 91.2356 1284.79 90.7947C1284.63 90.3539 1284.38 89.9976 1284.04 89.7259C1283.7 89.4541 1283.27 89.3182 1282.75 89.3182C1282.22 89.3182 1281.79 89.4541 1281.45 89.7259C1281.11 89.9976 1280.86 90.3539 1280.7 90.7947C1280.54 91.2356 1280.46 91.7112 1280.46 92.2216C1280.46 92.732 1280.54 93.206 1280.7 93.6435C1280.86 94.081 1281.11 94.4339 1281.45 94.7024C1281.79 94.9709 1282.22 95.1051 1282.75 95.1051ZM1293.11 91.4062V96H1291.93V85.8182H1293.11V89.5568H1293.21C1293.39 89.1624 1293.65 88.8492 1294.01 88.6172C1294.37 88.3819 1294.85 88.2642 1295.45 88.2642C1295.97 88.2642 1296.43 88.3686 1296.82 88.5774C1297.21 88.7829 1297.52 89.0994 1297.73 89.527C1297.95 89.9512 1298.06 90.4915 1298.06 91.1477V96H1296.89V91.2273C1296.89 90.6207 1296.73 90.1518 1296.41 89.8203C1296.1 89.4856 1295.67 89.3182 1295.12 89.3182C1294.73 89.3182 1294.39 89.3994 1294.08 89.5618C1293.78 89.7242 1293.54 89.9612 1293.37 90.2727C1293.19 90.5843 1293.11 90.9621 1293.11 91.4062ZM1303.31 96.1591C1302.62 96.1591 1302.01 95.995 1301.49 95.6669C1300.98 95.3388 1300.57 94.8797 1300.28 94.2898C1299.99 93.6998 1299.85 93.0104 1299.85 92.2216C1299.85 91.4261 1299.99 90.7318 1300.28 90.1385C1300.57 89.5452 1300.98 89.0845 1301.49 88.7564C1302.01 88.4283 1302.62 88.2642 1303.31 88.2642C1304 88.2642 1304.6 88.4283 1305.12 88.7564C1305.64 89.0845 1306.04 89.5452 1306.33 90.1385C1306.62 90.7318 1306.77 91.4261 1306.77 92.2216C1306.77 93.0104 1306.62 93.6998 1306.33 94.2898C1306.04 94.8797 1305.64 95.3388 1305.12 95.6669C1304.6 95.995 1304 96.1591 1303.31 96.1591ZM1303.31 95.1051C1303.83 95.1051 1304.26 94.9709 1304.6 94.7024C1304.94 94.4339 1305.19 94.081 1305.35 93.6435C1305.51 93.206 1305.59 92.732 1305.59 92.2216C1305.59 91.7112 1305.51 91.2356 1305.35 90.7947C1305.19 90.3539 1304.94 89.9976 1304.6 89.7259C1304.26 89.4541 1303.83 89.3182 1303.31 89.3182C1302.78 89.3182 1302.35 89.4541 1302.02 89.7259C1301.68 89.9976 1301.43 90.3539 1301.26 90.7947C1301.1 91.2356 1301.02 91.7112 1301.02 92.2216C1301.02 92.732 1301.1 93.206 1301.26 93.6435C1301.43 94.081 1301.68 94.4339 1302.02 94.7024C1302.35 94.9709 1302.78 95.1051 1303.31 95.1051ZM1308.56 96V88.3636H1309.69V89.5568H1309.79C1309.95 89.1491 1310.21 88.8326 1310.56 88.6072C1310.92 88.3786 1311.34 88.2642 1311.84 88.2642C1312.34 88.2642 1312.76 88.3786 1313.1 88.6072C1313.44 88.8326 1313.7 89.1491 1313.89 89.5568H1313.97C1314.16 89.1624 1314.46 88.8492 1314.85 88.6172C1315.24 88.3819 1315.71 88.2642 1316.26 88.2642C1316.94 88.2642 1317.5 88.478 1317.93 88.9055C1318.36 89.3298 1318.58 89.991 1318.58 90.8892V96H1317.41V90.8892C1317.41 90.3258 1317.25 89.9231 1316.95 89.6811C1316.64 89.4392 1316.28 89.3182 1315.86 89.3182C1315.32 89.3182 1314.9 89.4806 1314.61 89.8054C1314.31 90.1269 1314.17 90.5346 1314.17 91.0284V96H1312.97V90.7699C1312.97 90.3357 1312.83 89.986 1312.55 89.7209C1312.27 89.4524 1311.91 89.3182 1311.46 89.3182C1311.16 89.3182 1310.87 89.3994 1310.61 89.5618C1310.35 89.7242 1310.13 89.9496 1309.97 90.2379C1309.81 90.523 1309.73 90.8527 1309.73 91.2273V96H1308.56ZM1323.93 96.1591C1323.19 96.1591 1322.56 95.9967 1322.02 95.6719C1321.49 95.3438 1321.09 94.8864 1320.8 94.2997C1320.51 93.7098 1320.37 93.0237 1320.37 92.2415C1320.37 91.4593 1320.51 90.7699 1320.8 90.1733C1321.09 89.5734 1321.49 89.1061 1322 88.7713C1322.52 88.4332 1323.12 88.2642 1323.81 88.2642C1324.21 88.2642 1324.6 88.3305 1324.99 88.4631C1325.38 88.5956 1325.73 88.8111 1326.05 89.1094C1326.36 89.4044 1326.62 89.7955 1326.81 90.2827C1327 90.7699 1327.09 91.3698 1327.09 92.0824V92.5795H1321.2V91.5653H1325.9C1325.9 91.1345 1325.81 90.75 1325.64 90.4119C1325.47 90.0739 1325.23 89.8071 1324.91 89.6115C1324.6 89.416 1324.23 89.3182 1323.81 89.3182C1323.34 89.3182 1322.94 89.4342 1322.6 89.6662C1322.26 89.8949 1322 90.1932 1321.82 90.5611C1321.63 90.929 1321.54 91.3234 1321.54 91.7443V92.4205C1321.54 92.9972 1321.64 93.486 1321.84 93.8871C1322.04 94.2848 1322.32 94.5881 1322.68 94.7969C1323.04 95.0024 1323.45 95.1051 1323.93 95.1051C1324.24 95.1051 1324.52 95.062 1324.76 94.9759C1325.02 94.8864 1325.23 94.7538 1325.42 94.5781C1325.6 94.3991 1325.74 94.1771 1325.84 93.9119L1326.97 94.2301C1326.85 94.6146 1326.65 94.9527 1326.37 95.2443C1326.09 95.5327 1325.74 95.758 1325.33 95.9205C1324.91 96.0795 1324.45 96.1591 1323.93 96.1591Z" fill="white"/>
<rect x="1195.5" y="75.5" width="174" height="30" rx="3.5" stroke="url(#paint1_linear_972_2874)"/>
<rect x="1406.5" y="73.5" width="165" height="33" rx="3.5" fill="white"/>
<path d="M1421.8 86.3636C1421.74 85.8598 1421.5 85.4688 1421.08 85.1903C1420.65 84.9119 1420.13 84.7727 1419.51 84.7727C1419.06 84.7727 1418.67 84.8456 1418.33 84.9915C1418 85.1373 1417.73 85.3378 1417.55 85.593C1417.36 85.8482 1417.27 86.1383 1417.27 86.4631C1417.27 86.7348 1417.33 86.9685 1417.46 87.1641C1417.59 87.3563 1417.76 87.517 1417.97 87.6463C1418.17 87.7723 1418.39 87.8767 1418.61 87.9595C1418.84 88.0391 1419.05 88.1037 1419.24 88.1534L1420.27 88.4318C1420.54 88.5014 1420.83 88.5975 1421.15 88.7202C1421.48 88.8428 1421.8 89.0102 1422.09 89.2223C1422.4 89.4311 1422.64 89.6996 1422.84 90.0277C1423.04 90.3558 1423.13 90.7585 1423.13 91.2358C1423.13 91.786 1422.99 92.2831 1422.7 92.7273C1422.42 93.1714 1422 93.5244 1421.45 93.7862C1420.9 94.0481 1420.24 94.179 1419.45 94.179C1418.73 94.179 1418.09 94.0613 1417.56 93.826C1417.03 93.5907 1416.61 93.2625 1416.31 92.8416C1416.01 92.4207 1415.84 91.9318 1415.8 91.375H1417.07C1417.1 91.7595 1417.23 92.0777 1417.46 92.3295C1417.68 92.5781 1417.97 92.7637 1418.32 92.8864C1418.67 93.0057 1419.05 93.0653 1419.45 93.0653C1419.93 93.0653 1420.35 92.9891 1420.72 92.8366C1421.1 92.6809 1421.39 92.4654 1421.61 92.1903C1421.83 91.9119 1421.94 91.5871 1421.94 91.2159C1421.94 90.8778 1421.85 90.6027 1421.66 90.3906C1421.47 90.1785 1421.22 90.0062 1420.91 89.8736C1420.6 89.741 1420.27 89.625 1419.91 89.5256L1418.66 89.1676C1417.86 88.9389 1417.23 88.6125 1416.77 88.1882C1416.31 87.764 1416.07 87.2088 1416.07 86.5227C1416.07 85.9527 1416.23 85.4555 1416.54 85.0312C1416.85 84.6037 1417.27 84.2723 1417.79 84.0369C1418.32 83.7983 1418.9 83.679 1419.55 83.679C1420.21 83.679 1420.79 83.7966 1421.3 84.032C1421.81 84.264 1422.22 84.5821 1422.52 84.9865C1422.82 85.3909 1422.98 85.8499 1422.99 86.3636H1421.8ZM1428.1 94.1591C1427.41 94.1591 1426.81 93.995 1426.29 93.6669C1425.77 93.3388 1425.37 92.8797 1425.08 92.2898C1424.79 91.6998 1424.64 91.0104 1424.64 90.2216C1424.64 89.4261 1424.79 88.7318 1425.08 88.1385C1425.37 87.5452 1425.77 87.0845 1426.29 86.7564C1426.81 86.4283 1427.41 86.2642 1428.1 86.2642C1428.79 86.2642 1429.4 86.4283 1429.91 86.7564C1430.43 87.0845 1430.84 87.5452 1431.13 88.1385C1431.42 88.7318 1431.56 89.4261 1431.56 90.2216C1431.56 91.0104 1431.42 91.6998 1431.13 92.2898C1430.84 92.8797 1430.43 93.3388 1429.91 93.6669C1429.4 93.995 1428.79 94.1591 1428.1 94.1591ZM1428.1 93.1051C1428.63 93.1051 1429.06 92.9709 1429.4 92.7024C1429.73 92.4339 1429.98 92.081 1430.15 91.6435C1430.31 91.206 1430.39 90.732 1430.39 90.2216C1430.39 89.7112 1430.31 89.2356 1430.15 88.7947C1429.98 88.3539 1429.73 87.9976 1429.4 87.7259C1429.06 87.4541 1428.63 87.3182 1428.1 87.3182C1427.58 87.3182 1427.15 87.4541 1426.81 87.7259C1426.47 87.9976 1426.22 88.3539 1426.06 88.7947C1425.9 89.2356 1425.82 89.7112 1425.82 90.2216C1425.82 90.732 1425.9 91.206 1426.06 91.6435C1426.22 92.081 1426.47 92.4339 1426.81 92.7024C1427.15 92.9709 1427.58 93.1051 1428.1 93.1051ZM1433.36 94V86.3636H1434.49V87.517H1434.57C1434.71 87.1392 1434.96 86.8326 1435.32 86.5973C1435.69 86.362 1436.1 86.2443 1436.56 86.2443C1436.64 86.2443 1436.75 86.246 1436.88 86.2493C1437.01 86.2526 1437.11 86.2576 1437.17 86.2642V87.4574C1437.13 87.4474 1437.04 87.4325 1436.9 87.4126C1436.76 87.3894 1436.61 87.3778 1436.46 87.3778C1436.09 87.3778 1435.75 87.4557 1435.46 87.6115C1435.17 87.764 1434.95 87.9761 1434.78 88.2479C1434.61 88.5163 1434.53 88.8229 1434.53 89.1676V94H1433.36ZM1442.36 86.3636V87.358H1438.41V86.3636H1442.36ZM1439.56 84.5341H1440.73V91.8125C1440.73 92.1439 1440.78 92.3925 1440.88 92.5582C1440.98 92.7206 1441.1 92.83 1441.25 92.8864C1441.41 92.9394 1441.57 92.9659 1441.75 92.9659C1441.88 92.9659 1441.98 92.9593 1442.07 92.946C1442.15 92.9295 1442.21 92.9162 1442.26 92.9062L1442.5 93.9602C1442.42 93.9901 1442.31 94.0199 1442.17 94.0497C1442.03 94.0829 1441.85 94.0994 1441.63 94.0994C1441.3 94.0994 1440.97 94.0282 1440.65 93.8857C1440.34 93.7431 1440.08 93.526 1439.87 93.2344C1439.66 92.9427 1439.56 92.5748 1439.56 92.1307V84.5341ZM1448.23 94V83.8182H1449.4V87.5767H1449.5C1449.58 87.4441 1449.7 87.2751 1449.86 87.0696C1450.01 86.8608 1450.23 86.6752 1450.52 86.5128C1450.81 86.3471 1451.21 86.2642 1451.71 86.2642C1452.35 86.2642 1452.92 86.425 1453.41 86.7464C1453.9 87.0679 1454.28 87.5237 1454.55 88.1136C1454.83 88.7036 1454.97 89.3996 1454.97 90.2017C1454.97 91.0104 1454.83 91.7114 1454.55 92.3047C1454.28 92.8946 1453.9 93.352 1453.41 93.6768C1452.92 93.9983 1452.36 94.1591 1451.73 94.1591C1451.23 94.1591 1450.84 94.0779 1450.55 93.9155C1450.25 93.7498 1450.02 93.5625 1449.87 93.3537C1449.71 93.1416 1449.58 92.9659 1449.5 92.8267H1449.36V94H1448.23ZM1449.38 90.1818C1449.38 90.7585 1449.46 91.2673 1449.63 91.7081C1449.8 92.1456 1450.05 92.4886 1450.37 92.7372C1450.7 92.9825 1451.1 93.1051 1451.57 93.1051C1452.06 93.1051 1452.47 92.9759 1452.79 92.7173C1453.13 92.4555 1453.37 92.1042 1453.54 91.6634C1453.71 91.2192 1453.79 90.7254 1453.79 90.1818C1453.79 89.6449 1453.71 89.161 1453.54 88.7301C1453.38 88.2959 1453.14 87.9529 1452.8 87.701C1452.48 87.4458 1452.06 87.3182 1451.57 87.3182C1451.09 87.3182 1450.69 87.4392 1450.36 87.6811C1450.04 87.9197 1449.79 88.2545 1449.63 88.6854C1449.46 89.1129 1449.38 89.6117 1449.38 90.1818ZM1457.24 96.8636C1457.04 96.8636 1456.87 96.8471 1456.71 96.8139C1456.56 96.7841 1456.45 96.7543 1456.39 96.7244L1456.69 95.6903C1456.97 95.7633 1457.22 95.7898 1457.44 95.7699C1457.66 95.75 1457.86 95.6522 1458.02 95.4766C1458.2 95.3042 1458.35 95.0241 1458.5 94.6364L1458.72 94.0398L1455.89 86.3636H1457.16L1459.27 92.4489H1459.35L1461.46 86.3636H1462.73L1459.49 95.1136C1459.34 95.508 1459.16 95.8345 1458.95 96.093C1458.73 96.3549 1458.48 96.5488 1458.2 96.6747C1457.92 96.8007 1457.6 96.8636 1457.24 96.8636Z" fill="black"/>
<path d="M1558.85 87.6458C1559.05 87.8407 1559.05 88.1573 1558.85 88.3529L1553.39 93.8374C1553.18 94.0531 1552.83 94.0531 1552.61 93.8374L1547.15 88.3529C1546.95 88.1573 1546.95 87.8407 1547.15 87.6458C1547.34 87.4509 1547.66 87.4515 1547.85 87.6471L1553 92.8117L1558.15 87.6471C1558.34 87.4515 1558.66 87.4509 1558.85 87.6458Z" fill="black"/>
<rect x="1406.5" y="73.5" width="165" height="33" rx="3.5" stroke="url(#paint2_linear_972_2874)"/>
<circle cx="339" cy="299" r="42" fill="white"/>
<path d="M328.784 227H323.193L335.756 192.091H341.841L354.403 227H348.812L338.943 198.432H338.67L328.784 227ZM329.722 213.33H347.858V217.761H329.722V213.33Z" fill="black"/>
<circle cx="553" cy="299" r="42" fill="white"/>
<circle cx="553" cy="420" r="42" fill="white"/>
<circle cx="697" cy="299" r="42" fill="white"/>
<circle cx="553" cy="541" r="42" fill="white"/>
<path d="M568.83 203.443H563.511C563.307 202.307 562.926 201.307 562.369 200.443C561.813 199.58 561.131 198.847 560.324 198.244C559.517 197.642 558.614 197.187 557.614 196.881C556.625 196.574 555.574 196.42 554.46 196.42C552.449 196.42 550.648 196.926 549.057 197.938C547.477 198.949 546.227 200.432 545.307 202.386C544.398 204.341 543.943 206.727 543.943 209.545C543.943 212.386 544.398 214.784 545.307 216.739C546.227 218.693 547.483 220.17 549.074 221.17C550.665 222.17 552.455 222.67 554.443 222.67C555.545 222.67 556.591 222.523 557.58 222.227C558.58 221.92 559.483 221.472 560.29 220.881C561.097 220.29 561.778 219.568 562.335 218.716C562.903 217.852 563.295 216.864 563.511 215.75L568.83 215.767C568.545 217.483 567.994 219.062 567.176 220.506C566.369 221.938 565.33 223.176 564.057 224.222C562.795 225.256 561.352 226.057 559.727 226.625C558.102 227.193 556.33 227.477 554.409 227.477C551.386 227.477 548.693 226.761 546.33 225.33C543.966 223.886 542.102 221.824 540.739 219.142C539.386 216.46 538.71 213.261 538.71 209.545C538.71 205.818 539.392 202.619 540.756 199.949C542.119 197.267 543.983 195.21 546.347 193.778C548.71 192.335 551.398 191.614 554.409 191.614C556.261 191.614 557.989 191.881 559.591 192.415C561.205 192.937 562.653 193.71 563.938 194.733C565.222 195.744 566.284 196.983 567.125 198.449C567.966 199.903 568.534 201.568 568.83 203.443Z" fill="black"/>
<circle cx="911" cy="299" r="42" fill="white"/>
<path d="M897.835 227V192.091H919.483V196.625H903.102V207.261H917.932V211.778H903.102V227H897.835Z" fill="black"/>
<circle cx="1125" cy="299" r="42" fill="white"/>
<path d="M1111.84 227V192.091H1117.1V222.466H1132.92V227H1111.84Z" fill="black"/>
<circle cx="1339" cy="299" r="42" fill="white"/>
<path d="M1325.84 192.091H1332.23L1343.34 219.227H1343.75L1354.86 192.091H1361.26V227H1356.24V201.739H1355.92L1345.62 226.949H1341.47L1331.17 201.722H1330.85V227H1325.84V192.091Z" fill="black"/>
<circle cx="1553" cy="299" r="42" fill="white"/>
<path d="M1539.84 227V192.091H1552.28C1554.99 192.091 1557.24 192.585 1559.03 193.574C1560.81 194.562 1562.15 195.915 1563.03 197.631C1563.92 199.335 1564.36 201.256 1564.36 203.392C1564.36 205.54 1563.91 207.472 1563.02 209.188C1562.13 210.892 1560.79 212.244 1558.99 213.244C1557.21 214.233 1554.97 214.727 1552.26 214.727H1543.7V210.261H1551.78C1553.5 210.261 1554.89 209.966 1555.96 209.375C1557.03 208.773 1557.81 207.955 1558.31 206.92C1558.81 205.886 1559.06 204.71 1559.06 203.392C1559.06 202.074 1558.81 200.903 1558.31 199.881C1557.81 198.858 1557.02 198.057 1555.94 197.477C1554.88 196.898 1553.47 196.608 1551.72 196.608H1545.1V227H1539.84Z" fill="black"/>
<defs>
<filter id="filter0_dd_972_2874" x="-28" y="0" width="1954" height="781" filterUnits="userSpaceOnUse" color-interpolation-filters="sRGB">
<feFlood flood-opacity="0" result="BackgroundImageFix"/>
<feColorMatrix in="SourceAlpha" type="matrix" values="0 0 0 0 0 0 0 0 0 0 0 0 0 0 0 0 0 0 127 0" result="hardAlpha"/>
<feOffset dy="2"/>
<feGaussianBlur stdDeviation="10.5"/>
<feComposite in2="hardAlpha" operator="out"/>
<feColorMatrix type="matrix" values="0 0 0 0 0 0 0 0 0 0 0 0 0 0 0 0 0 0 0.25 0"/>
<feBlend mode="normal" in2="BackgroundImageFix" result="effect1_dropShadow_972_2874"/>
<feColorMatrix in="SourceAlpha" type="matrix" values="0 0 0 0 0 0 0 0 0 0 0 0 0 0 0 0 0 0 127 0" result="hardAlpha"/>
<feOffset dy="32"/>
<feGaussianBlur stdDeviation="24"/>
<feComposite in2="hardAlpha" operator="out"/>
<feColorMatrix type="matrix" values="0 0 0 0 0 0 0 0 0 0 0 0 0 0 0 0 0 0 0.25 0"/>
<feBlend mode="normal" in2="effect1_dropShadow_972_2874" result="effect2_dropShadow_972_2874"/>
<feBlend mode="normal" in="SourceGraphic" in2="effect2_dropShadow_972_2874" result="shape"/>
</filter>
<filter id="filter1_b_972_2874" x="-80" y="-81" width="2058" height="882" filterUnits="userSpaceOnUse" color-interpolation-filters="sRGB">
<feFlood flood-opacity="0" result="BackgroundImageFix"/>
<feGaussianBlur in="BackgroundImageFix" stdDeviation="50"/>
<feComposite in2="SourceAlpha" operator="in" result="effect1_backgroundBlur_972_2874"/>
<feBlend mode="normal" in="SourceGraphic" in2="effect1_backgroundBlur_972_2874" result="shape"/>
</filter>
<linearGradient id="paint0_linear_972_2874" x1="756.5" y1="70" x2="756.5" y2="110" gradientUnits="userSpaceOnUse">
<stop stop-color="#F5F5F5"/>
<stop offset="1" stop-color="#D2D2D2"/>
</linearGradient>
<linearGradient id="paint1_linear_972_2874" x1="1282.5" y1="75" x2="1282.5" y2="106" gradientUnits="userSpaceOnUse">
<stop offset="0.55" stop-color="#1D93E9"/>
<stop offset="0.794792" stop-color="#0074C7"/>
</linearGradient>
<linearGradient id="paint2_linear_972_2874" x1="1489" y1="73" x2="1489" y2="107" gradientUnits="userSpaceOnUse">
<stop stop-color="#F5F5F5"/>
<stop offset="1" stop-color="#D2D2D2"/>
</linearGradient>
</defs>
</svg>
