<svg width="121" height="31" viewBox="0 0 121 31" fill="none" xmlns="http://www.w3.org/2000/svg">
<rect x="0.5" width="120" height="31" rx="4" fill="#EFEFEF"/>
<path d="M43.7681 21V10.8182H45.0011V19.9062H49.734V21H43.7681ZM53.7312 21.179C53.2473 21.179 52.8081 21.0878 52.4137 20.9055C52.0193 20.7199 51.7061 20.4531 51.4741 20.1051C51.2421 19.7538 51.1261 19.3295 51.1261 18.8324C51.1261 18.3949 51.2122 18.0402 51.3846 17.7685C51.5569 17.4934 51.7873 17.2779 52.0756 17.1222C52.364 16.9664 52.6822 16.8504 53.0302 16.7741C53.3815 16.6946 53.7345 16.6316 54.0891 16.5852C54.5531 16.5256 54.9293 16.4808 55.2177 16.451C55.5094 16.4179 55.7215 16.3632 55.854 16.2869C55.9899 16.2107 56.0579 16.0781 56.0579 15.8892V15.8494C56.0579 15.3589 55.9237 14.9777 55.6552 14.706C55.39 14.4342 54.9873 14.2983 54.4471 14.2983C53.887 14.2983 53.4478 14.4209 53.1296 14.6662C52.8114 14.9115 52.5877 15.1733 52.4585 15.4517L51.3448 15.054C51.5437 14.59 51.8088 14.2287 52.1403 13.9702C52.475 13.7083 52.8396 13.526 53.234 13.4233C53.6317 13.3172 54.0228 13.2642 54.4073 13.2642C54.6526 13.2642 54.9343 13.294 55.2525 13.3537C55.574 13.41 55.8839 13.5277 56.1822 13.7067C56.4838 13.8857 56.734 14.1558 56.9329 14.517C57.1317 14.8783 57.2312 15.3622 57.2312 15.9688V21H56.0579V19.9659H55.9982C55.9187 20.1316 55.7861 20.3089 55.6005 20.4979C55.4149 20.6868 55.168 20.8475 54.8597 20.9801C54.5515 21.1127 54.1753 21.179 53.7312 21.179ZM53.9102 20.125C54.3742 20.125 54.7653 20.0339 55.0835 19.8516C55.4049 19.6693 55.6469 19.4339 55.8093 19.1456C55.975 18.8572 56.0579 18.554 56.0579 18.2358V17.1619C56.0082 17.2216 55.8988 17.2763 55.7298 17.326C55.564 17.3724 55.3718 17.4138 55.1531 17.4503C54.9376 17.4834 54.7272 17.5133 54.5217 17.5398C54.3195 17.563 54.1554 17.5829 54.0295 17.5994C53.7246 17.6392 53.4395 17.7038 53.1744 17.7933C52.9125 17.8795 52.7004 18.0104 52.538 18.1861C52.3789 18.3584 52.2994 18.5937 52.2994 18.892C52.2994 19.2997 52.4502 19.608 52.7518 19.8168C53.0567 20.0223 53.4428 20.125 53.9102 20.125ZM59.5318 21V10.8182H60.7051V14.5767H60.8045C60.8907 14.4441 61.01 14.2751 61.1625 14.0696C61.3182 13.8608 61.5403 13.6752 61.8287 13.5128C62.1203 13.3471 62.5147 13.2642 63.0119 13.2642C63.6549 13.2642 64.2217 13.425 64.7122 13.7464C65.2027 14.0679 65.5855 14.5237 65.8606 15.1136C66.1357 15.7036 66.2733 16.3996 66.2733 17.2017C66.2733 18.0104 66.1357 18.7114 65.8606 19.3047C65.5855 19.8946 65.2044 20.352 64.7172 20.6768C64.2299 20.9983 63.6681 21.1591 63.0318 21.1591C62.5413 21.1591 62.1485 21.0779 61.8535 20.9155C61.5585 20.7498 61.3315 20.5625 61.1724 20.3537C61.0133 20.1416 60.8907 19.9659 60.8045 19.8267H60.6653V21H59.5318ZM60.6852 17.1818C60.6852 17.7585 60.7697 18.2673 60.9387 18.7081C61.1078 19.1456 61.3547 19.4886 61.6795 19.7372C62.0043 19.9825 62.402 20.1051 62.8727 20.1051C63.3632 20.1051 63.7725 19.9759 64.1007 19.7173C64.4321 19.4555 64.6807 19.1042 64.8464 18.6634C65.0154 18.2192 65.1 17.7254 65.1 17.1818C65.1 16.6449 65.0171 16.161 64.8514 15.7301C64.689 15.2959 64.4421 14.9529 64.1106 14.701C63.7825 14.4458 63.3699 14.3182 62.8727 14.3182C62.3954 14.3182 61.9944 14.4392 61.6696 14.6811C61.3448 14.9197 61.0995 15.2545 60.9338 15.6854C60.7681 16.1129 60.6852 16.6117 60.6852 17.1818ZM71.2697 21.1591C70.5339 21.1591 69.8992 20.9967 69.3656 20.6719C68.8353 20.3438 68.426 19.8864 68.1376 19.2997C67.8526 18.7098 67.71 18.0237 67.71 17.2415C67.71 16.4593 67.8526 15.7699 68.1376 15.1733C68.426 14.5734 68.827 14.1061 69.3407 13.7713C69.8578 13.4332 70.461 13.2642 71.1504 13.2642C71.5481 13.2642 71.9409 13.3305 72.3287 13.4631C72.7164 13.5956 73.0694 13.8111 73.3876 14.1094C73.7058 14.4044 73.9593 14.7955 74.1483 15.2827C74.3372 15.7699 74.4316 16.3698 74.4316 17.0824V17.5795H68.5453V16.5653H73.2385C73.2385 16.1345 73.1523 15.75 72.9799 15.4119C72.8109 15.0739 72.569 14.8071 72.2541 14.6115C71.9425 14.416 71.5746 14.3182 71.1504 14.3182C70.6831 14.3182 70.2787 14.4342 69.9373 14.6662C69.5993 14.8949 69.3391 15.1932 69.1568 15.5611C68.9745 15.929 68.8833 16.3234 68.8833 16.7443V17.4205C68.8833 17.9972 68.9828 18.486 69.1816 18.8871C69.3838 19.2848 69.6639 19.5881 70.0218 19.7969C70.3798 20.0024 70.7958 20.1051 71.2697 20.1051C71.5779 20.1051 71.8564 20.062 72.1049 19.9759C72.3568 19.8864 72.5739 19.7538 72.7562 19.5781C72.9385 19.3991 73.0794 19.1771 73.1788 18.9119L74.3123 19.2301C74.193 19.6146 73.9925 19.9527 73.7108 20.2443C73.429 20.5327 73.081 20.758 72.6667 20.9205C72.2524 21.0795 71.7868 21.1591 71.2697 21.1591ZM77.3897 10.8182V21H76.2164V10.8182H77.3897Z" fill="#9D9D9D"/>
</svg>
