<svg width="320" height="38" viewBox="0 0 320 38" fill="none" xmlns="http://www.w3.org/2000/svg">
<mask id="path-1-inside-1_2_1894" fill="white">
<path d="M0 4C0 1.79086 1.79086 0 4 0H316C318.209 0 320 1.79086 320 4V34C320 36.2091 318.209 38 316 38H4C1.79086 38 0 36.2091 0 34V4Z"/>
</mask>
<path d="M0 4C0 1.79086 1.79086 0 4 0H316C318.209 0 320 1.79086 320 4V34C320 36.2091 318.209 38 316 38H4C1.79086 38 0 36.2091 0 34V4Z" fill="white"/>
<path d="M10.6761 15.4119V14.3182H18.3125V15.4119H15.1108V24.5H13.8778V15.4119H10.6761ZM19.937 27.3636C19.7381 27.3636 19.5608 27.3471 19.405 27.3139C19.2492 27.2841 19.1415 27.2543 19.0819 27.2244L19.3801 26.1903C19.6652 26.2633 19.9171 26.2898 20.1358 26.2699C20.3546 26.25 20.5485 26.1522 20.7175 25.9766C20.8899 25.8042 21.0473 25.5241 21.1898 25.1364L21.4086 24.5398L18.5847 16.8636H19.8574L21.9654 22.9489H22.0449L24.1529 16.8636H25.4256L22.1841 25.6136C22.0383 26.008 21.8577 26.3345 21.6422 26.593C21.4268 26.8549 21.1766 27.0488 20.8915 27.1747C20.6098 27.3007 20.2916 27.3636 19.937 27.3636ZM26.9743 27.3636V16.8636H28.1078V18.0767H28.247C28.3332 17.9441 28.4525 17.7751 28.6049 17.5696C28.7607 17.3608 28.9828 17.1752 29.2711 17.0128C29.5628 16.8471 29.9572 16.7642 30.4544 16.7642C31.0974 16.7642 31.6641 16.925 32.1547 17.2464C32.6452 17.5679 33.028 18.0237 33.3031 18.6136C33.5782 19.2036 33.7157 19.8996 33.7157 20.7017C33.7157 21.5104 33.5782 22.2114 33.3031 22.8047C33.028 23.3946 32.6468 23.852 32.1596 24.1768C31.6724 24.4983 31.1106 24.6591 30.4743 24.6591C29.9837 24.6591 29.591 24.5779 29.296 24.4155C29.001 24.2498 28.774 24.0625 28.6149 23.8537C28.4558 23.6416 28.3332 23.4659 28.247 23.3267H28.1475V27.3636H26.9743ZM28.1277 20.6818C28.1277 21.2585 28.2122 21.7673 28.3812 22.2081C28.5502 22.6456 28.7972 22.9886 29.122 23.2372C29.4468 23.4825 29.8445 23.6051 30.3152 23.6051C30.8057 23.6051 31.215 23.4759 31.5431 23.2173C31.8746 22.9555 32.1232 22.6042 32.2889 22.1634C32.4579 21.7192 32.5424 21.2254 32.5424 20.6818C32.5424 20.1449 32.4596 19.661 32.2939 19.2301C32.1315 18.7959 31.8845 18.4529 31.5531 18.201C31.225 17.9458 30.8123 17.8182 30.3152 17.8182C29.8379 17.8182 29.4368 17.9392 29.112 18.1811C28.7872 18.4197 28.542 18.7545 28.3762 19.1854C28.2105 19.6129 28.1277 20.1117 28.1277 20.6818ZM38.7072 24.6591C37.9714 24.6591 37.3367 24.4967 36.8031 24.1719C36.2728 23.8438 35.8635 23.3864 35.5751 22.7997C35.2901 22.2098 35.1475 21.5237 35.1475 20.7415C35.1475 19.9593 35.2901 19.2699 35.5751 18.6733C35.8635 18.0734 36.2645 17.6061 36.7782 17.2713C37.2953 16.9332 37.8985 16.7642 38.5879 16.7642C38.9856 16.7642 39.3784 16.8305 39.7662 16.9631C40.1539 17.0956 40.5069 17.3111 40.8251 17.6094C41.1433 17.9044 41.3968 18.2955 41.5858 18.7827C41.7747 19.2699 41.8691 19.8698 41.8691 20.5824V21.0795H35.9828V20.0653H40.676C40.676 19.6345 40.5898 19.25 40.4174 18.9119C40.2484 18.5739 40.0065 18.3071 39.6916 18.1115C39.38 17.916 39.0121 17.8182 38.5879 17.8182C38.1206 17.8182 37.7162 17.9342 37.3748 18.1662C37.0368 18.3949 36.7766 18.6932 36.5943 19.0611C36.412 19.429 36.3208 19.8234 36.3208 20.2443V20.9205C36.3208 21.4972 36.4203 21.986 36.6191 22.3871C36.8213 22.7848 37.1014 23.0881 37.4593 23.2969C37.8173 23.5024 38.2333 23.6051 38.7072 23.6051C39.0154 23.6051 39.2939 23.562 39.5424 23.4759C39.7943 23.3864 40.0114 23.2538 40.1937 23.0781C40.376 22.8991 40.5169 22.6771 40.6163 22.4119L41.7498 22.7301C41.6305 23.1146 41.43 23.4527 41.1483 23.7443C40.8665 24.0327 40.5185 24.258 40.1042 24.4205C39.6899 24.5795 39.2243 24.6591 38.7072 24.6591ZM48.7647 19.9062V24.5H47.5914V14.3182H48.7647V18.0568H48.8642C49.0431 17.6624 49.3116 17.3492 49.6696 17.1172C50.0308 16.8819 50.5114 16.7642 51.1113 16.7642C51.6317 16.7642 52.0874 16.8686 52.4785 17.0774C52.8696 17.2829 53.1729 17.5994 53.3883 18.027C53.6071 18.4512 53.7164 18.9915 53.7164 19.6477V24.5H52.5431V19.7273C52.5431 19.1207 52.3857 18.6518 52.0708 18.3203C51.7593 17.9856 51.3268 17.8182 50.7733 17.8182C50.3888 17.8182 50.0441 17.8994 49.7392 18.0618C49.4376 18.2242 49.1989 18.4612 49.0233 18.7727C48.8509 19.0843 48.7647 19.4621 48.7647 19.9062ZM59.0646 24.6591C58.3288 24.6591 57.6941 24.4967 57.1605 24.1719C56.6302 23.8438 56.2209 23.3864 55.9325 22.7997C55.6475 22.2098 55.505 21.5237 55.505 20.7415C55.505 19.9593 55.6475 19.2699 55.9325 18.6733C56.2209 18.0734 56.6219 17.6061 57.1357 17.2713C57.6527 16.9332 58.2559 16.7642 58.9453 16.7642C59.343 16.7642 59.7358 16.8305 60.1236 16.9631C60.5114 17.0956 60.8643 17.3111 61.1825 17.6094C61.5007 17.9044 61.7543 18.2955 61.9432 18.7827C62.1321 19.2699 62.2266 19.8698 62.2266 20.5824V21.0795H56.3402V20.0653H61.0334C61.0334 19.6345 60.9472 19.25 60.7749 18.9119C60.6058 18.5739 60.3639 18.3071 60.049 18.1115C59.7375 17.916 59.3696 17.8182 58.9453 17.8182C58.478 17.8182 58.0736 17.9342 57.7322 18.1662C57.3942 18.3949 57.134 18.6932 56.9517 19.0611C56.7694 19.429 56.6783 19.8234 56.6783 20.2443V20.9205C56.6783 21.4972 56.7777 21.986 56.9766 22.3871C57.1787 22.7848 57.4588 23.0881 57.8168 23.2969C58.1747 23.5024 58.5907 23.6051 59.0646 23.6051C59.3729 23.6051 59.6513 23.562 59.8999 23.4759C60.1518 23.3864 60.3688 23.2538 60.5511 23.0781C60.7334 22.8991 60.8743 22.6771 60.9737 22.4119L62.1072 22.7301C61.9879 23.1146 61.7874 23.4527 61.5057 23.7443C61.224 24.0327 60.8759 24.258 60.4616 24.4205C60.0473 24.5795 59.5817 24.6591 59.0646 24.6591ZM64.0114 24.5V16.8636H65.1449V18.017H65.2244C65.3636 17.6392 65.6155 17.3326 65.9801 17.0973C66.3447 16.862 66.7557 16.7443 67.2131 16.7443C67.2992 16.7443 67.407 16.746 67.5362 16.7493C67.6655 16.7526 67.7633 16.7576 67.8295 16.7642V17.9574C67.7898 17.9474 67.6986 17.9325 67.5561 17.9126C67.4169 17.8894 67.2694 17.8778 67.1136 17.8778C66.7424 17.8778 66.411 17.9557 66.1193 18.1115C65.831 18.264 65.6023 18.4761 65.4332 18.7479C65.2675 19.0163 65.1847 19.3229 65.1847 19.6676V24.5H64.0114ZM72.1896 24.6591C71.4538 24.6591 70.8191 24.4967 70.2855 24.1719C69.7552 23.8438 69.3459 23.3864 69.0575 22.7997C68.7725 22.2098 68.63 21.5237 68.63 20.7415C68.63 19.9593 68.7725 19.2699 69.0575 18.6733C69.3459 18.0734 69.7469 17.6061 70.2607 17.2713C70.7777 16.9332 71.3809 16.7642 72.0703 16.7642C72.468 16.7642 72.8608 16.8305 73.2486 16.9631C73.6364 17.0956 73.9893 17.3111 74.3075 17.6094C74.6257 17.9044 74.8793 18.2955 75.0682 18.7827C75.2571 19.2699 75.3516 19.8698 75.3516 20.5824V21.0795H69.4652V20.0653H74.1584C74.1584 19.6345 74.0722 19.25 73.8999 18.9119C73.7308 18.5739 73.4889 18.3071 73.174 18.1115C72.8625 17.916 72.4946 17.8182 72.0703 17.8182C71.603 17.8182 71.1986 17.9342 70.8572 18.1662C70.5192 18.3949 70.259 18.6932 70.0767 19.0611C69.8944 19.429 69.8033 19.8234 69.8033 20.2443V20.9205C69.8033 21.4972 69.9027 21.986 70.1016 22.3871C70.3037 22.7848 70.5838 23.0881 70.9418 23.2969C71.2997 23.5024 71.7157 23.6051 72.1896 23.6051C72.4979 23.6051 72.7763 23.562 73.0249 23.4759C73.2768 23.3864 73.4938 23.2538 73.6761 23.0781C73.8584 22.8991 73.9993 22.6771 74.0987 22.4119L75.2322 22.7301C75.1129 23.1146 74.9124 23.4527 74.6307 23.7443C74.349 24.0327 74.0009 24.258 73.5866 24.4205C73.1723 24.5795 72.7067 24.6591 72.1896 24.6591Z" fill="black"/>
<path d="M298 11.5C302.142 11.5 305.5 14.8579 305.5 19C305.5 23.1421 302.142 26.5 298 26.5C293.858 26.5 290.5 23.1421 290.5 19C290.5 18.6236 290.528 18.2538 290.581 17.8923C290.648 17.4382 290.316 17 289.857 17C289.486 17 289.161 17.2562 289.105 17.6228C289.036 18.0718 289 18.5317 289 19C289 23.9706 293.029 28 298 28C302.971 28 307 23.9706 307 19C307 14.0294 302.971 10 298 10C295.695 10 293.592 10.8666 292 12.2917V11.25C292 10.8358 291.664 10.5 291.25 10.5C290.836 10.5 290.5 10.8358 290.5 11.25V14.25C290.5 14.6642 290.836 15 291.25 15H294.25C294.664 15 295 14.6642 295 14.25C295 13.8358 294.664 13.5 294.25 13.5H292.901C294.239 12.2588 296.031 11.5 298 11.5Z" fill="#212121"/>
<path d="M0 0H320H0ZM320 38H0H320ZM4 38C-0.418278 38 -4 34.4183 -4 30V8C-4 3.58172 -0.418278 0 4 0C4 0 4 1.79086 4 4V34C4 36.2091 4 38 4 38ZM320 0V38V0Z" fill="#188BDE" mask="url(#path-1-inside-1_2_1894)"/>
</svg>
