<svg width="60" height="60" viewBox="0 0 60 60" fill="none" xmlns="http://www.w3.org/2000/svg">
<mask id="path-1-inside-1_3_1837" fill="white">
<path d="M0 5C0 2.23858 2.23858 0 5 0H55C57.7614 0 60 2.23858 60 5V55C60 57.7614 57.7614 60 55 60H5C2.23858 60 0 57.7614 0 55V5Z"/>
</mask>
<path d="M0 5C0 2.23858 2.23858 0 5 0H55C57.7614 0 60 2.23858 60 5V55C60 57.7614 57.7614 60 55 60H5C2.23858 60 0 57.7614 0 55V5Z" fill="white"/>
<path d="M0 0H60H0ZM60 55C60 59.4183 56.4183 63 52 63H8C3.58172 63 0 59.4183 0 55C0 56.1046 2.23858 57 5 57H55C57.7614 57 60 56.1046 60 55ZM0 60V0V60ZM60 0V60V0Z" fill="#188BDE" mask="url(#path-1-inside-1_3_1837)"/>
</svg>
