<svg width="700" height="60" viewBox="0 0 700 60" fill="none" xmlns="http://www.w3.org/2000/svg">
<g filter="url(#filter0_b_972_3102)">
<path d="M0 0H700V50C700 55.5228 695.523 60 690 60H9.99998C4.47713 60 0 55.5228 0 50V0Z" fill="#F8F8F8" fill-opacity="0.9"/>
<path d="M0.5 0.5H699.5V50C699.5 55.2467 695.247 59.5 690 59.5H9.99998C4.75328 59.5 0.5 55.2467 0.5 50V0.5Z" stroke="url(#paint0_linear_972_3102)"/>
</g>
<path d="M623 22.8C623 21.4745 624.079 20.4 625.411 20.4H645.179C646.51 20.4 647.589 21.4745 647.589 22.8V42L641.441 39.1713C641.124 39.0254 640.779 38.9499 640.43 38.9499H625.411C624.079 38.9499 623 37.8753 623 36.5499V22.8Z" fill="url(#paint1_angular_972_3102)"/>
<path d="M650 22.2C650 24.5196 648.111 26.4 645.781 26.4C643.451 26.4 641.562 24.5196 641.562 22.2C641.562 19.8804 643.451 18 645.781 18C648.111 18 650 19.8804 650 22.2Z" fill="#FF0000"/>
<path d="M663.971 22.4545V37H662.21V24.3011H662.124L658.573 26.6591V24.8693L662.21 22.4545H663.971Z" fill="black"/>
<path d="M48.4285 18.9897C48.4285 17.2206 46.3512 16.3346 45.1363 17.5856L39.3506 23.5428H36.8688C35.4013 23.5428 33.8885 24.4224 33.4491 26.0648C33.1562 27.1597 33 28.3118 33 29.5C33 30.6882 33.1562 31.8403 33.4491 32.9352C33.8885 34.5776 35.4013 35.4572 36.8688 35.4572H39.3506L45.1363 41.4144C46.3512 42.6654 48.4285 41.7794 48.4285 40.0103V18.9897Z" fill="#168FE6"/>
<path d="M54.9647 20.3731C55.3413 19.9854 55.9518 19.9854 56.3284 20.3731C61.2239 25.4137 61.2239 33.5861 56.3284 38.6267C55.9518 39.0145 55.3413 39.0145 54.9647 38.6267C54.5881 38.239 54.5881 37.6103 54.9647 37.2226C59.107 32.9575 59.107 26.0423 54.9647 21.7772C54.5881 21.3895 54.5881 20.7608 54.9647 20.3731Z" fill="#0F172A"/>
<path d="M51.5558 23.8835C51.9324 23.4958 52.5429 23.4958 52.9195 23.8835C55.9321 26.9854 55.9321 32.0146 52.9195 35.1165C52.5429 35.5043 51.9324 35.5043 51.5558 35.1165C51.1792 34.7288 51.1792 34.1001 51.5558 33.7124C53.8152 31.386 53.8152 27.6141 51.5558 25.2876C51.1792 24.8999 51.1792 24.2713 51.5558 23.8835Z" fill="#168FE6"/>
<path fill-rule="evenodd" clip-rule="evenodd" d="M72.2739 25.5789C79.5785 18.1404 91.4215 18.1404 98.7261 25.5789C99.0913 25.9508 99.0913 26.5538 98.7261 26.9258L98.0648 27.5993C97.8894 27.7779 97.6515 27.8782 97.4035 27.8782C97.1554 27.8782 96.9176 27.7779 96.7422 27.5993C90.5333 21.2765 80.4667 21.2765 74.2578 27.5993C74.0824 27.7779 73.8446 27.8782 73.5965 27.8782C73.3485 27.8782 73.1106 27.7779 72.9352 27.5993L72.2739 26.9258C71.9087 26.5538 71.9087 25.9508 72.2739 25.5789ZM76.2417 29.6196C81.3549 24.4126 89.6451 24.4126 94.7583 29.6196C95.1235 29.9915 95.1235 30.5945 94.7583 30.9664L94.097 31.6399C93.9216 31.8185 93.6837 31.9188 93.4357 31.9188C93.1876 31.9189 92.9498 31.8185 92.7744 31.6399C88.7569 27.5487 82.2432 27.5487 78.2257 31.6399C77.8605 32.0118 77.2683 32.0118 76.9031 31.6399L76.2418 30.9665C76.0664 30.7879 75.9678 30.5456 75.9678 30.293C75.9678 30.0405 76.0664 29.7982 76.2417 29.6196ZM80.2371 33.6601C83.1589 30.6847 87.8961 30.6847 90.818 33.6601C91.1832 34.0321 91.1832 34.6351 90.818 35.007L90.1567 35.6804C89.9813 35.8591 89.7434 35.9594 89.4954 35.9594C89.2473 35.9594 89.0094 35.8591 88.8341 35.6804C87.0079 33.8208 84.0472 33.8208 82.221 35.6804C81.8558 36.0524 81.2636 36.0524 80.8984 35.6804L80.2371 35.007C79.8719 34.6351 79.8719 34.0321 80.2371 33.6601ZM84.2049 37.7007C84.9354 36.9569 86.1197 36.9569 86.8502 37.7007C87.2154 38.0727 87.2154 38.6757 86.8502 39.0476L86.1888 39.7211C86.0135 39.8997 85.7756 40 85.5275 40C85.2795 40 85.0416 39.8997 84.8662 39.7211L84.2049 39.0476C83.8397 38.6757 83.8397 38.0727 84.2049 37.7007Z" fill="url(#paint2_radial_972_3102)"/>
<path fill-rule="evenodd" clip-rule="evenodd" d="M114.6 27.375C114.6 26.8918 115.003 26.5 115.5 26.5H126.9C127.397 26.5 127.8 26.8918 127.8 27.375V32.625C127.8 33.1082 127.397 33.5 126.9 33.5H115.5C115.003 33.5 114.6 33.1082 114.6 32.625V27.375Z" fill="#168FE6"/>
<path fill-rule="evenodd" clip-rule="evenodd" d="M111 26.5C111 24.567 112.612 23 114.6 23H132.6C134.588 23 136.2 24.567 136.2 26.5V26.5438C137.227 26.7464 138 27.6292 138 28.6875V31.3125C138 32.3708 137.227 33.2536 136.2 33.4562V33.5C136.2 35.433 134.588 37 132.6 37H114.6C112.612 37 111 35.433 111 33.5V26.5ZM134.4 26.5C134.4 25.5335 133.594 24.75 132.6 24.75H114.6C113.606 24.75 112.8 25.5335 112.8 26.5V33.5C112.8 34.4665 113.606 35.25 114.6 35.25H132.6C133.594 35.25 134.4 34.4665 134.4 33.5V26.5Z" fill="#168FE6"/>
<path d="M261.778 22.4545V37H260.016V24.3011H259.931L256.38 26.6591V24.8693L260.016 22.4545H261.778ZM265.961 37V35.7216L270.762 30.4659C271.325 29.8504 271.789 29.3153 272.154 28.8608C272.519 28.4015 272.788 27.9706 272.964 27.5682C273.144 27.161 273.233 26.7348 273.233 26.2898C273.233 25.7784 273.11 25.3357 272.864 24.9616C272.623 24.5876 272.291 24.2988 271.87 24.0952C271.448 23.8916 270.975 23.7898 270.449 23.7898C269.891 23.7898 269.403 23.9058 268.986 24.1378C268.574 24.3651 268.255 24.6847 268.028 25.0966C267.805 25.5085 267.694 25.9915 267.694 26.5455H266.018C266.018 25.6932 266.214 24.9451 266.607 24.3011C267 23.6572 267.535 23.1553 268.212 22.7955C268.894 22.4356 269.659 22.2557 270.506 22.2557C271.358 22.2557 272.114 22.4356 272.772 22.7955C273.43 23.1553 273.946 23.6406 274.32 24.2514C274.694 24.8622 274.881 25.5417 274.881 26.2898C274.881 26.8248 274.784 27.348 274.59 27.8594C274.401 28.366 274.069 28.9318 273.596 29.5568C273.127 30.1771 272.476 30.9347 271.643 31.8295L268.376 35.3239V35.4375H275.137V37H265.961ZM279.32 35.1392C278.97 35.1392 278.669 35.0137 278.418 34.7628C278.167 34.5118 278.042 34.2112 278.042 33.8608C278.042 33.5104 278.167 33.2098 278.418 32.9588C278.669 32.7079 278.97 32.5824 279.32 32.5824C279.671 32.5824 279.971 32.7079 280.222 32.9588C280.473 33.2098 280.599 33.5104 280.599 33.8608C280.599 34.0928 280.539 34.3059 280.421 34.5C280.307 34.6941 280.153 34.8504 279.959 34.9688C279.77 35.0824 279.557 35.1392 279.32 35.1392ZM279.32 27.7812C278.97 27.7812 278.669 27.6558 278.418 27.4048C278.167 27.1539 278.042 26.8532 278.042 26.5028C278.042 26.1525 278.167 25.8518 278.418 25.6009C278.669 25.3499 278.97 25.2244 279.32 25.2244C279.671 25.2244 279.971 25.3499 280.222 25.6009C280.473 25.8518 280.599 26.1525 280.599 26.5028C280.599 26.7348 280.539 26.9479 280.421 27.142C280.307 27.3362 280.153 27.4924 279.959 27.6108C279.77 27.7244 279.557 27.7812 279.32 27.7812ZM288.322 37.1989C287.252 37.1989 286.341 36.9077 285.588 36.3253C284.835 35.7382 284.26 34.8883 283.862 33.7756C283.464 32.6581 283.265 31.3087 283.265 29.7273C283.265 28.1553 283.464 26.813 283.862 25.7003C284.265 24.5829 284.842 23.7306 285.595 23.1435C286.353 22.5516 287.262 22.2557 288.322 22.2557C289.383 22.2557 290.29 22.5516 291.042 23.1435C291.8 23.7306 292.378 24.5829 292.775 25.7003C293.178 26.813 293.379 28.1553 293.379 29.7273C293.379 31.3087 293.18 32.6581 292.782 33.7756C292.385 34.8883 291.809 35.7382 291.057 36.3253C290.304 36.9077 289.392 37.1989 288.322 37.1989ZM288.322 35.6364C289.383 35.6364 290.207 35.125 290.794 34.1023C291.381 33.0795 291.675 31.6212 291.675 29.7273C291.675 28.4678 291.54 27.3954 291.27 26.5099C291.005 25.6245 290.621 24.9498 290.119 24.4858C289.622 24.0218 289.023 23.7898 288.322 23.7898C287.271 23.7898 286.45 24.3082 285.858 25.3452C285.266 26.3774 284.97 27.8381 284.97 29.7273C284.97 30.9867 285.103 32.0568 285.368 32.9375C285.633 33.8182 286.014 34.4882 286.511 34.9474C287.013 35.4067 287.617 35.6364 288.322 35.6364ZM300.822 37.1989C299.752 37.1989 298.841 36.9077 298.088 36.3253C297.335 35.7382 296.76 34.8883 296.362 33.7756C295.964 32.6581 295.765 31.3087 295.765 29.7273C295.765 28.1553 295.964 26.813 296.362 25.7003C296.765 24.5829 297.342 23.7306 298.095 23.1435C298.853 22.5516 299.762 22.2557 300.822 22.2557C301.883 22.2557 302.79 22.5516 303.542 23.1435C304.3 23.7306 304.878 24.5829 305.275 25.7003C305.678 26.813 305.879 28.1553 305.879 29.7273C305.879 31.3087 305.68 32.6581 305.282 33.7756C304.885 34.8883 304.309 35.7382 303.557 36.3253C302.804 36.9077 301.892 37.1989 300.822 37.1989ZM300.822 35.6364C301.883 35.6364 302.707 35.125 303.294 34.1023C303.881 33.0795 304.175 31.6212 304.175 29.7273C304.175 28.4678 304.04 27.3954 303.77 26.5099C303.505 25.6245 303.121 24.9498 302.619 24.4858C302.122 24.0218 301.523 23.7898 300.822 23.7898C299.771 23.7898 298.95 24.3082 298.358 25.3452C297.766 26.3774 297.47 27.8381 297.47 29.7273C297.47 30.9867 297.603 32.0568 297.868 32.9375C298.133 33.8182 298.514 34.4882 299.011 34.9474C299.513 35.4067 300.117 35.6364 300.822 35.6364ZM314.459 37V22.4545H319.373C320.515 22.4545 321.447 22.6605 322.172 23.0724C322.901 23.4796 323.441 24.0312 323.791 24.7273C324.141 25.4233 324.317 26.1998 324.317 27.0568C324.317 27.9138 324.141 28.6927 323.791 29.3935C323.445 30.0942 322.91 30.6529 322.186 31.0696C321.461 31.4815 320.533 31.6875 319.402 31.6875H315.879V30.125H319.345C320.126 30.125 320.754 29.9901 321.227 29.7202C321.701 29.4503 322.044 29.0857 322.257 28.6264C322.475 28.1624 322.584 27.6392 322.584 27.0568C322.584 26.4744 322.475 25.9536 322.257 25.4943C322.044 25.035 321.698 24.6752 321.22 24.4148C320.742 24.1496 320.107 24.017 319.317 24.017H316.22V37H314.459ZM327.154 22.4545H329.256L334.199 34.5284H334.37L339.313 22.4545H341.415V37H339.768V25.9489H339.626L335.08 37H333.489L328.944 25.9489H328.802V37H327.154V22.4545ZM352.788 17.767V41.6875H351.367V17.767H352.788ZM367.115 22.2557C367.711 22.2604 368.308 22.3741 368.905 22.5966C369.501 22.8191 370.046 23.1884 370.538 23.7045C371.031 24.2159 371.426 24.9143 371.724 25.7997C372.023 26.6851 372.172 27.7955 372.172 29.1307C372.172 30.4233 372.049 31.5715 371.802 32.5753C371.561 33.5743 371.211 34.4171 370.751 35.1037C370.297 35.7902 369.743 36.3111 369.089 36.6662C368.441 37.0213 367.707 37.1989 366.888 37.1989C366.073 37.1989 365.346 37.0379 364.707 36.7159C364.073 36.3892 363.552 35.937 363.145 35.3594C362.742 34.777 362.484 34.1023 362.371 33.3352H364.104C364.26 34.0028 364.57 34.5545 365.034 34.9901C365.503 35.4209 366.121 35.6364 366.888 35.6364C368.01 35.6364 368.895 35.1463 369.544 34.1662C370.197 33.1861 370.524 31.8011 370.524 30.0114H370.41C370.145 30.4091 369.83 30.7524 369.466 31.0412C369.101 31.33 368.696 31.5526 368.251 31.7088C367.806 31.8651 367.333 31.9432 366.831 31.9432C365.997 31.9432 365.233 31.7372 364.537 31.3253C363.845 30.9086 363.291 30.3381 362.875 29.6136C362.463 28.8845 362.257 28.0511 362.257 27.1136C362.257 26.2235 362.456 25.4091 362.854 24.6705C363.256 23.9271 363.819 23.3352 364.544 22.8949C365.273 22.4545 366.13 22.2415 367.115 22.2557ZM367.115 23.8182C366.518 23.8182 365.981 23.9673 365.503 24.2656C365.029 24.5592 364.653 24.9569 364.373 25.4588C364.099 25.956 363.961 26.5076 363.961 27.1136C363.961 27.7197 364.094 28.2713 364.359 28.7685C364.629 29.2609 364.996 29.6539 365.46 29.9474C365.929 30.2363 366.461 30.3807 367.058 30.3807C367.508 30.3807 367.927 30.2931 368.315 30.1179C368.703 29.938 369.042 29.6941 369.331 29.3864C369.624 29.0739 369.854 28.7211 370.02 28.3281C370.185 27.9304 370.268 27.5161 370.268 27.0852C370.268 26.517 370.131 25.9844 369.856 25.4872C369.586 24.9901 369.212 24.5876 368.734 24.2798C368.261 23.9721 367.721 23.8182 367.115 23.8182ZM380.135 21.7727L375.448 39.1875H373.914L378.601 21.7727H380.135ZM387.207 22.4545V37H385.446V24.3011H385.361L381.809 26.6591V24.8693L385.446 22.4545H387.207ZM396.561 21.7727L391.873 39.1875H390.339L395.027 21.7727H396.561ZM398.519 37V35.7216L403.32 30.4659C403.884 29.8504 404.348 29.3153 404.713 28.8608C405.077 28.4015 405.347 27.9706 405.522 27.5682C405.702 27.161 405.792 26.7348 405.792 26.2898C405.792 25.7784 405.669 25.3357 405.423 24.9616C405.181 24.5876 404.85 24.2988 404.428 24.0952C404.007 23.8916 403.534 23.7898 403.008 23.7898C402.449 23.7898 401.962 23.9058 401.545 24.1378C401.133 24.3651 400.813 24.6847 400.586 25.0966C400.364 25.5085 400.252 25.9915 400.252 26.5455H398.576C398.576 25.6932 398.773 24.9451 399.166 24.3011C399.559 23.6572 400.094 23.1553 400.771 22.7955C401.453 22.4356 402.217 22.2557 403.065 22.2557C403.917 22.2557 404.672 22.4356 405.33 22.7955C405.989 23.1553 406.505 23.6406 406.879 24.2514C407.253 24.8622 407.44 25.5417 407.44 26.2898C407.44 26.8248 407.343 27.348 407.149 27.8594C406.959 28.366 406.628 28.9318 406.154 29.5568C405.686 30.1771 405.035 30.9347 404.201 31.8295L400.934 35.3239V35.4375H407.695V37H398.519ZM415.373 37.1989C414.303 37.1989 413.392 36.9077 412.639 36.3253C411.886 35.7382 411.311 34.8883 410.913 33.7756C410.515 32.6581 410.316 31.3087 410.316 29.7273C410.316 28.1553 410.515 26.813 410.913 25.7003C411.315 24.5829 411.893 23.7306 412.646 23.1435C413.403 22.5516 414.312 22.2557 415.373 22.2557C416.434 22.2557 417.34 22.5516 418.093 23.1435C418.851 23.7306 419.428 24.5829 419.826 25.7003C420.229 26.813 420.43 28.1553 420.43 29.7273C420.43 31.3087 420.231 32.6581 419.833 33.7756C419.436 34.8883 418.86 35.7382 418.107 36.3253C417.355 36.9077 416.443 37.1989 415.373 37.1989ZM415.373 35.6364C416.434 35.6364 417.258 35.125 417.845 34.1023C418.432 33.0795 418.725 31.6212 418.725 29.7273C418.725 28.4678 418.59 27.3954 418.32 26.5099C418.055 25.6245 417.672 24.9498 417.17 24.4858C416.673 24.0218 416.074 23.7898 415.373 23.7898C414.322 23.7898 413.5 24.3082 412.909 25.3452C412.317 26.3774 412.021 27.8381 412.021 29.7273C412.021 30.9867 412.153 32.0568 412.419 32.9375C412.684 33.8182 413.065 34.4882 413.562 34.9474C414.064 35.4067 414.668 35.6364 415.373 35.6364ZM423.129 37V35.7216L427.93 30.4659C428.493 29.8504 428.957 29.3153 429.322 28.8608C429.686 28.4015 429.956 27.9706 430.132 27.5682C430.311 27.161 430.401 26.7348 430.401 26.2898C430.401 25.7784 430.278 25.3357 430.032 24.9616C429.791 24.5876 429.459 24.2988 429.038 24.0952C428.616 23.8916 428.143 23.7898 427.617 23.7898C427.059 23.7898 426.571 23.9058 426.154 24.1378C425.742 24.3651 425.423 24.6847 425.195 25.0966C424.973 25.5085 424.862 25.9915 424.862 26.5455H423.186C423.186 25.6932 423.382 24.9451 423.775 24.3011C424.168 23.6572 424.703 23.1553 425.38 22.7955C426.062 22.4356 426.827 22.2557 427.674 22.2557C428.526 22.2557 429.282 22.4356 429.94 22.7955C430.598 23.1553 431.114 23.6406 431.488 24.2514C431.862 24.8622 432.049 25.5417 432.049 26.2898C432.049 26.8248 431.952 27.348 431.758 27.8594C431.569 28.366 431.237 28.9318 430.764 29.5568C430.295 30.1771 429.644 30.9347 428.811 31.8295L425.544 35.3239V35.4375H432.305V37H423.129ZM435.238 37V35.7216L440.039 30.4659C440.603 29.8504 441.067 29.3153 441.431 28.8608C441.796 28.4015 442.066 27.9706 442.241 27.5682C442.421 27.161 442.511 26.7348 442.511 26.2898C442.511 25.7784 442.388 25.3357 442.142 24.9616C441.9 24.5876 441.569 24.2988 441.147 24.0952C440.726 23.8916 440.252 23.7898 439.727 23.7898C439.168 23.7898 438.68 23.9058 438.264 24.1378C437.852 24.3651 437.532 24.6847 437.305 25.0966C437.082 25.5085 436.971 25.9915 436.971 26.5455H435.295C435.295 25.6932 435.491 24.9451 435.884 24.3011C436.277 23.6572 436.812 23.1553 437.49 22.7955C438.171 22.4356 438.936 22.2557 439.784 22.2557C440.636 22.2557 441.391 22.4356 442.049 22.7955C442.707 23.1553 443.223 23.6406 443.597 24.2514C443.972 24.8622 444.159 25.5417 444.159 26.2898C444.159 26.8248 444.061 27.348 443.867 27.8594C443.678 28.366 443.347 28.9318 442.873 29.5568C442.404 30.1771 441.753 30.9347 440.92 31.8295L437.653 35.3239V35.4375H444.414V37H435.238Z" fill="black"/>
<defs>
<filter id="filter0_b_972_3102" x="-100" y="-100" width="900" height="260" filterUnits="userSpaceOnUse" color-interpolation-filters="sRGB">
<feFlood flood-opacity="0" result="BackgroundImageFix"/>
<feGaussianBlur in="BackgroundImageFix" stdDeviation="50"/>
<feComposite in2="SourceAlpha" operator="in" result="effect1_backgroundBlur_972_3102"/>
<feBlend mode="normal" in="SourceGraphic" in2="effect1_backgroundBlur_972_3102" result="shape"/>
</filter>
<linearGradient id="paint0_linear_972_3102" x1="350" y1="0" x2="350" y2="60" gradientUnits="userSpaceOnUse">
<stop stop-color="#F5F5F5"/>
<stop offset="1" stop-color="#D2D2D2"/>
</linearGradient>
<radialGradient id="paint1_angular_972_3102" cx="0" cy="0" r="1" gradientUnits="userSpaceOnUse" gradientTransform="translate(650 42) rotate(-174.432) scale(34.5749 33.724)">
<stop offset="0.00304846" stop-color="#004167"/>
<stop offset="0.172556" stop-color="#0693F0"/>
<stop offset="0.228447" stop-color="#027FFA"/>
<stop offset="0.898958" stop-color="#0077FE"/>
</radialGradient>
<radialGradient id="paint2_radial_972_3102" cx="0" cy="0" r="1" gradientUnits="userSpaceOnUse" gradientTransform="translate(85.5 38.4) rotate(-90) scale(23.6 23.4265)">
<stop stop-color="#168FE6"/>
<stop offset="0.544792" stop-color="#168FE6"/>
<stop offset="0.682702"/>
</radialGradient>
</defs>
</svg>
