<svg width="225" height="31" viewBox="0 0 225 31" fill="none" xmlns="http://www.w3.org/2000/svg">
<rect width="225" height="31" rx="4" fill="#EFEFEF"/>
<path d="M98.9437 11.9119V10.8182H106.58V11.9119H103.378V21H102.145V11.9119H98.9437ZM110.418 21.1591C109.682 21.1591 109.048 20.9967 108.514 20.6719C107.984 20.3438 107.574 19.8864 107.286 19.2997C107.001 18.7098 106.858 18.0237 106.858 17.2415C106.858 16.4593 107.001 15.7699 107.286 15.1733C107.574 14.5734 107.975 14.1061 108.489 13.7713C109.006 13.4332 109.609 13.2642 110.299 13.2642C110.697 13.2642 111.089 13.3305 111.477 13.4631C111.865 13.5956 112.218 13.8111 112.536 14.1094C112.854 14.4044 113.108 14.7955 113.297 15.2827C113.486 15.7699 113.58 16.3698 113.58 17.0824V17.5795H107.694V16.5653H112.387C112.387 16.1345 112.301 15.75 112.128 15.4119C111.959 15.0739 111.717 14.8071 111.403 14.6115C111.091 14.416 110.723 14.3182 110.299 14.3182C109.831 14.3182 109.427 14.4342 109.086 14.6662C108.748 14.8949 108.488 15.1932 108.305 15.5611C108.123 15.929 108.032 16.3234 108.032 16.7443V17.4205C108.032 17.9972 108.131 18.486 108.33 18.8871C108.532 19.2848 108.812 19.5881 109.17 19.7969C109.528 20.0024 109.944 20.1051 110.418 20.1051C110.726 20.1051 111.005 20.062 111.253 19.9759C111.505 19.8864 111.722 19.7538 111.905 19.5781C112.087 19.3991 112.228 19.1771 112.327 18.9119L113.461 19.2301C113.341 19.6146 113.141 19.9527 112.859 20.2443C112.577 20.5327 112.229 20.758 111.815 20.9205C111.401 21.0795 110.935 21.1591 110.418 21.1591ZM116.035 13.3636L117.864 16.4858L119.694 13.3636H121.046L118.58 17.1818L121.046 21H119.694L117.864 18.0369L116.035 21H114.683L117.109 17.1818L114.683 13.3636H116.035ZM126.041 13.3636V14.358H122.084V13.3636H126.041ZM123.237 11.5341H124.411V18.8125C124.411 19.1439 124.459 19.3925 124.555 19.5582C124.654 19.7206 124.78 19.83 124.933 19.8864C125.088 19.9394 125.253 19.9659 125.425 19.9659C125.554 19.9659 125.66 19.9593 125.743 19.946C125.826 19.9295 125.892 19.9162 125.942 19.9062L126.181 20.9602C126.101 20.9901 125.99 21.0199 125.847 21.0497C125.705 21.0829 125.524 21.0994 125.306 21.0994C124.974 21.0994 124.649 21.0282 124.331 20.8857C124.016 20.7431 123.754 20.526 123.546 20.2344C123.34 19.9427 123.237 19.5748 123.237 19.1307V11.5341Z" fill="#9D9D9D"/>
</svg>
