<svg width="600" height="44" viewBox="0 0 600 44" fill="none" xmlns="http://www.w3.org/2000/svg">
<rect x="0.5" y="0.5" width="599" height="43" rx="4.5" fill="white"/>
<path d="M20.0004 12.1478C25.4416 12.1478 29.8526 16.5588 29.8526 22C29.8526 27.4413 25.4416 31.8522 20.0004 31.8522C14.5592 31.8522 10.1482 27.4413 10.1482 22C10.1482 16.5588 14.5592 12.1478 20.0004 12.1478ZM20.0004 13.6254C15.3752 13.6254 11.6258 17.3749 11.6258 22C11.6258 26.6252 15.3752 30.3746 20.0004 30.3746C24.6256 30.3746 28.375 26.6252 28.375 22C28.375 17.3749 24.6256 13.6254 20.0004 13.6254ZM19.9968 20.5215C20.3708 20.5212 20.6801 20.799 20.7293 21.1595L20.7361 21.2598L20.7396 26.6792C20.7399 27.0873 20.4093 27.4183 20.0013 27.4185C19.6273 27.4188 19.318 27.141 19.2688 26.7804L19.262 26.6802L19.2585 21.2608C19.2582 20.8527 19.5888 20.5217 19.9968 20.5215ZM20.0008 17.0759C20.5441 17.0759 20.9846 17.5164 20.9846 18.0597C20.9846 18.603 20.5441 19.0434 20.0008 19.0434C19.4575 19.0434 19.0171 18.603 19.0171 18.0597C19.0171 17.5164 19.4575 17.0759 20.0008 17.0759Z" fill="#168FE6"/>
<path fill-rule="evenodd" clip-rule="evenodd" d="M20 12.2956C14.6404 12.2956 10.2956 16.6404 10.2956 22C10.2956 27.3596 14.6404 31.7044 20 31.7044C25.3596 31.7044 29.7044 27.3596 29.7044 22C29.7044 16.6404 25.3596 12.2956 20 12.2956ZM10 22C10 16.4772 14.4772 12 20 12C25.5228 12 30 16.4772 30 22C30 27.5228 25.5228 32 20 32C14.4772 32 10 27.5228 10 22ZM11.4776 22C11.4776 17.2932 15.2932 13.4776 20 13.4776C24.7068 13.4776 28.5224 17.2932 28.5224 22C28.5224 26.7068 24.7068 30.5224 20 30.5224C15.2932 30.5224 11.4776 26.7068 11.4776 22ZM20 13.7732C15.4564 13.7732 11.7732 17.4564 11.7732 22C11.7732 26.5436 15.4564 30.2268 20 30.2268C24.5436 30.2268 28.2268 26.5436 28.2268 22C28.2268 17.4564 24.5436 13.7732 20 13.7732ZM20.0004 17.2237C19.5387 17.2237 19.1645 17.598 19.1645 18.0597C19.1645 18.5213 19.5387 18.8956 20.0004 18.8956C20.4621 18.8956 20.8364 18.5213 20.8364 18.0597C20.8364 17.598 20.4621 17.2237 20.0004 17.2237ZM18.8689 18.0597C18.8689 17.4347 19.3755 16.9281 20.0004 16.9281C20.6254 16.9281 21.132 17.4347 21.132 18.0597C21.132 18.6846 20.6254 19.1912 20.0004 19.1912C19.3755 19.1912 18.8689 18.6846 18.8689 18.0597ZM19.9965 20.6692C19.6701 20.6694 19.4057 20.9342 19.4059 21.2606L19.4094 26.6751L19.4155 26.7651C19.4569 27.0512 19.7034 27.2709 20.0008 27.2707C20.3272 27.2705 20.5917 27.0057 20.5915 26.6793L20.5879 21.2648L20.5818 21.1748C20.5405 20.8888 20.294 20.669 19.9965 20.6692ZM19.1103 21.2608C19.11 20.7712 19.5067 20.374 19.9963 20.3737C20.4453 20.3734 20.8163 20.7067 20.8753 21.1396L20.8767 21.1495L20.8838 21.2597L20.887 26.6791C20.8873 27.1688 20.4907 27.566 20.001 27.5663C19.5521 27.5666 19.181 27.2332 19.122 26.8004L19.1207 26.7905L19.1135 26.6803L19.1103 21.2608Z" fill="#168FE6"/>
<path d="M47.5568 18.8643V17.3182H55.6804V18.8643H52.5334V27.5H50.7038V18.8643H47.5568ZM57.1669 27.5V19.8636H58.9666V27.5H57.1669ZM58.0717 18.7798C57.7867 18.7798 57.5414 18.6854 57.3359 18.4964C57.1304 18.3042 57.0277 18.0739 57.0277 17.8054C57.0277 17.5336 57.1304 17.3033 57.3359 17.1143C57.5414 16.9221 57.7867 16.826 58.0717 16.826C58.3601 16.826 58.6054 16.9221 58.8075 17.1143C59.013 17.3033 59.1158 17.5336 59.1158 17.8054C59.1158 18.0739 59.013 18.3042 58.8075 18.4964C58.6054 18.6854 58.3601 18.7798 58.0717 18.7798ZM64.6305 19.8636V21.2557H60.2406V19.8636H64.6305ZM61.3244 18.0341H63.1241V25.2031C63.1241 25.4451 63.1606 25.6307 63.2335 25.7599C63.3097 25.8859 63.4092 25.9721 63.5318 26.0185C63.6544 26.0649 63.7903 26.0881 63.9395 26.0881C64.0521 26.0881 64.1549 26.0798 64.2477 26.0632C64.3438 26.0466 64.4167 26.0317 64.4664 26.0185L64.7697 27.4254C64.6736 27.4586 64.536 27.495 64.3571 27.5348C64.1814 27.5746 63.966 27.5978 63.7108 27.6044C63.26 27.6177 62.854 27.5497 62.4927 27.4006C62.1315 27.2481 61.8448 27.0128 61.6326 26.6946C61.4238 26.3764 61.3211 25.9787 61.3244 25.5014V18.0341ZM68.0994 17.3182V27.5H66.2997V17.3182H68.0994ZM73.3308 27.6491C72.5652 27.6491 71.9039 27.4901 71.3471 27.1719C70.7936 26.8504 70.3677 26.3963 70.0694 25.8097C69.7711 25.2197 69.622 24.5253 69.622 23.7266C69.622 22.9411 69.7711 22.2517 70.0694 21.6584C70.371 21.0618 70.792 20.5978 71.3322 20.2663C71.8725 19.9316 72.5072 19.7642 73.2363 19.7642C73.707 19.7642 74.1511 19.8404 74.5687 19.9929C74.9896 20.142 75.3609 20.3741 75.6824 20.6889C76.0072 21.0038 76.2624 21.4048 76.448 21.892C76.6336 22.3759 76.7264 22.9527 76.7264 23.6222V24.174H70.4672V22.9609H75.0012C74.9979 22.6162 74.9234 22.3097 74.7775 22.0412C74.6317 21.7694 74.4279 21.5556 74.166 21.3999C73.9075 21.2441 73.6059 21.1662 73.2612 21.1662C72.8933 21.1662 72.5701 21.2557 72.2917 21.4347C72.0133 21.6103 71.7962 21.8423 71.6404 22.1307C71.488 22.4157 71.4101 22.7289 71.4068 23.0703V24.1293C71.4068 24.5734 71.488 24.9545 71.6504 25.2727C71.8128 25.5876 72.0398 25.8295 72.3315 25.9986C72.6232 26.1643 72.9645 26.2472 73.3556 26.2472C73.6175 26.2472 73.8545 26.2107 74.0666 26.1378C74.2787 26.0616 74.4627 25.9505 74.6184 25.8047C74.7742 25.6589 74.8919 25.4782 74.9714 25.2628L76.6518 25.4517C76.5458 25.8958 76.3436 26.2836 76.0453 26.6151C75.7503 26.9432 75.3725 27.1984 74.9118 27.3807C74.4511 27.5597 73.9241 27.6491 73.3308 27.6491Z" fill="black"/>
<path d="M89.233 27.5V17.3182H90.4659V26.4062H95.1989V27.5H89.233ZM100.051 27.6591C99.3617 27.6591 98.7569 27.495 98.2365 27.1669C97.7195 26.8388 97.3151 26.3797 97.0234 25.7898C96.7351 25.1998 96.5909 24.5104 96.5909 23.7216C96.5909 22.9261 96.7351 22.2318 97.0234 21.6385C97.3151 21.0452 97.7195 20.5845 98.2365 20.2564C98.7569 19.9283 99.3617 19.7642 100.051 19.7642C100.741 19.7642 101.344 19.9283 101.861 20.2564C102.381 20.5845 102.786 21.0452 103.074 21.6385C103.366 22.2318 103.511 22.9261 103.511 23.7216C103.511 24.5104 103.366 25.1998 103.074 25.7898C102.786 26.3797 102.381 26.8388 101.861 27.1669C101.344 27.495 100.741 27.6591 100.051 27.6591ZM100.051 26.6051C100.575 26.6051 101.006 26.4709 101.344 26.2024C101.682 25.9339 101.932 25.581 102.094 25.1435C102.257 24.706 102.338 24.232 102.338 23.7216C102.338 23.2112 102.257 22.7356 102.094 22.2947C101.932 21.8539 101.682 21.4976 101.344 21.2259C101.006 20.9541 100.575 20.8182 100.051 20.8182C99.5275 20.8182 99.0966 20.9541 98.7585 21.2259C98.4205 21.4976 98.1702 21.8539 98.0078 22.2947C97.8454 22.7356 97.7642 23.2112 97.7642 23.7216C97.7642 24.232 97.8454 24.706 98.0078 25.1435C98.1702 25.581 98.4205 25.9339 98.7585 26.2024C99.0966 26.4709 99.5275 26.6051 100.051 26.6051ZM105.302 27.5V19.8636H106.436V21.017H106.515C106.655 20.6392 106.907 20.3326 107.271 20.0973C107.636 19.862 108.047 19.7443 108.504 19.7443C108.59 19.7443 108.698 19.746 108.827 19.7493C108.956 19.7526 109.054 19.7576 109.121 19.7642V20.9574C109.081 20.9474 108.99 20.9325 108.847 20.9126C108.708 20.8894 108.56 20.8778 108.405 20.8778C108.033 20.8778 107.702 20.9557 107.41 21.1115C107.122 21.264 106.893 21.4761 106.724 21.7479C106.559 22.0163 106.476 22.3229 106.476 22.6676V27.5H105.302ZM113.481 27.6591C112.745 27.6591 112.11 27.4967 111.577 27.1719C111.046 26.8438 110.637 26.3864 110.349 25.7997C110.064 25.2098 109.921 24.5237 109.921 23.7415C109.921 22.9593 110.064 22.2699 110.349 21.6733C110.637 21.0734 111.038 20.6061 111.552 20.2713C112.069 19.9332 112.672 19.7642 113.361 19.7642C113.759 19.7642 114.152 19.8305 114.54 19.9631C114.927 20.0956 115.28 20.3111 115.599 20.6094C115.917 20.9044 116.17 21.2955 116.359 21.7827C116.548 22.2699 116.643 22.8698 116.643 23.5824V24.0795H110.756V23.0653H115.449C115.449 22.6345 115.363 22.25 115.191 21.9119C115.022 21.5739 114.78 21.3071 114.465 21.1115C114.153 20.916 113.786 20.8182 113.361 20.8182C112.894 20.8182 112.49 20.9342 112.148 21.1662C111.81 21.3949 111.55 21.6932 111.368 22.0611C111.185 22.429 111.094 22.8234 111.094 23.2443V23.9205C111.094 24.4972 111.194 24.986 111.393 25.3871C111.595 25.7848 111.875 26.0881 112.233 26.2969C112.591 26.5024 113.007 26.6051 113.481 26.6051C113.789 26.6051 114.067 26.562 114.316 26.4759C114.568 26.3864 114.785 26.2538 114.967 26.0781C115.149 25.8991 115.29 25.6771 115.39 25.4119L116.523 25.7301C116.404 26.1146 116.203 26.4527 115.922 26.7443C115.64 27.0327 115.292 27.258 114.878 27.4205C114.463 27.5795 113.998 27.6591 113.481 27.6591ZM118.427 27.5V19.8636H119.561V21.0568H119.66C119.819 20.6491 120.076 20.3326 120.431 20.1072C120.786 19.8786 121.211 19.7642 121.709 19.7642C122.212 19.7642 122.632 19.8786 122.966 20.1072C123.305 20.3326 123.568 20.6491 123.757 21.0568H123.836C124.032 20.6624 124.325 20.3492 124.716 20.1172C125.108 19.8819 125.577 19.7642 126.123 19.7642C126.806 19.7642 127.365 19.978 127.799 20.4055C128.233 20.8298 128.45 21.491 128.45 22.3892V27.5H127.277V22.3892C127.277 21.8258 127.123 21.4231 126.814 21.1811C126.506 20.9392 126.143 20.8182 125.726 20.8182C125.189 20.8182 124.773 20.9806 124.478 21.3054C124.183 21.6269 124.035 22.0346 124.035 22.5284V27.5H122.842V22.2699C122.842 21.8357 122.701 21.486 122.42 21.2209C122.138 20.9524 121.775 20.8182 121.331 20.8182C121.026 20.8182 120.741 20.8994 120.476 21.0618C120.214 21.2242 120.002 21.4496 119.839 21.7379C119.68 22.023 119.601 22.3527 119.601 22.7273V27.5H118.427ZM134.533 27.5V19.8636H135.706V27.5H134.533ZM135.129 18.5909C134.901 18.5909 134.704 18.513 134.538 18.3572C134.375 18.2015 134.294 18.0142 134.294 17.7955C134.294 17.5767 134.375 17.3894 134.538 17.2337C134.704 17.0779 134.901 17 135.129 17C135.358 17 135.554 17.0779 135.716 17.2337C135.882 17.3894 135.965 17.5767 135.965 17.7955C135.965 18.0142 135.882 18.2015 135.716 18.3572C135.554 18.513 135.358 18.5909 135.129 18.5909ZM137.855 30.3636V19.8636H138.989V21.0767H139.128C139.214 20.9441 139.333 20.7751 139.486 20.5696C139.642 20.3608 139.864 20.1752 140.152 20.0128C140.444 19.8471 140.838 19.7642 141.335 19.7642C141.978 19.7642 142.545 19.925 143.036 20.2464C143.526 20.5679 143.909 21.0237 144.184 21.6136C144.459 22.2036 144.597 22.8996 144.597 23.7017C144.597 24.5104 144.459 25.2114 144.184 25.8047C143.909 26.3946 143.528 26.852 143.04 27.1768C142.553 27.4983 141.991 27.6591 141.355 27.6591C140.865 27.6591 140.472 27.5779 140.177 27.4155C139.882 27.2498 139.655 27.0625 139.496 26.8537C139.337 26.6416 139.214 26.4659 139.128 26.3267H139.028V30.3636H137.855ZM139.009 23.6818C139.009 24.2585 139.093 24.7673 139.262 25.2081C139.431 25.6456 139.678 25.9886 140.003 26.2372C140.328 26.4825 140.725 26.6051 141.196 26.6051C141.687 26.6051 142.096 26.4759 142.424 26.2173C142.755 25.9555 143.004 25.6042 143.17 25.1634C143.339 24.7192 143.423 24.2254 143.423 23.6818C143.423 23.1449 143.34 22.661 143.175 22.2301C143.012 21.7959 142.765 21.4529 142.434 21.201C142.106 20.9458 141.693 20.8182 141.196 20.8182C140.719 20.8182 140.318 20.9392 139.993 21.1811C139.668 21.4197 139.423 21.7545 139.257 22.1854C139.091 22.6129 139.009 23.1117 139.009 23.6818ZM151.795 21.5739L150.741 21.8722C150.675 21.6965 150.577 21.5258 150.448 21.3601C150.322 21.1911 150.15 21.0518 149.931 20.9425C149.712 20.8331 149.432 20.7784 149.091 20.7784C148.624 20.7784 148.234 20.8861 147.923 21.1016C147.614 21.3137 147.46 21.5838 147.46 21.9119C147.46 22.2036 147.566 22.4339 147.778 22.603C147.991 22.772 148.322 22.9129 148.773 23.0256L149.906 23.304C150.589 23.4697 151.098 23.7232 151.433 24.0646C151.767 24.4027 151.935 24.8385 151.935 25.3722C151.935 25.8097 151.809 26.2008 151.557 26.5455C151.308 26.8902 150.96 27.1619 150.513 27.3608C150.065 27.5597 149.545 27.6591 148.952 27.6591C148.173 27.6591 147.528 27.4901 147.018 27.152C146.507 26.8139 146.184 26.3201 146.048 25.6705L147.162 25.392C147.268 25.803 147.469 26.1113 147.763 26.3168C148.062 26.5223 148.451 26.625 148.932 26.625C149.479 26.625 149.913 26.509 150.234 26.277C150.559 26.0417 150.722 25.7599 150.722 25.4318C150.722 25.1667 150.629 24.9446 150.443 24.7656C150.258 24.5833 149.973 24.4474 149.588 24.358L148.315 24.0597C147.616 23.8939 147.102 23.6371 146.774 23.2891C146.449 22.9377 146.287 22.4986 146.287 21.9716C146.287 21.5407 146.408 21.1596 146.65 20.8281C146.895 20.4967 147.228 20.2365 147.649 20.0476C148.073 19.8587 148.554 19.7642 149.091 19.7642C149.847 19.7642 150.44 19.9299 150.871 20.2614C151.305 20.5928 151.613 21.0303 151.795 21.5739ZM158.513 24.3778V19.8636H159.687V27.5H158.513V26.2074H158.434C158.255 26.5952 157.976 26.925 157.599 27.1967C157.221 27.4652 156.743 27.5994 156.167 27.5994C155.689 27.5994 155.265 27.495 154.894 27.2862C154.523 27.0741 154.231 26.7559 154.019 26.3317C153.807 25.9041 153.701 25.3655 153.701 24.7159V19.8636H154.874V24.6364C154.874 25.1932 155.03 25.6373 155.341 25.9688C155.656 26.3002 156.057 26.4659 156.545 26.4659C156.836 26.4659 157.133 26.3913 157.434 26.2422C157.739 26.093 157.995 25.8643 158.2 25.5561C158.409 25.2479 158.513 24.8551 158.513 24.3778ZM161.836 27.5V19.8636H162.969V21.0568H163.069C163.228 20.6491 163.484 20.3326 163.839 20.1072C164.194 19.8786 164.62 19.7642 165.117 19.7642C165.621 19.7642 166.04 19.8786 166.375 20.1072C166.713 20.3326 166.976 20.6491 167.165 21.0568H167.245C167.44 20.6624 167.734 20.3492 168.125 20.1172C168.516 19.8819 168.985 19.7642 169.532 19.7642C170.214 19.7642 170.773 19.978 171.207 20.4055C171.641 20.8298 171.858 21.491 171.858 22.3892V27.5H170.685V22.3892C170.685 21.8258 170.531 21.4231 170.223 21.1811C169.914 20.9392 169.551 20.8182 169.134 20.8182C168.597 20.8182 168.181 20.9806 167.886 21.3054C167.591 21.6269 167.444 22.0346 167.444 22.5284V27.5H166.25V22.2699C166.25 21.8357 166.109 21.486 165.828 21.2209C165.546 20.9524 165.183 20.8182 164.739 20.8182C164.434 20.8182 164.149 20.8994 163.884 21.0618C163.622 21.2242 163.41 21.4496 163.248 21.7379C163.088 22.023 163.009 22.3527 163.009 22.7273V27.5H161.836ZM180.825 27.6591C180.188 27.6591 179.626 27.4983 179.139 27.1768C178.652 26.852 178.271 26.3946 177.996 25.8047C177.721 25.2114 177.583 24.5104 177.583 23.7017C177.583 22.8996 177.721 22.2036 177.996 21.6136C178.271 21.0237 178.654 20.5679 179.144 20.2464C179.635 19.925 180.201 19.7642 180.844 19.7642C181.342 19.7642 181.734 19.8471 182.023 20.0128C182.314 20.1752 182.536 20.3608 182.689 20.5696C182.845 20.7751 182.966 20.9441 183.052 21.0767H183.151V17.3182H184.325V27.5H183.191V26.3267H183.052C182.966 26.4659 182.843 26.6416 182.684 26.8537C182.525 27.0625 182.298 27.2498 182.003 27.4155C181.708 27.5779 181.315 27.6591 180.825 27.6591ZM180.984 26.6051C181.454 26.6051 181.852 26.4825 182.177 26.2372C182.502 25.9886 182.749 25.6456 182.918 25.2081C183.087 24.7673 183.171 24.2585 183.171 23.6818C183.171 23.1117 183.088 22.6129 182.923 22.1854C182.757 21.7545 182.512 21.4197 182.187 21.1811C181.862 20.9392 181.461 20.8182 180.984 20.8182C180.487 20.8182 180.072 20.9458 179.741 21.201C179.413 21.4529 179.166 21.7959 179 22.2301C178.838 22.661 178.756 23.1449 178.756 23.6818C178.756 24.2254 178.839 24.7192 179.005 25.1634C179.174 25.6042 179.423 25.9555 179.751 26.2173C180.082 26.4759 180.493 26.6051 180.984 26.6051ZM189.739 27.6591C189.049 27.6591 188.444 27.495 187.924 27.1669C187.407 26.8388 187.003 26.3797 186.711 25.7898C186.423 25.1998 186.278 24.5104 186.278 23.7216C186.278 22.9261 186.423 22.2318 186.711 21.6385C187.003 21.0452 187.407 20.5845 187.924 20.2564C188.444 19.9283 189.049 19.7642 189.739 19.7642C190.428 19.7642 191.031 19.9283 191.548 20.2564C192.069 20.5845 192.473 21.0452 192.761 21.6385C193.053 22.2318 193.199 22.9261 193.199 23.7216C193.199 24.5104 193.053 25.1998 192.761 25.7898C192.473 26.3797 192.069 26.8388 191.548 27.1669C191.031 27.495 190.428 27.6591 189.739 27.6591ZM189.739 26.6051C190.262 26.6051 190.693 26.4709 191.031 26.2024C191.369 25.9339 191.62 25.581 191.782 25.1435C191.944 24.706 192.026 24.232 192.026 23.7216C192.026 23.2112 191.944 22.7356 191.782 22.2947C191.62 21.8539 191.369 21.4976 191.031 21.2259C190.693 20.9541 190.262 20.8182 189.739 20.8182C189.215 20.8182 188.784 20.9541 188.446 21.2259C188.108 21.4976 187.858 21.8539 187.695 22.2947C187.533 22.7356 187.452 23.2112 187.452 23.7216C187.452 24.232 187.533 24.706 187.695 25.1435C187.858 25.581 188.108 25.9339 188.446 26.2024C188.784 26.4709 189.215 26.6051 189.739 26.6051ZM196.163 17.3182V27.5H194.99V17.3182H196.163ZM201.414 27.6591C200.725 27.6591 200.12 27.495 199.6 27.1669C199.083 26.8388 198.678 26.3797 198.387 25.7898C198.098 25.1998 197.954 24.5104 197.954 23.7216C197.954 22.9261 198.098 22.2318 198.387 21.6385C198.678 21.0452 199.083 20.5845 199.6 20.2564C200.12 19.9283 200.725 19.7642 201.414 19.7642C202.104 19.7642 202.707 19.9283 203.224 20.2564C203.744 20.5845 204.149 21.0452 204.437 21.6385C204.729 22.2318 204.875 22.9261 204.875 23.7216C204.875 24.5104 204.729 25.1998 204.437 25.7898C204.149 26.3797 203.744 26.8388 203.224 27.1669C202.707 27.495 202.104 27.6591 201.414 27.6591ZM201.414 26.6051C201.938 26.6051 202.369 26.4709 202.707 26.2024C203.045 25.9339 203.295 25.581 203.458 25.1435C203.62 24.706 203.701 24.232 203.701 23.7216C203.701 23.2112 203.62 22.7356 203.458 22.2947C203.295 21.8539 203.045 21.4976 202.707 21.2259C202.369 20.9541 201.938 20.8182 201.414 20.8182C200.891 20.8182 200.46 20.9541 200.122 21.2259C199.784 21.4976 199.533 21.8539 199.371 22.2947C199.209 22.7356 199.127 23.2112 199.127 23.7216C199.127 24.232 199.209 24.706 199.371 25.1435C199.533 25.581 199.784 25.9339 200.122 26.2024C200.46 26.4709 200.891 26.6051 201.414 26.6051ZM206.666 27.5V19.8636H207.799V21.017H207.879C208.018 20.6392 208.27 20.3326 208.634 20.0973C208.999 19.862 209.41 19.7443 209.867 19.7443C209.954 19.7443 210.061 19.746 210.191 19.7493C210.32 19.7526 210.418 19.7576 210.484 19.7642V20.9574C210.444 20.9474 210.353 20.9325 210.21 20.9126C210.071 20.8894 209.924 20.8778 209.768 20.8778C209.397 20.8778 209.065 20.9557 208.774 21.1115C208.485 21.264 208.257 21.4761 208.088 21.7479C207.922 22.0163 207.839 22.3229 207.839 22.6676V27.5H206.666ZM221.221 21.5739L220.167 21.8722C220.101 21.6965 220.003 21.5258 219.874 21.3601C219.748 21.1911 219.576 21.0518 219.357 20.9425C219.138 20.8331 218.858 20.7784 218.517 20.7784C218.049 20.7784 217.66 20.8861 217.348 21.1016C217.04 21.3137 216.886 21.5838 216.886 21.9119C216.886 22.2036 216.992 22.4339 217.204 22.603C217.416 22.772 217.748 22.9129 218.199 23.0256L219.332 23.304C220.015 23.4697 220.524 23.7232 220.858 24.0646C221.193 24.4027 221.36 24.8385 221.36 25.3722C221.36 25.8097 221.234 26.2008 220.983 26.5455C220.734 26.8902 220.386 27.1619 219.939 27.3608C219.491 27.5597 218.971 27.6591 218.377 27.6591C217.599 27.6591 216.954 27.4901 216.444 27.152C215.933 26.8139 215.61 26.3201 215.474 25.6705L216.588 25.392C216.694 25.803 216.894 26.1113 217.189 26.3168C217.488 26.5223 217.877 26.625 218.358 26.625C218.904 26.625 219.339 26.509 219.66 26.277C219.985 26.0417 220.147 25.7599 220.147 25.4318C220.147 25.1667 220.055 24.9446 219.869 24.7656C219.683 24.5833 219.398 24.4474 219.014 24.358L217.741 24.0597C217.042 23.8939 216.528 23.6371 216.2 23.2891C215.875 22.9377 215.713 22.4986 215.713 21.9716C215.713 21.5407 215.834 21.1596 216.076 20.8281C216.321 20.4967 216.654 20.2365 217.075 20.0476C217.499 19.8587 217.98 19.7642 218.517 19.7642C219.272 19.7642 219.866 19.9299 220.297 20.2614C220.731 20.5928 221.039 21.0303 221.221 21.5739ZM223.127 27.5V19.8636H224.3V27.5H223.127ZM223.723 18.5909C223.494 18.5909 223.297 18.513 223.132 18.3572C222.969 18.2015 222.888 18.0142 222.888 17.7955C222.888 17.5767 222.969 17.3894 223.132 17.2337C223.297 17.0779 223.494 17 223.723 17C223.952 17 224.147 17.0779 224.31 17.2337C224.476 17.3894 224.558 17.5767 224.558 17.7955C224.558 18.0142 224.476 18.2015 224.31 18.3572C224.147 18.513 223.952 18.5909 223.723 18.5909ZM229.77 19.8636V20.858H225.812V19.8636H229.77ZM226.966 18.0341H228.139V25.3125C228.139 25.6439 228.187 25.8925 228.283 26.0582C228.383 26.2206 228.509 26.33 228.661 26.3864C228.817 26.4394 228.981 26.4659 229.153 26.4659C229.283 26.4659 229.389 26.4593 229.472 26.446C229.554 26.4295 229.621 26.4162 229.67 26.4062L229.909 27.4602C229.83 27.4901 229.719 27.5199 229.576 27.5497C229.433 27.5829 229.253 27.5994 229.034 27.5994C228.703 27.5994 228.378 27.5282 228.06 27.3857C227.745 27.2431 227.483 27.026 227.274 26.7344C227.069 26.4427 226.966 26.0748 226.966 25.6307V18.0341ZM237.719 27.679C237.236 27.679 236.796 27.5878 236.402 27.4055C236.008 27.2199 235.694 26.9531 235.462 26.6051C235.23 26.2538 235.114 25.8295 235.114 25.3324C235.114 24.8949 235.201 24.5402 235.373 24.2685C235.545 23.9934 235.776 23.7779 236.064 23.6222C236.352 23.4664 236.67 23.3504 237.018 23.2741C237.37 23.1946 237.723 23.1316 238.077 23.0852C238.541 23.0256 238.918 22.9808 239.206 22.951C239.498 22.9179 239.71 22.8632 239.842 22.7869C239.978 22.7107 240.046 22.5781 240.046 22.3892V22.3494C240.046 21.8589 239.912 21.4777 239.643 21.206C239.378 20.9342 238.976 20.7983 238.435 20.7983C237.875 20.7983 237.436 20.9209 237.118 21.1662C236.8 21.4115 236.576 21.6733 236.447 21.9517L235.333 21.554C235.532 21.09 235.797 20.7287 236.129 20.4702C236.463 20.2083 236.828 20.026 237.222 19.9233C237.62 19.8172 238.011 19.7642 238.396 19.7642C238.641 19.7642 238.923 19.794 239.241 19.8537C239.562 19.91 239.872 20.0277 240.17 20.2067C240.472 20.3857 240.722 20.6558 240.921 21.017C241.12 21.3783 241.219 21.8622 241.219 22.4688V27.5H240.046V26.4659H239.987C239.907 26.6316 239.774 26.8089 239.589 26.9979C239.403 27.1868 239.156 27.3475 238.848 27.4801C238.54 27.6127 238.164 27.679 237.719 27.679ZM237.898 26.625C238.362 26.625 238.754 26.5339 239.072 26.3516C239.393 26.1693 239.635 25.9339 239.798 25.6456C239.963 25.3572 240.046 25.054 240.046 24.7358V23.6619C239.996 23.7216 239.887 23.7763 239.718 23.826C239.552 23.8724 239.36 23.9138 239.141 23.9503C238.926 23.9834 238.715 24.0133 238.51 24.0398C238.308 24.063 238.144 24.0829 238.018 24.0994C237.713 24.1392 237.428 24.2038 237.163 24.2933C236.901 24.3795 236.689 24.5104 236.526 24.6861C236.367 24.8584 236.288 25.0937 236.288 25.392C236.288 25.7997 236.438 26.108 236.74 26.3168C237.045 26.5223 237.431 26.625 237.898 26.625ZM243.361 27.5V19.8636H244.494V21.0568H244.594C244.753 20.6491 245.01 20.3326 245.365 20.1072C245.719 19.8786 246.145 19.7642 246.642 19.7642C247.146 19.7642 247.565 19.8786 247.9 20.1072C248.238 20.3326 248.502 20.6491 248.691 21.0568H248.77C248.966 20.6624 249.259 20.3492 249.65 20.1172C250.041 19.8819 250.51 19.7642 251.057 19.7642C251.74 19.7642 252.298 19.978 252.732 20.4055C253.167 20.8298 253.384 21.491 253.384 22.3892V27.5H252.21V22.3892C252.21 21.8258 252.056 21.4231 251.748 21.1811C251.44 20.9392 251.077 20.8182 250.659 20.8182C250.122 20.8182 249.706 20.9806 249.411 21.3054C249.116 21.6269 248.969 22.0346 248.969 22.5284V27.5H247.776V22.2699C247.776 21.8357 247.635 21.486 247.353 21.2209C247.071 20.9524 246.709 20.8182 246.264 20.8182C245.959 20.8182 245.674 20.8994 245.409 21.0618C245.147 21.2242 244.935 21.4496 244.773 21.7379C244.614 22.023 244.534 22.3527 244.534 22.7273V27.5H243.361ZM258.731 27.6591C257.995 27.6591 257.36 27.4967 256.827 27.1719C256.296 26.8438 255.887 26.3864 255.599 25.7997C255.314 25.2098 255.171 24.5237 255.171 23.7415C255.171 22.9593 255.314 22.2699 255.599 21.6733C255.887 21.0734 256.288 20.6061 256.802 20.2713C257.319 19.9332 257.922 19.7642 258.611 19.7642C259.009 19.7642 259.402 19.8305 259.79 19.9631C260.177 20.0956 260.53 20.3111 260.849 20.6094C261.167 20.9044 261.42 21.2955 261.609 21.7827C261.798 22.2699 261.893 22.8698 261.893 23.5824V24.0795H256.006V23.0653H260.699C260.699 22.6345 260.613 22.25 260.441 21.9119C260.272 21.5739 260.03 21.3071 259.715 21.1115C259.403 20.916 259.036 20.8182 258.611 20.8182C258.144 20.8182 257.74 20.9342 257.398 21.1662C257.06 21.3949 256.8 21.6932 256.618 22.0611C256.435 22.429 256.344 22.8234 256.344 23.2443V23.9205C256.344 24.4972 256.444 24.986 256.643 25.3871C256.845 25.7848 257.125 26.0881 257.483 26.2969C257.841 26.5024 258.257 26.6051 258.731 26.6051C259.039 26.6051 259.317 26.562 259.566 26.4759C259.818 26.3864 260.035 26.2538 260.217 26.0781C260.399 25.8991 260.54 25.6771 260.64 25.4119L261.773 25.7301C261.654 26.1146 261.453 26.4527 261.172 26.7443C260.89 27.0327 260.542 27.258 260.128 27.4205C259.713 27.5795 259.248 27.6591 258.731 27.6591ZM266.998 19.8636V20.858H263.041V19.8636H266.998ZM264.194 18.0341H265.368V25.3125C265.368 25.6439 265.416 25.8925 265.512 26.0582C265.611 26.2206 265.737 26.33 265.89 26.3864C266.046 26.4394 266.21 26.4659 266.382 26.4659C266.511 26.4659 266.617 26.4593 266.7 26.446C266.783 26.4295 266.849 26.4162 266.899 26.4062L267.138 27.4602C267.058 27.4901 266.947 27.5199 266.805 27.5497C266.662 27.5829 266.481 27.5994 266.263 27.5994C265.931 27.5994 265.606 27.5282 265.288 27.3857C264.973 27.2431 264.711 27.026 264.503 26.7344C264.297 26.4427 264.194 26.0748 264.194 25.6307V18.0341ZM269.618 27.5795C269.373 27.5795 269.163 27.4917 268.987 27.3161C268.811 27.1404 268.724 26.9299 268.724 26.6847C268.724 26.4394 268.811 26.2289 268.987 26.0533C269.163 25.8776 269.373 25.7898 269.618 25.7898C269.864 25.7898 270.074 25.8776 270.25 26.0533C270.425 26.2289 270.513 26.4394 270.513 26.6847C270.513 26.8471 270.472 26.9962 270.389 27.1321C270.309 27.268 270.202 27.3774 270.066 27.4602C269.933 27.5398 269.784 27.5795 269.618 27.5795Z" fill="black"/>
<path d="M574 22.8496L569.025 27.8242C568.908 27.9414 568.768 28 568.604 28C568.432 28 568.287 27.9434 568.17 27.8301C568.057 27.7129 568 27.5684 568 27.3965C568 27.2324 568.059 27.0918 568.176 26.9746L573.15 22L568.176 17.0254C568.059 16.9082 568 16.7656 568 16.5977C568 16.5156 568.016 16.4375 568.047 16.3633C568.078 16.2891 568.121 16.2266 568.176 16.1758C568.23 16.1211 568.295 16.0781 568.369 16.0469C568.443 16.0156 568.521 16 568.604 16C568.768 16 568.908 16.0586 569.025 16.1758L574 21.1504L578.975 16.1758C579.092 16.0586 579.234 16 579.402 16C579.484 16 579.561 16.0156 579.631 16.0469C579.705 16.0781 579.77 16.1211 579.824 16.1758C579.879 16.2305 579.922 16.2949 579.953 16.3691C579.984 16.4395 580 16.5156 580 16.5977C580 16.7656 579.941 16.9082 579.824 17.0254L574.85 22L579.824 26.9746C579.941 27.0918 580 27.2324 580 27.3965C580 27.4785 579.984 27.5566 579.953 27.6309C579.922 27.7051 579.879 27.7695 579.824 27.8242C579.773 27.8789 579.711 27.9219 579.637 27.9531C579.562 27.9844 579.484 28 579.402 28C579.234 28 579.092 27.9414 578.975 27.8242L574 22.8496Z" fill="black"/>
<rect x="0.5" y="0.5" width="599" height="43" rx="4.5" stroke="url(#paint0_linear_3_1800)"/>
<defs>
<linearGradient id="paint0_linear_3_1800" x1="300" y1="0" x2="300" y2="44" gradientUnits="userSpaceOnUse">
<stop stop-color="#F5F5F5"/>
<stop offset="1" stop-color="#D2D2D2"/>
</linearGradient>
</defs>
</svg>
