<svg width="240" height="266" viewBox="0 0 240 266" fill="none" xmlns="http://www.w3.org/2000/svg">
<rect x="0.5" y="0.5" width="239" height="265" rx="5.5" fill="white"/>
<path d="M106.444 21.9119V20.8182H114.08V21.9119H110.878V31H109.645V21.9119H106.444ZM117.918 31.1591C117.182 31.1591 116.548 30.9967 116.014 30.6719C115.484 30.3438 115.074 29.8864 114.786 29.2997C114.501 28.7098 114.358 28.0237 114.358 27.2415C114.358 26.4593 114.501 25.7699 114.786 25.1733C115.074 24.5734 115.475 24.1061 115.989 23.7713C116.506 23.4332 117.109 23.2642 117.799 23.2642C118.197 23.2642 118.589 23.3305 118.977 23.4631C119.365 23.5956 119.718 23.8111 120.036 24.1094C120.354 24.4044 120.608 24.7955 120.797 25.2827C120.986 25.7699 121.08 26.3698 121.08 27.0824V27.5795H115.194V26.5653H119.887C119.887 26.1345 119.801 25.75 119.628 25.4119C119.459 25.0739 119.217 24.8071 118.903 24.6115C118.591 24.416 118.223 24.3182 117.799 24.3182C117.331 24.3182 116.927 24.4342 116.586 24.6662C116.248 24.8949 115.988 25.1932 115.805 25.5611C115.623 25.929 115.532 26.3234 115.532 26.7443V27.4205C115.532 27.9972 115.631 28.486 115.83 28.8871C116.032 29.2848 116.312 29.5881 116.67 29.7969C117.028 30.0024 117.444 30.1051 117.918 30.1051C118.226 30.1051 118.505 30.062 118.753 29.9759C119.005 29.8864 119.222 29.7538 119.405 29.5781C119.587 29.3991 119.728 29.1771 119.827 28.9119L120.961 29.2301C120.841 29.6146 120.641 29.9527 120.359 30.2443C120.077 30.5327 119.729 30.758 119.315 30.9205C118.901 31.0795 118.435 31.1591 117.918 31.1591ZM123.535 23.3636L125.364 26.4858L127.194 23.3636H128.546L126.08 27.1818L128.546 31H127.194L125.364 28.0369L123.535 31H122.183L124.609 27.1818L122.183 23.3636H123.535ZM133.541 23.3636V24.358H129.584V23.3636H133.541ZM130.737 21.5341H131.911V28.8125C131.911 29.1439 131.959 29.3925 132.055 29.5582C132.154 29.7206 132.28 29.83 132.433 29.8864C132.588 29.9394 132.753 29.9659 132.925 29.9659C133.054 29.9659 133.16 29.9593 133.243 29.946C133.326 29.9295 133.392 29.9162 133.442 29.9062L133.681 30.9602C133.601 30.9901 133.49 31.0199 133.347 31.0497C133.205 31.0829 133.024 31.0994 132.806 31.0994C132.474 31.0994 132.149 31.0282 131.831 30.8857C131.516 30.7431 131.254 30.526 131.046 30.2344C130.84 29.9427 130.737 29.5748 130.737 29.1307V21.5341Z" fill="black"/>
<path d="M106.444 62.9119V61.8182H114.08V62.9119H110.878V72H109.645V62.9119H106.444ZM117.918 72.1591C117.182 72.1591 116.548 71.9967 116.014 71.6719C115.484 71.3438 115.074 70.8864 114.786 70.2997C114.501 69.7098 114.358 69.0237 114.358 68.2415C114.358 67.4593 114.501 66.7699 114.786 66.1733C115.074 65.5734 115.475 65.1061 115.989 64.7713C116.506 64.4332 117.109 64.2642 117.799 64.2642C118.197 64.2642 118.589 64.3305 118.977 64.4631C119.365 64.5956 119.718 64.8111 120.036 65.1094C120.354 65.4044 120.608 65.7955 120.797 66.2827C120.986 66.7699 121.08 67.3698 121.08 68.0824V68.5795H115.194V67.5653H119.887C119.887 67.1345 119.801 66.75 119.628 66.4119C119.459 66.0739 119.217 65.8071 118.903 65.6115C118.591 65.416 118.223 65.3182 117.799 65.3182C117.331 65.3182 116.927 65.4342 116.586 65.6662C116.248 65.8949 115.988 66.1932 115.805 66.5611C115.623 66.929 115.532 67.3234 115.532 67.7443V68.4205C115.532 68.9972 115.631 69.486 115.83 69.8871C116.032 70.2848 116.312 70.5881 116.67 70.7969C117.028 71.0024 117.444 71.1051 117.918 71.1051C118.226 71.1051 118.505 71.062 118.753 70.9759C119.005 70.8864 119.222 70.7538 119.405 70.5781C119.587 70.3991 119.728 70.1771 119.827 69.9119L120.961 70.2301C120.841 70.6146 120.641 70.9527 120.359 71.2443C120.077 71.5327 119.729 71.758 119.315 71.9205C118.901 72.0795 118.435 72.1591 117.918 72.1591ZM123.535 64.3636L125.364 67.4858L127.194 64.3636H128.546L126.08 68.1818L128.546 72H127.194L125.364 69.0369L123.535 72H122.183L124.609 68.1818L122.183 64.3636H123.535ZM133.541 64.3636V65.358H129.584V64.3636H133.541ZM130.737 62.5341H131.911V69.8125C131.911 70.1439 131.959 70.3925 132.055 70.5582C132.154 70.7206 132.28 70.83 132.433 70.8864C132.588 70.9394 132.753 70.9659 132.925 70.9659C133.054 70.9659 133.16 70.9593 133.243 70.946C133.326 70.9295 133.392 70.9162 133.442 70.9062L133.681 71.9602C133.601 71.9901 133.49 72.0199 133.347 72.0497C133.205 72.0829 133.024 72.0994 132.806 72.0994C132.474 72.0994 132.149 72.0282 131.831 71.8857C131.516 71.7431 131.254 71.526 131.046 71.2344C130.84 70.9427 130.737 70.5748 130.737 70.1307V62.5341Z" fill="black"/>
<path d="M106.444 103.912V102.818H114.08V103.912H110.878V113H109.645V103.912H106.444ZM117.918 113.159C117.182 113.159 116.548 112.997 116.014 112.672C115.484 112.344 115.074 111.886 114.786 111.3C114.501 110.71 114.358 110.024 114.358 109.241C114.358 108.459 114.501 107.77 114.786 107.173C115.074 106.573 115.475 106.106 115.989 105.771C116.506 105.433 117.109 105.264 117.799 105.264C118.197 105.264 118.589 105.33 118.977 105.463C119.365 105.596 119.718 105.811 120.036 106.109C120.354 106.404 120.608 106.795 120.797 107.283C120.986 107.77 121.08 108.37 121.08 109.082V109.58H115.194V108.565H119.887C119.887 108.134 119.801 107.75 119.628 107.412C119.459 107.074 119.217 106.807 118.903 106.612C118.591 106.416 118.223 106.318 117.799 106.318C117.331 106.318 116.927 106.434 116.586 106.666C116.248 106.895 115.988 107.193 115.805 107.561C115.623 107.929 115.532 108.323 115.532 108.744V109.42C115.532 109.997 115.631 110.486 115.83 110.887C116.032 111.285 116.312 111.588 116.67 111.797C117.028 112.002 117.444 112.105 117.918 112.105C118.226 112.105 118.505 112.062 118.753 111.976C119.005 111.886 119.222 111.754 119.405 111.578C119.587 111.399 119.728 111.177 119.827 110.912L120.961 111.23C120.841 111.615 120.641 111.953 120.359 112.244C120.077 112.533 119.729 112.758 119.315 112.92C118.901 113.08 118.435 113.159 117.918 113.159ZM123.535 105.364L125.364 108.486L127.194 105.364H128.546L126.08 109.182L128.546 113H127.194L125.364 110.037L123.535 113H122.183L124.609 109.182L122.183 105.364H123.535ZM133.541 105.364V106.358H129.584V105.364H133.541ZM130.737 103.534H131.911V110.812C131.911 111.144 131.959 111.393 132.055 111.558C132.154 111.721 132.28 111.83 132.433 111.886C132.588 111.939 132.753 111.966 132.925 111.966C133.054 111.966 133.16 111.959 133.243 111.946C133.326 111.929 133.392 111.916 133.442 111.906L133.681 112.96C133.601 112.99 133.49 113.02 133.347 113.05C133.205 113.083 133.024 113.099 132.806 113.099C132.474 113.099 132.149 113.028 131.831 112.886C131.516 112.743 131.254 112.526 131.046 112.234C130.84 111.943 130.737 111.575 130.737 111.131V103.534Z" fill="black"/>
<path d="M106.444 144.912V143.818H114.08V144.912H110.878V154H109.645V144.912H106.444ZM117.918 154.159C117.182 154.159 116.548 153.997 116.014 153.672C115.484 153.344 115.074 152.886 114.786 152.3C114.501 151.71 114.358 151.024 114.358 150.241C114.358 149.459 114.501 148.77 114.786 148.173C115.074 147.573 115.475 147.106 115.989 146.771C116.506 146.433 117.109 146.264 117.799 146.264C118.197 146.264 118.589 146.33 118.977 146.463C119.365 146.596 119.718 146.811 120.036 147.109C120.354 147.404 120.608 147.795 120.797 148.283C120.986 148.77 121.08 149.37 121.08 150.082V150.58H115.194V149.565H119.887C119.887 149.134 119.801 148.75 119.628 148.412C119.459 148.074 119.217 147.807 118.903 147.612C118.591 147.416 118.223 147.318 117.799 147.318C117.331 147.318 116.927 147.434 116.586 147.666C116.248 147.895 115.988 148.193 115.805 148.561C115.623 148.929 115.532 149.323 115.532 149.744V150.42C115.532 150.997 115.631 151.486 115.83 151.887C116.032 152.285 116.312 152.588 116.67 152.797C117.028 153.002 117.444 153.105 117.918 153.105C118.226 153.105 118.505 153.062 118.753 152.976C119.005 152.886 119.222 152.754 119.405 152.578C119.587 152.399 119.728 152.177 119.827 151.912L120.961 152.23C120.841 152.615 120.641 152.953 120.359 153.244C120.077 153.533 119.729 153.758 119.315 153.92C118.901 154.08 118.435 154.159 117.918 154.159ZM123.535 146.364L125.364 149.486L127.194 146.364H128.546L126.08 150.182L128.546 154H127.194L125.364 151.037L123.535 154H122.183L124.609 150.182L122.183 146.364H123.535ZM133.541 146.364V147.358H129.584V146.364H133.541ZM130.737 144.534H131.911V151.812C131.911 152.144 131.959 152.393 132.055 152.558C132.154 152.721 132.28 152.83 132.433 152.886C132.588 152.939 132.753 152.966 132.925 152.966C133.054 152.966 133.16 152.959 133.243 152.946C133.326 152.929 133.392 152.916 133.442 152.906L133.681 153.96C133.601 153.99 133.49 154.02 133.347 154.05C133.205 154.083 133.024 154.099 132.806 154.099C132.474 154.099 132.149 154.028 131.831 153.886C131.516 153.743 131.254 153.526 131.046 153.234C130.84 152.943 130.737 152.575 130.737 152.131V144.534Z" fill="black"/>
<line x1="7.5" y1="173.5" x2="232.5" y2="173.5" stroke="#F3F0F0"/>
<path d="M106.444 195.912V194.818H114.08V195.912H110.878V205H109.645V195.912H106.444ZM117.918 205.159C117.182 205.159 116.548 204.997 116.014 204.672C115.484 204.344 115.074 203.886 114.786 203.3C114.501 202.71 114.358 202.024 114.358 201.241C114.358 200.459 114.501 199.77 114.786 199.173C115.074 198.573 115.475 198.106 115.989 197.771C116.506 197.433 117.109 197.264 117.799 197.264C118.197 197.264 118.589 197.33 118.977 197.463C119.365 197.596 119.718 197.811 120.036 198.109C120.354 198.404 120.608 198.795 120.797 199.283C120.986 199.77 121.08 200.37 121.08 201.082V201.58H115.194V200.565H119.887C119.887 200.134 119.801 199.75 119.628 199.412C119.459 199.074 119.217 198.807 118.903 198.612C118.591 198.416 118.223 198.318 117.799 198.318C117.331 198.318 116.927 198.434 116.586 198.666C116.248 198.895 115.988 199.193 115.805 199.561C115.623 199.929 115.532 200.323 115.532 200.744V201.42C115.532 201.997 115.631 202.486 115.83 202.887C116.032 203.285 116.312 203.588 116.67 203.797C117.028 204.002 117.444 204.105 117.918 204.105C118.226 204.105 118.505 204.062 118.753 203.976C119.005 203.886 119.222 203.754 119.405 203.578C119.587 203.399 119.728 203.177 119.827 202.912L120.961 203.23C120.841 203.615 120.641 203.953 120.359 204.244C120.077 204.533 119.729 204.758 119.315 204.92C118.901 205.08 118.435 205.159 117.918 205.159ZM123.535 197.364L125.364 200.486L127.194 197.364H128.546L126.08 201.182L128.546 205H127.194L125.364 202.037L123.535 205H122.183L124.609 201.182L122.183 197.364H123.535ZM133.541 197.364V198.358H129.584V197.364H133.541ZM130.737 195.534H131.911V202.812C131.911 203.144 131.959 203.393 132.055 203.558C132.154 203.721 132.28 203.83 132.433 203.886C132.588 203.939 132.753 203.966 132.925 203.966C133.054 203.966 133.16 203.959 133.243 203.946C133.326 203.929 133.392 203.916 133.442 203.906L133.681 204.96C133.601 204.99 133.49 205.02 133.347 205.05C133.205 205.083 133.024 205.099 132.806 205.099C132.474 205.099 132.149 205.028 131.831 204.886C131.516 204.743 131.254 204.526 131.046 204.234C130.84 203.943 130.737 203.575 130.737 203.131V195.534Z" fill="black"/>
<path d="M106.444 236.912V235.818H114.08V236.912H110.878V246H109.645V236.912H106.444ZM117.918 246.159C117.182 246.159 116.548 245.997 116.014 245.672C115.484 245.344 115.074 244.886 114.786 244.3C114.501 243.71 114.358 243.024 114.358 242.241C114.358 241.459 114.501 240.77 114.786 240.173C115.074 239.573 115.475 239.106 115.989 238.771C116.506 238.433 117.109 238.264 117.799 238.264C118.197 238.264 118.589 238.33 118.977 238.463C119.365 238.596 119.718 238.811 120.036 239.109C120.354 239.404 120.608 239.795 120.797 240.283C120.986 240.77 121.08 241.37 121.08 242.082V242.58H115.194V241.565H119.887C119.887 241.134 119.801 240.75 119.628 240.412C119.459 240.074 119.217 239.807 118.903 239.612C118.591 239.416 118.223 239.318 117.799 239.318C117.331 239.318 116.927 239.434 116.586 239.666C116.248 239.895 115.988 240.193 115.805 240.561C115.623 240.929 115.532 241.323 115.532 241.744V242.42C115.532 242.997 115.631 243.486 115.83 243.887C116.032 244.285 116.312 244.588 116.67 244.797C117.028 245.002 117.444 245.105 117.918 245.105C118.226 245.105 118.505 245.062 118.753 244.976C119.005 244.886 119.222 244.754 119.405 244.578C119.587 244.399 119.728 244.177 119.827 243.912L120.961 244.23C120.841 244.615 120.641 244.953 120.359 245.244C120.077 245.533 119.729 245.758 119.315 245.92C118.901 246.08 118.435 246.159 117.918 246.159ZM123.535 238.364L125.364 241.486L127.194 238.364H128.546L126.08 242.182L128.546 246H127.194L125.364 243.037L123.535 246H122.183L124.609 242.182L122.183 238.364H123.535ZM133.541 238.364V239.358H129.584V238.364H133.541ZM130.737 236.534H131.911V243.812C131.911 244.144 131.959 244.393 132.055 244.558C132.154 244.721 132.28 244.83 132.433 244.886C132.588 244.939 132.753 244.966 132.925 244.966C133.054 244.966 133.16 244.959 133.243 244.946C133.326 244.929 133.392 244.916 133.442 244.906L133.681 245.96C133.601 245.99 133.49 246.02 133.347 246.05C133.205 246.083 133.024 246.099 132.806 246.099C132.474 246.099 132.149 246.028 131.831 245.886C131.516 245.743 131.254 245.526 131.046 245.234C130.84 244.943 130.737 244.575 130.737 244.131V236.534Z" fill="black"/>
<rect x="0.5" y="0.5" width="239" height="265" rx="5.5" stroke="url(#paint0_linear_976_2484)"/>
<defs>
<linearGradient id="paint0_linear_976_2484" x1="120" y1="0" x2="120" y2="266" gradientUnits="userSpaceOnUse">
<stop stop-color="#F5F5F5"/>
<stop offset="1" stop-color="#D2D2D2"/>
</linearGradient>
</defs>
</svg>
