<svg width="120" height="31" viewBox="0 0 120 31" fill="none" xmlns="http://www.w3.org/2000/svg">
<g filter="url(#filter0_b_3_1616)">
<rect width="120" height="31" rx="4" fill="white" fill-opacity="0.05"/>
<path d="M43.2681 21V10.8182H44.5011V19.9062H49.234V21H43.2681ZM53.2312 21.179C52.7473 21.179 52.3081 21.0878 51.9137 20.9055C51.5193 20.7199 51.2061 20.4531 50.9741 20.1051C50.7421 19.7538 50.6261 19.3295 50.6261 18.8324C50.6261 18.3949 50.7122 18.0402 50.8846 17.7685C51.0569 17.4934 51.2873 17.2779 51.5756 17.1222C51.864 16.9664 52.1822 16.8504 52.5302 16.7741C52.8815 16.6946 53.2345 16.6316 53.5891 16.5852C54.0531 16.5256 54.4293 16.4808 54.7177 16.451C55.0094 16.4179 55.2215 16.3632 55.354 16.2869C55.4899 16.2107 55.5579 16.0781 55.5579 15.8892V15.8494C55.5579 15.3589 55.4237 14.9777 55.1552 14.706C54.89 14.4342 54.4873 14.2983 53.9471 14.2983C53.387 14.2983 52.9478 14.4209 52.6296 14.6662C52.3114 14.9115 52.0877 15.1733 51.9585 15.4517L50.8448 15.054C51.0437 14.59 51.3088 14.2287 51.6403 13.9702C51.975 13.7083 52.3396 13.526 52.734 13.4233C53.1317 13.3172 53.5228 13.2642 53.9073 13.2642C54.1526 13.2642 54.4343 13.294 54.7525 13.3537C55.074 13.41 55.3839 13.5277 55.6822 13.7067C55.9838 13.8857 56.234 14.1558 56.4329 14.517C56.6317 14.8783 56.7312 15.3622 56.7312 15.9688V21H55.5579V19.9659H55.4982C55.4187 20.1316 55.2861 20.3089 55.1005 20.4979C54.9149 20.6868 54.668 20.8475 54.3597 20.9801C54.0515 21.1127 53.6753 21.179 53.2312 21.179ZM53.4102 20.125C53.8742 20.125 54.2653 20.0339 54.5835 19.8516C54.9049 19.6693 55.1469 19.4339 55.3093 19.1456C55.475 18.8572 55.5579 18.554 55.5579 18.2358V17.1619C55.5082 17.2216 55.3988 17.2763 55.2298 17.326C55.064 17.3724 54.8718 17.4138 54.6531 17.4503C54.4376 17.4834 54.2272 17.5133 54.0217 17.5398C53.8195 17.563 53.6554 17.5829 53.5295 17.5994C53.2246 17.6392 52.9395 17.7038 52.6744 17.7933C52.4125 17.8795 52.2004 18.0104 52.038 18.1861C51.8789 18.3584 51.7994 18.5937 51.7994 18.892C51.7994 19.2997 51.9502 19.608 52.2518 19.8168C52.5567 20.0223 52.9428 20.125 53.4102 20.125ZM59.0318 21V10.8182H60.2051V14.5767H60.3045C60.3907 14.4441 60.51 14.2751 60.6625 14.0696C60.8182 13.8608 61.0403 13.6752 61.3287 13.5128C61.6203 13.3471 62.0147 13.2642 62.5119 13.2642C63.1549 13.2642 63.7217 13.425 64.2122 13.7464C64.7027 14.0679 65.0855 14.5237 65.3606 15.1136C65.6357 15.7036 65.7733 16.3996 65.7733 17.2017C65.7733 18.0104 65.6357 18.7114 65.3606 19.3047C65.0855 19.8946 64.7044 20.352 64.2172 20.6768C63.7299 20.9983 63.1681 21.1591 62.5318 21.1591C62.0413 21.1591 61.6485 21.0779 61.3535 20.9155C61.0585 20.7498 60.8315 20.5625 60.6724 20.3537C60.5133 20.1416 60.3907 19.9659 60.3045 19.8267H60.1653V21H59.0318ZM60.1852 17.1818C60.1852 17.7585 60.2697 18.2673 60.4387 18.7081C60.6078 19.1456 60.8547 19.4886 61.1795 19.7372C61.5043 19.9825 61.902 20.1051 62.3727 20.1051C62.8632 20.1051 63.2725 19.9759 63.6007 19.7173C63.9321 19.4555 64.1807 19.1042 64.3464 18.6634C64.5154 18.2192 64.6 17.7254 64.6 17.1818C64.6 16.6449 64.5171 16.161 64.3514 15.7301C64.189 15.2959 63.9421 14.9529 63.6106 14.701C63.2825 14.4458 62.8699 14.3182 62.3727 14.3182C61.8954 14.3182 61.4944 14.4392 61.1696 14.6811C60.8448 14.9197 60.5995 15.2545 60.4338 15.6854C60.2681 16.1129 60.1852 16.6117 60.1852 17.1818ZM70.7697 21.1591C70.0339 21.1591 69.3992 20.9967 68.8656 20.6719C68.3353 20.3438 67.926 19.8864 67.6376 19.2997C67.3526 18.7098 67.21 18.0237 67.21 17.2415C67.21 16.4593 67.3526 15.7699 67.6376 15.1733C67.926 14.5734 68.327 14.1061 68.8407 13.7713C69.3578 13.4332 69.961 13.2642 70.6504 13.2642C71.0481 13.2642 71.4409 13.3305 71.8287 13.4631C72.2164 13.5956 72.5694 13.8111 72.8876 14.1094C73.2058 14.4044 73.4593 14.7955 73.6483 15.2827C73.8372 15.7699 73.9316 16.3698 73.9316 17.0824V17.5795H68.0453V16.5653H72.7385C72.7385 16.1345 72.6523 15.75 72.4799 15.4119C72.3109 15.0739 72.069 14.8071 71.7541 14.6115C71.4425 14.416 71.0746 14.3182 70.6504 14.3182C70.1831 14.3182 69.7787 14.4342 69.4373 14.6662C69.0993 14.8949 68.8391 15.1932 68.6568 15.5611C68.4745 15.929 68.3833 16.3234 68.3833 16.7443V17.4205C68.3833 17.9972 68.4828 18.486 68.6816 18.8871C68.8838 19.2848 69.1639 19.5881 69.5218 19.7969C69.8798 20.0024 70.2958 20.1051 70.7697 20.1051C71.0779 20.1051 71.3564 20.062 71.6049 19.9759C71.8568 19.8864 72.0739 19.7538 72.2562 19.5781C72.4385 19.3991 72.5794 19.1771 72.6788 18.9119L73.8123 19.2301C73.693 19.6146 73.4925 19.9527 73.2108 20.2443C72.929 20.5327 72.581 20.758 72.1667 20.9205C71.7524 21.0795 71.2868 21.1591 70.7697 21.1591ZM76.8897 10.8182V21H75.7164V10.8182H76.8897Z" fill="#188BDE"/>
<rect x="0.5" y="0.5" width="119" height="30" rx="3.5" stroke="url(#paint0_linear_3_1616)" stroke-opacity="0.05"/>
</g>
<defs>
<filter id="filter0_b_3_1616" x="-250" y="-250" width="620" height="531" filterUnits="userSpaceOnUse" color-interpolation-filters="sRGB">
<feFlood flood-opacity="0" result="BackgroundImageFix"/>
<feGaussianBlur in="BackgroundImageFix" stdDeviation="125"/>
<feComposite in2="SourceAlpha" operator="in" result="effect1_backgroundBlur_3_1616"/>
<feBlend mode="normal" in="SourceGraphic" in2="effect1_backgroundBlur_3_1616" result="shape"/>
</filter>
<linearGradient id="paint0_linear_3_1616" x1="60" y1="0" x2="60" y2="31" gradientUnits="userSpaceOnUse">
<stop offset="0.794792" stop-color="#AAAAAA"/>
<stop offset="1"/>
</linearGradient>
</defs>
</svg>
