<svg width="448" height="215" viewBox="0 0 448 215" fill="none" xmlns="http://www.w3.org/2000/svg">
<g filter="url(#filter0_bd_1002_2509)">
<rect x="8" width="432" height="199" rx="6" fill="#F8F8F8" fill-opacity="0.9" shape-rendering="crispEdges"/>
<path d="M190.132 39V24.4545H192.767V30.6122H199.507V24.4545H202.149V39H199.507V32.821H192.767V39H190.132ZM209.731 39.2131C208.637 39.2131 207.692 38.9858 206.897 38.5312C206.106 38.072 205.498 37.4233 205.072 36.5852C204.645 35.7424 204.432 34.7505 204.432 33.6094C204.432 32.4872 204.645 31.5024 205.072 30.6548C205.502 29.8026 206.104 29.1397 206.876 28.6662C207.647 28.188 208.554 27.9489 209.596 27.9489C210.268 27.9489 210.903 28.0578 211.499 28.2756C212.1 28.4886 212.631 28.8201 213.09 29.2699C213.554 29.7197 213.919 30.2926 214.184 30.9886C214.449 31.6799 214.581 32.5038 214.581 33.4602V34.2486H205.64V32.5156H212.117C212.112 32.0232 212.006 31.5852 211.797 31.2017C211.589 30.8134 211.298 30.508 210.924 30.2855C210.555 30.063 210.124 29.9517 209.631 29.9517C209.106 29.9517 208.644 30.0795 208.246 30.3352C207.849 30.5862 207.538 30.9176 207.316 31.3295C207.098 31.7367 206.987 32.1842 206.982 32.6719V34.1847C206.982 34.8191 207.098 35.3636 207.33 35.8182C207.562 36.268 207.886 36.6136 208.303 36.8551C208.72 37.0919 209.207 37.2102 209.766 37.2102C210.14 37.2102 210.479 37.1581 210.782 37.054C211.085 36.9451 211.348 36.7865 211.57 36.5781C211.793 36.3698 211.961 36.1117 212.074 35.804L214.475 36.0739C214.323 36.7083 214.035 37.2623 213.608 37.7358C213.187 38.2045 212.647 38.5691 211.989 38.8295C211.331 39.0852 210.578 39.2131 209.731 39.2131ZM219.896 39.2202C219.204 39.2202 218.582 39.0971 218.028 38.8509C217.479 38.5999 217.043 38.2306 216.721 37.7429C216.404 37.2552 216.245 36.6539 216.245 35.9389C216.245 35.3234 216.359 34.8144 216.586 34.4119C216.813 34.0095 217.124 33.6875 217.517 33.446C217.91 33.2045 218.352 33.0223 218.845 32.8991C219.342 32.7713 219.856 32.679 220.386 32.6222C221.025 32.5559 221.544 32.4967 221.941 32.4446C222.339 32.3878 222.628 32.3026 222.808 32.1889C222.992 32.0705 223.085 31.8883 223.085 31.642V31.5994C223.085 31.0644 222.926 30.6501 222.609 30.3565C222.292 30.063 221.835 29.9162 221.238 29.9162C220.608 29.9162 220.109 30.0535 219.74 30.3281C219.375 30.6027 219.129 30.9271 219.001 31.3011L216.6 30.9602C216.79 30.2973 217.102 29.7434 217.538 29.2983C217.973 28.8485 218.506 28.5123 219.136 28.2898C219.766 28.0625 220.462 27.9489 221.224 27.9489C221.749 27.9489 222.273 28.0104 222.794 28.1335C223.314 28.2566 223.79 28.4602 224.221 28.7443C224.652 29.0237 224.998 29.4048 225.258 29.8878C225.523 30.3707 225.656 30.9744 225.656 31.6989V39H223.184V37.5014H223.099C222.943 37.8045 222.722 38.0885 222.438 38.3537C222.159 38.6141 221.806 38.8248 221.38 38.9858C220.959 39.142 220.464 39.2202 219.896 39.2202ZM220.563 37.331C221.079 37.331 221.527 37.2292 221.906 37.0256C222.285 36.8172 222.576 36.5426 222.779 36.2017C222.988 35.8608 223.092 35.4891 223.092 35.0866V33.8011C223.011 33.8674 222.874 33.929 222.68 33.9858C222.49 34.0426 222.277 34.0923 222.041 34.1349C221.804 34.1776 221.57 34.2154 221.338 34.2486C221.106 34.2817 220.904 34.3101 220.734 34.3338C220.35 34.3859 220.007 34.4711 219.704 34.5895C219.401 34.7079 219.162 34.8736 218.987 35.0866C218.811 35.295 218.724 35.5649 218.724 35.8963C218.724 36.3698 218.897 36.7273 219.242 36.9688C219.588 37.2102 220.028 37.331 220.563 37.331ZM232.289 39.1918C231.432 39.1918 230.665 38.9716 229.988 38.5312C229.311 38.0909 228.776 37.4517 228.383 36.6136C227.99 35.7756 227.794 34.7576 227.794 33.5597C227.794 32.3475 227.992 31.3248 228.39 30.4915C228.793 29.6534 229.335 29.0213 230.017 28.5952C230.698 28.1643 231.458 27.9489 232.296 27.9489C232.936 27.9489 233.461 28.0578 233.873 28.2756C234.285 28.4886 234.612 28.7467 234.853 29.0497C235.095 29.348 235.282 29.6297 235.414 29.8949H235.521V24.4545H238.099V39H235.57V37.2812H235.414C235.282 37.5464 235.09 37.8281 234.839 38.1264C234.588 38.42 234.257 38.6709 233.845 38.8793C233.433 39.0876 232.914 39.1918 232.289 39.1918ZM233.007 37.0824C233.551 37.0824 234.015 36.9356 234.399 36.642C234.782 36.3437 235.073 35.9295 235.272 35.3991C235.471 34.8688 235.57 34.2509 235.57 33.5455C235.57 32.84 235.471 32.2268 235.272 31.706C235.078 31.1851 234.789 30.7803 234.406 30.4915C234.027 30.2027 233.561 30.0582 233.007 30.0582C232.434 30.0582 231.955 30.2074 231.572 30.5057C231.188 30.804 230.9 31.2159 230.705 31.7415C230.511 32.267 230.414 32.8684 230.414 33.5455C230.414 34.2273 230.511 34.8357 230.705 35.3707C230.904 35.901 231.195 36.3201 231.579 36.6278C231.967 36.9309 232.443 37.0824 233.007 37.0824ZM245.668 39.2131C244.574 39.2131 243.63 38.9858 242.834 38.5312C242.044 38.072 241.435 37.4233 241.009 36.5852C240.583 35.7424 240.37 34.7505 240.37 33.6094C240.37 32.4872 240.583 31.5024 241.009 30.6548C241.44 29.8026 242.041 29.1397 242.813 28.6662C243.585 28.188 244.492 27.9489 245.533 27.9489C246.206 27.9489 246.84 28.0578 247.437 28.2756C248.038 28.4886 248.568 28.8201 249.028 29.2699C249.492 29.7197 249.856 30.2926 250.121 30.9886C250.386 31.6799 250.519 32.5038 250.519 33.4602V34.2486H241.577V32.5156H248.055C248.05 32.0232 247.943 31.5852 247.735 31.2017C247.527 30.8134 247.235 30.508 246.861 30.2855C246.492 30.063 246.061 29.9517 245.569 29.9517C245.043 29.9517 244.581 30.0795 244.184 30.3352C243.786 30.5862 243.476 30.9176 243.253 31.3295C243.036 31.7367 242.924 32.1842 242.92 32.6719V34.1847C242.92 34.8191 243.036 35.3636 243.268 35.8182C243.5 36.268 243.824 36.6136 244.241 36.8551C244.657 37.0919 245.145 37.2102 245.704 37.2102C246.078 37.2102 246.416 37.1581 246.719 37.054C247.022 36.9451 247.285 36.7865 247.508 36.5781C247.73 36.3698 247.898 36.1117 248.012 35.804L250.412 36.0739C250.261 36.7083 249.972 37.2623 249.546 37.7358C249.125 38.2045 248.585 38.5691 247.927 38.8295C247.269 39.0852 246.516 39.2131 245.668 39.2131ZM252.694 39V28.0909H255.187V29.9091H255.301C255.499 29.2794 255.84 28.794 256.323 28.4531C256.811 28.1075 257.367 27.9347 257.992 27.9347C258.134 27.9347 258.293 27.9418 258.468 27.956C258.648 27.9654 258.797 27.982 258.916 28.0057V30.3707C258.807 30.3329 258.634 30.2997 258.397 30.2713C258.165 30.2382 257.94 30.2216 257.722 30.2216C257.254 30.2216 256.832 30.3234 256.458 30.527C256.089 30.7259 255.798 31.0028 255.585 31.358C255.372 31.7131 255.265 32.1226 255.265 32.5866V39H252.694Z" fill="black"/>
<path d="M29.2628 60.017V58.4545H40.1719V60.017H35.598V73H33.8366V60.017H29.2628ZM44.3391 66.4375V73H42.663V58.4545H44.3391V63.7955H44.4812C44.7369 63.232 45.1204 62.7846 45.6317 62.4531C46.1478 62.117 46.8344 61.9489 47.6914 61.9489C48.4348 61.9489 49.0858 62.098 49.6445 62.3963C50.2032 62.6899 50.6365 63.142 50.9442 63.7528C51.2567 64.3589 51.413 65.1307 51.413 66.0682V73H49.7369V66.1818C49.7369 65.3153 49.512 64.6454 49.0621 64.1719C48.6171 63.6937 47.9992 63.4545 47.2085 63.4545C46.6592 63.4545 46.1668 63.5705 45.7312 63.8026C45.3003 64.0346 44.9594 64.3731 44.7085 64.8182C44.4622 65.2633 44.3391 65.803 44.3391 66.4375ZM54.4794 73V62.0909H56.1555V73H54.4794ZM55.3317 60.2727C55.005 60.2727 54.7232 60.1615 54.4865 59.9389C54.2545 59.7164 54.1385 59.4489 54.1385 59.1364C54.1385 58.8239 54.2545 58.5563 54.4865 58.3338C54.7232 58.1113 55.005 58 55.3317 58C55.6584 58 55.9377 58.1113 56.1697 58.3338C56.4065 58.5563 56.5249 58.8239 56.5249 59.1364C56.5249 59.4489 56.4065 59.7164 56.1697 59.9389C55.9377 60.1615 55.6584 60.2727 55.3317 60.2727ZM66.9528 64.5341L65.4471 64.9602C65.3524 64.7093 65.2127 64.4654 65.0281 64.2287C64.8481 63.9872 64.6019 63.7884 64.2894 63.6321C63.9769 63.4759 63.5768 63.3977 63.0891 63.3977C62.4215 63.3977 61.8652 63.5516 61.4201 63.8594C60.9798 64.1624 60.7596 64.5483 60.7596 65.017C60.7596 65.4337 60.9111 65.7628 61.2141 66.0043C61.5172 66.2457 61.9906 66.447 62.6346 66.608L64.2539 67.0057C65.2293 67.2424 65.9561 67.6046 66.4343 68.0923C66.9125 68.5753 67.1516 69.1979 67.1516 69.9602C67.1516 70.5852 66.9717 71.1439 66.6119 71.6364C66.2567 72.1288 65.7596 72.517 65.1204 72.8011C64.4812 73.0852 63.7378 73.2273 62.8903 73.2273C61.7776 73.2273 60.8567 72.9858 60.1275 72.5028C59.3983 72.0199 58.9367 71.3144 58.7425 70.3864L60.3335 69.9886C60.485 70.5758 60.7714 71.0161 61.1928 71.3097C61.619 71.6032 62.1753 71.75 62.8619 71.75C63.6431 71.75 64.2634 71.5843 64.7227 71.2528C65.1867 70.9167 65.4187 70.5142 65.4187 70.0455C65.4187 69.6667 65.2861 69.3494 65.021 69.0938C64.7558 68.8333 64.3486 68.6392 63.7994 68.5114L61.9812 68.0852C60.9821 67.8485 60.2482 67.4815 59.7795 66.9844C59.3155 66.4825 59.0835 65.8551 59.0835 65.1023C59.0835 64.4867 59.2563 63.9422 59.6019 63.4688C59.9523 62.9953 60.4281 62.6236 61.0295 62.3537C61.6355 62.0838 62.3221 61.9489 63.0891 61.9489C64.1687 61.9489 65.0162 62.1856 65.6317 62.6591C66.252 63.1326 66.6924 63.7576 66.9528 64.5341ZM75.2997 73V62.0909H76.9759V73H75.2997ZM76.152 60.2727C75.8253 60.2727 75.5436 60.1615 75.3068 59.9389C75.0748 59.7164 74.9588 59.4489 74.9588 59.1364C74.9588 58.8239 75.0748 58.5563 75.3068 58.3338C75.5436 58.1113 75.8253 58 76.152 58C76.4787 58 76.758 58.1113 76.9901 58.3338C77.2268 58.5563 77.3452 58.8239 77.3452 59.1364C77.3452 59.4489 77.2268 59.7164 76.9901 59.9389C76.758 60.1615 76.4787 60.2727 76.152 60.2727ZM87.7731 64.5341L86.2674 64.9602C86.1727 64.7093 86.033 64.4654 85.8484 64.2287C85.6684 63.9872 85.4222 63.7884 85.1097 63.6321C84.7972 63.4759 84.3971 63.3977 83.9094 63.3977C83.2418 63.3977 82.6855 63.5516 82.2404 63.8594C81.8001 64.1624 81.5799 64.5483 81.5799 65.017C81.5799 65.4337 81.7314 65.7628 82.0344 66.0043C82.3375 66.2457 82.811 66.447 83.4549 66.608L85.0742 67.0057C86.0496 67.2424 86.7764 67.6046 87.2546 68.0923C87.7328 68.5753 87.9719 69.1979 87.9719 69.9602C87.9719 70.5852 87.792 71.1439 87.4322 71.6364C87.0771 72.1288 86.5799 72.517 85.9407 72.8011C85.3015 73.0852 84.5581 73.2273 83.7106 73.2273C82.5979 73.2273 81.677 72.9858 80.9478 72.5028C80.2186 72.0199 79.757 71.3144 79.5629 70.3864L81.1538 69.9886C81.3053 70.5758 81.5917 71.0161 82.0131 71.3097C82.4393 71.6032 82.9956 71.75 83.6822 71.75C84.4634 71.75 85.0837 71.5843 85.543 71.2528C86.007 70.9167 86.239 70.5142 86.239 70.0455C86.239 69.6667 86.1064 69.3494 85.8413 69.0938C85.5761 68.8333 85.1689 68.6392 84.6197 68.5114L82.8015 68.0852C81.8024 67.8485 81.0685 67.4815 80.5998 66.9844C80.1358 66.4825 79.9038 65.8551 79.9038 65.1023C79.9038 64.4867 80.0766 63.9422 80.4222 63.4688C80.7726 62.9953 81.2485 62.6236 81.8498 62.3537C82.4558 62.0838 83.1424 61.9489 83.9094 61.9489C84.989 61.9489 85.8365 62.1856 86.4521 62.6591C87.0723 63.1326 87.5127 63.7576 87.7731 64.5341ZM99.3303 73.2557C98.639 73.2557 98.0116 73.1255 97.4482 72.8651C96.8847 72.5999 96.4373 72.2188 96.1058 71.7216C95.7744 71.2197 95.6087 70.6136 95.6087 69.9034C95.6087 69.2784 95.7318 68.7718 95.978 68.3835C96.2242 67.9905 96.5533 67.6828 96.9652 67.4602C97.3771 67.2377 97.8317 67.072 98.3288 66.9631C98.8307 66.8494 99.335 66.7595 99.8416 66.6932C100.504 66.608 101.042 66.544 101.454 66.5014C101.871 66.4541 102.174 66.3759 102.363 66.267C102.557 66.1581 102.654 65.9687 102.654 65.6989V65.642C102.654 64.9413 102.462 64.3968 102.079 64.0085C101.7 63.6203 101.125 63.4261 100.353 63.4261C99.5528 63.4261 98.9254 63.6013 98.4709 63.9517C98.0163 64.3021 97.6967 64.6761 97.5121 65.0739L95.9212 64.5057C96.2053 63.8428 96.584 63.3267 97.0575 62.9574C97.5357 62.5833 98.0566 62.3229 98.62 62.1761C99.1882 62.0246 99.7469 61.9489 100.296 61.9489C100.647 61.9489 101.049 61.9915 101.504 62.0767C101.963 62.1572 102.406 62.3253 102.832 62.581C103.263 62.8366 103.62 63.2225 103.904 63.7386C104.188 64.2547 104.33 64.946 104.33 65.8125V73H102.654V71.5227H102.569C102.455 71.7595 102.266 72.0128 102.001 72.2827C101.736 72.5526 101.383 72.7822 100.942 72.9716C100.502 73.161 99.9647 73.2557 99.3303 73.2557ZM99.5859 71.75C100.249 71.75 100.808 71.6198 101.262 71.3594C101.721 71.099 102.067 70.7628 102.299 70.3509C102.536 69.9389 102.654 69.5057 102.654 69.0511V67.517C102.583 67.6023 102.427 67.6804 102.185 67.7514C101.949 67.8177 101.674 67.8769 101.362 67.929C101.054 67.9763 100.753 68.0189 100.46 68.0568C100.171 68.09 99.9363 68.1184 99.7564 68.142C99.3208 68.1989 98.9136 68.2912 98.5348 68.419C98.1607 68.5421 97.8577 68.7292 97.6257 68.9801C97.3984 69.2263 97.2848 69.5625 97.2848 69.9886C97.2848 70.571 97.5002 71.0114 97.9311 71.3097C98.3667 71.6032 98.9183 71.75 99.5859 71.75ZM113.242 73V58.4545H114.918V63.8239H115.06C115.183 63.6345 115.354 63.393 115.571 63.0994C115.794 62.8011 116.111 62.536 116.523 62.304C116.94 62.0672 117.503 61.9489 118.213 61.9489C119.132 61.9489 119.942 62.1785 120.642 62.6378C121.343 63.0971 121.89 63.7481 122.283 64.5909C122.676 65.4337 122.873 66.428 122.873 67.5739C122.873 68.7292 122.676 69.7306 122.283 70.5781C121.89 71.4209 121.346 72.0743 120.65 72.5384C119.953 72.9976 119.151 73.2273 118.242 73.2273C117.541 73.2273 116.98 73.1113 116.559 72.8793C116.137 72.6425 115.813 72.375 115.586 72.0767C115.358 71.7737 115.183 71.5227 115.06 71.3239H114.861V73H113.242ZM114.89 67.5455C114.89 68.3693 115.01 69.0961 115.252 69.7259C115.493 70.3509 115.846 70.8409 116.31 71.196C116.774 71.5464 117.342 71.7216 118.015 71.7216C118.715 71.7216 119.3 71.5369 119.769 71.1676C120.242 70.7936 120.597 70.2917 120.834 69.6619C121.076 69.0275 121.196 68.322 121.196 67.5455C121.196 66.7784 121.078 66.0871 120.841 65.4716C120.609 64.8513 120.257 64.3613 119.783 64.0014C119.314 63.6368 118.725 63.4545 118.015 63.4545C117.333 63.4545 116.76 63.6274 116.296 63.973C115.832 64.3139 115.481 64.7921 115.245 65.4077C115.008 66.0185 114.89 66.7311 114.89 67.5455ZM128.647 73.2557C127.955 73.2557 127.328 73.1255 126.765 72.8651C126.201 72.5999 125.754 72.2188 125.422 71.7216C125.091 71.2197 124.925 70.6136 124.925 69.9034C124.925 69.2784 125.048 68.7718 125.294 68.3835C125.541 67.9905 125.87 67.6828 126.282 67.4602C126.694 67.2377 127.148 67.072 127.645 66.9631C128.147 66.8494 128.651 66.7595 129.158 66.6932C129.821 66.608 130.358 66.544 130.77 66.5014C131.187 66.4541 131.49 66.3759 131.679 66.267C131.873 66.1581 131.971 65.9687 131.971 65.6989V65.642C131.971 64.9413 131.779 64.3968 131.395 64.0085C131.016 63.6203 130.441 63.4261 129.669 63.4261C128.869 63.4261 128.242 63.6013 127.787 63.9517C127.333 64.3021 127.013 64.6761 126.828 65.0739L125.238 64.5057C125.522 63.8428 125.9 63.3267 126.374 62.9574C126.852 62.5833 127.373 62.3229 127.936 62.1761C128.505 62.0246 129.063 61.9489 129.613 61.9489C129.963 61.9489 130.365 61.9915 130.82 62.0767C131.279 62.1572 131.722 62.3253 132.148 62.581C132.579 62.8366 132.936 63.2225 133.221 63.7386C133.505 64.2547 133.647 64.946 133.647 65.8125V73H131.971V71.5227H131.885C131.772 71.7595 131.582 72.0128 131.317 72.2827C131.052 72.5526 130.699 72.7822 130.259 72.9716C129.819 73.161 129.281 73.2557 128.647 73.2557ZM128.902 71.75C129.565 71.75 130.124 71.6198 130.578 71.3594C131.038 71.099 131.383 70.7628 131.615 70.3509C131.852 69.9389 131.971 69.5057 131.971 69.0511V67.517C131.9 67.6023 131.743 67.6804 131.502 67.7514C131.265 67.8177 130.99 67.8769 130.678 67.929C130.37 67.9763 130.069 68.0189 129.776 68.0568C129.487 68.09 129.253 68.1184 129.073 68.142C128.637 68.1989 128.23 68.2912 127.851 68.419C127.477 68.5421 127.174 68.7292 126.942 68.9801C126.715 69.2263 126.601 69.5625 126.601 69.9886C126.601 70.571 126.817 71.0114 127.248 71.3097C127.683 71.6032 128.235 71.75 128.902 71.75ZM138.382 58.4545V73H136.706V58.4545H138.382ZM143.128 58.4545V73H141.452V58.4545H143.128ZM150.63 73.2273C149.645 73.2273 148.781 72.9929 148.038 72.5241C147.299 72.0554 146.721 71.3996 146.305 70.5568C145.893 69.714 145.687 68.7292 145.687 67.6023C145.687 66.4659 145.893 65.474 146.305 64.6264C146.721 63.7789 147.299 63.1207 148.038 62.652C148.781 62.1832 149.645 61.9489 150.63 61.9489C151.615 61.9489 152.477 62.1832 153.215 62.652C153.959 63.1207 154.536 63.7789 154.948 64.6264C155.365 65.474 155.573 66.4659 155.573 67.6023C155.573 68.7292 155.365 69.714 154.948 70.5568C154.536 71.3996 153.959 72.0554 153.215 72.5241C152.477 72.9929 151.615 73.2273 150.63 73.2273ZM150.63 71.7216C151.378 71.7216 151.994 71.5298 152.477 71.1463C152.96 70.7628 153.317 70.2585 153.549 69.6335C153.781 69.0085 153.897 68.3314 153.897 67.6023C153.897 66.8731 153.781 66.1937 153.549 65.5639C153.317 64.9342 152.96 64.4252 152.477 64.0369C151.994 63.6487 151.378 63.4545 150.63 63.4545C149.882 63.4545 149.266 63.6487 148.783 64.0369C148.3 64.4252 147.943 64.9342 147.711 65.5639C147.479 66.1937 147.363 66.8731 147.363 67.6023C147.363 68.3314 147.479 69.0085 147.711 69.6335C147.943 70.2585 148.3 70.7628 148.783 71.1463C149.266 71.5298 149.882 71.7216 150.63 71.7216ZM162.564 73.2273C161.579 73.2273 160.715 72.9929 159.971 72.5241C159.233 72.0554 158.655 71.3996 158.238 70.5568C157.826 69.714 157.62 68.7292 157.62 67.6023C157.62 66.4659 157.826 65.474 158.238 64.6264C158.655 63.7789 159.233 63.1207 159.971 62.652C160.715 62.1832 161.579 61.9489 162.564 61.9489C163.548 61.9489 164.41 62.1832 165.149 62.652C165.892 63.1207 166.47 63.7789 166.882 64.6264C167.298 65.474 167.507 66.4659 167.507 67.6023C167.507 68.7292 167.298 69.714 166.882 70.5568C166.47 71.3996 165.892 72.0554 165.149 72.5241C164.41 72.9929 163.548 73.2273 162.564 73.2273ZM162.564 71.7216C163.312 71.7216 163.927 71.5298 164.41 71.1463C164.893 70.7628 165.251 70.2585 165.483 69.6335C165.715 69.0085 165.831 68.3314 165.831 67.6023C165.831 66.8731 165.715 66.1937 165.483 65.5639C165.251 64.9342 164.893 64.4252 164.41 64.0369C163.927 63.6487 163.312 63.4545 162.564 63.4545C161.815 63.4545 161.2 63.6487 160.717 64.0369C160.234 64.4252 159.877 64.9342 159.645 65.5639C159.413 66.1937 159.297 66.8731 159.297 67.6023C159.297 68.3314 159.413 69.0085 159.645 69.6335C159.877 70.2585 160.234 70.7628 160.717 71.1463C161.2 71.5298 161.815 71.7216 162.564 71.7216ZM171.741 66.4375V73H170.065V62.0909H171.685V63.7955H171.827C172.082 63.2415 172.471 62.7964 172.991 62.4602C173.512 62.1193 174.185 61.9489 175.009 61.9489C175.747 61.9489 176.393 62.1004 176.947 62.4034C177.501 62.7017 177.932 63.1562 178.24 63.767C178.548 64.3731 178.702 65.1402 178.702 66.0682V73H177.026V66.1818C177.026 65.3248 176.803 64.6572 176.358 64.179C175.913 63.696 175.302 63.4545 174.526 63.4545C173.991 63.4545 173.512 63.5705 173.091 63.8026C172.674 64.0346 172.345 64.3731 172.104 64.8182C171.862 65.2633 171.741 65.803 171.741 66.4375ZM187.39 73V62.0909H189.009V63.7955H189.151C189.378 63.2131 189.745 62.7609 190.252 62.4389C190.758 62.1122 191.367 61.9489 192.077 61.9489C192.797 61.9489 193.396 62.1122 193.874 62.4389C194.357 62.7609 194.733 63.2131 195.003 63.7955H195.117C195.396 63.232 195.815 62.7846 196.374 62.4531C196.933 62.117 197.603 61.9489 198.384 61.9489C199.359 61.9489 200.157 62.2543 200.777 62.8651C201.398 63.4711 201.708 64.4157 201.708 65.6989V73H200.032V65.6989C200.032 64.8939 199.811 64.3187 199.371 63.973C198.931 63.6274 198.412 63.4545 197.816 63.4545C197.049 63.4545 196.454 63.6866 196.033 64.1506C195.612 64.6098 195.401 65.1922 195.401 65.8977V73H193.696V65.5284C193.696 64.9081 193.495 64.4086 193.093 64.0298C192.69 63.6463 192.172 63.4545 191.537 63.4545C191.102 63.4545 190.694 63.5705 190.316 63.8026C189.942 64.0346 189.639 64.3565 189.407 64.7685C189.179 65.1757 189.066 65.6468 189.066 66.1818V73H187.39ZM209.346 73.2273C208.295 73.2273 207.388 72.9953 206.626 72.5312C205.868 72.0625 205.284 71.4091 204.872 70.571C204.465 69.7282 204.261 68.7481 204.261 67.6307C204.261 66.5133 204.465 65.5284 204.872 64.6761C205.284 63.8191 205.857 63.1515 206.591 62.6733C207.329 62.1903 208.191 61.9489 209.176 61.9489C209.744 61.9489 210.305 62.0436 210.859 62.233C211.413 62.4223 211.917 62.7301 212.372 63.1562C212.826 63.5777 213.189 64.1364 213.458 64.8324C213.728 65.5284 213.863 66.3854 213.863 67.4034V68.1136H205.454V66.6648H212.159C212.159 66.0492 212.036 65.5 211.789 65.017C211.548 64.5341 211.202 64.1529 210.752 63.8736C210.307 63.5942 209.782 63.4545 209.176 63.4545C208.508 63.4545 207.931 63.6203 207.443 63.9517C206.96 64.2784 206.588 64.7045 206.328 65.2301C206.067 65.7557 205.937 66.3191 205.937 66.9205V67.8864C205.937 68.7102 206.079 69.4086 206.363 69.9815C206.652 70.5497 207.052 70.983 207.564 71.2812C208.075 71.5748 208.669 71.7216 209.346 71.7216C209.787 71.7216 210.184 71.66 210.539 71.5369C210.899 71.4091 211.209 71.2197 211.47 70.9688C211.73 70.7131 211.931 70.3958 212.074 70.017L213.693 70.4716C213.522 71.0208 213.236 71.5038 212.833 71.9205C212.431 72.3324 211.934 72.6544 211.342 72.8864C210.75 73.1136 210.085 73.2273 209.346 73.2273ZM224.14 64.5341L222.635 64.9602C222.54 64.7093 222.4 64.4654 222.216 64.2287C222.036 63.9872 221.789 63.7884 221.477 63.6321C221.164 63.4759 220.764 63.3977 220.277 63.3977C219.609 63.3977 219.053 63.5516 218.608 63.8594C218.167 64.1624 217.947 64.5483 217.947 65.017C217.947 65.4337 218.099 65.7628 218.402 66.0043C218.705 66.2457 219.178 66.447 219.822 66.608L221.441 67.0057C222.417 67.2424 223.144 67.6046 223.622 68.0923C224.1 68.5753 224.339 69.1979 224.339 69.9602C224.339 70.5852 224.159 71.1439 223.799 71.6364C223.444 72.1288 222.947 72.517 222.308 72.8011C221.669 73.0852 220.925 73.2273 220.078 73.2273C218.965 73.2273 218.044 72.9858 217.315 72.5028C216.586 72.0199 216.124 71.3144 215.93 70.3864L217.521 69.9886C217.672 70.5758 217.959 71.0161 218.38 71.3097C218.806 71.6032 219.363 71.75 220.049 71.75C220.831 71.75 221.451 71.5843 221.91 71.2528C222.374 70.9167 222.606 70.5142 222.606 70.0455C222.606 69.6667 222.474 69.3494 222.208 69.0938C221.943 68.8333 221.536 68.6392 220.987 68.5114L219.169 68.0852C218.17 67.8485 217.436 67.4815 216.967 66.9844C216.503 66.4825 216.271 65.8551 216.271 65.1023C216.271 64.4867 216.444 63.9422 216.789 63.4688C217.14 62.9953 217.616 62.6236 218.217 62.3537C218.823 62.0838 219.51 61.9489 220.277 61.9489C221.356 61.9489 222.204 62.1856 222.819 62.6591C223.44 63.1326 223.88 63.7576 224.14 64.5341ZM234.589 64.5341L233.084 64.9602C232.989 64.7093 232.849 64.4654 232.665 64.2287C232.485 63.9872 232.239 63.7884 231.926 63.6321C231.614 63.4759 231.214 63.3977 230.726 63.3977C230.058 63.3977 229.502 63.5516 229.057 63.8594C228.616 64.1624 228.396 64.5483 228.396 65.017C228.396 65.4337 228.548 65.7628 228.851 66.0043C229.154 66.2457 229.627 66.447 230.271 66.608L231.891 67.0057C232.866 67.2424 233.593 67.6046 234.071 68.0923C234.549 68.5753 234.788 69.1979 234.788 69.9602C234.788 70.5852 234.608 71.1439 234.249 71.6364C233.893 72.1288 233.396 72.517 232.757 72.8011C232.118 73.0852 231.375 73.2273 230.527 73.2273C229.414 73.2273 228.493 72.9858 227.764 72.5028C227.035 72.0199 226.573 71.3144 226.379 70.3864L227.97 69.9886C228.122 70.5758 228.408 71.0161 228.83 71.3097C229.256 71.6032 229.812 71.75 230.499 71.75C231.28 71.75 231.9 71.5843 232.359 71.2528C232.823 70.9167 233.055 70.5142 233.055 70.0455C233.055 69.6667 232.923 69.3494 232.658 69.0938C232.393 68.8333 231.985 68.6392 231.436 68.5114L229.618 68.0852C228.619 67.8485 227.885 67.4815 227.416 66.9844C226.952 66.4825 226.72 65.8551 226.72 65.1023C226.72 64.4867 226.893 63.9422 227.239 63.4688C227.589 62.9953 228.065 62.6236 228.666 62.3537C229.272 62.0838 229.959 61.9489 230.726 61.9489C231.805 61.9489 232.653 62.1856 233.268 62.6591C233.889 63.1326 234.329 63.7576 234.589 64.5341ZM240.522 73.2557C239.83 73.2557 239.203 73.1255 238.64 72.8651C238.076 72.5999 237.629 72.2188 237.297 71.7216C236.966 71.2197 236.8 70.6136 236.8 69.9034C236.8 69.2784 236.923 68.7718 237.169 68.3835C237.416 67.9905 237.745 67.6828 238.157 67.4602C238.569 67.2377 239.023 67.072 239.52 66.9631C240.022 66.8494 240.526 66.7595 241.033 66.6932C241.696 66.608 242.233 66.544 242.645 66.5014C243.062 66.4541 243.365 66.3759 243.554 66.267C243.748 66.1581 243.846 65.9687 243.846 65.6989V65.642C243.846 64.9413 243.654 64.3968 243.27 64.0085C242.891 63.6203 242.316 63.4261 241.544 63.4261C240.744 63.4261 240.117 63.6013 239.662 63.9517C239.208 64.3021 238.888 64.6761 238.703 65.0739L237.113 64.5057C237.397 63.8428 237.775 63.3267 238.249 62.9574C238.727 62.5833 239.248 62.3229 239.811 62.1761C240.38 62.0246 240.938 61.9489 241.488 61.9489C241.838 61.9489 242.24 61.9915 242.695 62.0767C243.154 62.1572 243.597 62.3253 244.023 62.581C244.454 62.8366 244.811 63.2225 245.096 63.7386C245.38 64.2547 245.522 64.946 245.522 65.8125V73H243.846V71.5227H243.76C243.647 71.7595 243.457 72.0128 243.192 72.2827C242.927 72.5526 242.574 72.7822 242.134 72.9716C241.694 73.161 241.156 73.2557 240.522 73.2557ZM240.777 71.75C241.44 71.75 241.999 71.6198 242.453 71.3594C242.913 71.099 243.258 70.7628 243.49 70.3509C243.727 69.9389 243.846 69.5057 243.846 69.0511V67.517C243.775 67.6023 243.618 67.6804 243.377 67.7514C243.14 67.8177 242.865 67.8769 242.553 67.929C242.245 67.9763 241.944 68.0189 241.651 68.0568C241.362 68.09 241.128 68.1184 240.948 68.142C240.512 68.1989 240.105 68.2912 239.726 68.419C239.352 68.5421 239.049 68.7292 238.817 68.9801C238.59 69.2263 238.476 69.5625 238.476 69.9886C238.476 70.571 238.692 71.0114 239.123 71.3097C239.558 71.6032 240.11 71.75 240.777 71.75ZM252.984 77.3182C252.175 77.3182 251.479 77.214 250.896 77.0057C250.314 76.8021 249.829 76.5322 249.44 76.196C249.057 75.8646 248.751 75.5095 248.524 75.1307L249.859 74.1932C250.011 74.392 250.203 74.6193 250.435 74.875C250.667 75.1354 250.984 75.3603 251.386 75.5497C251.794 75.7438 252.326 75.8409 252.984 75.8409C253.865 75.8409 254.592 75.6278 255.165 75.2017C255.738 74.7756 256.024 74.108 256.024 73.1989V70.983H255.882C255.759 71.1818 255.584 71.428 255.357 71.7216C255.134 72.0104 254.812 72.2685 254.391 72.4957C253.974 72.7183 253.411 72.8295 252.7 72.8295C251.82 72.8295 251.029 72.6212 250.328 72.2045C249.632 71.7879 249.08 71.1818 248.673 70.3864C248.271 69.5909 248.07 68.625 248.07 67.4886C248.07 66.3712 248.266 65.3982 248.659 64.5696C249.052 63.7363 249.599 63.0923 250.3 62.6378C251 62.1785 251.81 61.9489 252.729 61.9489C253.439 61.9489 254.002 62.0672 254.419 62.304C254.84 62.536 255.162 62.8011 255.385 63.0994C255.612 63.393 255.787 63.6345 255.911 63.8239H256.081V62.0909H257.7V73.3125C257.7 74.25 257.487 75.0123 257.061 75.5994C256.64 76.1913 256.071 76.6245 255.357 76.8991C254.646 77.1785 253.856 77.3182 252.984 77.3182ZM252.928 71.3239C253.6 71.3239 254.168 71.17 254.632 70.8622C255.096 70.5545 255.449 70.1117 255.69 69.5341C255.932 68.9564 256.053 68.2652 256.053 67.4602C256.053 66.6742 255.934 65.9806 255.697 65.3793C255.461 64.7779 255.11 64.3068 254.646 63.9659C254.182 63.625 253.609 63.4545 252.928 63.4545C252.217 63.4545 251.625 63.6345 251.152 63.9943C250.683 64.3542 250.33 64.8371 250.094 65.4432C249.862 66.0492 249.746 66.7216 249.746 67.4602C249.746 68.2178 249.864 68.8878 250.101 69.4702C250.342 70.0478 250.697 70.5024 251.166 70.8338C251.64 71.1605 252.227 71.3239 252.928 71.3239ZM265.342 73.2273C264.291 73.2273 263.384 72.9953 262.622 72.5312C261.865 72.0625 261.28 71.4091 260.868 70.571C260.461 69.7282 260.257 68.7481 260.257 67.6307C260.257 66.5133 260.461 65.5284 260.868 64.6761C261.28 63.8191 261.853 63.1515 262.587 62.6733C263.325 62.1903 264.187 61.9489 265.172 61.9489C265.74 61.9489 266.301 62.0436 266.855 62.233C267.409 62.4223 267.913 62.7301 268.368 63.1562C268.822 63.5777 269.185 64.1364 269.455 64.8324C269.724 65.5284 269.859 66.3854 269.859 67.4034V68.1136H261.45V66.6648H268.155C268.155 66.0492 268.032 65.5 267.786 65.017C267.544 64.5341 267.198 64.1529 266.749 63.8736C266.304 63.5942 265.778 63.4545 265.172 63.4545C264.504 63.4545 263.927 63.6203 263.439 63.9517C262.956 64.2784 262.584 64.7045 262.324 65.2301C262.063 65.7557 261.933 66.3191 261.933 66.9205V67.8864C261.933 68.7102 262.075 69.4086 262.359 69.9815C262.648 70.5497 263.048 70.983 263.56 71.2812C264.071 71.5748 264.665 71.7216 265.342 71.7216C265.783 71.7216 266.18 71.66 266.536 71.5369C266.895 71.4091 267.205 71.2197 267.466 70.9688C267.726 70.7131 267.928 70.3958 268.07 70.017L269.689 70.4716C269.518 71.0208 269.232 71.5038 268.83 71.9205C268.427 72.3324 267.93 72.6544 267.338 72.8864C266.746 73.1136 266.081 73.2273 265.342 73.2273ZM282.778 62.0909V63.5114H277.125V62.0909H282.778ZM278.773 59.4773H280.449V69.875C280.449 70.3485 280.518 70.7036 280.655 70.9403C280.797 71.1723 280.977 71.3286 281.195 71.4091C281.417 71.4848 281.652 71.5227 281.898 71.5227C282.082 71.5227 282.234 71.5133 282.352 71.4943C282.471 71.4706 282.565 71.4517 282.636 71.4375L282.977 72.9432C282.864 72.9858 282.705 73.0284 282.501 73.071C282.298 73.1184 282.04 73.142 281.727 73.142C281.254 73.142 280.79 73.0402 280.335 72.8366C279.885 72.633 279.511 72.3229 279.213 71.9062C278.92 71.4896 278.773 70.964 278.773 70.3295V59.4773ZM287.21 66.4375V73H285.534V58.4545H287.21V63.7955H287.352C287.608 63.232 287.991 62.7846 288.503 62.4531C289.019 62.117 289.705 61.9489 290.562 61.9489C291.306 61.9489 291.957 62.098 292.516 62.3963C293.074 62.6899 293.508 63.142 293.815 63.7528C294.128 64.3589 294.284 65.1307 294.284 66.0682V73H292.608V66.1818C292.608 65.3153 292.383 64.6454 291.933 64.1719C291.488 63.6937 290.87 63.4545 290.08 63.4545C289.53 63.4545 289.038 63.5705 288.602 63.8026C288.171 64.0346 287.83 64.3731 287.58 64.8182C287.333 65.2633 287.21 65.803 287.21 66.4375ZM300.561 73.2557C299.869 73.2557 299.242 73.1255 298.679 72.8651C298.115 72.5999 297.668 72.2188 297.336 71.7216C297.005 71.2197 296.839 70.6136 296.839 69.9034C296.839 69.2784 296.962 68.7718 297.208 68.3835C297.455 67.9905 297.784 67.6828 298.196 67.4602C298.608 67.2377 299.062 67.072 299.559 66.9631C300.061 66.8494 300.565 66.7595 301.072 66.6932C301.735 66.608 302.272 66.544 302.684 66.5014C303.101 66.4541 303.404 66.3759 303.593 66.267C303.788 66.1581 303.885 65.9687 303.885 65.6989V65.642C303.885 64.9413 303.693 64.3968 303.309 64.0085C302.931 63.6203 302.355 63.4261 301.583 63.4261C300.783 63.4261 300.156 63.6013 299.701 63.9517C299.247 64.3021 298.927 64.6761 298.743 65.0739L297.152 64.5057C297.436 63.8428 297.815 63.3267 298.288 62.9574C298.766 62.5833 299.287 62.3229 299.85 62.1761C300.419 62.0246 300.977 61.9489 301.527 61.9489C301.877 61.9489 302.279 61.9915 302.734 62.0767C303.193 62.1572 303.636 62.3253 304.062 62.581C304.493 62.8366 304.85 63.2225 305.135 63.7386C305.419 64.2547 305.561 64.946 305.561 65.8125V73H303.885V71.5227H303.799C303.686 71.7595 303.496 72.0128 303.231 72.2827C302.966 72.5526 302.613 72.7822 302.173 72.9716C301.733 73.161 301.195 73.2557 300.561 73.2557ZM300.816 71.75C301.479 71.75 302.038 71.6198 302.493 71.3594C302.952 71.099 303.297 70.7628 303.529 70.3509C303.766 69.9389 303.885 69.5057 303.885 69.0511V67.517C303.814 67.6023 303.657 67.6804 303.416 67.7514C303.179 67.8177 302.904 67.8769 302.592 67.929C302.284 67.9763 301.984 68.0189 301.69 68.0568C301.401 68.09 301.167 68.1184 300.987 68.142C300.551 68.1989 300.144 68.2912 299.765 68.419C299.391 68.5421 299.088 68.7292 298.856 68.9801C298.629 69.2263 298.515 69.5625 298.515 69.9886C298.515 70.571 298.731 71.0114 299.162 71.3097C299.597 71.6032 300.149 71.75 300.816 71.75ZM313.364 62.0909V63.5114H307.711V62.0909H313.364ZM309.359 59.4773H311.035V69.875C311.035 70.3485 311.103 70.7036 311.241 70.9403C311.383 71.1723 311.563 71.3286 311.781 71.4091C312.003 71.4848 312.237 71.5227 312.484 71.5227C312.668 71.5227 312.82 71.5133 312.938 71.4943C313.057 71.4706 313.151 71.4517 313.222 71.4375L313.563 72.9432C313.45 72.9858 313.291 73.0284 313.087 73.071C312.884 73.1184 312.626 73.142 312.313 73.142C311.84 73.142 311.376 73.0402 310.921 72.8366C310.471 72.633 310.097 72.3229 309.799 71.9062C309.505 71.4896 309.359 70.964 309.359 70.3295V59.4773ZM325.942 73.2273C324.92 73.2273 324.039 72.9858 323.3 72.5028C322.562 72.0199 321.994 71.3546 321.596 70.5071C321.198 69.6596 320.999 68.6913 320.999 67.6023C320.999 66.4943 321.203 65.5166 321.61 64.669C322.022 63.8168 322.595 63.1515 323.329 62.6733C324.067 62.1903 324.929 61.9489 325.914 61.9489C326.681 61.9489 327.372 62.0909 327.988 62.375C328.603 62.6591 329.108 63.0568 329.501 63.5682C329.894 64.0795 330.138 64.6761 330.232 65.358H328.556C328.428 64.8608 328.144 64.4205 327.704 64.0369C327.268 63.6487 326.681 63.4545 325.942 63.4545C325.289 63.4545 324.716 63.625 324.224 63.9659C323.736 64.3021 323.355 64.7779 323.08 65.3935C322.81 66.0043 322.675 66.7216 322.675 67.5455C322.675 68.3883 322.808 69.1222 323.073 69.7472C323.343 70.3722 323.722 70.8575 324.21 71.2031C324.702 71.5488 325.28 71.7216 325.942 71.7216C326.378 71.7216 326.773 71.6458 327.129 71.4943C327.484 71.3428 327.784 71.125 328.031 70.8409C328.277 70.5568 328.452 70.2159 328.556 69.8182H330.232C330.138 70.4621 329.903 71.0421 329.529 71.5582C329.16 72.0696 328.67 72.4768 328.059 72.7798C327.453 73.0781 326.747 73.2273 325.942 73.2273ZM335.893 73.2557C335.201 73.2557 334.574 73.1255 334.011 72.8651C333.447 72.5999 333 72.2188 332.668 71.7216C332.337 71.2197 332.171 70.6136 332.171 69.9034C332.171 69.2784 332.294 68.7718 332.54 68.3835C332.787 67.9905 333.116 67.6828 333.528 67.4602C333.94 67.2377 334.394 67.072 334.891 66.9631C335.393 66.8494 335.897 66.7595 336.404 66.6932C337.067 66.608 337.604 66.544 338.016 66.5014C338.433 66.4541 338.736 66.3759 338.925 66.267C339.12 66.1581 339.217 65.9687 339.217 65.6989V65.642C339.217 64.9413 339.025 64.3968 338.641 64.0085C338.263 63.6203 337.687 63.4261 336.915 63.4261C336.115 63.4261 335.488 63.6013 335.033 63.9517C334.579 64.3021 334.259 64.6761 334.075 65.0739L332.484 64.5057C332.768 63.8428 333.147 63.3267 333.62 62.9574C334.098 62.5833 334.619 62.3229 335.183 62.1761C335.751 62.0246 336.309 61.9489 336.859 61.9489C337.209 61.9489 337.612 61.9915 338.066 62.0767C338.525 62.1572 338.968 62.3253 339.394 62.581C339.825 62.8366 340.183 63.2225 340.467 63.7386C340.751 64.2547 340.893 64.946 340.893 65.8125V73H339.217V71.5227H339.131C339.018 71.7595 338.828 72.0128 338.563 72.2827C338.298 72.5526 337.945 72.7822 337.505 72.9716C337.065 73.161 336.527 73.2557 335.893 73.2557ZM336.148 71.75C336.811 71.75 337.37 71.6198 337.825 71.3594C338.284 71.099 338.629 70.7628 338.862 70.3509C339.098 69.9389 339.217 69.5057 339.217 69.0511V67.517C339.146 67.6023 338.989 67.6804 338.748 67.7514C338.511 67.8177 338.237 67.8769 337.924 67.929C337.616 67.9763 337.316 68.0189 337.022 68.0568C336.733 68.09 336.499 68.1184 336.319 68.142C335.883 68.1989 335.476 68.2912 335.097 68.419C334.723 68.5421 334.42 68.7292 334.188 68.9801C333.961 69.2263 333.847 69.5625 333.847 69.9886C333.847 70.571 334.063 71.0114 334.494 71.3097C334.929 71.6032 335.481 71.75 336.148 71.75ZM345.628 66.4375V73H343.952V62.0909H345.571V63.7955H345.713C345.969 63.2415 346.357 62.7964 346.878 62.4602C347.399 62.1193 348.071 61.9489 348.895 61.9489C349.634 61.9489 350.28 62.1004 350.834 62.4034C351.388 62.7017 351.819 63.1562 352.127 63.767C352.435 64.3731 352.588 65.1402 352.588 66.0682V73H350.912V66.1818C350.912 65.3248 350.69 64.6572 350.245 64.179C349.8 63.696 349.189 63.4545 348.412 63.4545C347.877 63.4545 347.399 63.5705 346.978 63.8026C346.561 64.0346 346.232 64.3731 345.99 64.8182C345.749 65.2633 345.628 65.803 345.628 66.4375ZM361.276 73V62.0909H362.952V73H361.276ZM362.129 60.2727C361.802 60.2727 361.52 60.1615 361.283 59.9389C361.051 59.7164 360.935 59.4489 360.935 59.1364C360.935 58.8239 361.051 58.5563 361.283 58.3338C361.52 58.1113 361.802 58 362.129 58C362.455 58 362.735 58.1113 362.967 58.3338C363.203 58.5563 363.322 58.8239 363.322 59.1364C363.322 59.4489 363.203 59.7164 362.967 59.9389C362.735 60.1615 362.455 60.2727 362.129 60.2727ZM367.699 66.4375V73H366.022V62.0909H367.642V63.7955H367.784C368.039 63.2415 368.428 62.7964 368.949 62.4602C369.469 62.1193 370.142 61.9489 370.966 61.9489C371.704 61.9489 372.35 62.1004 372.904 62.4034C373.458 62.7017 373.889 63.1562 374.197 63.767C374.505 64.3731 374.659 65.1402 374.659 66.0682V73H372.983V66.1818C372.983 65.3248 372.76 64.6572 372.315 64.179C371.87 63.696 371.259 63.4545 370.483 63.4545C369.948 63.4545 369.469 63.5705 369.048 63.8026C368.631 64.0346 368.302 64.3731 368.061 64.8182C367.819 65.2633 367.699 65.803 367.699 66.4375ZM382.58 62.0909V63.5114H376.699V62.0909H382.58ZM378.46 73V60.5852C378.46 59.9602 378.607 59.4394 378.901 59.0227C379.194 58.6061 379.575 58.2936 380.044 58.0852C380.513 57.8769 381.008 57.7727 381.528 57.7727C381.94 57.7727 382.277 57.8059 382.537 57.8722C382.797 57.9384 382.991 58 383.119 58.0568L382.636 59.5057C382.551 59.4773 382.433 59.4418 382.281 59.3991C382.134 59.3565 381.94 59.3352 381.699 59.3352C381.145 59.3352 380.745 59.4749 380.499 59.7543C380.257 60.0336 380.136 60.4432 380.136 60.983V73H378.46ZM388.911 73.2273C387.926 73.2273 387.062 72.9929 386.319 72.5241C385.58 72.0554 385.003 71.3996 384.586 70.5568C384.174 69.714 383.968 68.7292 383.968 67.6023C383.968 66.4659 384.174 65.474 384.586 64.6264C385.003 63.7789 385.58 63.1207 386.319 62.652C387.062 62.1832 387.926 61.9489 388.911 61.9489C389.896 61.9489 390.758 62.1832 391.496 62.652C392.24 63.1207 392.817 63.7789 393.229 64.6264C393.646 65.474 393.854 66.4659 393.854 67.6023C393.854 68.7292 393.646 69.714 393.229 70.5568C392.817 71.3996 392.24 72.0554 391.496 72.5241C390.758 72.9929 389.896 73.2273 388.911 73.2273ZM388.911 71.7216C389.659 71.7216 390.275 71.5298 390.758 71.1463C391.241 70.7628 391.598 70.2585 391.83 69.6335C392.062 69.0085 392.178 68.3314 392.178 67.6023C392.178 66.8731 392.062 66.1937 391.83 65.5639C391.598 64.9342 391.241 64.4252 390.758 64.0369C390.275 63.6487 389.659 63.4545 388.911 63.4545C388.163 63.4545 387.548 63.6487 387.065 64.0369C386.582 64.4252 386.224 64.9342 385.992 65.5639C385.76 66.1937 385.644 66.8731 385.644 67.6023C385.644 68.3314 385.76 69.0085 385.992 69.6335C386.224 70.2585 386.582 70.7628 387.065 71.1463C387.548 71.5298 388.163 71.7216 388.911 71.7216ZM396.413 73V62.0909H398.032V63.7386H398.146C398.345 63.1989 398.705 62.7609 399.225 62.4247C399.746 62.0885 400.333 61.9205 400.987 61.9205C401.11 61.9205 401.264 61.9228 401.449 61.9276C401.633 61.9323 401.773 61.9394 401.868 61.9489V63.6534C401.811 63.6392 401.681 63.6179 401.477 63.5895C401.278 63.5563 401.067 63.5398 400.845 63.5398C400.315 63.5398 399.841 63.651 399.424 63.8736C399.012 64.0914 398.686 64.3944 398.444 64.7827C398.208 65.1662 398.089 65.6042 398.089 66.0966V73H396.413ZM403.854 73V62.0909H405.474V63.7955H405.616C405.843 63.2131 406.21 62.7609 406.717 62.4389C407.223 62.1122 407.832 61.9489 408.542 61.9489C409.262 61.9489 409.861 62.1122 410.339 62.4389C410.822 62.7609 411.198 63.2131 411.468 63.7955H411.582C411.861 63.232 412.28 62.7846 412.839 62.4531C413.397 62.117 414.067 61.9489 414.849 61.9489C415.824 61.9489 416.622 62.2543 417.242 62.8651C417.862 63.4711 418.173 64.4157 418.173 65.6989V73H416.496V65.6989C416.496 64.8939 416.276 64.3187 415.836 63.973C415.396 63.6274 414.877 63.4545 414.281 63.4545C413.513 63.4545 412.919 63.6866 412.498 64.1506C412.076 64.6098 411.866 65.1922 411.866 65.8977V73H410.161V65.5284C410.161 64.9081 409.96 64.4086 409.558 64.0298C409.155 63.6463 408.637 63.4545 408.002 63.4545C407.567 63.4545 407.159 63.5705 406.781 63.8026C406.406 64.0346 406.103 64.3565 405.871 64.7685C405.644 65.1757 405.531 65.6468 405.531 66.1818V73H403.854ZM73.43 101.091C73.146 101.091 72.8926 101.067 72.6701 101.02C72.4476 100.977 72.2937 100.935 72.2085 100.892L72.6346 99.4148C73.0418 99.5189 73.4016 99.5568 73.7141 99.5284C74.0266 99.5 74.3036 99.3603 74.5451 99.1094C74.7913 98.8632 75.0162 98.4631 75.2198 97.9091L75.5323 97.0568L71.4982 86.0909H73.3164L76.3278 94.7841H76.4414L79.4528 86.0909H81.271L76.6403 98.5909C76.4319 99.1544 76.1739 99.6207 75.8661 99.9901C75.5584 100.364 75.2009 100.641 74.7937 100.821C74.3912 101.001 73.9367 101.091 73.43 101.091ZM87.5245 97.2273C86.5397 97.2273 85.6755 96.9929 84.9322 96.5241C84.1935 96.0554 83.6159 95.3996 83.1992 94.5568C82.7873 93.714 82.5813 92.7292 82.5813 91.6023C82.5813 90.4659 82.7873 89.474 83.1992 88.6264C83.6159 87.7789 84.1935 87.1207 84.9322 86.652C85.6755 86.1832 86.5397 85.9489 87.5245 85.9489C88.5094 85.9489 89.3711 86.1832 90.1097 86.652C90.8531 87.1207 91.4308 87.7789 91.8427 88.6264C92.2594 89.474 92.4677 90.4659 92.4677 91.6023C92.4677 92.7292 92.2594 93.714 91.8427 94.5568C91.4308 95.3996 90.8531 96.0554 90.1097 96.5241C89.3711 96.9929 88.5094 97.2273 87.5245 97.2273ZM87.5245 95.7216C88.2726 95.7216 88.8881 95.5298 89.3711 95.1463C89.854 94.7628 90.2115 94.2585 90.4435 93.6335C90.6755 93.0085 90.7915 92.3314 90.7915 91.6023C90.7915 90.8731 90.6755 90.1937 90.4435 89.5639C90.2115 88.9342 89.854 88.4252 89.3711 88.0369C88.8881 87.6487 88.2726 87.4545 87.5245 87.4545C86.7764 87.4545 86.1609 87.6487 85.6779 88.0369C85.195 88.4252 84.8375 88.9342 84.6055 89.5639C84.3735 90.1937 84.2575 90.8731 84.2575 91.6023C84.2575 92.3314 84.3735 93.0085 84.6055 93.6335C84.8375 94.2585 85.195 94.7628 85.6779 95.1463C86.1609 95.5298 86.7764 95.7216 87.5245 95.7216ZM101.901 92.5398V86.0909H103.577V97H101.901V95.1534H101.788C101.532 95.7074 101.134 96.1785 100.594 96.5668C100.055 96.9503 99.3729 97.142 98.549 97.142C97.8672 97.142 97.2611 96.9929 96.7308 96.6946C96.2005 96.3916 95.7839 95.937 95.4808 95.331C95.1778 94.7202 95.0263 93.9508 95.0263 93.0227V86.0909H96.7024V92.9091C96.7024 93.7045 96.925 94.339 97.37 94.8125C97.8198 95.286 98.3928 95.5227 99.0888 95.5227C99.5054 95.5227 99.9292 95.4162 100.36 95.2031C100.796 94.9901 101.16 94.6634 101.454 94.223C101.752 93.7827 101.901 93.2216 101.901 92.5398ZM116.704 97.2273C115.719 97.2273 114.855 96.9929 114.112 96.5241C113.373 96.0554 112.796 95.3996 112.379 94.5568C111.967 93.714 111.761 92.7292 111.761 91.6023C111.761 90.4659 111.967 89.474 112.379 88.6264C112.796 87.7789 113.373 87.1207 114.112 86.652C114.855 86.1832 115.719 85.9489 116.704 85.9489C117.689 85.9489 118.551 86.1832 119.289 86.652C120.033 87.1207 120.61 87.7789 121.022 88.6264C121.439 89.474 121.647 90.4659 121.647 91.6023C121.647 92.7292 121.439 93.714 121.022 94.5568C120.61 95.3996 120.033 96.0554 119.289 96.5241C118.551 96.9929 117.689 97.2273 116.704 97.2273ZM116.704 95.7216C117.452 95.7216 118.068 95.5298 118.551 95.1463C119.034 94.7628 119.391 94.2585 119.623 93.6335C119.855 93.0085 119.971 92.3314 119.971 91.6023C119.971 90.8731 119.855 90.1937 119.623 89.5639C119.391 88.9342 119.034 88.4252 118.551 88.0369C118.068 87.6487 117.452 87.4545 116.704 87.4545C115.956 87.4545 115.341 87.6487 114.858 88.0369C114.375 88.4252 114.017 88.9342 113.785 89.5639C113.553 90.1937 113.437 90.8731 113.437 91.6023C113.437 92.3314 113.553 93.0085 113.785 93.6335C114.017 94.2585 114.375 94.7628 114.858 95.1463C115.341 95.5298 115.956 95.7216 116.704 95.7216ZM129.064 86.0909V87.5114H123.183V86.0909H129.064ZM124.945 97V84.5852C124.945 83.9602 125.091 83.4394 125.385 83.0227C125.679 82.6061 126.06 82.2936 126.528 82.0852C126.997 81.8769 127.492 81.7727 128.013 81.7727C128.425 81.7727 128.761 81.8059 129.021 81.8722C129.282 81.9384 129.476 82 129.604 82.0568L129.121 83.5057C129.036 83.4773 128.917 83.4418 128.766 83.3991C128.619 83.3565 128.425 83.3352 128.183 83.3352C127.629 83.3352 127.229 83.4749 126.983 83.7543C126.741 84.0336 126.621 84.4432 126.621 84.983V97H124.945ZM140.248 97.2557C139.557 97.2557 138.93 97.1255 138.366 96.8651C137.803 96.5999 137.355 96.2188 137.024 95.7216C136.692 95.2197 136.527 94.6136 136.527 93.9034C136.527 93.2784 136.65 92.7718 136.896 92.3835C137.142 91.9905 137.471 91.6828 137.883 91.4602C138.295 91.2377 138.75 91.072 139.247 90.9631C139.749 90.8494 140.253 90.7595 140.76 90.6932C141.422 90.608 141.96 90.544 142.372 90.5014C142.788 90.4541 143.092 90.3759 143.281 90.267C143.475 90.1581 143.572 89.9687 143.572 89.6989V89.642C143.572 88.9413 143.38 88.3968 142.997 88.0085C142.618 87.6203 142.043 87.4261 141.271 87.4261C140.471 87.4261 139.843 87.6013 139.389 87.9517C138.934 88.3021 138.615 88.6761 138.43 89.0739L136.839 88.5057C137.123 87.8428 137.502 87.3267 137.975 86.9574C138.454 86.5833 138.975 86.3229 139.538 86.1761C140.106 86.0246 140.665 85.9489 141.214 85.9489C141.565 85.9489 141.967 85.9915 142.422 86.0767C142.881 86.1572 143.324 86.3253 143.75 86.581C144.181 86.8366 144.538 87.2225 144.822 87.7386C145.106 88.2547 145.248 88.946 145.248 89.8125V97H143.572V95.5227H143.487C143.373 95.7595 143.184 96.0128 142.919 96.2827C142.654 96.5526 142.301 96.7822 141.86 96.9716C141.42 97.161 140.883 97.2557 140.248 97.2557ZM140.504 95.75C141.167 95.75 141.725 95.6198 142.18 95.3594C142.639 95.099 142.985 94.7628 143.217 94.3509C143.454 93.9389 143.572 93.5057 143.572 93.0511V91.517C143.501 91.6023 143.345 91.6804 143.103 91.7514C142.867 91.8177 142.592 91.8769 142.279 91.929C141.972 91.9763 141.671 92.0189 141.377 92.0568C141.089 92.09 140.854 92.1184 140.674 92.142C140.239 92.1989 139.832 92.2912 139.453 92.419C139.079 92.5421 138.776 92.7292 138.544 92.9801C138.316 93.2263 138.203 93.5625 138.203 93.9886C138.203 94.571 138.418 95.0114 138.849 95.3097C139.285 95.6032 139.836 95.75 140.504 95.75ZM149.984 90.4375V97H148.308V86.0909H149.927V87.7955H150.069C150.325 87.2415 150.713 86.7964 151.234 86.4602C151.754 86.1193 152.427 85.9489 153.251 85.9489C153.989 85.9489 154.636 86.1004 155.19 86.4034C155.744 86.7017 156.174 87.1562 156.482 87.767C156.79 88.3731 156.944 89.1402 156.944 90.0682V97H155.268V90.1818C155.268 89.3248 155.045 88.6572 154.6 88.179C154.155 87.696 153.544 87.4545 152.768 87.4545C152.233 87.4545 151.754 87.5705 151.333 87.8026C150.916 88.0346 150.587 88.3731 150.346 88.8182C150.104 89.2633 149.984 89.803 149.984 90.4375ZM168.842 97.2557C168.151 97.2557 167.523 97.1255 166.96 96.8651C166.396 96.5999 165.949 96.2188 165.618 95.7216C165.286 95.2197 165.12 94.6136 165.12 93.9034C165.12 93.2784 165.243 92.7718 165.49 92.3835C165.736 91.9905 166.065 91.6828 166.477 91.4602C166.889 91.2377 167.343 91.072 167.841 90.9631C168.342 90.8494 168.847 90.7595 169.353 90.6932C170.016 90.608 170.554 90.544 170.966 90.5014C171.382 90.4541 171.685 90.3759 171.875 90.267C172.069 90.1581 172.166 89.9687 172.166 89.6989V89.642C172.166 88.9413 171.974 88.3968 171.591 88.0085C171.212 87.6203 170.636 87.4261 169.865 87.4261C169.065 87.4261 168.437 87.6013 167.983 87.9517C167.528 88.3021 167.208 88.6761 167.024 89.0739L165.433 88.5057C165.717 87.8428 166.096 87.3267 166.569 86.9574C167.047 86.5833 167.568 86.3229 168.132 86.1761C168.7 86.0246 169.259 85.9489 169.808 85.9489C170.158 85.9489 170.561 85.9915 171.015 86.0767C171.475 86.1572 171.917 86.3253 172.343 86.581C172.774 86.8366 173.132 87.2225 173.416 87.7386C173.7 88.2547 173.842 88.946 173.842 89.8125V97H172.166V95.5227H172.081C171.967 95.7595 171.778 96.0128 171.512 96.2827C171.247 96.5526 170.895 96.7822 170.454 96.9716C170.014 97.161 169.476 97.2557 168.842 97.2557ZM169.098 95.75C169.761 95.75 170.319 95.6198 170.774 95.3594C171.233 95.099 171.579 94.7628 171.811 94.3509C172.047 93.9389 172.166 93.5057 172.166 93.0511V91.517C172.095 91.6023 171.939 91.6804 171.697 91.7514C171.46 91.8177 171.186 91.8769 170.873 91.929C170.565 91.9763 170.265 92.0189 169.971 92.0568C169.682 92.09 169.448 92.1184 169.268 92.142C168.833 92.1989 168.425 92.2912 168.047 92.419C167.672 92.5421 167.369 92.7292 167.137 92.9801C166.91 93.2263 166.797 93.5625 166.797 93.9886C166.797 94.571 167.012 95.0114 167.443 95.3097C167.878 95.6032 168.43 95.75 169.098 95.75ZM176.901 101.091V86.0909H178.521V87.8239H178.719C178.843 87.6345 179.013 87.393 179.231 87.0994C179.453 86.8011 179.771 86.536 180.183 86.304C180.599 86.0672 181.163 85.9489 181.873 85.9489C182.791 85.9489 183.601 86.1785 184.302 86.6378C185.003 87.0971 185.549 87.7481 185.942 88.5909C186.335 89.4337 186.532 90.428 186.532 91.5739C186.532 92.7292 186.335 93.7306 185.942 94.5781C185.549 95.4209 185.005 96.0743 184.309 96.5384C183.613 96.9976 182.81 97.2273 181.901 97.2273C181.201 97.2273 180.639 97.1113 180.218 96.8793C179.797 96.6425 179.472 96.375 179.245 96.0767C179.018 95.7737 178.843 95.5227 178.719 95.3239H178.577V101.091H176.901ZM178.549 91.5455C178.549 92.3693 178.67 93.0961 178.911 93.7259C179.153 94.3509 179.505 94.8409 179.969 95.196C180.433 95.5464 181.002 95.7216 181.674 95.7216C182.375 95.7216 182.96 95.5369 183.428 95.1676C183.902 94.7936 184.257 94.2917 184.494 93.6619C184.735 93.0275 184.856 92.322 184.856 91.5455C184.856 90.7784 184.737 90.0871 184.501 89.4716C184.269 88.8513 183.916 88.3613 183.442 88.0014C182.974 87.6368 182.384 87.4545 181.674 87.4545C180.992 87.4545 180.419 87.6274 179.955 87.973C179.491 88.3139 179.141 88.7921 178.904 89.4077C178.667 90.0185 178.549 90.7311 178.549 91.5455ZM189.089 101.091V86.0909H190.708V87.8239H190.907C191.03 87.6345 191.201 87.393 191.418 87.0994C191.641 86.8011 191.958 86.536 192.37 86.304C192.787 86.0672 193.35 85.9489 194.06 85.9489C194.979 85.9489 195.789 86.1785 196.489 86.6378C197.19 87.0971 197.737 87.7481 198.13 88.5909C198.523 89.4337 198.719 90.428 198.719 91.5739C198.719 92.7292 198.523 93.7306 198.13 94.5781C197.737 95.4209 197.192 96.0743 196.496 96.5384C195.8 96.9976 194.998 97.2273 194.089 97.2273C193.388 97.2273 192.827 97.1113 192.406 96.8793C191.984 96.6425 191.66 96.375 191.433 96.0767C191.205 95.7737 191.03 95.5227 190.907 95.3239H190.765V101.091H189.089ZM190.737 91.5455C190.737 92.3693 190.857 93.0961 191.099 93.7259C191.34 94.3509 191.693 94.8409 192.157 95.196C192.621 95.5464 193.189 95.7216 193.862 95.7216C194.562 95.7216 195.147 95.5369 195.616 95.1676C196.089 94.7936 196.444 94.2917 196.681 93.6619C196.923 93.0275 197.043 92.322 197.043 91.5455C197.043 90.7784 196.925 90.0871 196.688 89.4716C196.456 88.8513 196.103 88.3613 195.63 88.0014C195.161 87.6368 194.572 87.4545 193.862 87.4545C193.18 87.4545 192.607 87.6274 192.143 87.973C191.679 88.3139 191.328 88.7921 191.092 89.4077C190.855 90.0185 190.737 90.7311 190.737 91.5455ZM211.333 97.2273C210.348 97.2273 209.484 96.9929 208.741 96.5241C208.002 96.0554 207.424 95.3996 207.008 94.5568C206.596 93.714 206.39 92.7292 206.39 91.6023C206.39 90.4659 206.596 89.474 207.008 88.6264C207.424 87.7789 208.002 87.1207 208.741 86.652C209.484 86.1832 210.348 85.9489 211.333 85.9489C212.318 85.9489 213.18 86.1832 213.918 86.652C214.662 87.1207 215.239 87.7789 215.651 88.6264C216.068 89.474 216.276 90.4659 216.276 91.6023C216.276 92.7292 216.068 93.714 215.651 94.5568C215.239 95.3996 214.662 96.0554 213.918 96.5241C213.18 96.9929 212.318 97.2273 211.333 97.2273ZM211.333 95.7216C212.081 95.7216 212.697 95.5298 213.18 95.1463C213.663 94.7628 214.02 94.2585 214.252 93.6335C214.484 93.0085 214.6 92.3314 214.6 91.6023C214.6 90.8731 214.484 90.1937 214.252 89.5639C214.02 88.9342 213.663 88.4252 213.18 88.0369C212.697 87.6487 212.081 87.4545 211.333 87.4545C210.585 87.4545 209.969 87.6487 209.487 88.0369C209.004 88.4252 208.646 88.9342 208.414 89.5639C208.182 90.1937 208.066 90.8731 208.066 91.6023C208.066 92.3314 208.182 93.0085 208.414 93.6335C208.646 94.2585 209.004 94.7628 209.487 95.1463C209.969 95.5298 210.585 95.7216 211.333 95.7216ZM218.835 97V86.0909H220.454V87.7386H220.568C220.767 87.1989 221.127 86.7609 221.647 86.4247C222.168 86.0885 222.755 85.9205 223.409 85.9205C223.532 85.9205 223.686 85.9228 223.87 85.9276C224.055 85.9323 224.195 85.9394 224.289 85.9489V87.6534C224.233 87.6392 224.102 87.6179 223.899 87.5895C223.7 87.5563 223.489 87.5398 223.267 87.5398C222.736 87.5398 222.263 87.651 221.846 87.8736C221.434 88.0914 221.108 88.3944 220.866 88.7827C220.629 89.1662 220.511 89.6042 220.511 90.0966V97H218.835ZM236.646 86.0909V87.5114H230.992V86.0909H236.646ZM232.64 83.4773H234.316V93.875C234.316 94.3485 234.385 94.7036 234.522 94.9403C234.664 95.1723 234.844 95.3286 235.062 95.4091C235.284 95.4848 235.519 95.5227 235.765 95.5227C235.95 95.5227 236.101 95.5133 236.219 95.4943C236.338 95.4706 236.433 95.4517 236.504 95.4375L236.844 96.9432C236.731 96.9858 236.572 97.0284 236.369 97.071C236.165 97.1184 235.907 97.142 235.594 97.142C235.121 97.142 234.657 97.0402 234.202 96.8366C233.753 96.633 233.379 96.3229 233.08 95.9062C232.787 95.4896 232.64 94.964 232.64 94.3295V83.4773ZM242.377 97.2557C241.686 97.2557 241.058 97.1255 240.495 96.8651C239.932 96.5999 239.484 96.2188 239.153 95.7216C238.821 95.2197 238.656 94.6136 238.656 93.9034C238.656 93.2784 238.779 92.7718 239.025 92.3835C239.271 91.9905 239.6 91.6828 240.012 91.4602C240.424 91.2377 240.879 91.072 241.376 90.9631C241.878 90.8494 242.382 90.7595 242.888 90.6932C243.551 90.608 244.089 90.544 244.501 90.5014C244.917 90.4541 245.22 90.3759 245.41 90.267C245.604 90.1581 245.701 89.9687 245.701 89.6989V89.642C245.701 88.9413 245.509 88.3968 245.126 88.0085C244.747 87.6203 244.172 87.4261 243.4 87.4261C242.6 87.4261 241.972 87.6013 241.518 87.9517C241.063 88.3021 240.744 88.6761 240.559 89.0739L238.968 88.5057C239.252 87.8428 239.631 87.3267 240.104 86.9574C240.583 86.5833 241.103 86.3229 241.667 86.1761C242.235 86.0246 242.794 85.9489 243.343 85.9489C243.693 85.9489 244.096 85.9915 244.55 86.0767C245.01 86.1572 245.452 86.3253 245.879 86.581C246.309 86.8366 246.667 87.2225 246.951 87.7386C247.235 88.2547 247.377 88.946 247.377 89.8125V97H245.701V95.5227H245.616C245.502 95.7595 245.313 96.0128 245.048 96.2827C244.782 96.5526 244.43 96.7822 243.989 96.9716C243.549 97.161 243.012 97.2557 242.377 97.2557ZM242.633 95.75C243.296 95.75 243.854 95.6198 244.309 95.3594C244.768 95.099 245.114 94.7628 245.346 94.3509C245.583 93.9389 245.701 93.5057 245.701 93.0511V91.517C245.63 91.6023 245.474 91.6804 245.232 91.7514C244.996 91.8177 244.721 91.8769 244.408 91.929C244.101 91.9763 243.8 92.0189 243.506 92.0568C243.218 92.09 242.983 92.1184 242.803 92.142C242.368 92.1989 241.96 92.2912 241.582 92.419C241.208 92.5421 240.905 92.7292 240.673 92.9801C240.445 93.2263 240.332 93.5625 240.332 93.9886C240.332 94.571 240.547 95.0114 240.978 95.3097C241.414 95.6032 241.965 95.75 242.633 95.75ZM258.164 88.5341L256.658 88.9602C256.563 88.7093 256.424 88.4654 256.239 88.2287C256.059 87.9872 255.813 87.7884 255.5 87.6321C255.188 87.4759 254.788 87.3977 254.3 87.3977C253.632 87.3977 253.076 87.5516 252.631 87.8594C252.191 88.1624 251.971 88.5483 251.971 89.017C251.971 89.4337 252.122 89.7628 252.425 90.0043C252.728 90.2457 253.202 90.447 253.846 90.608L255.465 91.0057C256.44 91.2424 257.167 91.6046 257.645 92.0923C258.123 92.5753 258.363 93.1979 258.363 93.9602C258.363 94.5852 258.183 95.1439 257.823 95.6364C257.468 96.1288 256.971 96.517 256.331 96.8011C255.692 97.0852 254.949 97.2273 254.101 97.2273C252.989 97.2273 252.068 96.9858 251.338 96.5028C250.609 96.0199 250.148 95.3144 249.953 94.3864L251.544 93.9886C251.696 94.5758 251.982 95.0161 252.404 95.3097C252.83 95.6032 253.386 95.75 254.073 95.75C254.854 95.75 255.474 95.5843 255.934 95.2528C256.398 94.9167 256.63 94.5142 256.63 94.0455C256.63 93.6667 256.497 93.3494 256.232 93.0938C255.967 92.8333 255.56 92.6392 255.01 92.5114L253.192 92.0852C252.193 91.8485 251.459 91.4815 250.99 90.9844C250.526 90.4825 250.294 89.8551 250.294 89.1023C250.294 88.4867 250.467 87.9422 250.813 87.4688C251.163 86.9953 251.639 86.6236 252.24 86.3537C252.846 86.0838 253.533 85.9489 254.3 85.9489C255.38 85.9489 256.227 86.1856 256.843 86.6591C257.463 87.1326 257.903 87.7576 258.164 88.5341ZM262.448 93.0227L262.42 90.9489H262.761L267.533 86.0909H269.607L264.522 91.233H264.38L262.448 93.0227ZM260.886 97V82.4545H262.562V97H260.886ZM267.817 97L263.556 91.6023L264.749 90.4375L269.948 97H267.817ZM282.134 86.0909V87.5114H276.48V86.0909H282.134ZM278.128 83.4773H279.804V93.875C279.804 94.3485 279.873 94.7036 280.01 94.9403C280.152 95.1723 280.332 95.3286 280.55 95.4091C280.773 95.4848 281.007 95.5227 281.253 95.5227C281.438 95.5227 281.589 95.5133 281.708 95.4943C281.826 95.4706 281.921 95.4517 281.992 95.4375L282.333 96.9432C282.219 96.9858 282.06 97.0284 281.857 97.071C281.653 97.1184 281.395 97.142 281.083 97.142C280.609 97.142 280.145 97.0402 279.691 96.8366C279.241 96.633 278.867 96.3229 278.569 95.9062C278.275 95.4896 278.128 94.964 278.128 94.3295V83.4773ZM286.566 90.4375V97H284.89V82.4545H286.566V87.7955H286.708C286.963 87.232 287.347 86.7846 287.858 86.4531C288.374 86.117 289.061 85.9489 289.918 85.9489C290.661 85.9489 291.312 86.098 291.871 86.3963C292.43 86.6899 292.863 87.142 293.171 87.7528C293.483 88.3589 293.64 89.1307 293.64 90.0682V97H291.963V90.1818C291.963 89.3153 291.739 88.6454 291.289 88.1719C290.844 87.6937 290.226 87.4545 289.435 87.4545C288.886 87.4545 288.393 87.5705 287.958 87.8026C287.527 88.0346 287.186 88.3731 286.935 88.8182C286.689 89.2633 286.566 89.803 286.566 90.4375ZM299.916 97.2557C299.225 97.2557 298.598 97.1255 298.034 96.8651C297.471 96.5999 297.023 96.2188 296.692 95.7216C296.36 95.2197 296.195 94.6136 296.195 93.9034C296.195 93.2784 296.318 92.7718 296.564 92.3835C296.81 91.9905 297.139 91.6828 297.551 91.4602C297.963 91.2377 298.418 91.072 298.915 90.9631C299.417 90.8494 299.921 90.7595 300.428 90.6932C301.09 90.608 301.628 90.544 302.04 90.5014C302.456 90.4541 302.759 90.3759 302.949 90.267C303.143 90.1581 303.24 89.9687 303.24 89.6989V89.642C303.24 88.9413 303.048 88.3968 302.665 88.0085C302.286 87.6203 301.711 87.4261 300.939 87.4261C300.139 87.4261 299.511 87.6013 299.057 87.9517C298.602 88.3021 298.283 88.6761 298.098 89.0739L296.507 88.5057C296.791 87.8428 297.17 87.3267 297.643 86.9574C298.122 86.5833 298.643 86.3229 299.206 86.1761C299.774 86.0246 300.333 85.9489 300.882 85.9489C301.232 85.9489 301.635 85.9915 302.089 86.0767C302.549 86.1572 302.991 86.3253 303.418 86.581C303.848 86.8366 304.206 87.2225 304.49 87.7386C304.774 88.2547 304.916 88.946 304.916 89.8125V97H303.24V95.5227H303.155C303.041 95.7595 302.852 96.0128 302.587 96.2827C302.321 96.5526 301.969 96.7822 301.528 96.9716C301.088 97.161 300.551 97.2557 299.916 97.2557ZM300.172 95.75C300.835 95.75 301.393 95.6198 301.848 95.3594C302.307 95.099 302.653 94.7628 302.885 94.3509C303.122 93.9389 303.24 93.5057 303.24 93.0511V91.517C303.169 91.6023 303.013 91.6804 302.771 91.7514C302.535 91.8177 302.26 91.8769 301.947 91.929C301.64 91.9763 301.339 92.0189 301.045 92.0568C300.757 92.09 300.522 92.1184 300.342 92.142C299.907 92.1989 299.5 92.2912 299.121 92.419C298.747 92.5421 298.444 92.7292 298.212 92.9801C297.984 93.2263 297.871 93.5625 297.871 93.9886C297.871 94.571 298.086 95.0114 298.517 95.3097C298.953 95.6032 299.504 95.75 300.172 95.75ZM312.72 86.0909V87.5114H307.066V86.0909H312.72ZM308.714 83.4773H310.39V93.875C310.39 94.3485 310.459 94.7036 310.596 94.9403C310.738 95.1723 310.918 95.3286 311.136 95.4091C311.359 95.4848 311.593 95.5227 311.839 95.5227C312.024 95.5227 312.175 95.5133 312.294 95.4943C312.412 95.4706 312.507 95.4517 312.578 95.4375L312.919 96.9432C312.805 96.9858 312.646 97.0284 312.443 97.071C312.239 97.1184 311.981 97.142 311.669 97.142C311.195 97.142 310.731 97.0402 310.277 96.8366C309.827 96.633 309.453 96.3229 309.154 95.9062C308.861 95.4896 308.714 94.964 308.714 94.3295V83.4773ZM322.542 90.4375V97H320.866V86.0909H322.485V87.7955H322.627C322.883 87.2415 323.271 86.7964 323.792 86.4602C324.313 86.1193 324.985 85.9489 325.809 85.9489C326.548 85.9489 327.194 86.1004 327.748 86.4034C328.302 86.7017 328.733 87.1562 329.041 87.767C329.349 88.3731 329.502 89.1402 329.502 90.0682V97H327.826V90.1818C327.826 89.3248 327.604 88.6572 327.159 88.179C326.714 87.696 326.103 87.4545 325.326 87.4545C324.791 87.4545 324.313 87.5705 323.892 87.8026C323.475 88.0346 323.146 88.3731 322.904 88.8182C322.663 89.2633 322.542 89.803 322.542 90.4375ZM337.139 97.2273C336.088 97.2273 335.181 96.9953 334.419 96.5312C333.661 96.0625 333.077 95.4091 332.665 94.571C332.258 93.7282 332.054 92.7481 332.054 91.6307C332.054 90.5133 332.258 89.5284 332.665 88.6761C333.077 87.8191 333.65 87.1515 334.384 86.6733C335.122 86.1903 335.984 85.9489 336.969 85.9489C337.537 85.9489 338.098 86.0436 338.652 86.233C339.206 86.4223 339.71 86.7301 340.165 87.1562C340.619 87.5777 340.982 88.1364 341.251 88.8324C341.521 89.5284 341.656 90.3854 341.656 91.4034V92.1136H333.247V90.6648H339.952C339.952 90.0492 339.829 89.5 339.582 89.017C339.341 88.5341 338.995 88.1529 338.545 87.8736C338.1 87.5942 337.575 87.4545 336.969 87.4545C336.301 87.4545 335.723 87.6203 335.236 87.9517C334.753 88.2784 334.381 88.7045 334.121 89.2301C333.86 89.7557 333.73 90.3191 333.73 90.9205V91.8864C333.73 92.7102 333.872 93.4086 334.156 93.9815C334.445 94.5497 334.845 94.983 335.357 95.2812C335.868 95.5748 336.462 95.7216 337.139 95.7216C337.58 95.7216 337.977 95.66 338.332 95.5369C338.692 95.4091 339.002 95.2197 339.263 94.9688C339.523 94.7131 339.724 94.3958 339.866 94.017L341.486 94.4716C341.315 95.0208 341.029 95.5038 340.626 95.9205C340.224 96.3324 339.727 96.6544 339.135 96.8864C338.543 97.1136 337.878 97.2273 337.139 97.2273ZM348.78 97.2273C347.729 97.2273 346.822 96.9953 346.06 96.5312C345.302 96.0625 344.717 95.4091 344.305 94.571C343.898 93.7282 343.695 92.7481 343.695 91.6307C343.695 90.5133 343.898 89.5284 344.305 88.6761C344.717 87.8191 345.29 87.1515 346.024 86.6733C346.763 86.1903 347.625 85.9489 348.609 85.9489C349.178 85.9489 349.739 86.0436 350.293 86.233C350.847 86.4223 351.351 86.7301 351.805 87.1562C352.26 87.5777 352.622 88.1364 352.892 88.8324C353.162 89.5284 353.297 90.3854 353.297 91.4034V92.1136H344.888V90.6648H351.592C351.592 90.0492 351.469 89.5 351.223 89.017C350.982 88.5341 350.636 88.1529 350.186 87.8736C349.741 87.5942 349.215 87.4545 348.609 87.4545C347.942 87.4545 347.364 87.6203 346.876 87.9517C346.393 88.2784 346.022 88.7045 345.761 89.2301C345.501 89.7557 345.371 90.3191 345.371 90.9205V91.8864C345.371 92.7102 345.513 93.4086 345.797 93.9815C346.086 94.5497 346.486 94.983 346.997 95.2812C347.509 95.5748 348.103 95.7216 348.78 95.7216C349.22 95.7216 349.618 95.66 349.973 95.5369C350.333 95.4091 350.643 95.2197 350.903 94.9688C351.164 94.7131 351.365 94.3958 351.507 94.017L353.126 94.4716C352.956 95.0208 352.67 95.5038 352.267 95.9205C351.865 96.3324 351.367 96.6544 350.776 96.8864C350.184 97.1136 349.518 97.2273 348.78 97.2273ZM359.966 97.2273C359.057 97.2273 358.254 96.9976 357.558 96.5384C356.862 96.0743 356.318 95.4209 355.925 94.5781C355.532 93.7306 355.335 92.7292 355.335 91.5739C355.335 90.428 355.532 89.4337 355.925 88.5909C356.318 87.7481 356.865 87.0971 357.565 86.6378C358.266 86.1785 359.076 85.9489 359.994 85.9489C360.705 85.9489 361.266 86.0672 361.678 86.304C362.094 86.536 362.411 86.8011 362.629 87.0994C362.852 87.393 363.025 87.6345 363.148 87.8239H363.29V82.4545H364.966V97H363.347V95.3239H363.148C363.025 95.5227 362.849 95.7737 362.622 96.0767C362.395 96.375 362.071 96.6425 361.649 96.8793C361.228 97.1113 360.667 97.2273 359.966 97.2273ZM360.193 95.7216C360.866 95.7216 361.434 95.5464 361.898 95.196C362.362 94.8409 362.714 94.3509 362.956 93.7259C363.197 93.0961 363.318 92.3693 363.318 91.5455C363.318 90.7311 363.2 90.0185 362.963 89.4077C362.726 88.7921 362.376 88.3139 361.912 87.973C361.448 87.6274 360.875 87.4545 360.193 87.4545C359.483 87.4545 358.891 87.6368 358.418 88.0014C357.949 88.3613 357.596 88.8513 357.359 89.4716C357.127 90.0871 357.011 90.7784 357.011 91.5455C357.011 92.322 357.13 93.0275 357.366 93.6619C357.608 94.2917 357.963 94.7936 358.432 95.1676C358.905 95.5369 359.492 95.7216 360.193 95.7216ZM375.996 88.5341L374.49 88.9602C374.395 88.7093 374.256 88.4654 374.071 88.2287C373.891 87.9872 373.645 87.7884 373.332 87.6321C373.02 87.4759 372.62 87.3977 372.132 87.3977C371.464 87.3977 370.908 87.5516 370.463 87.8594C370.023 88.1624 369.803 88.5483 369.803 89.017C369.803 89.4337 369.954 89.7628 370.257 90.0043C370.56 90.2457 371.034 90.447 371.678 90.608L373.297 91.0057C374.272 91.2424 374.999 91.6046 375.477 92.0923C375.955 92.5753 376.195 93.1979 376.195 93.9602C376.195 94.5852 376.015 95.1439 375.655 95.6364C375.3 96.1288 374.803 96.517 374.163 96.8011C373.524 97.0852 372.781 97.2273 371.933 97.2273C370.821 97.2273 369.9 96.9858 369.17 96.5028C368.441 96.0199 367.98 95.3144 367.786 94.3864L369.376 93.9886C369.528 94.5758 369.814 95.0161 370.236 95.3097C370.662 95.6032 371.218 95.75 371.905 95.75C372.686 95.75 373.306 95.5843 373.766 95.2528C374.23 94.9167 374.462 94.5142 374.462 94.0455C374.462 93.6667 374.329 93.3494 374.064 93.0938C373.799 92.8333 373.392 92.6392 372.842 92.5114L371.024 92.0852C370.025 91.8485 369.291 91.4815 368.822 90.9844C368.358 90.4825 368.126 89.8551 368.126 89.1023C368.126 88.4867 368.299 87.9422 368.645 87.4688C368.995 86.9953 369.471 86.6236 370.072 86.3537C370.679 86.0838 371.365 85.9489 372.132 85.9489C373.212 85.9489 374.059 86.1856 374.675 86.6591C375.295 87.1326 375.735 87.7576 375.996 88.5341ZM112.006 121.256C111.315 121.256 110.687 121.125 110.124 120.865C109.56 120.6 109.113 120.219 108.782 119.722C108.45 119.22 108.284 118.614 108.284 117.903C108.284 117.278 108.408 116.772 108.654 116.384C108.9 115.991 109.229 115.683 109.641 115.46C110.053 115.238 110.507 115.072 111.005 114.963C111.507 114.849 112.011 114.759 112.517 114.693C113.18 114.608 113.718 114.544 114.13 114.501C114.546 114.454 114.849 114.376 115.039 114.267C115.233 114.158 115.33 113.969 115.33 113.699V113.642C115.33 112.941 115.138 112.397 114.755 112.009C114.376 111.62 113.801 111.426 113.029 111.426C112.229 111.426 111.601 111.601 111.147 111.952C110.692 112.302 110.373 112.676 110.188 113.074L108.597 112.506C108.881 111.843 109.26 111.327 109.733 110.957C110.212 110.583 110.732 110.323 111.296 110.176C111.864 110.025 112.423 109.949 112.972 109.949C113.322 109.949 113.725 109.991 114.179 110.077C114.639 110.157 115.081 110.325 115.507 110.581C115.938 110.837 116.296 111.223 116.58 111.739C116.864 112.255 117.006 112.946 117.006 113.812V121H115.33V119.523H115.245C115.131 119.759 114.942 120.013 114.676 120.283C114.411 120.553 114.059 120.782 113.618 120.972C113.178 121.161 112.641 121.256 112.006 121.256ZM112.262 119.75C112.925 119.75 113.483 119.62 113.938 119.359C114.397 119.099 114.743 118.763 114.975 118.351C115.212 117.939 115.33 117.506 115.33 117.051V115.517C115.259 115.602 115.103 115.68 114.861 115.751C114.624 115.818 114.35 115.877 114.037 115.929C113.73 115.976 113.429 116.019 113.135 116.057C112.846 116.09 112.612 116.118 112.432 116.142C111.997 116.199 111.589 116.291 111.211 116.419C110.837 116.542 110.533 116.729 110.301 116.98C110.074 117.226 109.961 117.562 109.961 117.989C109.961 118.571 110.176 119.011 110.607 119.31C111.042 119.603 111.594 119.75 112.262 119.75ZM124.81 110.091V111.511H119.156V110.091H124.81ZM120.804 107.477H122.48V117.875C122.48 118.348 122.549 118.704 122.686 118.94C122.828 119.172 123.008 119.329 123.226 119.409C123.448 119.485 123.683 119.523 123.929 119.523C124.114 119.523 124.265 119.513 124.384 119.494C124.502 119.471 124.597 119.452 124.668 119.438L125.009 120.943C124.895 120.986 124.736 121.028 124.533 121.071C124.329 121.118 124.071 121.142 123.759 121.142C123.285 121.142 122.821 121.04 122.366 120.837C121.917 120.633 121.543 120.323 121.244 119.906C120.951 119.49 120.804 118.964 120.804 118.33V107.477ZM132.075 110.091V111.511H126.422V110.091H132.075ZM128.07 107.477H129.746V117.875C129.746 118.348 129.814 118.704 129.952 118.94C130.094 119.172 130.274 119.329 130.491 119.409C130.714 119.485 130.948 119.523 131.195 119.523C131.379 119.523 131.531 119.513 131.649 119.494C131.768 119.471 131.862 119.452 131.933 119.438L132.274 120.943C132.161 120.986 132.002 121.028 131.798 121.071C131.595 121.118 131.337 121.142 131.024 121.142C130.551 121.142 130.087 121.04 129.632 120.837C129.182 120.633 128.808 120.323 128.51 119.906C128.216 119.49 128.07 118.964 128.07 118.33V107.477ZM139.053 121.227C138.002 121.227 137.095 120.995 136.333 120.531C135.576 120.062 134.991 119.409 134.579 118.571C134.172 117.728 133.968 116.748 133.968 115.631C133.968 114.513 134.172 113.528 134.579 112.676C134.991 111.819 135.564 111.152 136.298 110.673C137.036 110.19 137.898 109.949 138.883 109.949C139.451 109.949 140.012 110.044 140.566 110.233C141.12 110.422 141.624 110.73 142.079 111.156C142.533 111.578 142.896 112.136 143.165 112.832C143.435 113.528 143.57 114.385 143.57 115.403V116.114H135.161V114.665H141.866C141.866 114.049 141.743 113.5 141.496 113.017C141.255 112.534 140.909 112.153 140.46 111.874C140.014 111.594 139.489 111.455 138.883 111.455C138.215 111.455 137.638 111.62 137.15 111.952C136.667 112.278 136.295 112.705 136.035 113.23C135.774 113.756 135.644 114.319 135.644 114.92V115.886C135.644 116.71 135.786 117.409 136.07 117.982C136.359 118.55 136.759 118.983 137.271 119.281C137.782 119.575 138.376 119.722 139.053 119.722C139.494 119.722 139.891 119.66 140.246 119.537C140.606 119.409 140.916 119.22 141.177 118.969C141.437 118.713 141.638 118.396 141.781 118.017L143.4 118.472C143.229 119.021 142.943 119.504 142.54 119.92C142.138 120.332 141.641 120.654 141.049 120.886C140.457 121.114 139.792 121.227 139.053 121.227ZM147.796 114.438V121H146.12V110.091H147.739V111.795H147.881C148.137 111.241 148.525 110.796 149.046 110.46C149.567 110.119 150.239 109.949 151.063 109.949C151.802 109.949 152.448 110.1 153.002 110.403C153.556 110.702 153.987 111.156 154.295 111.767C154.603 112.373 154.756 113.14 154.756 114.068V121H153.08V114.182C153.08 113.325 152.858 112.657 152.413 112.179C151.968 111.696 151.357 111.455 150.58 111.455C150.045 111.455 149.567 111.571 149.146 111.803C148.729 112.035 148.4 112.373 148.158 112.818C147.917 113.263 147.796 113.803 147.796 114.438ZM162.564 110.091V111.511H156.91V110.091H162.564ZM158.558 107.477H160.234V117.875C160.234 118.348 160.303 118.704 160.44 118.94C160.582 119.172 160.762 119.329 160.98 119.409C161.202 119.485 161.437 119.523 161.683 119.523C161.868 119.523 162.019 119.513 162.137 119.494C162.256 119.471 162.35 119.452 162.422 119.438L162.762 120.943C162.649 120.986 162.49 121.028 162.287 121.071C162.083 121.118 161.825 121.142 161.512 121.142C161.039 121.142 160.575 121.04 160.12 120.837C159.671 120.633 159.297 120.323 158.998 119.906C158.705 119.49 158.558 118.964 158.558 118.33V107.477ZM165.085 121V110.091H166.761V121H165.085ZM165.937 108.273C165.61 108.273 165.329 108.161 165.092 107.939C164.86 107.716 164.744 107.449 164.744 107.136C164.744 106.824 164.86 106.556 165.092 106.334C165.329 106.111 165.61 106 165.937 106C166.264 106 166.543 106.111 166.775 106.334C167.012 106.556 167.13 106.824 167.13 107.136C167.13 107.449 167.012 107.716 166.775 107.939C166.543 108.161 166.264 108.273 165.937 108.273ZM174.263 121.227C173.278 121.227 172.414 120.993 171.67 120.524C170.932 120.055 170.354 119.4 169.938 118.557C169.526 117.714 169.32 116.729 169.32 115.602C169.32 114.466 169.526 113.474 169.938 112.626C170.354 111.779 170.932 111.121 171.67 110.652C172.414 110.183 173.278 109.949 174.263 109.949C175.248 109.949 176.109 110.183 176.848 110.652C177.591 111.121 178.169 111.779 178.581 112.626C178.998 113.474 179.206 114.466 179.206 115.602C179.206 116.729 178.998 117.714 178.581 118.557C178.169 119.4 177.591 120.055 176.848 120.524C176.109 120.993 175.248 121.227 174.263 121.227ZM174.263 119.722C175.011 119.722 175.626 119.53 176.109 119.146C176.592 118.763 176.95 118.259 177.182 117.634C177.414 117.009 177.53 116.331 177.53 115.602C177.53 114.873 177.414 114.194 177.182 113.564C176.95 112.934 176.592 112.425 176.109 112.037C175.626 111.649 175.011 111.455 174.263 111.455C173.515 111.455 172.899 111.649 172.416 112.037C171.933 112.425 171.576 112.934 171.344 113.564C171.112 114.194 170.996 114.873 170.996 115.602C170.996 116.331 171.112 117.009 171.344 117.634C171.576 118.259 171.933 118.763 172.416 119.146C172.899 119.53 173.515 119.722 174.263 119.722ZM183.441 114.438V121H181.765V110.091H183.384V111.795H183.526C183.782 111.241 184.17 110.796 184.691 110.46C185.212 110.119 185.884 109.949 186.708 109.949C187.446 109.949 188.093 110.1 188.647 110.403C189.201 110.702 189.632 111.156 189.939 111.767C190.247 112.373 190.401 113.14 190.401 114.068V121H188.725V114.182C188.725 113.325 188.502 112.657 188.057 112.179C187.612 111.696 187.001 111.455 186.225 111.455C185.69 111.455 185.212 111.571 184.79 111.803C184.373 112.035 184.044 112.373 183.803 112.818C183.561 113.263 183.441 113.803 183.441 114.438ZM195.964 119.011L195.85 119.778C195.77 120.318 195.647 120.896 195.481 121.511C195.32 122.127 195.152 122.707 194.977 123.251C194.801 123.796 194.657 124.229 194.543 124.551H193.265C193.326 124.248 193.407 123.848 193.506 123.351C193.606 122.854 193.705 122.297 193.805 121.682C193.909 121.071 193.994 120.446 194.06 119.807L194.146 119.011H195.964ZM206.37 106.455V121H204.694V106.455H206.37ZM209.44 121V110.091H211.116V121H209.44ZM210.293 108.273C209.966 108.273 209.684 108.161 209.447 107.939C209.215 107.716 209.099 107.449 209.099 107.136C209.099 106.824 209.215 106.556 209.447 106.334C209.684 106.111 209.966 106 210.293 106C210.619 106 210.899 106.111 211.131 106.334C211.367 106.556 211.486 106.824 211.486 107.136C211.486 107.449 211.367 107.716 211.131 107.939C210.899 108.161 210.619 108.273 210.293 108.273ZM215.749 117.023L215.721 114.949H216.061L220.834 110.091H222.908L217.823 115.233H217.681L215.749 117.023ZM214.186 121V106.455H215.863V121H214.186ZM221.118 121L216.857 115.602L218.05 114.438L223.249 121H221.118ZM229.19 121.227C228.139 121.227 227.232 120.995 226.47 120.531C225.712 120.062 225.127 119.409 224.716 118.571C224.308 117.728 224.105 116.748 224.105 115.631C224.105 114.513 224.308 113.528 224.716 112.676C225.127 111.819 225.7 111.152 226.434 110.673C227.173 110.19 228.035 109.949 229.02 109.949C229.588 109.949 230.149 110.044 230.703 110.233C231.257 110.422 231.761 110.73 232.216 111.156C232.67 111.578 233.032 112.136 233.302 112.832C233.572 113.528 233.707 114.385 233.707 115.403V116.114H225.298V114.665H232.002C232.002 114.049 231.879 113.5 231.633 113.017C231.392 112.534 231.046 112.153 230.596 111.874C230.151 111.594 229.626 111.455 229.02 111.455C228.352 111.455 227.774 111.62 227.287 111.952C226.804 112.278 226.432 112.705 226.172 113.23C225.911 113.756 225.781 114.319 225.781 114.92V115.886C225.781 116.71 225.923 117.409 226.207 117.982C226.496 118.55 226.896 118.983 227.407 119.281C227.919 119.575 228.513 119.722 229.19 119.722C229.63 119.722 230.028 119.66 230.383 119.537C230.743 119.409 231.053 119.22 231.314 118.969C231.574 118.713 231.775 118.396 231.917 118.017L233.537 118.472C233.366 119.021 233.08 119.504 232.677 119.92C232.275 120.332 231.778 120.654 231.186 120.886C230.594 121.114 229.929 121.227 229.19 121.227ZM245.092 121.256C244.401 121.256 243.773 121.125 243.21 120.865C242.646 120.6 242.199 120.219 241.868 119.722C241.536 119.22 241.37 118.614 241.37 117.903C241.37 117.278 241.493 116.772 241.74 116.384C241.986 115.991 242.315 115.683 242.727 115.46C243.139 115.238 243.593 115.072 244.091 114.963C244.592 114.849 245.097 114.759 245.603 114.693C246.266 114.608 246.804 114.544 247.216 114.501C247.632 114.454 247.935 114.376 248.125 114.267C248.319 114.158 248.416 113.969 248.416 113.699V113.642C248.416 112.941 248.224 112.397 247.841 112.009C247.462 111.62 246.886 111.426 246.115 111.426C245.315 111.426 244.687 111.601 244.233 111.952C243.778 112.302 243.458 112.676 243.274 113.074L241.683 112.506C241.967 111.843 242.346 111.327 242.819 110.957C243.297 110.583 243.818 110.323 244.382 110.176C244.95 110.025 245.509 109.949 246.058 109.949C246.408 109.949 246.811 109.991 247.265 110.077C247.725 110.157 248.167 110.325 248.593 110.581C249.024 110.837 249.382 111.223 249.666 111.739C249.95 112.255 250.092 112.946 250.092 113.812V121H248.416V119.523H248.331C248.217 119.759 248.028 120.013 247.762 120.283C247.497 120.553 247.145 120.782 246.704 120.972C246.264 121.161 245.726 121.256 245.092 121.256ZM245.348 119.75C246.011 119.75 246.569 119.62 247.024 119.359C247.483 119.099 247.829 118.763 248.061 118.351C248.297 117.939 248.416 117.506 248.416 117.051V115.517C248.345 115.602 248.189 115.68 247.947 115.751C247.71 115.818 247.436 115.877 247.123 115.929C246.815 115.976 246.515 116.019 246.221 116.057C245.932 116.09 245.698 116.118 245.518 116.142C245.083 116.199 244.675 116.291 244.297 116.419C243.922 116.542 243.619 116.729 243.387 116.98C243.16 117.226 243.047 117.562 243.047 117.989C243.047 118.571 243.262 119.011 243.693 119.31C244.128 119.603 244.68 119.75 245.348 119.75ZM254.827 114.438V121H253.151V110.091H254.771V111.795H254.913C255.168 111.241 255.557 110.796 256.077 110.46C256.598 110.119 257.271 109.949 258.094 109.949C258.833 109.949 259.479 110.1 260.033 110.403C260.587 110.702 261.018 111.156 261.326 111.767C261.634 112.373 261.788 113.14 261.788 114.068V121H260.112V114.182C260.112 113.325 259.889 112.657 259.444 112.179C258.999 111.696 258.388 111.455 257.612 111.455C257.076 111.455 256.598 111.571 256.177 111.803C255.76 112.035 255.431 112.373 255.19 112.818C254.948 113.263 254.827 113.803 254.827 114.438ZM277.35 116.54V110.091H279.027V121H277.35V119.153H277.237C276.981 119.707 276.583 120.179 276.044 120.567C275.504 120.95 274.822 121.142 273.998 121.142C273.316 121.142 272.71 120.993 272.18 120.695C271.65 120.392 271.233 119.937 270.93 119.331C270.627 118.72 270.475 117.951 270.475 117.023V110.091H272.152V116.909C272.152 117.705 272.374 118.339 272.819 118.812C273.269 119.286 273.842 119.523 274.538 119.523C274.955 119.523 275.378 119.416 275.809 119.203C276.245 118.99 276.609 118.663 276.903 118.223C277.201 117.783 277.35 117.222 277.35 116.54ZM282.097 125.091V110.091H283.716V111.824H283.915C284.038 111.634 284.208 111.393 284.426 111.099C284.649 110.801 284.966 110.536 285.378 110.304C285.795 110.067 286.358 109.949 287.068 109.949C287.987 109.949 288.796 110.179 289.497 110.638C290.198 111.097 290.745 111.748 291.138 112.591C291.531 113.434 291.727 114.428 291.727 115.574C291.727 116.729 291.531 117.731 291.138 118.578C290.745 119.421 290.2 120.074 289.504 120.538C288.808 120.998 288.006 121.227 287.097 121.227C286.396 121.227 285.835 121.111 285.413 120.879C284.992 120.643 284.668 120.375 284.44 120.077C284.213 119.774 284.038 119.523 283.915 119.324H283.773V125.091H282.097ZM283.744 115.545C283.744 116.369 283.865 117.096 284.107 117.726C284.348 118.351 284.701 118.841 285.165 119.196C285.629 119.546 286.197 119.722 286.869 119.722C287.57 119.722 288.155 119.537 288.624 119.168C289.097 118.794 289.452 118.292 289.689 117.662C289.93 117.027 290.051 116.322 290.051 115.545C290.051 114.778 289.933 114.087 289.696 113.472C289.464 112.851 289.111 112.361 288.638 112.001C288.169 111.637 287.58 111.455 286.869 111.455C286.188 111.455 285.615 111.627 285.151 111.973C284.687 112.314 284.336 112.792 284.099 113.408C283.863 114.018 283.744 114.731 283.744 115.545ZM298.403 121.227C297.494 121.227 296.692 120.998 295.996 120.538C295.3 120.074 294.755 119.421 294.362 118.578C293.969 117.731 293.773 116.729 293.773 115.574C293.773 114.428 293.969 113.434 294.362 112.591C294.755 111.748 295.302 111.097 296.003 110.638C296.704 110.179 297.513 109.949 298.432 109.949C299.142 109.949 299.703 110.067 300.115 110.304C300.532 110.536 300.849 110.801 301.067 111.099C301.289 111.393 301.462 111.634 301.585 111.824H301.727V106.455H303.403V121H301.784V119.324H301.585C301.462 119.523 301.287 119.774 301.06 120.077C300.832 120.375 300.508 120.643 300.087 120.879C299.665 121.111 299.104 121.227 298.403 121.227ZM298.631 119.722C299.303 119.722 299.871 119.546 300.335 119.196C300.799 118.841 301.152 118.351 301.393 117.726C301.635 117.096 301.756 116.369 301.756 115.545C301.756 114.731 301.637 114.018 301.401 113.408C301.164 112.792 300.813 112.314 300.349 111.973C299.885 111.627 299.313 111.455 298.631 111.455C297.92 111.455 297.329 111.637 296.855 112.001C296.386 112.361 296.034 112.851 295.797 113.472C295.565 114.087 295.449 114.778 295.449 115.545C295.449 116.322 295.567 117.027 295.804 117.662C296.045 118.292 296.401 118.794 296.869 119.168C297.343 119.537 297.93 119.722 298.631 119.722ZM309.916 121.256C309.225 121.256 308.598 121.125 308.034 120.865C307.471 120.6 307.023 120.219 306.692 119.722C306.36 119.22 306.195 118.614 306.195 117.903C306.195 117.278 306.318 116.772 306.564 116.384C306.81 115.991 307.139 115.683 307.551 115.46C307.963 115.238 308.418 115.072 308.915 114.963C309.417 114.849 309.921 114.759 310.428 114.693C311.09 114.608 311.628 114.544 312.04 114.501C312.456 114.454 312.759 114.376 312.949 114.267C313.143 114.158 313.24 113.969 313.24 113.699V113.642C313.24 112.941 313.048 112.397 312.665 112.009C312.286 111.62 311.711 111.426 310.939 111.426C310.139 111.426 309.511 111.601 309.057 111.952C308.602 112.302 308.283 112.676 308.098 113.074L306.507 112.506C306.791 111.843 307.17 111.327 307.643 110.957C308.122 110.583 308.643 110.323 309.206 110.176C309.774 110.025 310.333 109.949 310.882 109.949C311.232 109.949 311.635 109.991 312.089 110.077C312.549 110.157 312.991 110.325 313.418 110.581C313.848 110.837 314.206 111.223 314.49 111.739C314.774 112.255 314.916 112.946 314.916 113.812V121H313.24V119.523H313.155C313.041 119.759 312.852 120.013 312.587 120.283C312.321 120.553 311.969 120.782 311.528 120.972C311.088 121.161 310.551 121.256 309.916 121.256ZM310.172 119.75C310.835 119.75 311.393 119.62 311.848 119.359C312.307 119.099 312.653 118.763 312.885 118.351C313.122 117.939 313.24 117.506 313.24 117.051V115.517C313.169 115.602 313.013 115.68 312.771 115.751C312.535 115.818 312.26 115.877 311.947 115.929C311.64 115.976 311.339 116.019 311.045 116.057C310.757 116.09 310.522 116.118 310.342 116.142C309.907 116.199 309.5 116.291 309.121 116.419C308.747 116.542 308.444 116.729 308.212 116.98C307.984 117.226 307.871 117.562 307.871 117.989C307.871 118.571 308.086 119.011 308.517 119.31C308.953 119.603 309.504 119.75 310.172 119.75ZM322.72 110.091V111.511H317.066V110.091H322.72ZM318.714 107.477H320.39V117.875C320.39 118.348 320.459 118.704 320.596 118.94C320.738 119.172 320.918 119.329 321.136 119.409C321.359 119.485 321.593 119.523 321.839 119.523C322.024 119.523 322.175 119.513 322.294 119.494C322.412 119.471 322.507 119.452 322.578 119.438L322.919 120.943C322.805 120.986 322.646 121.028 322.443 121.071C322.239 121.118 321.981 121.142 321.669 121.142C321.195 121.142 320.731 121.04 320.277 120.837C319.827 120.633 319.453 120.323 319.154 119.906C318.861 119.49 318.714 118.964 318.714 118.33V107.477ZM329.698 121.227C328.647 121.227 327.74 120.995 326.978 120.531C326.22 120.062 325.635 119.409 325.223 118.571C324.816 117.728 324.613 116.748 324.613 115.631C324.613 114.513 324.816 113.528 325.223 112.676C325.635 111.819 326.208 111.152 326.942 110.673C327.681 110.19 328.542 109.949 329.527 109.949C330.096 109.949 330.657 110.044 331.211 110.233C331.765 110.422 332.269 110.73 332.723 111.156C333.178 111.578 333.54 112.136 333.81 112.832C334.08 113.528 334.215 114.385 334.215 115.403V116.114H325.806V114.665H332.51C332.51 114.049 332.387 113.5 332.141 113.017C331.9 112.534 331.554 112.153 331.104 111.874C330.659 111.594 330.133 111.455 329.527 111.455C328.86 111.455 328.282 111.62 327.794 111.952C327.311 112.278 326.94 112.705 326.679 113.23C326.419 113.756 326.289 114.319 326.289 114.92V115.886C326.289 116.71 326.431 117.409 326.715 117.982C327.004 118.55 327.404 118.983 327.915 119.281C328.426 119.575 329.021 119.722 329.698 119.722C330.138 119.722 330.536 119.66 330.891 119.537C331.251 119.409 331.561 119.22 331.821 118.969C332.082 118.713 332.283 118.396 332.425 118.017L334.044 118.472C333.874 119.021 333.587 119.504 333.185 119.92C332.783 120.332 332.285 120.654 331.694 120.886C331.102 121.114 330.436 121.227 329.698 121.227ZM337.986 121.114C337.636 121.114 337.335 120.988 337.084 120.737C336.833 120.486 336.708 120.186 336.708 119.835C336.708 119.485 336.833 119.184 337.084 118.933C337.335 118.682 337.636 118.557 337.986 118.557C338.337 118.557 338.637 118.682 338.888 118.933C339.139 119.184 339.265 119.485 339.265 119.835C339.265 120.067 339.205 120.28 339.087 120.474C338.973 120.669 338.819 120.825 338.625 120.943C338.436 121.057 338.223 121.114 337.986 121.114Z" fill="black"/>
<rect x="130" y="136" width="188" height="2" rx="1" fill="white" fill-opacity="0.01"/>
<rect x="78.5" y="148.5" width="159" height="30" rx="3.5" fill="#188BDE"/>
<path d="M121.642 169V158.818H122.875V167.906H127.608V169H121.642ZM132.56 169.159C131.824 169.159 131.189 168.997 130.656 168.672C130.125 168.344 129.716 167.886 129.428 167.3C129.143 166.71 129 166.024 129 165.241C129 164.459 129.143 163.77 129.428 163.173C129.716 162.573 130.117 162.106 130.631 161.771C131.148 161.433 131.751 161.264 132.44 161.264C132.838 161.264 133.231 161.33 133.619 161.463C134.006 161.596 134.359 161.811 134.678 162.109C134.996 162.404 135.249 162.795 135.438 163.283C135.627 163.77 135.722 164.37 135.722 165.082V165.58H129.835V164.565H134.528C134.528 164.134 134.442 163.75 134.27 163.412C134.101 163.074 133.859 162.807 133.544 162.612C133.233 162.416 132.865 162.318 132.44 162.318C131.973 162.318 131.569 162.434 131.227 162.666C130.889 162.895 130.629 163.193 130.447 163.561C130.265 163.929 130.173 164.323 130.173 164.744V165.42C130.173 165.997 130.273 166.486 130.472 166.887C130.674 167.285 130.954 167.588 131.312 167.797C131.67 168.002 132.086 168.105 132.56 168.105C132.868 168.105 133.146 168.062 133.395 167.976C133.647 167.886 133.864 167.754 134.046 167.578C134.229 167.399 134.369 167.177 134.469 166.912L135.602 167.23C135.483 167.615 135.283 167.953 135.001 168.244C134.719 168.533 134.371 168.758 133.957 168.92C133.542 169.08 133.077 169.159 132.56 169.159ZM139.754 169.179C139.27 169.179 138.831 169.088 138.436 168.906C138.042 168.72 137.729 168.453 137.497 168.105C137.265 167.754 137.149 167.33 137.149 166.832C137.149 166.395 137.235 166.04 137.407 165.768C137.579 165.493 137.81 165.278 138.098 165.122C138.386 164.966 138.705 164.85 139.053 164.774C139.404 164.695 139.757 164.632 140.112 164.585C140.576 164.526 140.952 164.481 141.24 164.451C141.532 164.418 141.744 164.363 141.877 164.287C142.012 164.211 142.08 164.078 142.08 163.889V163.849C142.08 163.359 141.946 162.978 141.678 162.706C141.412 162.434 141.01 162.298 140.47 162.298C139.909 162.298 139.47 162.421 139.152 162.666C138.834 162.911 138.61 163.173 138.481 163.452L137.367 163.054C137.566 162.59 137.831 162.229 138.163 161.97C138.497 161.708 138.862 161.526 139.256 161.423C139.654 161.317 140.045 161.264 140.43 161.264C140.675 161.264 140.957 161.294 141.275 161.354C141.596 161.41 141.906 161.528 142.205 161.707C142.506 161.886 142.756 162.156 142.955 162.517C143.154 162.878 143.254 163.362 143.254 163.969V169H142.08V167.966H142.021C141.941 168.132 141.809 168.309 141.623 168.498C141.437 168.687 141.19 168.848 140.882 168.98C140.574 169.113 140.198 169.179 139.754 169.179ZM139.933 168.125C140.397 168.125 140.788 168.034 141.106 167.852C141.427 167.669 141.669 167.434 141.832 167.146C141.997 166.857 142.08 166.554 142.08 166.236V165.162C142.031 165.222 141.921 165.276 141.752 165.326C141.586 165.372 141.394 165.414 141.176 165.45C140.96 165.483 140.75 165.513 140.544 165.54C140.342 165.563 140.178 165.583 140.052 165.599C139.747 165.639 139.462 165.704 139.197 165.793C138.935 165.879 138.723 166.01 138.56 166.186C138.401 166.358 138.322 166.594 138.322 166.892C138.322 167.3 138.473 167.608 138.774 167.817C139.079 168.022 139.465 168.125 139.933 168.125ZM145.395 169V161.364H146.529V162.517H146.608C146.747 162.139 146.999 161.833 147.364 161.597C147.728 161.362 148.139 161.244 148.597 161.244C148.683 161.244 148.791 161.246 148.92 161.249C149.049 161.253 149.147 161.258 149.213 161.264V162.457C149.174 162.447 149.082 162.433 148.94 162.413C148.801 162.389 148.653 162.378 148.497 162.378C148.126 162.378 147.795 162.456 147.503 162.612C147.215 162.764 146.986 162.976 146.817 163.248C146.651 163.516 146.568 163.823 146.568 164.168V169H145.395ZM151.777 164.406V169H150.604V161.364H151.738V162.557H151.837C152.016 162.169 152.288 161.857 152.652 161.622C153.017 161.384 153.488 161.264 154.064 161.264C154.581 161.264 155.034 161.37 155.422 161.582C155.809 161.791 156.111 162.109 156.326 162.537C156.542 162.961 156.65 163.498 156.65 164.148V169H155.476V164.227C155.476 163.627 155.321 163.16 155.009 162.825C154.697 162.487 154.27 162.318 153.726 162.318C153.352 162.318 153.017 162.399 152.722 162.562C152.43 162.724 152.2 162.961 152.031 163.273C151.862 163.584 151.777 163.962 151.777 164.406ZM162.89 158.818H164.362L167.822 167.27H167.941L171.402 158.818H172.873V169H171.72V161.264H171.62L168.438 169H167.325L164.143 161.264H164.044V169H162.89V158.818ZM178.288 169.159C177.599 169.159 176.994 168.995 176.474 168.667C175.957 168.339 175.552 167.88 175.261 167.29C174.972 166.7 174.828 166.01 174.828 165.222C174.828 164.426 174.972 163.732 175.261 163.138C175.552 162.545 175.957 162.085 176.474 161.756C176.994 161.428 177.599 161.264 178.288 161.264C178.978 161.264 179.581 161.428 180.098 161.756C180.618 162.085 181.023 162.545 181.311 163.138C181.603 163.732 181.749 164.426 181.749 165.222C181.749 166.01 181.603 166.7 181.311 167.29C181.023 167.88 180.618 168.339 180.098 168.667C179.581 168.995 178.978 169.159 178.288 169.159ZM178.288 168.105C178.812 168.105 179.243 167.971 179.581 167.702C179.919 167.434 180.169 167.081 180.332 166.643C180.494 166.206 180.575 165.732 180.575 165.222C180.575 164.711 180.494 164.236 180.332 163.795C180.169 163.354 179.919 162.998 179.581 162.726C179.243 162.454 178.812 162.318 178.288 162.318C177.765 162.318 177.334 162.454 176.996 162.726C176.658 162.998 176.408 163.354 176.245 163.795C176.083 164.236 176.002 164.711 176.002 165.222C176.002 165.732 176.083 166.206 176.245 166.643C176.408 167.081 176.658 167.434 176.996 167.702C177.334 167.971 177.765 168.105 178.288 168.105ZM183.54 169V161.364H184.673V162.517H184.753C184.892 162.139 185.144 161.833 185.508 161.597C185.873 161.362 186.284 161.244 186.741 161.244C186.828 161.244 186.935 161.246 187.065 161.249C187.194 161.253 187.292 161.258 187.358 161.264V162.457C187.318 162.447 187.227 162.433 187.084 162.413C186.945 162.389 186.798 162.378 186.642 162.378C186.271 162.378 185.939 162.456 185.648 162.612C185.359 162.764 185.131 162.976 184.962 163.248C184.796 163.516 184.713 163.823 184.713 164.168V169H183.54ZM191.718 169.159C190.982 169.159 190.347 168.997 189.814 168.672C189.284 168.344 188.874 167.886 188.586 167.3C188.301 166.71 188.158 166.024 188.158 165.241C188.158 164.459 188.301 163.77 188.586 163.173C188.874 162.573 189.275 162.106 189.789 161.771C190.306 161.433 190.909 161.264 191.599 161.264C191.996 161.264 192.389 161.33 192.777 161.463C193.165 161.596 193.518 161.811 193.836 162.109C194.154 162.404 194.408 162.795 194.597 163.283C194.785 163.77 194.88 164.37 194.88 165.082V165.58H188.994V164.565H193.687C193.687 164.134 193.601 163.75 193.428 163.412C193.259 163.074 193.017 162.807 192.702 162.612C192.391 162.416 192.023 162.318 191.599 162.318C191.131 162.318 190.727 162.434 190.386 162.666C190.047 162.895 189.787 163.193 189.605 163.561C189.423 163.929 189.332 164.323 189.332 164.744V165.42C189.332 165.997 189.431 166.486 189.63 166.887C189.832 167.285 190.112 167.588 190.47 167.797C190.828 168.002 191.244 168.105 191.718 168.105C192.026 168.105 192.305 168.062 192.553 167.976C192.805 167.886 193.022 167.754 193.204 167.578C193.387 167.399 193.528 167.177 193.627 166.912L194.761 167.23C194.641 167.615 194.441 167.953 194.159 168.244C193.877 168.533 193.529 168.758 193.115 168.92C192.701 169.08 192.235 169.159 191.718 169.159Z" fill="white"/>
<rect x="78.5" y="148.5" width="159" height="30" rx="3.5" stroke="url(#paint0_linear_1002_2509)"/>
<rect x="248.5" y="148.5" width="121" height="30" rx="3.5" fill="#188BDE"/>
<path d="M299.764 162H298.531C298.458 161.645 298.331 161.334 298.148 161.065C297.969 160.797 297.751 160.571 297.492 160.389C297.237 160.204 296.953 160.064 296.642 159.972C296.33 159.879 296.006 159.832 295.667 159.832C295.051 159.832 294.492 159.988 293.992 160.3C293.495 160.611 293.099 161.07 292.804 161.677C292.512 162.283 292.366 163.027 292.366 163.909C292.366 164.791 292.512 165.535 292.804 166.141C293.099 166.748 293.495 167.207 293.992 167.518C294.492 167.83 295.051 167.986 295.667 167.986C296.006 167.986 296.33 167.939 296.642 167.847C296.953 167.754 297.237 167.616 297.492 167.434C297.751 167.248 297.969 167.021 298.148 166.753C298.331 166.481 298.458 166.17 298.531 165.818H299.764C299.671 166.339 299.502 166.804 299.257 167.215C299.012 167.626 298.707 167.976 298.342 168.264C297.978 168.549 297.568 168.766 297.114 168.915C296.663 169.065 296.181 169.139 295.667 169.139C294.799 169.139 294.027 168.927 293.351 168.503C292.675 168.079 292.143 167.475 291.755 166.693C291.367 165.911 291.173 164.983 291.173 163.909C291.173 162.835 291.367 161.907 291.755 161.125C292.143 160.343 292.675 159.74 293.351 159.315C294.027 158.891 294.799 158.679 295.667 158.679C296.181 158.679 296.663 158.754 297.114 158.903C297.568 159.052 297.978 159.271 298.342 159.559C298.707 159.844 299.012 160.192 299.257 160.603C299.502 161.011 299.671 161.476 299.764 162ZM302.771 158.818V169H301.597V158.818H302.771ZM308.022 169.159C307.332 169.159 306.728 168.995 306.207 168.667C305.69 168.339 305.286 167.88 304.994 167.29C304.706 166.7 304.562 166.01 304.562 165.222C304.562 164.426 304.706 163.732 304.994 163.138C305.286 162.545 305.69 162.085 306.207 161.756C306.728 161.428 307.332 161.264 308.022 161.264C308.711 161.264 309.314 161.428 309.831 161.756C310.352 162.085 310.756 162.545 311.045 163.138C311.336 163.732 311.482 164.426 311.482 165.222C311.482 166.01 311.336 166.7 311.045 167.29C310.756 167.88 310.352 168.339 309.831 168.667C309.314 168.995 308.711 169.159 308.022 169.159ZM308.022 168.105C308.546 168.105 308.976 167.971 309.314 167.702C309.653 167.434 309.903 167.081 310.065 166.643C310.228 166.206 310.309 165.732 310.309 165.222C310.309 164.711 310.228 164.236 310.065 163.795C309.903 163.354 309.653 162.998 309.314 162.726C308.976 162.454 308.546 162.318 308.022 162.318C307.498 162.318 307.067 162.454 306.729 162.726C306.391 162.998 306.141 163.354 305.979 163.795C305.816 164.236 305.735 164.711 305.735 165.222C305.735 165.732 305.816 166.206 305.979 166.643C306.141 167.081 306.391 167.434 306.729 167.702C307.067 167.971 307.498 168.105 308.022 168.105ZM318.682 163.074L317.628 163.372C317.562 163.196 317.464 163.026 317.335 162.86C317.209 162.691 317.037 162.552 316.818 162.442C316.599 162.333 316.319 162.278 315.978 162.278C315.51 162.278 315.121 162.386 314.809 162.602C314.501 162.814 314.347 163.084 314.347 163.412C314.347 163.704 314.453 163.934 314.665 164.103C314.877 164.272 315.209 164.413 315.659 164.526L316.793 164.804C317.476 164.97 317.984 165.223 318.319 165.565C318.654 165.903 318.821 166.339 318.821 166.872C318.821 167.31 318.695 167.701 318.444 168.045C318.195 168.39 317.847 168.662 317.4 168.861C316.952 169.06 316.432 169.159 315.838 169.159C315.06 169.159 314.415 168.99 313.904 168.652C313.394 168.314 313.071 167.82 312.935 167.17L314.049 166.892C314.155 167.303 314.355 167.611 314.65 167.817C314.949 168.022 315.338 168.125 315.819 168.125C316.365 168.125 316.8 168.009 317.121 167.777C317.446 167.542 317.608 167.26 317.608 166.932C317.608 166.667 317.516 166.445 317.33 166.266C317.144 166.083 316.859 165.947 316.475 165.858L315.202 165.56C314.503 165.394 313.989 165.137 313.661 164.789C313.336 164.438 313.174 163.999 313.174 163.472C313.174 163.041 313.295 162.66 313.537 162.328C313.782 161.997 314.115 161.737 314.536 161.548C314.96 161.359 315.441 161.264 315.978 161.264C316.733 161.264 317.327 161.43 317.757 161.761C318.192 162.093 318.5 162.53 318.682 163.074ZM323.789 169.159C323.053 169.159 322.419 168.997 321.885 168.672C321.355 168.344 320.945 167.886 320.657 167.3C320.372 166.71 320.23 166.024 320.23 165.241C320.23 164.459 320.372 163.77 320.657 163.173C320.945 162.573 321.347 162.106 321.86 161.771C322.377 161.433 322.981 161.264 323.67 161.264C324.068 161.264 324.46 161.33 324.848 161.463C325.236 161.596 325.589 161.811 325.907 162.109C326.225 162.404 326.479 162.795 326.668 163.283C326.857 163.77 326.951 164.37 326.951 165.082V165.58H321.065V164.565H325.758C325.758 164.134 325.672 163.75 325.499 163.412C325.33 163.074 325.088 162.807 324.774 162.612C324.462 162.416 324.094 162.318 323.67 162.318C323.203 162.318 322.798 162.434 322.457 162.666C322.119 162.895 321.859 163.193 321.676 163.561C321.494 163.929 321.403 164.323 321.403 164.744V165.42C321.403 165.997 321.502 166.486 321.701 166.887C321.903 167.285 322.183 167.588 322.541 167.797C322.899 168.002 323.315 168.105 323.789 168.105C324.097 168.105 324.376 168.062 324.624 167.976C324.876 167.886 325.093 167.754 325.276 167.578C325.458 167.399 325.599 167.177 325.698 166.912L326.832 167.23C326.713 167.615 326.512 167.953 326.23 168.244C325.949 168.533 325.601 168.758 325.186 168.92C324.772 169.08 324.306 169.159 323.789 169.159Z" fill="white"/>
<rect x="248.5" y="148.5" width="121" height="30" rx="3.5" stroke="url(#paint1_linear_1002_2509)"/>
<rect x="8.5" y="0.5" width="431" height="198" rx="5.5" stroke="#F3F0F0" shape-rendering="crispEdges"/>
</g>
<defs>
<filter id="filter0_bd_1002_2509" x="-92" y="-100" width="632" height="399" filterUnits="userSpaceOnUse" color-interpolation-filters="sRGB">
<feFlood flood-opacity="0" result="BackgroundImageFix"/>
<feGaussianBlur in="BackgroundImageFix" stdDeviation="50"/>
<feComposite in2="SourceAlpha" operator="in" result="effect1_backgroundBlur_1002_2509"/>
<feColorMatrix in="SourceAlpha" type="matrix" values="0 0 0 0 0 0 0 0 0 0 0 0 0 0 0 0 0 0 127 0" result="hardAlpha"/>
<feOffset dy="8"/>
<feGaussianBlur stdDeviation="4"/>
<feComposite in2="hardAlpha" operator="out"/>
<feColorMatrix type="matrix" values="0 0 0 0 0 0 0 0 0 0 0 0 0 0 0 0 0 0 0.25 0"/>
<feBlend mode="normal" in2="effect1_backgroundBlur_1002_2509" result="effect2_dropShadow_1002_2509"/>
<feBlend mode="normal" in="SourceGraphic" in2="effect2_dropShadow_1002_2509" result="shape"/>
</filter>
<linearGradient id="paint0_linear_1002_2509" x1="158" y1="148" x2="158" y2="179" gradientUnits="userSpaceOnUse">
<stop offset="0.55" stop-color="#1D93E9"/>
<stop offset="0.794792" stop-color="#0074C7"/>
</linearGradient>
<linearGradient id="paint1_linear_1002_2509" x1="309" y1="148" x2="309" y2="179" gradientUnits="userSpaceOnUse">
<stop offset="0.55" stop-color="#1D93E9"/>
<stop offset="0.794792" stop-color="#0074C7"/>
</linearGradient>
</defs>
</svg>
