<svg width="320" height="38" viewBox="0 0 320 38" fill="none" xmlns="http://www.w3.org/2000/svg">
<mask id="path-1-inside-1_2_1922" fill="white">
<path d="M0 4C0 1.79086 1.79086 0 4 0H316C318.209 0 320 1.79086 320 4V34C320 36.2091 318.209 38 316 38H4C1.79086 38 0 36.2091 0 34V4Z"/>
</mask>
<path d="M0 4C0 1.79086 1.79086 0 4 0H316C318.209 0 320 1.79086 320 4V34C320 36.2091 318.209 38 316 38H4C1.79086 38 0 36.2091 0 34V4Z" fill="white"/>
<path d="M13.9375 22.6307C13.5365 22.6307 13.1702 22.5329 12.8388 22.3374C12.5073 22.1385 12.2422 21.8733 12.0433 21.5419C11.8478 21.2105 11.75 20.8442 11.75 20.4432C11.75 20.0388 11.8478 19.6726 12.0433 19.3445C12.2422 19.013 12.5073 18.7495 12.8388 18.554C13.1702 18.3551 13.5365 18.2557 13.9375 18.2557C14.3419 18.2557 14.7081 18.3551 15.0362 18.554C15.3677 18.7495 15.6312 19.013 15.8267 19.3445C16.0256 19.6726 16.125 20.0388 16.125 20.4432C16.125 20.8442 16.0256 21.2105 15.8267 21.5419C15.6312 21.8733 15.3677 22.1385 15.0362 22.3374C14.7081 22.5329 14.3419 22.6307 13.9375 22.6307ZM21.8125 22.6307C21.4115 22.6307 21.0452 22.5329 20.7138 22.3374C20.3823 22.1385 20.1172 21.8733 19.9183 21.5419C19.7228 21.2105 19.625 20.8442 19.625 20.4432C19.625 20.0388 19.7228 19.6726 19.9183 19.3445C20.1172 19.013 20.3823 18.7495 20.7138 18.554C21.0452 18.3551 21.4115 18.2557 21.8125 18.2557C22.2169 18.2557 22.5831 18.3551 22.9112 18.554C23.2427 18.7495 23.5062 19.013 23.7017 19.3445C23.9006 19.6726 24 20.0388 24 20.4432C24 20.8442 23.9006 21.2105 23.7017 21.5419C23.5062 21.8733 23.2427 22.1385 22.9112 22.3374C22.5831 22.5329 22.2169 22.6307 21.8125 22.6307ZM29.6875 22.6307C29.2865 22.6307 28.9202 22.5329 28.5888 22.3374C28.2573 22.1385 27.9922 21.8733 27.7933 21.5419C27.5978 21.2105 27.5 20.8442 27.5 20.4432C27.5 20.0388 27.5978 19.6726 27.7933 19.3445C27.9922 19.013 28.2573 18.7495 28.5888 18.554C28.9202 18.3551 29.2865 18.2557 29.6875 18.2557C30.0919 18.2557 30.4581 18.3551 30.7862 18.554C31.1177 18.7495 31.3812 19.013 31.5767 19.3445C31.7756 19.6726 31.875 20.0388 31.875 20.4432C31.875 20.8442 31.7756 21.2105 31.5767 21.5419C31.3812 21.8733 31.1177 22.1385 30.7862 22.3374C30.4581 22.5329 30.0919 22.6307 29.6875 22.6307ZM37.5625 22.6307C37.1615 22.6307 36.7952 22.5329 36.4638 22.3374C36.1323 22.1385 35.8672 21.8733 35.6683 21.5419C35.4728 21.2105 35.375 20.8442 35.375 20.4432C35.375 20.0388 35.4728 19.6726 35.6683 19.3445C35.8672 19.013 36.1323 18.7495 36.4638 18.554C36.7952 18.3551 37.1615 18.2557 37.5625 18.2557C37.9669 18.2557 38.3331 18.3551 38.6612 18.554C38.9927 18.7495 39.2562 19.013 39.4517 19.3445C39.6506 19.6726 39.75 20.0388 39.75 20.4432C39.75 20.8442 39.6506 21.2105 39.4517 21.5419C39.2562 21.8733 38.9927 22.1385 38.6612 22.3374C38.3331 22.5329 37.9669 22.6307 37.5625 22.6307ZM45.4375 22.6307C45.0365 22.6307 44.6702 22.5329 44.3388 22.3374C44.0073 22.1385 43.7422 21.8733 43.5433 21.5419C43.3478 21.2105 43.25 20.8442 43.25 20.4432C43.25 20.0388 43.3478 19.6726 43.5433 19.3445C43.7422 19.013 44.0073 18.7495 44.3388 18.554C44.6702 18.3551 45.0365 18.2557 45.4375 18.2557C45.8419 18.2557 46.2081 18.3551 46.5362 18.554C46.8677 18.7495 47.1312 19.013 47.3267 19.3445C47.5256 19.6726 47.625 20.0388 47.625 20.4432C47.625 20.8442 47.5256 21.2105 47.3267 21.5419C47.1312 21.8733 46.8677 22.1385 46.5362 22.3374C46.2081 22.5329 45.8419 22.6307 45.4375 22.6307ZM53.3125 22.6307C52.9115 22.6307 52.5452 22.5329 52.2138 22.3374C51.8823 22.1385 51.6172 21.8733 51.4183 21.5419C51.2228 21.2105 51.125 20.8442 51.125 20.4432C51.125 20.0388 51.2228 19.6726 51.4183 19.3445C51.6172 19.013 51.8823 18.7495 52.2138 18.554C52.5452 18.3551 52.9115 18.2557 53.3125 18.2557C53.7169 18.2557 54.0831 18.3551 54.4112 18.554C54.7427 18.7495 55.0062 19.013 55.2017 19.3445C55.4006 19.6726 55.5 20.0388 55.5 20.4432C55.5 20.8442 55.4006 21.2105 55.2017 21.5419C55.0062 21.8733 54.7427 22.1385 54.4112 22.3374C54.0831 22.5329 53.7169 22.6307 53.3125 22.6307ZM61.1875 22.6307C60.7865 22.6307 60.4202 22.5329 60.0888 22.3374C59.7573 22.1385 59.4922 21.8733 59.2933 21.5419C59.0978 21.2105 59 20.8442 59 20.4432C59 20.0388 59.0978 19.6726 59.2933 19.3445C59.4922 19.013 59.7573 18.7495 60.0888 18.554C60.4202 18.3551 60.7865 18.2557 61.1875 18.2557C61.5919 18.2557 61.9581 18.3551 62.2862 18.554C62.6177 18.7495 62.8812 19.013 63.0767 19.3445C63.2756 19.6726 63.375 20.0388 63.375 20.4432C63.375 20.8442 63.2756 21.2105 63.0767 21.5419C62.8812 21.8733 62.6177 22.1385 62.2862 22.3374C61.9581 22.5329 61.5919 22.6307 61.1875 22.6307ZM69.0625 22.6307C68.6615 22.6307 68.2952 22.5329 67.9638 22.3374C67.6323 22.1385 67.3672 21.8733 67.1683 21.5419C66.9728 21.2105 66.875 20.8442 66.875 20.4432C66.875 20.0388 66.9728 19.6726 67.1683 19.3445C67.3672 19.013 67.6323 18.7495 67.9638 18.554C68.2952 18.3551 68.6615 18.2557 69.0625 18.2557C69.4669 18.2557 69.8331 18.3551 70.1612 18.554C70.4927 18.7495 70.7562 19.013 70.9517 19.3445C71.1506 19.6726 71.25 20.0388 71.25 20.4432C71.25 20.8442 71.1506 21.2105 70.9517 21.5419C70.7562 21.8733 70.4927 22.1385 70.1612 22.3374C69.8331 22.5329 69.4669 22.6307 69.0625 22.6307ZM76.9375 22.6307C76.5365 22.6307 76.1702 22.5329 75.8388 22.3374C75.5073 22.1385 75.2422 21.8733 75.0433 21.5419C74.8478 21.2105 74.75 20.8442 74.75 20.4432C74.75 20.0388 74.8478 19.6726 75.0433 19.3445C75.2422 19.013 75.5073 18.7495 75.8388 18.554C76.1702 18.3551 76.5365 18.2557 76.9375 18.2557C77.3419 18.2557 77.7081 18.3551 78.0362 18.554C78.3677 18.7495 78.6312 19.013 78.8267 19.3445C79.0256 19.6726 79.125 20.0388 79.125 20.4432C79.125 20.8442 79.0256 21.2105 78.8267 21.5419C78.6312 21.8733 78.3677 22.1385 78.0362 22.3374C77.7081 22.5329 77.3419 22.6307 76.9375 22.6307ZM84.8125 22.6307C84.4115 22.6307 84.0452 22.5329 83.7138 22.3374C83.3823 22.1385 83.1172 21.8733 82.9183 21.5419C82.7228 21.2105 82.625 20.8442 82.625 20.4432C82.625 20.0388 82.7228 19.6726 82.9183 19.3445C83.1172 19.013 83.3823 18.7495 83.7138 18.554C84.0452 18.3551 84.4115 18.2557 84.8125 18.2557C85.2169 18.2557 85.5831 18.3551 85.9112 18.554C86.2427 18.7495 86.5062 19.013 86.7017 19.3445C86.9006 19.6726 87 20.0388 87 20.4432C87 20.8442 86.9006 21.2105 86.7017 21.5419C86.5062 21.8733 86.2427 22.1385 85.9112 22.3374C85.5831 22.5329 85.2169 22.6307 84.8125 22.6307ZM92.6875 22.6307C92.2865 22.6307 91.9202 22.5329 91.5888 22.3374C91.2573 22.1385 90.9922 21.8733 90.7933 21.5419C90.5978 21.2105 90.5 20.8442 90.5 20.4432C90.5 20.0388 90.5978 19.6726 90.7933 19.3445C90.9922 19.013 91.2573 18.7495 91.5888 18.554C91.9202 18.3551 92.2865 18.2557 92.6875 18.2557C93.0919 18.2557 93.4581 18.3551 93.7862 18.554C94.1177 18.7495 94.3812 19.013 94.5767 19.3445C94.7756 19.6726 94.875 20.0388 94.875 20.4432C94.875 20.8442 94.7756 21.2105 94.5767 21.5419C94.3812 21.8733 94.1177 22.1385 93.7862 22.3374C93.4581 22.5329 93.0919 22.6307 92.6875 22.6307ZM100.562 22.6307C100.161 22.6307 99.7952 22.5329 99.4638 22.3374C99.1323 22.1385 98.8672 21.8733 98.6683 21.5419C98.4728 21.2105 98.375 20.8442 98.375 20.4432C98.375 20.0388 98.4728 19.6726 98.6683 19.3445C98.8672 19.013 99.1323 18.7495 99.4638 18.554C99.7952 18.3551 100.161 18.2557 100.562 18.2557C100.967 18.2557 101.333 18.3551 101.661 18.554C101.993 18.7495 102.256 19.013 102.452 19.3445C102.651 19.6726 102.75 20.0388 102.75 20.4432C102.75 20.8442 102.651 21.2105 102.452 21.5419C102.256 21.8733 101.993 22.1385 101.661 22.3374C101.333 22.5329 100.967 22.6307 100.562 22.6307ZM108.438 22.6307C108.036 22.6307 107.67 22.5329 107.339 22.3374C107.007 22.1385 106.742 21.8733 106.543 21.5419C106.348 21.2105 106.25 20.8442 106.25 20.4432C106.25 20.0388 106.348 19.6726 106.543 19.3445C106.742 19.013 107.007 18.7495 107.339 18.554C107.67 18.3551 108.036 18.2557 108.438 18.2557C108.842 18.2557 109.208 18.3551 109.536 18.554C109.868 18.7495 110.131 19.013 110.327 19.3445C110.526 19.6726 110.625 20.0388 110.625 20.4432C110.625 20.8442 110.526 21.2105 110.327 21.5419C110.131 21.8733 109.868 22.1385 109.536 22.3374C109.208 22.5329 108.842 22.6307 108.438 22.6307Z" fill="black"/>
<path d="M298 16.0046C300.209 16.0046 302 17.7955 302 20.0046C302 22.2138 300.209 24.0046 298 24.0046C295.791 24.0046 294 22.2138 294 20.0046C294 17.7955 295.791 16.0046 298 16.0046ZM298 17.5046C296.619 17.5046 295.5 18.6239 295.5 20.0046C295.5 21.3853 296.619 22.5046 298 22.5046C299.381 22.5046 300.5 21.3853 300.5 20.0046C300.5 18.6239 299.381 17.5046 298 17.5046ZM298 12.5C302.613 12.5 306.596 15.65 307.701 20.0644C307.802 20.4662 307.557 20.8735 307.156 20.9741C306.754 21.0746 306.346 20.8305 306.246 20.4286C305.307 16.678 301.921 14 298 14C294.077 14 290.69 16.6803 289.753 20.4332C289.652 20.835 289.245 21.0794 288.843 20.9791C288.441 20.8787 288.197 20.4716 288.297 20.0697C289.401 15.6527 293.384 12.5 298 12.5Z" fill="#212121"/>
<path d="M0 0H320H0ZM320 38H0H320ZM4 38C-0.418278 38 -4 34.4183 -4 30V8C-4 3.58172 -0.418278 0 4 0C4 0 4 1.79086 4 4V34C4 36.2091 4 38 4 38ZM320 0V38V0Z" fill="#188BDE" mask="url(#path-1-inside-1_2_1922)"/>
</svg>
