<svg width="100" height="100" viewBox="0 0 100 100" fill="none" xmlns="http://www.w3.org/2000/svg">
<mask id="path-1-inside-1_3_1797" fill="white">
<path d="M0 5C0 2.23858 2.23858 0 5 0H95C97.7614 0 100 2.23858 100 5V95C100 97.7614 97.7614 100 95 100H5C2.23858 100 0 97.7614 0 95V5Z"/>
</mask>
<path d="M0 5C0 2.23858 2.23858 0 5 0H95C97.7614 0 100 2.23858 100 5V95C100 97.7614 97.7614 100 95 100H5C2.23858 100 0 97.7614 0 95V5Z" fill="white"/>
<path d="M62.3051 31.4103C60.4249 29.5299 57.3766 29.5299 55.4965 31.4103L50.7373 36.1703C50.6718 33.568 48.5421 31.4786 45.9245 31.4786H34.8144C32.1555 31.4786 30 33.6345 30 36.2938V65.1848C30 67.8442 32.1555 70 34.8144 70L63.7007 70C66.3596 70 68.5151 67.8442 68.5151 65.1848V54.0729C68.5151 51.4591 66.4328 49.3318 63.8369 49.2596L68.5899 44.5059C70.47 42.6254 70.47 39.5766 68.5899 37.6962L62.3051 31.4103ZM53.9628 49.2577H50.7389V46.0333L53.9628 49.2577ZM57.5914 33.5056C58.3146 32.7824 59.487 32.7824 60.2101 33.5056L66.495 39.7915C67.2181 40.5147 67.2181 41.6873 66.495 42.4106L60.2101 48.6964C59.487 49.4197 58.3146 49.4197 57.5914 48.6964L51.3066 42.4106C50.5835 41.6873 50.5835 40.5147 51.3066 39.7915L57.5914 33.5056ZM47.7762 36.2938V49.2577H32.9627V36.2938C32.9627 35.271 33.7917 34.4418 34.8144 34.4418H45.9245C46.9472 34.4418 47.7762 35.271 47.7762 36.2938ZM32.9627 65.1848V52.2209H47.7762V67.0368H34.8144C33.7917 67.0368 32.9627 66.2077 32.9627 65.1848ZM50.7389 52.2209H63.7007C64.7234 52.2209 65.5524 53.0501 65.5524 54.0729V65.1848C65.5524 66.2077 64.7234 67.0368 63.7007 67.0368H50.7389V52.2209Z" fill="#188BDE"/>
<path d="M0 0H100H0ZM100 95C100 99.9706 95.9706 104 91 104H9C4.02944 104 0 99.9706 0 95C0 95.5523 2.23858 96 5 96H95C97.7614 96 100 95.5523 100 95ZM0 100V0V100ZM100 0V100V0Z" fill="url(#paint0_linear_3_1797)" mask="url(#path-1-inside-1_3_1797)"/>
<defs>
<linearGradient id="paint0_linear_3_1797" x1="100" y1="100" x2="0" y2="100" gradientUnits="userSpaceOnUse">
<stop stop-color="#005FB8"/>
<stop offset="0.503125" stop-color="#168FE6"/>
<stop offset="1" stop-color="#005FB8"/>
</linearGradient>
</defs>
</svg>
