<svg width="225" height="133" viewBox="0 0 225 133" fill="none" xmlns="http://www.w3.org/2000/svg">
<path d="M0 4C0 1.79086 1.79086 0 4 0H221C223.209 0 225 1.79086 225 4V27C225 29.2091 223.209 31 221 31H4.00001C1.79087 31 0 29.2091 0 27V4Z" fill="white"/>
<path d="M98.9437 11.9119V10.8182H106.58V11.9119H103.378V21H102.145V11.9119H98.9437ZM110.418 21.1591C109.682 21.1591 109.048 20.9967 108.514 20.6719C107.984 20.3438 107.574 19.8864 107.286 19.2997C107.001 18.7098 106.858 18.0237 106.858 17.2415C106.858 16.4593 107.001 15.7699 107.286 15.1733C107.574 14.5734 107.975 14.1061 108.489 13.7713C109.006 13.4332 109.609 13.2642 110.299 13.2642C110.697 13.2642 111.089 13.3305 111.477 13.4631C111.865 13.5956 112.218 13.8111 112.536 14.1094C112.854 14.4044 113.108 14.7955 113.297 15.2827C113.486 15.7699 113.58 16.3698 113.58 17.0824V17.5795H107.694V16.5653H112.387C112.387 16.1345 112.301 15.75 112.128 15.4119C111.959 15.0739 111.717 14.8071 111.403 14.6115C111.091 14.416 110.723 14.3182 110.299 14.3182C109.831 14.3182 109.427 14.4342 109.086 14.6662C108.748 14.8949 108.488 15.1932 108.305 15.5611C108.123 15.929 108.032 16.3234 108.032 16.7443V17.4205C108.032 17.9972 108.131 18.486 108.33 18.8871C108.532 19.2848 108.812 19.5881 109.17 19.7969C109.528 20.0024 109.944 20.1051 110.418 20.1051C110.726 20.1051 111.005 20.062 111.253 19.9759C111.505 19.8864 111.722 19.7538 111.905 19.5781C112.087 19.3991 112.228 19.1771 112.327 18.9119L113.461 19.2301C113.341 19.6146 113.141 19.9527 112.859 20.2443C112.577 20.5327 112.229 20.758 111.815 20.9205C111.401 21.0795 110.935 21.1591 110.418 21.1591ZM116.035 13.3636L117.864 16.4858L119.694 13.3636H121.046L118.58 17.1818L121.046 21H119.694L117.864 18.0369L116.035 21H114.683L117.109 17.1818L114.683 13.3636H116.035ZM126.041 13.3636V14.358H122.084V13.3636H126.041ZM123.237 11.5341H124.411V18.8125C124.411 19.1439 124.459 19.3925 124.555 19.5582C124.654 19.7206 124.78 19.83 124.933 19.8864C125.088 19.9394 125.253 19.9659 125.425 19.9659C125.554 19.9659 125.66 19.9593 125.743 19.946C125.826 19.9295 125.892 19.9162 125.942 19.9062L126.181 20.9602C126.101 20.9901 125.99 21.0199 125.847 21.0497C125.705 21.0829 125.524 21.0994 125.306 21.0994C124.974 21.0994 124.649 21.0282 124.331 20.8857C124.016 20.7431 123.754 20.526 123.546 20.2344C123.34 19.9427 123.237 19.5748 123.237 19.1307V11.5341Z" fill="black"/>
<path d="M98.9437 45.9119V44.8182H106.58V45.9119H103.378V55H102.145V45.9119H98.9437ZM110.418 55.1591C109.682 55.1591 109.048 54.9967 108.514 54.6719C107.984 54.3438 107.574 53.8864 107.286 53.2997C107.001 52.7098 106.858 52.0237 106.858 51.2415C106.858 50.4593 107.001 49.7699 107.286 49.1733C107.574 48.5734 107.975 48.1061 108.489 47.7713C109.006 47.4332 109.609 47.2642 110.299 47.2642C110.697 47.2642 111.089 47.3305 111.477 47.4631C111.865 47.5956 112.218 47.8111 112.536 48.1094C112.854 48.4044 113.108 48.7955 113.297 49.2827C113.486 49.7699 113.58 50.3698 113.58 51.0824V51.5795H107.694V50.5653H112.387C112.387 50.1345 112.301 49.75 112.128 49.4119C111.959 49.0739 111.717 48.8071 111.403 48.6115C111.091 48.416 110.723 48.3182 110.299 48.3182C109.831 48.3182 109.427 48.4342 109.086 48.6662C108.748 48.8949 108.488 49.1932 108.305 49.5611C108.123 49.929 108.032 50.3234 108.032 50.7443V51.4205C108.032 51.9972 108.131 52.486 108.33 52.8871C108.532 53.2848 108.812 53.5881 109.17 53.7969C109.528 54.0024 109.944 54.1051 110.418 54.1051C110.726 54.1051 111.005 54.062 111.253 53.9759C111.505 53.8864 111.722 53.7538 111.905 53.5781C112.087 53.3991 112.228 53.1771 112.327 52.9119L113.461 53.2301C113.341 53.6146 113.141 53.9527 112.859 54.2443C112.577 54.5327 112.229 54.758 111.815 54.9205C111.401 55.0795 110.935 55.1591 110.418 55.1591ZM116.035 47.3636L117.864 50.4858L119.694 47.3636H121.046L118.58 51.1818L121.046 55H119.694L117.864 52.0369L116.035 55H114.683L117.109 51.1818L114.683 47.3636H116.035ZM126.041 47.3636V48.358H122.084V47.3636H126.041ZM123.237 45.5341H124.411V52.8125C124.411 53.1439 124.459 53.3925 124.555 53.5582C124.654 53.7206 124.78 53.83 124.933 53.8864C125.088 53.9394 125.253 53.9659 125.425 53.9659C125.554 53.9659 125.66 53.9593 125.743 53.946C125.826 53.9295 125.892 53.9162 125.942 53.9062L126.181 54.9602C126.101 54.9901 125.99 55.0199 125.847 55.0497C125.705 55.0829 125.524 55.0994 125.306 55.0994C124.974 55.0994 124.649 55.0282 124.331 54.8857C124.016 54.7431 123.754 54.526 123.546 54.2344C123.34 53.9427 123.237 53.5748 123.237 53.1307V45.5341Z" fill="black"/>
<path d="M98.9437 79.9119V78.8182H106.58V79.9119H103.378V89H102.145V79.9119H98.9437ZM110.418 89.1591C109.682 89.1591 109.048 88.9967 108.514 88.6719C107.984 88.3438 107.574 87.8864 107.286 87.2997C107.001 86.7098 106.858 86.0237 106.858 85.2415C106.858 84.4593 107.001 83.7699 107.286 83.1733C107.574 82.5734 107.975 82.1061 108.489 81.7713C109.006 81.4332 109.609 81.2642 110.299 81.2642C110.697 81.2642 111.089 81.3305 111.477 81.4631C111.865 81.5956 112.218 81.8111 112.536 82.1094C112.854 82.4044 113.108 82.7955 113.297 83.2827C113.486 83.7699 113.58 84.3698 113.58 85.0824V85.5795H107.694V84.5653H112.387C112.387 84.1345 112.301 83.75 112.128 83.4119C111.959 83.0739 111.717 82.8071 111.403 82.6115C111.091 82.416 110.723 82.3182 110.299 82.3182C109.831 82.3182 109.427 82.4342 109.086 82.6662C108.748 82.8949 108.488 83.1932 108.305 83.5611C108.123 83.929 108.032 84.3234 108.032 84.7443V85.4205C108.032 85.9972 108.131 86.486 108.33 86.8871C108.532 87.2848 108.812 87.5881 109.17 87.7969C109.528 88.0024 109.944 88.1051 110.418 88.1051C110.726 88.1051 111.005 88.062 111.253 87.9759C111.505 87.8864 111.722 87.7538 111.905 87.5781C112.087 87.3991 112.228 87.1771 112.327 86.9119L113.461 87.2301C113.341 87.6146 113.141 87.9527 112.859 88.2443C112.577 88.5327 112.229 88.758 111.815 88.9205C111.401 89.0795 110.935 89.1591 110.418 89.1591ZM116.035 81.3636L117.864 84.4858L119.694 81.3636H121.046L118.58 85.1818L121.046 89H119.694L117.864 86.0369L116.035 89H114.683L117.109 85.1818L114.683 81.3636H116.035ZM126.041 81.3636V82.358H122.084V81.3636H126.041ZM123.237 79.5341H124.411V86.8125C124.411 87.1439 124.459 87.3925 124.555 87.5582C124.654 87.7206 124.78 87.83 124.933 87.8864C125.088 87.9394 125.253 87.9659 125.425 87.9659C125.554 87.9659 125.66 87.9593 125.743 87.946C125.826 87.9295 125.892 87.9162 125.942 87.9062L126.181 88.9602C126.101 88.9901 125.99 89.0199 125.847 89.0497C125.705 89.0829 125.524 89.0994 125.306 89.0994C124.974 89.0994 124.649 89.0282 124.331 88.8857C124.016 88.7431 123.754 88.526 123.546 88.2344C123.34 87.9427 123.237 87.5748 123.237 87.1307V79.5341Z" fill="black"/>
<path d="M98.9437 113.912V112.818H106.58V113.912H103.378V123H102.145V113.912H98.9437ZM110.418 123.159C109.682 123.159 109.048 122.997 108.514 122.672C107.984 122.344 107.574 121.886 107.286 121.3C107.001 120.71 106.858 120.024 106.858 119.241C106.858 118.459 107.001 117.77 107.286 117.173C107.574 116.573 107.975 116.106 108.489 115.771C109.006 115.433 109.609 115.264 110.299 115.264C110.697 115.264 111.089 115.33 111.477 115.463C111.865 115.596 112.218 115.811 112.536 116.109C112.854 116.404 113.108 116.795 113.297 117.283C113.486 117.77 113.58 118.37 113.58 119.082V119.58H107.694V118.565H112.387C112.387 118.134 112.301 117.75 112.128 117.412C111.959 117.074 111.717 116.807 111.403 116.612C111.091 116.416 110.723 116.318 110.299 116.318C109.831 116.318 109.427 116.434 109.086 116.666C108.748 116.895 108.488 117.193 108.305 117.561C108.123 117.929 108.032 118.323 108.032 118.744V119.42C108.032 119.997 108.131 120.486 108.33 120.887C108.532 121.285 108.812 121.588 109.17 121.797C109.528 122.002 109.944 122.105 110.418 122.105C110.726 122.105 111.005 122.062 111.253 121.976C111.505 121.886 111.722 121.754 111.905 121.578C112.087 121.399 112.228 121.177 112.327 120.912L113.461 121.23C113.341 121.615 113.141 121.953 112.859 122.244C112.577 122.533 112.229 122.758 111.815 122.92C111.401 123.08 110.935 123.159 110.418 123.159ZM116.035 115.364L117.864 118.486L119.694 115.364H121.046L118.58 119.182L121.046 123H119.694L117.864 120.037L116.035 123H114.683L117.109 119.182L114.683 115.364H116.035ZM126.041 115.364V116.358H122.084V115.364H126.041ZM123.237 113.534H124.411V120.812C124.411 121.144 124.459 121.393 124.555 121.558C124.654 121.721 124.78 121.83 124.933 121.886C125.088 121.939 125.253 121.966 125.425 121.966C125.554 121.966 125.66 121.959 125.743 121.946C125.826 121.929 125.892 121.916 125.942 121.906L126.181 122.96C126.101 122.99 125.99 123.02 125.847 123.05C125.705 123.083 125.524 123.099 125.306 123.099C124.974 123.099 124.649 123.028 124.331 122.886C124.016 122.743 123.754 122.526 123.546 122.234C123.34 121.943 123.237 121.575 123.237 121.131V113.534Z" fill="black"/>
</svg>
