<svg width="900" height="31" viewBox="0 0 900 31" fill="none" xmlns="http://www.w3.org/2000/svg">
<path d="M0 4C0 1.79086 1.79086 0 4 0H221C223.209 0 225 1.79086 225 4V27C225 29.2091 223.209 31 221 31H4.00001C1.79087 31 0 29.2091 0 27V4Z" fill="white"/>
<path d="M98.9437 11.9119V10.8182H106.58V11.9119H103.378V21H102.145V11.9119H98.9437ZM110.418 21.1591C109.682 21.1591 109.048 20.9967 108.514 20.6719C107.984 20.3438 107.574 19.8864 107.286 19.2997C107.001 18.7098 106.858 18.0237 106.858 17.2415C106.858 16.4593 107.001 15.7699 107.286 15.1733C107.574 14.5734 107.975 14.1061 108.489 13.7713C109.006 13.4332 109.609 13.2642 110.299 13.2642C110.697 13.2642 111.089 13.3305 111.477 13.4631C111.865 13.5956 112.218 13.8111 112.536 14.1094C112.854 14.4044 113.108 14.7955 113.297 15.2827C113.486 15.7699 113.58 16.3698 113.58 17.0824V17.5795H107.694V16.5653H112.387C112.387 16.1345 112.301 15.75 112.128 15.4119C111.959 15.0739 111.717 14.8071 111.403 14.6115C111.091 14.416 110.723 14.3182 110.299 14.3182C109.831 14.3182 109.427 14.4342 109.086 14.6662C108.748 14.8949 108.488 15.1932 108.305 15.5611C108.123 15.929 108.032 16.3234 108.032 16.7443V17.4205C108.032 17.9972 108.131 18.486 108.33 18.8871C108.532 19.2848 108.812 19.5881 109.17 19.7969C109.528 20.0024 109.944 20.1051 110.418 20.1051C110.726 20.1051 111.005 20.062 111.253 19.9759C111.505 19.8864 111.722 19.7538 111.905 19.5781C112.087 19.3991 112.228 19.1771 112.327 18.9119L113.461 19.2301C113.341 19.6146 113.141 19.9527 112.859 20.2443C112.577 20.5327 112.229 20.758 111.815 20.9205C111.401 21.0795 110.935 21.1591 110.418 21.1591ZM116.035 13.3636L117.864 16.4858L119.694 13.3636H121.046L118.58 17.1818L121.046 21H119.694L117.864 18.0369L116.035 21H114.683L117.109 17.1818L114.683 13.3636H116.035ZM126.041 13.3636V14.358H122.084V13.3636H126.041ZM123.237 11.5341H124.411V18.8125C124.411 19.1439 124.459 19.3925 124.555 19.5582C124.654 19.7206 124.78 19.83 124.933 19.8864C125.088 19.9394 125.253 19.9659 125.425 19.9659C125.554 19.9659 125.66 19.9593 125.743 19.946C125.826 19.9295 125.892 19.9162 125.942 19.9062L126.181 20.9602C126.101 20.9901 125.99 21.0199 125.847 21.0497C125.705 21.0829 125.524 21.0994 125.306 21.0994C124.974 21.0994 124.649 21.0282 124.331 20.8857C124.016 20.7431 123.754 20.526 123.546 20.2344C123.34 19.9427 123.237 19.5748 123.237 19.1307V11.5341Z" fill="black"/>
<path d="M323.944 11.9119V10.8182H331.58V11.9119H328.378V21H327.145V11.9119H323.944ZM335.418 21.1591C334.682 21.1591 334.048 20.9967 333.514 20.6719C332.984 20.3438 332.574 19.8864 332.286 19.2997C332.001 18.7098 331.858 18.0237 331.858 17.2415C331.858 16.4593 332.001 15.7699 332.286 15.1733C332.574 14.5734 332.975 14.1061 333.489 13.7713C334.006 13.4332 334.609 13.2642 335.299 13.2642C335.697 13.2642 336.089 13.3305 336.477 13.4631C336.865 13.5956 337.218 13.8111 337.536 14.1094C337.854 14.4044 338.108 14.7955 338.297 15.2827C338.486 15.7699 338.58 16.3698 338.58 17.0824V17.5795H332.694V16.5653H337.387C337.387 16.1345 337.301 15.75 337.128 15.4119C336.959 15.0739 336.717 14.8071 336.403 14.6115C336.091 14.416 335.723 14.3182 335.299 14.3182C334.831 14.3182 334.427 14.4342 334.086 14.6662C333.748 14.8949 333.488 15.1932 333.305 15.5611C333.123 15.929 333.032 16.3234 333.032 16.7443V17.4205C333.032 17.9972 333.131 18.486 333.33 18.8871C333.532 19.2848 333.812 19.5881 334.17 19.7969C334.528 20.0024 334.944 20.1051 335.418 20.1051C335.726 20.1051 336.005 20.062 336.253 19.9759C336.505 19.8864 336.722 19.7538 336.905 19.5781C337.087 19.3991 337.228 19.1771 337.327 18.9119L338.461 19.2301C338.341 19.6146 338.141 19.9527 337.859 20.2443C337.577 20.5327 337.229 20.758 336.815 20.9205C336.401 21.0795 335.935 21.1591 335.418 21.1591ZM341.035 13.3636L342.864 16.4858L344.694 13.3636H346.046L343.58 17.1818L346.046 21H344.694L342.864 18.0369L341.035 21H339.683L342.109 17.1818L339.683 13.3636H341.035ZM351.041 13.3636V14.358H347.084V13.3636H351.041ZM348.237 11.5341H349.411V18.8125C349.411 19.1439 349.459 19.3925 349.555 19.5582C349.654 19.7206 349.78 19.83 349.933 19.8864C350.088 19.9394 350.253 19.9659 350.425 19.9659C350.554 19.9659 350.66 19.9593 350.743 19.946C350.826 19.9295 350.892 19.9162 350.942 19.9062L351.181 20.9602C351.101 20.9901 350.99 21.0199 350.847 21.0497C350.705 21.0829 350.524 21.0994 350.306 21.0994C349.974 21.0994 349.649 21.0282 349.331 20.8857C349.016 20.7431 348.754 20.526 348.546 20.2344C348.34 19.9427 348.237 19.5748 348.237 19.1307V11.5341Z" fill="black"/>
<path d="M548.944 11.9119V10.8182H556.58V11.9119H553.378V21H552.145V11.9119H548.944ZM560.418 21.1591C559.682 21.1591 559.048 20.9967 558.514 20.6719C557.984 20.3438 557.574 19.8864 557.286 19.2997C557.001 18.7098 556.858 18.0237 556.858 17.2415C556.858 16.4593 557.001 15.7699 557.286 15.1733C557.574 14.5734 557.975 14.1061 558.489 13.7713C559.006 13.4332 559.609 13.2642 560.299 13.2642C560.697 13.2642 561.089 13.3305 561.477 13.4631C561.865 13.5956 562.218 13.8111 562.536 14.1094C562.854 14.4044 563.108 14.7955 563.297 15.2827C563.486 15.7699 563.58 16.3698 563.58 17.0824V17.5795H557.694V16.5653H562.387C562.387 16.1345 562.301 15.75 562.128 15.4119C561.959 15.0739 561.717 14.8071 561.403 14.6115C561.091 14.416 560.723 14.3182 560.299 14.3182C559.831 14.3182 559.427 14.4342 559.086 14.6662C558.748 14.8949 558.488 15.1932 558.305 15.5611C558.123 15.929 558.032 16.3234 558.032 16.7443V17.4205C558.032 17.9972 558.131 18.486 558.33 18.8871C558.532 19.2848 558.812 19.5881 559.17 19.7969C559.528 20.0024 559.944 20.1051 560.418 20.1051C560.726 20.1051 561.005 20.062 561.253 19.9759C561.505 19.8864 561.722 19.7538 561.905 19.5781C562.087 19.3991 562.228 19.1771 562.327 18.9119L563.461 19.2301C563.341 19.6146 563.141 19.9527 562.859 20.2443C562.577 20.5327 562.229 20.758 561.815 20.9205C561.401 21.0795 560.935 21.1591 560.418 21.1591ZM566.035 13.3636L567.864 16.4858L569.694 13.3636H571.046L568.58 17.1818L571.046 21H569.694L567.864 18.0369L566.035 21H564.683L567.109 17.1818L564.683 13.3636H566.035ZM576.041 13.3636V14.358H572.084V13.3636H576.041ZM573.237 11.5341H574.411V18.8125C574.411 19.1439 574.459 19.3925 574.555 19.5582C574.654 19.7206 574.78 19.83 574.933 19.8864C575.088 19.9394 575.253 19.9659 575.425 19.9659C575.554 19.9659 575.66 19.9593 575.743 19.946C575.826 19.9295 575.892 19.9162 575.942 19.9062L576.181 20.9602C576.101 20.9901 575.99 21.0199 575.847 21.0497C575.705 21.0829 575.524 21.0994 575.306 21.0994C574.974 21.0994 574.649 21.0282 574.331 20.8857C574.016 20.7431 573.754 20.526 573.546 20.2344C573.34 19.9427 573.237 19.5748 573.237 19.1307V11.5341Z" fill="black"/>
<path d="M773.944 11.9119V10.8182H781.58V11.9119H778.378V21H777.145V11.9119H773.944ZM785.418 21.1591C784.682 21.1591 784.048 20.9967 783.514 20.6719C782.984 20.3438 782.574 19.8864 782.286 19.2997C782.001 18.7098 781.858 18.0237 781.858 17.2415C781.858 16.4593 782.001 15.7699 782.286 15.1733C782.574 14.5734 782.975 14.1061 783.489 13.7713C784.006 13.4332 784.609 13.2642 785.299 13.2642C785.697 13.2642 786.089 13.3305 786.477 13.4631C786.865 13.5956 787.218 13.8111 787.536 14.1094C787.854 14.4044 788.108 14.7955 788.297 15.2827C788.486 15.7699 788.58 16.3698 788.58 17.0824V17.5795H782.694V16.5653H787.387C787.387 16.1345 787.301 15.75 787.128 15.4119C786.959 15.0739 786.717 14.8071 786.403 14.6115C786.091 14.416 785.723 14.3182 785.299 14.3182C784.831 14.3182 784.427 14.4342 784.086 14.6662C783.748 14.8949 783.488 15.1932 783.305 15.5611C783.123 15.929 783.032 16.3234 783.032 16.7443V17.4205C783.032 17.9972 783.131 18.486 783.33 18.8871C783.532 19.2848 783.812 19.5881 784.17 19.7969C784.528 20.0024 784.944 20.1051 785.418 20.1051C785.726 20.1051 786.005 20.062 786.253 19.9759C786.505 19.8864 786.722 19.7538 786.905 19.5781C787.087 19.3991 787.228 19.1771 787.327 18.9119L788.461 19.2301C788.341 19.6146 788.141 19.9527 787.859 20.2443C787.577 20.5327 787.229 20.758 786.815 20.9205C786.401 21.0795 785.935 21.1591 785.418 21.1591ZM791.035 13.3636L792.864 16.4858L794.694 13.3636H796.046L793.58 17.1818L796.046 21H794.694L792.864 18.0369L791.035 21H789.683L792.109 17.1818L789.683 13.3636H791.035ZM801.041 13.3636V14.358H797.084V13.3636H801.041ZM798.237 11.5341H799.411V18.8125C799.411 19.1439 799.459 19.3925 799.555 19.5582C799.654 19.7206 799.78 19.83 799.933 19.8864C800.088 19.9394 800.253 19.9659 800.425 19.9659C800.554 19.9659 800.66 19.9593 800.743 19.946C800.826 19.9295 800.892 19.9162 800.942 19.9062L801.181 20.9602C801.101 20.9901 800.99 21.0199 800.847 21.0497C800.705 21.0829 800.524 21.0994 800.306 21.0994C799.974 21.0994 799.649 21.0282 799.331 20.8857C799.016 20.7431 798.754 20.526 798.546 20.2344C798.34 19.9427 798.237 19.5748 798.237 19.1307V11.5341Z" fill="black"/>
</svg>
