<svg width="900" height="31" viewBox="0 0 900 31" fill="none" xmlns="http://www.w3.org/2000/svg">
<path d="M0 4C0 1.79086 1.79086 0 4 0H176C178.209 0 180 1.79086 180 4V27C180 29.2091 178.209 31 176 31H4C1.79086 31 0 29.2091 0 27V4Z" fill="white"/>
<path d="M76.4437 11.9119V10.8182H84.0801V11.9119H80.8784V21H79.6454V11.9119H76.4437ZM87.9181 21.1591C87.1824 21.1591 86.5476 20.9967 86.014 20.6719C85.4837 20.3438 85.0744 19.8864 84.786 19.2997C84.501 18.7098 84.3585 18.0237 84.3585 17.2415C84.3585 16.4593 84.501 15.7699 84.786 15.1733C85.0744 14.5734 85.4754 14.1061 85.9892 13.7713C86.5062 13.4332 87.1094 13.2642 87.7988 13.2642C88.1966 13.2642 88.5893 13.3305 88.9771 13.4631C89.3649 13.5956 89.7179 13.8111 90.036 14.1094C90.3542 14.4044 90.6078 14.7955 90.7967 15.2827C90.9856 15.7699 91.0801 16.3698 91.0801 17.0824V17.5795H85.1937V16.5653H89.8869C89.8869 16.1345 89.8007 15.75 89.6284 15.4119C89.4593 15.0739 89.2174 14.8071 88.9025 14.6115C88.591 14.416 88.2231 14.3182 87.7988 14.3182C87.3315 14.3182 86.9271 14.4342 86.5858 14.6662C86.2477 14.8949 85.9875 15.1932 85.8052 15.5611C85.6229 15.929 85.5318 16.3234 85.5318 16.7443V17.4205C85.5318 17.9972 85.6312 18.486 85.8301 18.8871C86.0323 19.2848 86.3123 19.5881 86.6703 19.7969C87.0282 20.0024 87.4442 20.1051 87.9181 20.1051C88.2264 20.1051 88.5048 20.062 88.7534 19.9759C89.0053 19.8864 89.2224 19.7538 89.4047 19.5781C89.5869 19.3991 89.7278 19.1771 89.8272 18.9119L90.9608 19.2301C90.8414 19.6146 90.6409 19.9527 90.3592 20.2443C90.0775 20.5327 89.7295 20.758 89.3152 20.9205C88.9009 21.0795 88.4352 21.1591 87.9181 21.1591ZM93.5348 13.3636L95.3643 16.4858L97.1939 13.3636H98.5462L96.0803 17.1818L98.5462 21H97.1939L95.3643 18.0369L93.5348 21H92.1825L94.6087 17.1818L92.1825 13.3636H93.5348ZM103.541 13.3636V14.358H99.584V13.3636H103.541ZM100.737 11.5341H101.911V18.8125C101.911 19.1439 101.959 19.3925 102.055 19.5582C102.154 19.7206 102.28 19.83 102.433 19.8864C102.588 19.9394 102.753 19.9659 102.925 19.9659C103.054 19.9659 103.16 19.9593 103.243 19.946C103.326 19.9295 103.392 19.9162 103.442 19.9062L103.681 20.9602C103.601 20.9901 103.49 21.0199 103.347 21.0497C103.205 21.0829 103.024 21.0994 102.806 21.0994C102.474 21.0994 102.149 21.0282 101.831 20.8857C101.516 20.7431 101.254 20.526 101.046 20.2344C100.84 19.9427 100.737 19.5748 100.737 19.1307V11.5341Z" fill="black"/>
<path d="M256.444 11.9119V10.8182H264.08V11.9119H260.878V21H259.645V11.9119H256.444ZM267.918 21.1591C267.182 21.1591 266.548 20.9967 266.014 20.6719C265.484 20.3438 265.074 19.8864 264.786 19.2997C264.501 18.7098 264.358 18.0237 264.358 17.2415C264.358 16.4593 264.501 15.7699 264.786 15.1733C265.074 14.5734 265.475 14.1061 265.989 13.7713C266.506 13.4332 267.109 13.2642 267.799 13.2642C268.197 13.2642 268.589 13.3305 268.977 13.4631C269.365 13.5956 269.718 13.8111 270.036 14.1094C270.354 14.4044 270.608 14.7955 270.797 15.2827C270.986 15.7699 271.08 16.3698 271.08 17.0824V17.5795H265.194V16.5653H269.887C269.887 16.1345 269.801 15.75 269.628 15.4119C269.459 15.0739 269.217 14.8071 268.903 14.6115C268.591 14.416 268.223 14.3182 267.799 14.3182C267.331 14.3182 266.927 14.4342 266.586 14.6662C266.248 14.8949 265.988 15.1932 265.805 15.5611C265.623 15.929 265.532 16.3234 265.532 16.7443V17.4205C265.532 17.9972 265.631 18.486 265.83 18.8871C266.032 19.2848 266.312 19.5881 266.67 19.7969C267.028 20.0024 267.444 20.1051 267.918 20.1051C268.226 20.1051 268.505 20.062 268.753 19.9759C269.005 19.8864 269.222 19.7538 269.405 19.5781C269.587 19.3991 269.728 19.1771 269.827 18.9119L270.961 19.2301C270.841 19.6146 270.641 19.9527 270.359 20.2443C270.077 20.5327 269.729 20.758 269.315 20.9205C268.901 21.0795 268.435 21.1591 267.918 21.1591ZM273.535 13.3636L275.364 16.4858L277.194 13.3636H278.546L276.08 17.1818L278.546 21H277.194L275.364 18.0369L273.535 21H272.183L274.609 17.1818L272.183 13.3636H273.535ZM283.541 13.3636V14.358H279.584V13.3636H283.541ZM280.737 11.5341H281.911V18.8125C281.911 19.1439 281.959 19.3925 282.055 19.5582C282.154 19.7206 282.28 19.83 282.433 19.8864C282.588 19.9394 282.753 19.9659 282.925 19.9659C283.054 19.9659 283.16 19.9593 283.243 19.946C283.326 19.9295 283.392 19.9162 283.442 19.9062L283.681 20.9602C283.601 20.9901 283.49 21.0199 283.347 21.0497C283.205 21.0829 283.024 21.0994 282.806 21.0994C282.474 21.0994 282.149 21.0282 281.831 20.8857C281.516 20.7431 281.254 20.526 281.046 20.2344C280.84 19.9427 280.737 19.5748 280.737 19.1307V11.5341Z" fill="black"/>
<path d="M436.444 11.9119V10.8182H444.08V11.9119H440.878V21H439.645V11.9119H436.444ZM447.918 21.1591C447.182 21.1591 446.548 20.9967 446.014 20.6719C445.484 20.3438 445.074 19.8864 444.786 19.2997C444.501 18.7098 444.358 18.0237 444.358 17.2415C444.358 16.4593 444.501 15.7699 444.786 15.1733C445.074 14.5734 445.475 14.1061 445.989 13.7713C446.506 13.4332 447.109 13.2642 447.799 13.2642C448.197 13.2642 448.589 13.3305 448.977 13.4631C449.365 13.5956 449.718 13.8111 450.036 14.1094C450.354 14.4044 450.608 14.7955 450.797 15.2827C450.986 15.7699 451.08 16.3698 451.08 17.0824V17.5795H445.194V16.5653H449.887C449.887 16.1345 449.801 15.75 449.628 15.4119C449.459 15.0739 449.217 14.8071 448.903 14.6115C448.591 14.416 448.223 14.3182 447.799 14.3182C447.331 14.3182 446.927 14.4342 446.586 14.6662C446.248 14.8949 445.988 15.1932 445.805 15.5611C445.623 15.929 445.532 16.3234 445.532 16.7443V17.4205C445.532 17.9972 445.631 18.486 445.83 18.8871C446.032 19.2848 446.312 19.5881 446.67 19.7969C447.028 20.0024 447.444 20.1051 447.918 20.1051C448.226 20.1051 448.505 20.062 448.753 19.9759C449.005 19.8864 449.222 19.7538 449.405 19.5781C449.587 19.3991 449.728 19.1771 449.827 18.9119L450.961 19.2301C450.841 19.6146 450.641 19.9527 450.359 20.2443C450.077 20.5327 449.729 20.758 449.315 20.9205C448.901 21.0795 448.435 21.1591 447.918 21.1591ZM453.535 13.3636L455.364 16.4858L457.194 13.3636H458.546L456.08 17.1818L458.546 21H457.194L455.364 18.0369L453.535 21H452.183L454.609 17.1818L452.183 13.3636H453.535ZM463.541 13.3636V14.358H459.584V13.3636H463.541ZM460.737 11.5341H461.911V18.8125C461.911 19.1439 461.959 19.3925 462.055 19.5582C462.154 19.7206 462.28 19.83 462.433 19.8864C462.588 19.9394 462.753 19.9659 462.925 19.9659C463.054 19.9659 463.16 19.9593 463.243 19.946C463.326 19.9295 463.392 19.9162 463.442 19.9062L463.681 20.9602C463.601 20.9901 463.49 21.0199 463.347 21.0497C463.205 21.0829 463.024 21.0994 462.806 21.0994C462.474 21.0994 462.149 21.0282 461.831 20.8857C461.516 20.7431 461.254 20.526 461.046 20.2344C460.84 19.9427 460.737 19.5748 460.737 19.1307V11.5341Z" fill="black"/>
<path d="M616.444 11.9119V10.8182H624.08V11.9119H620.878V21H619.645V11.9119H616.444ZM627.918 21.1591C627.182 21.1591 626.548 20.9967 626.014 20.6719C625.484 20.3438 625.074 19.8864 624.786 19.2997C624.501 18.7098 624.358 18.0237 624.358 17.2415C624.358 16.4593 624.501 15.7699 624.786 15.1733C625.074 14.5734 625.475 14.1061 625.989 13.7713C626.506 13.4332 627.109 13.2642 627.799 13.2642C628.197 13.2642 628.589 13.3305 628.977 13.4631C629.365 13.5956 629.718 13.8111 630.036 14.1094C630.354 14.4044 630.608 14.7955 630.797 15.2827C630.986 15.7699 631.08 16.3698 631.08 17.0824V17.5795H625.194V16.5653H629.887C629.887 16.1345 629.801 15.75 629.628 15.4119C629.459 15.0739 629.217 14.8071 628.903 14.6115C628.591 14.416 628.223 14.3182 627.799 14.3182C627.331 14.3182 626.927 14.4342 626.586 14.6662C626.248 14.8949 625.988 15.1932 625.805 15.5611C625.623 15.929 625.532 16.3234 625.532 16.7443V17.4205C625.532 17.9972 625.631 18.486 625.83 18.8871C626.032 19.2848 626.312 19.5881 626.67 19.7969C627.028 20.0024 627.444 20.1051 627.918 20.1051C628.226 20.1051 628.505 20.062 628.753 19.9759C629.005 19.8864 629.222 19.7538 629.405 19.5781C629.587 19.3991 629.728 19.1771 629.827 18.9119L630.961 19.2301C630.841 19.6146 630.641 19.9527 630.359 20.2443C630.077 20.5327 629.729 20.758 629.315 20.9205C628.901 21.0795 628.435 21.1591 627.918 21.1591ZM633.535 13.3636L635.364 16.4858L637.194 13.3636H638.546L636.08 17.1818L638.546 21H637.194L635.364 18.0369L633.535 21H632.183L634.609 17.1818L632.183 13.3636H633.535ZM643.541 13.3636V14.358H639.584V13.3636H643.541ZM640.737 11.5341H641.911V18.8125C641.911 19.1439 641.959 19.3925 642.055 19.5582C642.154 19.7206 642.28 19.83 642.433 19.8864C642.588 19.9394 642.753 19.9659 642.925 19.9659C643.054 19.9659 643.16 19.9593 643.243 19.946C643.326 19.9295 643.392 19.9162 643.442 19.9062L643.681 20.9602C643.601 20.9901 643.49 21.0199 643.347 21.0497C643.205 21.0829 643.024 21.0994 642.806 21.0994C642.474 21.0994 642.149 21.0282 641.831 20.8857C641.516 20.7431 641.254 20.526 641.046 20.2344C640.84 19.9427 640.737 19.5748 640.737 19.1307V11.5341Z" fill="black"/>
<path d="M796.444 11.9119V10.8182H804.08V11.9119H800.878V21H799.645V11.9119H796.444ZM807.918 21.1591C807.182 21.1591 806.548 20.9967 806.014 20.6719C805.484 20.3438 805.074 19.8864 804.786 19.2997C804.501 18.7098 804.358 18.0237 804.358 17.2415C804.358 16.4593 804.501 15.7699 804.786 15.1733C805.074 14.5734 805.475 14.1061 805.989 13.7713C806.506 13.4332 807.109 13.2642 807.799 13.2642C808.197 13.2642 808.589 13.3305 808.977 13.4631C809.365 13.5956 809.718 13.8111 810.036 14.1094C810.354 14.4044 810.608 14.7955 810.797 15.2827C810.986 15.7699 811.08 16.3698 811.08 17.0824V17.5795H805.194V16.5653H809.887C809.887 16.1345 809.801 15.75 809.628 15.4119C809.459 15.0739 809.217 14.8071 808.903 14.6115C808.591 14.416 808.223 14.3182 807.799 14.3182C807.331 14.3182 806.927 14.4342 806.586 14.6662C806.248 14.8949 805.988 15.1932 805.805 15.5611C805.623 15.929 805.532 16.3234 805.532 16.7443V17.4205C805.532 17.9972 805.631 18.486 805.83 18.8871C806.032 19.2848 806.312 19.5881 806.67 19.7969C807.028 20.0024 807.444 20.1051 807.918 20.1051C808.226 20.1051 808.505 20.062 808.753 19.9759C809.005 19.8864 809.222 19.7538 809.405 19.5781C809.587 19.3991 809.728 19.1771 809.827 18.9119L810.961 19.2301C810.841 19.6146 810.641 19.9527 810.359 20.2443C810.077 20.5327 809.729 20.758 809.315 20.9205C808.901 21.0795 808.435 21.1591 807.918 21.1591ZM813.535 13.3636L815.364 16.4858L817.194 13.3636H818.546L816.08 17.1818L818.546 21H817.194L815.364 18.0369L813.535 21H812.183L814.609 17.1818L812.183 13.3636H813.535ZM823.541 13.3636V14.358H819.584V13.3636H823.541ZM820.737 11.5341H821.911V18.8125C821.911 19.1439 821.959 19.3925 822.055 19.5582C822.154 19.7206 822.28 19.83 822.433 19.8864C822.588 19.9394 822.753 19.9659 822.925 19.9659C823.054 19.9659 823.16 19.9593 823.243 19.946C823.326 19.9295 823.392 19.9162 823.442 19.9062L823.681 20.9602C823.601 20.9901 823.49 21.0199 823.347 21.0497C823.205 21.0829 823.024 21.0994 822.806 21.0994C822.474 21.0994 822.149 21.0282 821.831 20.8857C821.516 20.7431 821.254 20.526 821.046 20.2344C820.84 19.9427 820.737 19.5748 820.737 19.1307V11.5341Z" fill="black"/>
</svg>
