<svg width="900" height="31" viewBox="0 0 900 31" fill="none" xmlns="http://www.w3.org/2000/svg">
<path d="M0 4C0 1.79086 1.79086 0 4 0H146C148.209 0 150 1.79086 150 4V27C150 29.2091 148.209 31 146 31H4C1.79086 31 0 29.2091 0 27V4Z" fill="white"/>
<path d="M61.4437 11.9119V10.8182H69.0801V11.9119H65.8784V21H64.6454V11.9119H61.4437ZM72.9181 21.1591C72.1824 21.1591 71.5476 20.9967 71.014 20.6719C70.4837 20.3438 70.0744 19.8864 69.786 19.2997C69.501 18.7098 69.3585 18.0237 69.3585 17.2415C69.3585 16.4593 69.501 15.7699 69.786 15.1733C70.0744 14.5734 70.4754 14.1061 70.9892 13.7713C71.5062 13.4332 72.1094 13.2642 72.7988 13.2642C73.1966 13.2642 73.5893 13.3305 73.9771 13.4631C74.3649 13.5956 74.7179 13.8111 75.036 14.1094C75.3542 14.4044 75.6078 14.7955 75.7967 15.2827C75.9856 15.7699 76.0801 16.3698 76.0801 17.0824V17.5795H70.1937V16.5653H74.8869C74.8869 16.1345 74.8007 15.75 74.6284 15.4119C74.4593 15.0739 74.2174 14.8071 73.9025 14.6115C73.591 14.416 73.2231 14.3182 72.7988 14.3182C72.3315 14.3182 71.9271 14.4342 71.5858 14.6662C71.2477 14.8949 70.9875 15.1932 70.8052 15.5611C70.6229 15.929 70.5318 16.3234 70.5318 16.7443V17.4205C70.5318 17.9972 70.6312 18.486 70.8301 18.8871C71.0323 19.2848 71.3123 19.5881 71.6703 19.7969C72.0282 20.0024 72.4442 20.1051 72.9181 20.1051C73.2264 20.1051 73.5048 20.062 73.7534 19.9759C74.0053 19.8864 74.2224 19.7538 74.4047 19.5781C74.5869 19.3991 74.7278 19.1771 74.8272 18.9119L75.9608 19.2301C75.8414 19.6146 75.6409 19.9527 75.3592 20.2443C75.0775 20.5327 74.7295 20.758 74.3152 20.9205C73.9009 21.0795 73.4352 21.1591 72.9181 21.1591ZM78.5348 13.3636L80.3643 16.4858L82.1939 13.3636H83.5462L81.0803 17.1818L83.5462 21H82.1939L80.3643 18.0369L78.5348 21H77.1825L79.6087 17.1818L77.1825 13.3636H78.5348ZM88.5414 13.3636V14.358H84.584V13.3636H88.5414ZM85.7374 11.5341H86.9107V18.8125C86.9107 19.1439 86.9587 19.3925 87.0549 19.5582C87.1543 19.7206 87.2802 19.83 87.4327 19.8864C87.5885 19.9394 87.7525 19.9659 87.9249 19.9659C88.0542 19.9659 88.1602 19.9593 88.2431 19.946C88.3259 19.9295 88.3922 19.9162 88.4419 19.9062L88.6806 20.9602C88.601 20.9901 88.49 21.0199 88.3475 21.0497C88.205 21.0829 88.0243 21.0994 87.8056 21.0994C87.4741 21.0994 87.1493 21.0282 86.8311 20.8857C86.5163 20.7431 86.2544 20.526 86.0456 20.2344C85.8401 19.9427 85.7374 19.5748 85.7374 19.1307V11.5341Z" fill="black"/>
<path d="M211.444 11.9119V10.8182H219.08V11.9119H215.878V21H214.645V11.9119H211.444ZM222.918 21.1591C222.182 21.1591 221.548 20.9967 221.014 20.6719C220.484 20.3438 220.074 19.8864 219.786 19.2997C219.501 18.7098 219.358 18.0237 219.358 17.2415C219.358 16.4593 219.501 15.7699 219.786 15.1733C220.074 14.5734 220.475 14.1061 220.989 13.7713C221.506 13.4332 222.109 13.2642 222.799 13.2642C223.197 13.2642 223.589 13.3305 223.977 13.4631C224.365 13.5956 224.718 13.8111 225.036 14.1094C225.354 14.4044 225.608 14.7955 225.797 15.2827C225.986 15.7699 226.08 16.3698 226.08 17.0824V17.5795H220.194V16.5653H224.887C224.887 16.1345 224.801 15.75 224.628 15.4119C224.459 15.0739 224.217 14.8071 223.903 14.6115C223.591 14.416 223.223 14.3182 222.799 14.3182C222.331 14.3182 221.927 14.4342 221.586 14.6662C221.248 14.8949 220.988 15.1932 220.805 15.5611C220.623 15.929 220.532 16.3234 220.532 16.7443V17.4205C220.532 17.9972 220.631 18.486 220.83 18.8871C221.032 19.2848 221.312 19.5881 221.67 19.7969C222.028 20.0024 222.444 20.1051 222.918 20.1051C223.226 20.1051 223.505 20.062 223.753 19.9759C224.005 19.8864 224.222 19.7538 224.405 19.5781C224.587 19.3991 224.728 19.1771 224.827 18.9119L225.961 19.2301C225.841 19.6146 225.641 19.9527 225.359 20.2443C225.077 20.5327 224.729 20.758 224.315 20.9205C223.901 21.0795 223.435 21.1591 222.918 21.1591ZM228.535 13.3636L230.364 16.4858L232.194 13.3636H233.546L231.08 17.1818L233.546 21H232.194L230.364 18.0369L228.535 21H227.183L229.609 17.1818L227.183 13.3636H228.535ZM238.541 13.3636V14.358H234.584V13.3636H238.541ZM235.737 11.5341H236.911V18.8125C236.911 19.1439 236.959 19.3925 237.055 19.5582C237.154 19.7206 237.28 19.83 237.433 19.8864C237.588 19.9394 237.753 19.9659 237.925 19.9659C238.054 19.9659 238.16 19.9593 238.243 19.946C238.326 19.9295 238.392 19.9162 238.442 19.9062L238.681 20.9602C238.601 20.9901 238.49 21.0199 238.347 21.0497C238.205 21.0829 238.024 21.0994 237.806 21.0994C237.474 21.0994 237.149 21.0282 236.831 20.8857C236.516 20.7431 236.254 20.526 236.046 20.2344C235.84 19.9427 235.737 19.5748 235.737 19.1307V11.5341Z" fill="black"/>
<path d="M361.444 11.9119V10.8182H369.08V11.9119H365.878V21H364.645V11.9119H361.444ZM372.918 21.1591C372.182 21.1591 371.548 20.9967 371.014 20.6719C370.484 20.3438 370.074 19.8864 369.786 19.2997C369.501 18.7098 369.358 18.0237 369.358 17.2415C369.358 16.4593 369.501 15.7699 369.786 15.1733C370.074 14.5734 370.475 14.1061 370.989 13.7713C371.506 13.4332 372.109 13.2642 372.799 13.2642C373.197 13.2642 373.589 13.3305 373.977 13.4631C374.365 13.5956 374.718 13.8111 375.036 14.1094C375.354 14.4044 375.608 14.7955 375.797 15.2827C375.986 15.7699 376.08 16.3698 376.08 17.0824V17.5795H370.194V16.5653H374.887C374.887 16.1345 374.801 15.75 374.628 15.4119C374.459 15.0739 374.217 14.8071 373.903 14.6115C373.591 14.416 373.223 14.3182 372.799 14.3182C372.331 14.3182 371.927 14.4342 371.586 14.6662C371.248 14.8949 370.988 15.1932 370.805 15.5611C370.623 15.929 370.532 16.3234 370.532 16.7443V17.4205C370.532 17.9972 370.631 18.486 370.83 18.8871C371.032 19.2848 371.312 19.5881 371.67 19.7969C372.028 20.0024 372.444 20.1051 372.918 20.1051C373.226 20.1051 373.505 20.062 373.753 19.9759C374.005 19.8864 374.222 19.7538 374.405 19.5781C374.587 19.3991 374.728 19.1771 374.827 18.9119L375.961 19.2301C375.841 19.6146 375.641 19.9527 375.359 20.2443C375.077 20.5327 374.729 20.758 374.315 20.9205C373.901 21.0795 373.435 21.1591 372.918 21.1591ZM378.535 13.3636L380.364 16.4858L382.194 13.3636H383.546L381.08 17.1818L383.546 21H382.194L380.364 18.0369L378.535 21H377.183L379.609 17.1818L377.183 13.3636H378.535ZM388.541 13.3636V14.358H384.584V13.3636H388.541ZM385.737 11.5341H386.911V18.8125C386.911 19.1439 386.959 19.3925 387.055 19.5582C387.154 19.7206 387.28 19.83 387.433 19.8864C387.588 19.9394 387.753 19.9659 387.925 19.9659C388.054 19.9659 388.16 19.9593 388.243 19.946C388.326 19.9295 388.392 19.9162 388.442 19.9062L388.681 20.9602C388.601 20.9901 388.49 21.0199 388.347 21.0497C388.205 21.0829 388.024 21.0994 387.806 21.0994C387.474 21.0994 387.149 21.0282 386.831 20.8857C386.516 20.7431 386.254 20.526 386.046 20.2344C385.84 19.9427 385.737 19.5748 385.737 19.1307V11.5341Z" fill="black"/>
<path d="M511.444 11.9119V10.8182H519.08V11.9119H515.878V21H514.645V11.9119H511.444ZM522.918 21.1591C522.182 21.1591 521.548 20.9967 521.014 20.6719C520.484 20.3438 520.074 19.8864 519.786 19.2997C519.501 18.7098 519.358 18.0237 519.358 17.2415C519.358 16.4593 519.501 15.7699 519.786 15.1733C520.074 14.5734 520.475 14.1061 520.989 13.7713C521.506 13.4332 522.109 13.2642 522.799 13.2642C523.197 13.2642 523.589 13.3305 523.977 13.4631C524.365 13.5956 524.718 13.8111 525.036 14.1094C525.354 14.4044 525.608 14.7955 525.797 15.2827C525.986 15.7699 526.08 16.3698 526.08 17.0824V17.5795H520.194V16.5653H524.887C524.887 16.1345 524.801 15.75 524.628 15.4119C524.459 15.0739 524.217 14.8071 523.903 14.6115C523.591 14.416 523.223 14.3182 522.799 14.3182C522.331 14.3182 521.927 14.4342 521.586 14.6662C521.248 14.8949 520.988 15.1932 520.805 15.5611C520.623 15.929 520.532 16.3234 520.532 16.7443V17.4205C520.532 17.9972 520.631 18.486 520.83 18.8871C521.032 19.2848 521.312 19.5881 521.67 19.7969C522.028 20.0024 522.444 20.1051 522.918 20.1051C523.226 20.1051 523.505 20.062 523.753 19.9759C524.005 19.8864 524.222 19.7538 524.405 19.5781C524.587 19.3991 524.728 19.1771 524.827 18.9119L525.961 19.2301C525.841 19.6146 525.641 19.9527 525.359 20.2443C525.077 20.5327 524.729 20.758 524.315 20.9205C523.901 21.0795 523.435 21.1591 522.918 21.1591ZM528.535 13.3636L530.364 16.4858L532.194 13.3636H533.546L531.08 17.1818L533.546 21H532.194L530.364 18.0369L528.535 21H527.183L529.609 17.1818L527.183 13.3636H528.535ZM538.541 13.3636V14.358H534.584V13.3636H538.541ZM535.737 11.5341H536.911V18.8125C536.911 19.1439 536.959 19.3925 537.055 19.5582C537.154 19.7206 537.28 19.83 537.433 19.8864C537.588 19.9394 537.753 19.9659 537.925 19.9659C538.054 19.9659 538.16 19.9593 538.243 19.946C538.326 19.9295 538.392 19.9162 538.442 19.9062L538.681 20.9602C538.601 20.9901 538.49 21.0199 538.347 21.0497C538.205 21.0829 538.024 21.0994 537.806 21.0994C537.474 21.0994 537.149 21.0282 536.831 20.8857C536.516 20.7431 536.254 20.526 536.046 20.2344C535.84 19.9427 535.737 19.5748 535.737 19.1307V11.5341Z" fill="black"/>
<path d="M661.444 11.9119V10.8182H669.08V11.9119H665.878V21H664.645V11.9119H661.444ZM672.918 21.1591C672.182 21.1591 671.548 20.9967 671.014 20.6719C670.484 20.3438 670.074 19.8864 669.786 19.2997C669.501 18.7098 669.358 18.0237 669.358 17.2415C669.358 16.4593 669.501 15.7699 669.786 15.1733C670.074 14.5734 670.475 14.1061 670.989 13.7713C671.506 13.4332 672.109 13.2642 672.799 13.2642C673.197 13.2642 673.589 13.3305 673.977 13.4631C674.365 13.5956 674.718 13.8111 675.036 14.1094C675.354 14.4044 675.608 14.7955 675.797 15.2827C675.986 15.7699 676.08 16.3698 676.08 17.0824V17.5795H670.194V16.5653H674.887C674.887 16.1345 674.801 15.75 674.628 15.4119C674.459 15.0739 674.217 14.8071 673.903 14.6115C673.591 14.416 673.223 14.3182 672.799 14.3182C672.331 14.3182 671.927 14.4342 671.586 14.6662C671.248 14.8949 670.988 15.1932 670.805 15.5611C670.623 15.929 670.532 16.3234 670.532 16.7443V17.4205C670.532 17.9972 670.631 18.486 670.83 18.8871C671.032 19.2848 671.312 19.5881 671.67 19.7969C672.028 20.0024 672.444 20.1051 672.918 20.1051C673.226 20.1051 673.505 20.062 673.753 19.9759C674.005 19.8864 674.222 19.7538 674.405 19.5781C674.587 19.3991 674.728 19.1771 674.827 18.9119L675.961 19.2301C675.841 19.6146 675.641 19.9527 675.359 20.2443C675.077 20.5327 674.729 20.758 674.315 20.9205C673.901 21.0795 673.435 21.1591 672.918 21.1591ZM678.535 13.3636L680.364 16.4858L682.194 13.3636H683.546L681.08 17.1818L683.546 21H682.194L680.364 18.0369L678.535 21H677.183L679.609 17.1818L677.183 13.3636H678.535ZM688.541 13.3636V14.358H684.584V13.3636H688.541ZM685.737 11.5341H686.911V18.8125C686.911 19.1439 686.959 19.3925 687.055 19.5582C687.154 19.7206 687.28 19.83 687.433 19.8864C687.588 19.9394 687.753 19.9659 687.925 19.9659C688.054 19.9659 688.16 19.9593 688.243 19.946C688.326 19.9295 688.392 19.9162 688.442 19.9062L688.681 20.9602C688.601 20.9901 688.49 21.0199 688.347 21.0497C688.205 21.0829 688.024 21.0994 687.806 21.0994C687.474 21.0994 687.149 21.0282 686.831 20.8857C686.516 20.7431 686.254 20.526 686.046 20.2344C685.84 19.9427 685.737 19.5748 685.737 19.1307V11.5341Z" fill="black"/>
<path d="M811.444 11.9119V10.8182H819.08V11.9119H815.878V21H814.645V11.9119H811.444ZM822.918 21.1591C822.182 21.1591 821.548 20.9967 821.014 20.6719C820.484 20.3438 820.074 19.8864 819.786 19.2997C819.501 18.7098 819.358 18.0237 819.358 17.2415C819.358 16.4593 819.501 15.7699 819.786 15.1733C820.074 14.5734 820.475 14.1061 820.989 13.7713C821.506 13.4332 822.109 13.2642 822.799 13.2642C823.197 13.2642 823.589 13.3305 823.977 13.4631C824.365 13.5956 824.718 13.8111 825.036 14.1094C825.354 14.4044 825.608 14.7955 825.797 15.2827C825.986 15.7699 826.08 16.3698 826.08 17.0824V17.5795H820.194V16.5653H824.887C824.887 16.1345 824.801 15.75 824.628 15.4119C824.459 15.0739 824.217 14.8071 823.903 14.6115C823.591 14.416 823.223 14.3182 822.799 14.3182C822.331 14.3182 821.927 14.4342 821.586 14.6662C821.248 14.8949 820.988 15.1932 820.805 15.5611C820.623 15.929 820.532 16.3234 820.532 16.7443V17.4205C820.532 17.9972 820.631 18.486 820.83 18.8871C821.032 19.2848 821.312 19.5881 821.67 19.7969C822.028 20.0024 822.444 20.1051 822.918 20.1051C823.226 20.1051 823.505 20.062 823.753 19.9759C824.005 19.8864 824.222 19.7538 824.405 19.5781C824.587 19.3991 824.728 19.1771 824.827 18.9119L825.961 19.2301C825.841 19.6146 825.641 19.9527 825.359 20.2443C825.077 20.5327 824.729 20.758 824.315 20.9205C823.901 21.0795 823.435 21.1591 822.918 21.1591ZM828.535 13.3636L830.364 16.4858L832.194 13.3636H833.546L831.08 17.1818L833.546 21H832.194L830.364 18.0369L828.535 21H827.183L829.609 17.1818L827.183 13.3636H828.535ZM838.541 13.3636V14.358H834.584V13.3636H838.541ZM835.737 11.5341H836.911V18.8125C836.911 19.1439 836.959 19.3925 837.055 19.5582C837.154 19.7206 837.28 19.83 837.433 19.8864C837.588 19.9394 837.753 19.9659 837.925 19.9659C838.054 19.9659 838.16 19.9593 838.243 19.946C838.326 19.9295 838.392 19.9162 838.442 19.9062L838.681 20.9602C838.601 20.9901 838.49 21.0199 838.347 21.0497C838.205 21.0829 838.024 21.0994 837.806 21.0994C837.474 21.0994 837.149 21.0282 836.831 20.8857C836.516 20.7431 836.254 20.526 836.046 20.2344C835.84 19.9427 835.737 19.5748 835.737 19.1307V11.5341Z" fill="black"/>
</svg>
