<svg width="900" height="31" viewBox="0 0 900 31" fill="none" xmlns="http://www.w3.org/2000/svg">
<path d="M0 4C0 1.79086 1.79086 0 4 0H296C298.209 0 300 1.79086 300 4V27C300 29.2091 298.209 31 296 31H4C1.79086 31 0 29.2091 0 27V4Z" fill="white"/>
<path d="M136.444 11.9119V10.8182H144.08V11.9119H140.878V21H139.645V11.9119H136.444ZM147.918 21.1591C147.182 21.1591 146.548 20.9967 146.014 20.6719C145.484 20.3438 145.074 19.8864 144.786 19.2997C144.501 18.7098 144.358 18.0237 144.358 17.2415C144.358 16.4593 144.501 15.7699 144.786 15.1733C145.074 14.5734 145.475 14.1061 145.989 13.7713C146.506 13.4332 147.109 13.2642 147.799 13.2642C148.197 13.2642 148.589 13.3305 148.977 13.4631C149.365 13.5956 149.718 13.8111 150.036 14.1094C150.354 14.4044 150.608 14.7955 150.797 15.2827C150.986 15.7699 151.08 16.3698 151.08 17.0824V17.5795H145.194V16.5653H149.887C149.887 16.1345 149.801 15.75 149.628 15.4119C149.459 15.0739 149.217 14.8071 148.903 14.6115C148.591 14.416 148.223 14.3182 147.799 14.3182C147.331 14.3182 146.927 14.4342 146.586 14.6662C146.248 14.8949 145.988 15.1932 145.805 15.5611C145.623 15.929 145.532 16.3234 145.532 16.7443V17.4205C145.532 17.9972 145.631 18.486 145.83 18.8871C146.032 19.2848 146.312 19.5881 146.67 19.7969C147.028 20.0024 147.444 20.1051 147.918 20.1051C148.226 20.1051 148.505 20.062 148.753 19.9759C149.005 19.8864 149.222 19.7538 149.405 19.5781C149.587 19.3991 149.728 19.1771 149.827 18.9119L150.961 19.2301C150.841 19.6146 150.641 19.9527 150.359 20.2443C150.077 20.5327 149.729 20.758 149.315 20.9205C148.901 21.0795 148.435 21.1591 147.918 21.1591ZM153.535 13.3636L155.364 16.4858L157.194 13.3636H158.546L156.08 17.1818L158.546 21H157.194L155.364 18.0369L153.535 21H152.183L154.609 17.1818L152.183 13.3636H153.535ZM163.541 13.3636V14.358H159.584V13.3636H163.541ZM160.737 11.5341H161.911V18.8125C161.911 19.1439 161.959 19.3925 162.055 19.5582C162.154 19.7206 162.28 19.83 162.433 19.8864C162.588 19.9394 162.753 19.9659 162.925 19.9659C163.054 19.9659 163.16 19.9593 163.243 19.946C163.326 19.9295 163.392 19.9162 163.442 19.9062L163.681 20.9602C163.601 20.9901 163.49 21.0199 163.347 21.0497C163.205 21.0829 163.024 21.0994 162.806 21.0994C162.474 21.0994 162.149 21.0282 161.831 20.8857C161.516 20.7431 161.254 20.526 161.046 20.2344C160.84 19.9427 160.737 19.5748 160.737 19.1307V11.5341Z" fill="black"/>
<path d="M436.444 11.9119V10.8182H444.08V11.9119H440.878V21H439.645V11.9119H436.444ZM447.918 21.1591C447.182 21.1591 446.548 20.9967 446.014 20.6719C445.484 20.3438 445.074 19.8864 444.786 19.2997C444.501 18.7098 444.358 18.0237 444.358 17.2415C444.358 16.4593 444.501 15.7699 444.786 15.1733C445.074 14.5734 445.475 14.1061 445.989 13.7713C446.506 13.4332 447.109 13.2642 447.799 13.2642C448.197 13.2642 448.589 13.3305 448.977 13.4631C449.365 13.5956 449.718 13.8111 450.036 14.1094C450.354 14.4044 450.608 14.7955 450.797 15.2827C450.986 15.7699 451.08 16.3698 451.08 17.0824V17.5795H445.194V16.5653H449.887C449.887 16.1345 449.801 15.75 449.628 15.4119C449.459 15.0739 449.217 14.8071 448.903 14.6115C448.591 14.416 448.223 14.3182 447.799 14.3182C447.331 14.3182 446.927 14.4342 446.586 14.6662C446.248 14.8949 445.988 15.1932 445.805 15.5611C445.623 15.929 445.532 16.3234 445.532 16.7443V17.4205C445.532 17.9972 445.631 18.486 445.83 18.8871C446.032 19.2848 446.312 19.5881 446.67 19.7969C447.028 20.0024 447.444 20.1051 447.918 20.1051C448.226 20.1051 448.505 20.062 448.753 19.9759C449.005 19.8864 449.222 19.7538 449.405 19.5781C449.587 19.3991 449.728 19.1771 449.827 18.9119L450.961 19.2301C450.841 19.6146 450.641 19.9527 450.359 20.2443C450.077 20.5327 449.729 20.758 449.315 20.9205C448.901 21.0795 448.435 21.1591 447.918 21.1591ZM453.535 13.3636L455.364 16.4858L457.194 13.3636H458.546L456.08 17.1818L458.546 21H457.194L455.364 18.0369L453.535 21H452.183L454.609 17.1818L452.183 13.3636H453.535ZM463.541 13.3636V14.358H459.584V13.3636H463.541ZM460.737 11.5341H461.911V18.8125C461.911 19.1439 461.959 19.3925 462.055 19.5582C462.154 19.7206 462.28 19.83 462.433 19.8864C462.588 19.9394 462.753 19.9659 462.925 19.9659C463.054 19.9659 463.16 19.9593 463.243 19.946C463.326 19.9295 463.392 19.9162 463.442 19.9062L463.681 20.9602C463.601 20.9901 463.49 21.0199 463.347 21.0497C463.205 21.0829 463.024 21.0994 462.806 21.0994C462.474 21.0994 462.149 21.0282 461.831 20.8857C461.516 20.7431 461.254 20.526 461.046 20.2344C460.84 19.9427 460.737 19.5748 460.737 19.1307V11.5341Z" fill="black"/>
<path d="M736.444 11.9119V10.8182H744.08V11.9119H740.878V21H739.645V11.9119H736.444ZM747.918 21.1591C747.182 21.1591 746.548 20.9967 746.014 20.6719C745.484 20.3438 745.074 19.8864 744.786 19.2997C744.501 18.7098 744.358 18.0237 744.358 17.2415C744.358 16.4593 744.501 15.7699 744.786 15.1733C745.074 14.5734 745.475 14.1061 745.989 13.7713C746.506 13.4332 747.109 13.2642 747.799 13.2642C748.197 13.2642 748.589 13.3305 748.977 13.4631C749.365 13.5956 749.718 13.8111 750.036 14.1094C750.354 14.4044 750.608 14.7955 750.797 15.2827C750.986 15.7699 751.08 16.3698 751.08 17.0824V17.5795H745.194V16.5653H749.887C749.887 16.1345 749.801 15.75 749.628 15.4119C749.459 15.0739 749.217 14.8071 748.903 14.6115C748.591 14.416 748.223 14.3182 747.799 14.3182C747.331 14.3182 746.927 14.4342 746.586 14.6662C746.248 14.8949 745.988 15.1932 745.805 15.5611C745.623 15.929 745.532 16.3234 745.532 16.7443V17.4205C745.532 17.9972 745.631 18.486 745.83 18.8871C746.032 19.2848 746.312 19.5881 746.67 19.7969C747.028 20.0024 747.444 20.1051 747.918 20.1051C748.226 20.1051 748.505 20.062 748.753 19.9759C749.005 19.8864 749.222 19.7538 749.405 19.5781C749.587 19.3991 749.728 19.1771 749.827 18.9119L750.961 19.2301C750.841 19.6146 750.641 19.9527 750.359 20.2443C750.077 20.5327 749.729 20.758 749.315 20.9205C748.901 21.0795 748.435 21.1591 747.918 21.1591ZM753.535 13.3636L755.364 16.4858L757.194 13.3636H758.546L756.08 17.1818L758.546 21H757.194L755.364 18.0369L753.535 21H752.183L754.609 17.1818L752.183 13.3636H753.535ZM763.541 13.3636V14.358H759.584V13.3636H763.541ZM760.737 11.5341H761.911V18.8125C761.911 19.1439 761.959 19.3925 762.055 19.5582C762.154 19.7206 762.28 19.83 762.433 19.8864C762.588 19.9394 762.753 19.9659 762.925 19.9659C763.054 19.9659 763.16 19.9593 763.243 19.946C763.326 19.9295 763.392 19.9162 763.442 19.9062L763.681 20.9602C763.601 20.9901 763.49 21.0199 763.347 21.0497C763.205 21.0829 763.024 21.0994 762.806 21.0994C762.474 21.0994 762.149 21.0282 761.831 20.8857C761.516 20.7431 761.254 20.526 761.046 20.2344C760.84 19.9427 760.737 19.5748 760.737 19.1307V11.5341Z" fill="black"/>
</svg>
