<svg width="900" height="31" viewBox="0 0 900 31" fill="none" xmlns="http://www.w3.org/2000/svg">
<path d="M0 4C0 1.79086 1.79086 0 4 0H446C448.209 0 450 1.79086 450 4V27C450 29.2091 448.209 31 446 31H4.00001C1.79087 31 0 29.2091 0 27V4Z" fill="white"/>
<path d="M211.444 11.9119V10.8182H219.08V11.9119H215.878V21H214.645V11.9119H211.444ZM222.918 21.1591C222.182 21.1591 221.548 20.9967 221.014 20.6719C220.484 20.3438 220.074 19.8864 219.786 19.2997C219.501 18.7098 219.358 18.0237 219.358 17.2415C219.358 16.4593 219.501 15.7699 219.786 15.1733C220.074 14.5734 220.475 14.1061 220.989 13.7713C221.506 13.4332 222.109 13.2642 222.799 13.2642C223.197 13.2642 223.589 13.3305 223.977 13.4631C224.365 13.5956 224.718 13.8111 225.036 14.1094C225.354 14.4044 225.608 14.7955 225.797 15.2827C225.986 15.7699 226.08 16.3698 226.08 17.0824V17.5795H220.194V16.5653H224.887C224.887 16.1345 224.801 15.75 224.628 15.4119C224.459 15.0739 224.217 14.8071 223.903 14.6115C223.591 14.416 223.223 14.3182 222.799 14.3182C222.331 14.3182 221.927 14.4342 221.586 14.6662C221.248 14.8949 220.988 15.1932 220.805 15.5611C220.623 15.929 220.532 16.3234 220.532 16.7443V17.4205C220.532 17.9972 220.631 18.486 220.83 18.8871C221.032 19.2848 221.312 19.5881 221.67 19.7969C222.028 20.0024 222.444 20.1051 222.918 20.1051C223.226 20.1051 223.505 20.062 223.753 19.9759C224.005 19.8864 224.222 19.7538 224.405 19.5781C224.587 19.3991 224.728 19.1771 224.827 18.9119L225.961 19.2301C225.841 19.6146 225.641 19.9527 225.359 20.2443C225.077 20.5327 224.729 20.758 224.315 20.9205C223.901 21.0795 223.435 21.1591 222.918 21.1591ZM228.535 13.3636L230.364 16.4858L232.194 13.3636H233.546L231.08 17.1818L233.546 21H232.194L230.364 18.0369L228.535 21H227.183L229.609 17.1818L227.183 13.3636H228.535ZM238.541 13.3636V14.358H234.584V13.3636H238.541ZM235.737 11.5341H236.911V18.8125C236.911 19.1439 236.959 19.3925 237.055 19.5582C237.154 19.7206 237.28 19.83 237.433 19.8864C237.588 19.9394 237.753 19.9659 237.925 19.9659C238.054 19.9659 238.16 19.9593 238.243 19.946C238.326 19.9295 238.392 19.9162 238.442 19.9062L238.681 20.9602C238.601 20.9901 238.49 21.0199 238.347 21.0497C238.205 21.0829 238.024 21.0994 237.806 21.0994C237.474 21.0994 237.149 21.0282 236.831 20.8857C236.516 20.7431 236.254 20.526 236.046 20.2344C235.84 19.9427 235.737 19.5748 235.737 19.1307V11.5341Z" fill="black"/>
<path d="M661.444 11.9119V10.8182H669.08V11.9119H665.878V21H664.645V11.9119H661.444ZM672.918 21.1591C672.182 21.1591 671.548 20.9967 671.014 20.6719C670.484 20.3438 670.074 19.8864 669.786 19.2997C669.501 18.7098 669.358 18.0237 669.358 17.2415C669.358 16.4593 669.501 15.7699 669.786 15.1733C670.074 14.5734 670.475 14.1061 670.989 13.7713C671.506 13.4332 672.109 13.2642 672.799 13.2642C673.197 13.2642 673.589 13.3305 673.977 13.4631C674.365 13.5956 674.718 13.8111 675.036 14.1094C675.354 14.4044 675.608 14.7955 675.797 15.2827C675.986 15.7699 676.08 16.3698 676.08 17.0824V17.5795H670.194V16.5653H674.887C674.887 16.1345 674.801 15.75 674.628 15.4119C674.459 15.0739 674.217 14.8071 673.903 14.6115C673.591 14.416 673.223 14.3182 672.799 14.3182C672.331 14.3182 671.927 14.4342 671.586 14.6662C671.248 14.8949 670.988 15.1932 670.805 15.5611C670.623 15.929 670.532 16.3234 670.532 16.7443V17.4205C670.532 17.9972 670.631 18.486 670.83 18.8871C671.032 19.2848 671.312 19.5881 671.67 19.7969C672.028 20.0024 672.444 20.1051 672.918 20.1051C673.226 20.1051 673.505 20.062 673.753 19.9759C674.005 19.8864 674.222 19.7538 674.405 19.5781C674.587 19.3991 674.728 19.1771 674.827 18.9119L675.961 19.2301C675.841 19.6146 675.641 19.9527 675.359 20.2443C675.077 20.5327 674.729 20.758 674.315 20.9205C673.901 21.0795 673.435 21.1591 672.918 21.1591ZM678.535 13.3636L680.364 16.4858L682.194 13.3636H683.546L681.08 17.1818L683.546 21H682.194L680.364 18.0369L678.535 21H677.183L679.609 17.1818L677.183 13.3636H678.535ZM688.541 13.3636V14.358H684.584V13.3636H688.541ZM685.737 11.5341H686.911V18.8125C686.911 19.1439 686.959 19.3925 687.055 19.5582C687.154 19.7206 687.28 19.83 687.433 19.8864C687.588 19.9394 687.753 19.9659 687.925 19.9659C688.054 19.9659 688.16 19.9593 688.243 19.946C688.326 19.9295 688.392 19.9162 688.442 19.9062L688.681 20.9602C688.601 20.9901 688.49 21.0199 688.347 21.0497C688.205 21.0829 688.024 21.0994 687.806 21.0994C687.474 21.0994 687.149 21.0282 686.831 20.8857C686.516 20.7431 686.254 20.526 686.046 20.2344C685.84 19.9427 685.737 19.5748 685.737 19.1307V11.5341Z" fill="black"/>
</svg>
