<svg width="1320" height="760" viewBox="0 0 1320 760" fill="none" xmlns="http://www.w3.org/2000/svg">
<g filter="url(#filter0_d_2_1043)">
<rect x="20" y="8" width="1280" height="720" rx="10" fill="#F8F8F8" fill-opacity="0.01" shape-rendering="crispEdges"/>
</g>
<g filter="url(#filter1_b_2_1043)">
<rect x="20" y="8" width="1280" height="720" rx="6" fill="#F8F8F8" fill-opacity="0.9"/>
</g>
<path d="M43.8295 48H41.6136L48.0227 30.5455H50.2045L56.6136 48H54.3977L49.1818 33.3068H49.0455L43.8295 48ZM44.6477 41.1818H53.5795V43.0568H44.6477V41.1818ZM59.0597 52.9091V34.9091H61.0028V36.9886H61.2415C61.3892 36.7614 61.5938 36.4716 61.8551 36.1193C62.1222 35.7614 62.5028 35.4432 62.9972 35.1648C63.4972 34.8807 64.1733 34.7386 65.0256 34.7386C66.1278 34.7386 67.0994 35.0142 67.9403 35.5653C68.7813 36.1165 69.4375 36.8977 69.9091 37.9091C70.3807 38.9205 70.6165 40.1136 70.6165 41.4886C70.6165 42.875 70.3807 44.0767 69.9091 45.0938C69.4375 46.1051 68.7841 46.8892 67.9489 47.446C67.1136 47.9972 66.1506 48.2727 65.0597 48.2727C64.2188 48.2727 63.5455 48.1335 63.0398 47.8551C62.5341 47.571 62.1449 47.25 61.8722 46.892C61.5994 46.5284 61.3892 46.2273 61.2415 45.9886H61.071V52.9091H59.0597ZM61.0369 41.4545C61.0369 42.4432 61.1818 43.3153 61.4716 44.071C61.7614 44.821 62.1847 45.4091 62.7415 45.8352C63.2983 46.2557 63.9801 46.4659 64.7869 46.4659C65.6278 46.4659 66.3295 46.2443 66.892 45.8011C67.4602 45.3523 67.8864 44.75 68.1705 43.9943C68.4602 43.233 68.6051 42.3864 68.6051 41.4545C68.6051 40.5341 68.4631 39.7045 68.179 38.9659C67.9006 38.2216 67.4773 37.6335 66.9091 37.2017C66.3466 36.7642 65.6392 36.5455 64.7869 36.5455C63.9688 36.5455 63.2813 36.7528 62.7244 37.1676C62.1676 37.5767 61.7472 38.1506 61.4631 38.8892C61.179 39.6222 61.0369 40.4773 61.0369 41.4545ZM73.6847 52.9091V34.9091H75.6278V36.9886H75.8665C76.0142 36.7614 76.2188 36.4716 76.4801 36.1193C76.7472 35.7614 77.1278 35.4432 77.6222 35.1648C78.1222 34.8807 78.7983 34.7386 79.6506 34.7386C80.7528 34.7386 81.7244 35.0142 82.5653 35.5653C83.4063 36.1165 84.0625 36.8977 84.5341 37.9091C85.0057 38.9205 85.2415 40.1136 85.2415 41.4886C85.2415 42.875 85.0057 44.0767 84.5341 45.0938C84.0625 46.1051 83.4091 46.8892 82.5739 47.446C81.7386 47.9972 80.7756 48.2727 79.6847 48.2727C78.8438 48.2727 78.1705 48.1335 77.6648 47.8551C77.1591 47.571 76.7699 47.25 76.4972 46.892C76.2244 46.5284 76.0142 46.2273 75.8665 45.9886H75.696V52.9091H73.6847ZM75.6619 41.4545C75.6619 42.4432 75.8068 43.3153 76.0966 44.071C76.3864 44.821 76.8097 45.4091 77.3665 45.8352C77.9233 46.2557 78.6051 46.4659 79.4119 46.4659C80.2528 46.4659 80.9545 46.2443 81.517 45.8011C82.0852 45.3523 82.5114 44.75 82.7955 43.9943C83.0852 43.233 83.2301 42.3864 83.2301 41.4545C83.2301 40.5341 83.0881 39.7045 82.804 38.9659C82.5256 38.2216 82.1023 37.6335 81.5341 37.2017C80.9716 36.7642 80.2642 36.5455 79.4119 36.5455C78.5938 36.5455 77.9063 36.7528 77.3494 37.1676C76.7926 37.5767 76.3722 38.1506 76.0881 38.8892C75.804 39.6222 75.6619 40.4773 75.6619 41.4545Z" fill="black"/>
<path d="M1258.22 32.4618L1258.33 32.3339C1258.74 31.9292 1259.37 31.8924 1259.82 32.2235L1259.95 32.3339L1267.5 39.8873L1275.05 32.3339C1275.46 31.9292 1276.09 31.8924 1276.54 32.2235L1276.67 32.3339C1277.07 32.7386 1277.11 33.372 1276.78 33.8182L1276.67 33.9461L1269.11 41.5L1276.67 49.0539C1277.07 49.4586 1277.11 50.092 1276.78 50.5382L1276.67 50.6661C1276.26 51.0708 1275.63 51.1076 1275.18 50.7765L1275.05 50.6661L1267.5 43.1127L1259.95 50.6661C1259.54 51.0708 1258.91 51.1076 1258.46 50.7765L1258.33 50.6661C1257.93 50.2614 1257.89 49.628 1258.22 49.1818L1258.33 49.0539L1265.89 41.5L1258.33 33.9461C1257.93 33.5414 1257.89 32.908 1258.22 32.4618L1258.33 32.3339L1258.22 32.4618Z" fill="#FF0000"/>
<path fill-rule="evenodd" clip-rule="evenodd" d="M1220.49 33.8689C1220.15 33.8689 1219.87 34.1478 1219.87 34.4918L1219.87 43.8361C1219.87 44.3521 1219.45 44.7705 1218.93 44.7705C1218.42 44.7705 1218 44.3521 1218 43.8361L1218 34.4918C1218 33.1156 1219.12 32 1220.49 32L1229.84 32C1230.35 32 1230.77 32.4184 1230.77 32.9344C1230.77 33.4505 1230.35 33.8689 1229.84 33.8689L1220.49 33.8689Z" fill="black"/>
<path fill-rule="evenodd" clip-rule="evenodd" d="M1234.51 49.1311C1234.85 49.1311 1235.13 48.8522 1235.13 48.5082L1235.13 39.1639C1235.13 38.6479 1235.55 38.2295 1236.07 38.2295C1236.58 38.2295 1237 38.6479 1237 39.1639L1237 48.5082C1237 49.8844 1235.88 51 1234.51 51H1225.16C1224.65 51 1224.23 50.5816 1224.23 50.0656C1224.23 49.5495 1224.65 49.1311 1225.16 49.1311H1234.51Z" fill="black"/>
<rect x="1178" y="41" width="19" height="2" rx="1" fill="#212121"/>
<mask id="path-7-inside-1_2_1043" fill="white">
<path d="M211 77C211 73.6863 213.686 71 217 71H1300V722C1300 725.314 1297.31 728 1294 728H211V77Z"/>
</mask>
<path d="M211 77C211 73.6863 213.686 71 217 71H1300V722C1300 725.314 1297.31 728 1294 728H211V77Z" fill="white"/>
<path d="M208 77C208 72.0294 212.029 68 217 68H1300V74H217C215.343 74 214 75.3431 214 77H208ZM1300 728H211H1300ZM208 728V77C208 72.0294 212.029 68 217 68V74C215.343 74 214 75.3431 214 77V728H208ZM1300 71V728V71Z" fill="#F3F0F0" mask="url(#path-7-inside-1_2_1043)"/>
<defs>
<filter id="filter0_d_2_1043" x="0" y="0" width="1320" height="760" filterUnits="userSpaceOnUse" color-interpolation-filters="sRGB">
<feFlood flood-opacity="0" result="BackgroundImageFix"/>
<feColorMatrix in="SourceAlpha" type="matrix" values="0 0 0 0 0 0 0 0 0 0 0 0 0 0 0 0 0 0 127 0" result="hardAlpha"/>
<feOffset dy="12"/>
<feGaussianBlur stdDeviation="10"/>
<feComposite in2="hardAlpha" operator="out"/>
<feColorMatrix type="matrix" values="0 0 0 0 0 0 0 0 0 0 0 0 0 0 0 0 0 0 0.25 0"/>
<feBlend mode="normal" in2="BackgroundImageFix" result="effect1_dropShadow_2_1043"/>
<feBlend mode="normal" in="SourceGraphic" in2="effect1_dropShadow_2_1043" result="shape"/>
</filter>
<filter id="filter1_b_2_1043" x="-80" y="-92" width="1480" height="920" filterUnits="userSpaceOnUse" color-interpolation-filters="sRGB">
<feFlood flood-opacity="0" result="BackgroundImageFix"/>
<feGaussianBlur in="BackgroundImageFix" stdDeviation="50"/>
<feComposite in2="SourceAlpha" operator="in" result="effect1_backgroundBlur_2_1043"/>
<feBlend mode="normal" in="SourceGraphic" in2="effect1_backgroundBlur_2_1043" result="shape"/>
</filter>
</defs>
</svg>
